<?xml version="1.0" encoding="UTF-8"?>
<svg id="Lag_2" data-name="Lag 2" xmlns="http://www.w3.org/2000/svg" viewBox="0 0 166.65 181.28">
  <g id="Lag_1-2" data-name="Lag 1">
    <path d="M146.15,93.97c-7.14,1.71-5.71-3.6-10.01-6.98-2.67-2.1-18.01-13.25-19.91-12.35-22.77,38.46-58.84,66.57-79.66,106.64-6.03-3.09-10.22-8.1-16.29-11.71-6.79-4.04-25.97-8.28-18.63-17.65,3.26-4.16,18.61-14.32,24.25-19.74,14.65-14.06,32.63-30.85,46.24-45.66,2.8-3.05,22.17-24.57,20.23-26.89-2.8-.75-27.34-2.31-22.98-8.18C103.67,42.08,135.17,23.11,161.79.07c2.01-.5,4.33,1.63,4.8,3.26,1.02,3.51-11.25,32.71-13.19,40.61-3.87,15.76-6.14,33.8-7.26,50.03ZM142.2,83.94c2.18-14.62,3.98-29.59,7.22-44.03,1.73-7.71,6.23-15.45,7.16-22.97.34-2.71.2-3.8-2.88-2.89-3.88,1.14-17.1,12.2-22.52,15.44-12.36,7.4-25.2,15.04-38.74,20.17-1.58,6.79,5.9,3.27,9.97,4.04,5.47,5.6-19.97,27.03-24.09,31.44-15.43,16.55-30.2,29.21-45.7,44.81-3.03,3.05-23.05,24.23-22.77,25.93l25.83,16.51c21.84-38.74,58.02-66.11,78.59-105.76l27.92,17.31Z"/>
  </g>
</svg>