<?xml version="1.0" encoding="UTF-8"?>
<svg id="Lag_2" data-name="Lag 2" xmlns="http://www.w3.org/2000/svg" viewBox="0 0 93.77 248.25">
  <g id="Lag_1-2" data-name="Lag 1">
    <path d="M35.1,224.55C-10.87,178.82-6.74,119.23,19.18,62.98,29.51,40.55,47.91,25.67,54.21,1.87c14.48-6.47,27.44,4.75,24.96,20.22-10.76-3.41-25.64,17.8-28.63,26.37-8.44,24.21-1.17,64.27,5.31,89.05,5.4,20.61,16.75,55.21,25.13,74.56,2.39,5.51,12.88,20.34,12.78,23.17s-7.89,10.86-10.08,11.85c-12.71,5.77-29.73-11.48-41.73-14.37-3.59-1.59-4.4-5.72-6.86-8.16ZM79.43,241.71c.59-.33,6.3-10.66,6.02-12.23-6.06-9.78-10.65-20.61-14.43-31.43-14.79-42.32-32.56-91.29-27.21-136.77l8.33-35.36c-4.41,2.68-7.08,13.13-9.68,15.37-15.56,13.39-18.09,16.91-25.73,37.32C-6.82,141.48-3.02,198.83,57.72,235.03c2.63,1.57,4.05,3.98,8.07,2.95-5.42-11.53-14.59-19.17-19.35-31.56-9.94-25.89-23.42-100.93-16.23-126.32,1-3.53-.6-5.2,4.59-4.29-2,8.17-4.25,16.34-4.23,24.87.06,27.48,10.94,87.54,24.54,111.09,3.3,5.71,14.44,17.1,15.76,20.32.78,1.91-2.4,15.79,8.56,9.62ZM57.23,11.93c7.33.01,7.37-5.9.04-5.98l-.04,5.98Z"/>
  </g>
</svg>