<?xml version="1.0" encoding="UTF-8"?>
<svg id="Lag_2" data-name="Lag 2" xmlns="http://www.w3.org/2000/svg" viewBox="0 0 105.97 185.22">
  <g id="Lag_1-2" data-name="Lag 1">
    <path d="M26.6,15.22c-10.96-.31,5.62,16.56.9,21.99l-10.04-16.03-10.88,5.9C1.93,17.68,12.61,10.19,8.79,1.18c3.83-4.55,18.17,5.26,21.28,8.64,5.81,6.33,10.71,23.57,18.58,28.37,14.08,8.57,34.01-4.33,44.97,9.35,4.44,5.54.17,6.99,1.04,12.6,1.09,7,9.07,19.09,10.61,29.46,3.8,25.52-7.55,90.54-39.23,95.52-10.28,1.61-31.69-18.37-39.37-25.86C11.82,144.78-.73,132.27.03,110.08c.24-7.04.08-17.7.58-23.58,1.7-19.84,16.96-25.5,31.14-34.13-4.36-12.84,1.89-24.65-5.15-37.16ZM54.27,174.71c20.03,12.85,35.9-15.57,40.57-31.05,7.51-24.89,10.81-58.73-4.04-81.5-6.66-10.21-9.62-1.16-15.34-.84-4.24.24-11.61-3.65-17.11-1.92,3.43,28.39-10.15,22.06-26.78,9.98-37.75,31.7-31.25,54.9,1.13,85.92,3.85,3.68,18.4,17.37,21.58,19.41ZM52.25,73.37c1.12-8.08-3.36-15.17,2.16-21.97-7.03-1-13.55,1.94-19.42,5.47-4.57,2.75-15.76,11.66-13.73,16.29,5.16-5.04,10.11-6.28,12.09-13.9,5.44,7.61,9.51,11.74,18.9,14.11ZM10.19,81.09c.59-.62,2.56-8.89,2.07-9.96-2.65-1.12-4.78,8.3-4.02,9.95.65-.1,1.69.28,1.96,0Z"/>
  </g>
</svg>