<?xml version="1.0" encoding="UTF-8"?>
<svg id="Lag_2" data-name="Lag 2" xmlns="http://www.w3.org/2000/svg" viewBox="0 0 187.81 225.26">
  <g id="Lag_1-2" data-name="Lag 1">
    <path d="M149.79,50.68l-3.7-27.12-6.08-2.94-2.02,5.99c-3.5-13.26-9.44-16.98-22.2-11.31-3.29,1.46-3.46,3.85-4.29,4.38-2.94,1.88-8.04.25-10.65,8.6-5.48,17.51-.16,35.84,19.81,38.27,13.36,1.63,13.95.36,21.44-8.57,1.49-1.78,3.99-6.42,3.64-.35-23.76,33.09-61.17,4.73-51.69-29.7,10.83-11.91,22.97-32.79,42.65-26.91,10.39,3.11,17.18,39.13,13.1,49.66ZM140.05,10.63c.54-7.03-6.6-6.32-11.94-6.05,1.57,4.94,8.1,3.58,11.94,6.05Z"/>
    <path d="M158.46,123.57c-.5-.74-3.05-.74-3.2-2.12-1.34-12.24,18.15-18.88,28.06-9.44,13.24,12.61-5.16,40.7-24.86,11.56ZM168.67,116.08c-2.91,2.91-7.36,2-4.36,8.71,1.61,3.59,11.06,9.06,14.96,7.2,9.45-4.51,1.73-21.59-6.91-20.93-1.3.1-2.4,3.73-3.7,5.03Z"/>
    <path d="M33.77,57.94l2.04-7.96-9.99,1.96,7.94,8c-18.08,3.35-22.76-34.98-5.85-27.01,6.59,3.11,20.1,22.93,5.87,25.01ZM33.81,44.96c.02-3.78-9.9-3.84-9.92-.06s9.9,3.84,9.92.06Z"/>
    <path d="M1.18,219.35c-2.87-5.03-.47-16.73,7.05-17.24,2.78-.19,15.86,10.39,15.85,14.79-.89,12.76-19.33,8.69-22.9,2.45ZM18.73,219.85c.13-6.68-6.3-8.84-11.93-8.05-.13,6.68,6.3,8.84,11.93,8.05Z"/>
    <path d="M73.19,166.07c-2.51-4.03,5.05-9.44,8.01-10.76,12.99-5.8,9.49,20.91-8.01,10.76Z"/>
    <path d="M27.21,149.91l-1.78-10.67,6.88-5.16c7.19,5.4,5.27,16.77-5.1,15.83Z"/>
  </g>
</svg>