<?xml version="1.0" encoding="UTF-8"?>
<svg id="Lag_2" data-name="Lag 2" xmlns="http://www.w3.org/2000/svg" viewBox="0 0 168.12 157.57">
  <g id="Lag_1-2" data-name="Lag 1">
    <path d="M165.83,105.72l-.84-19.98c-3.83,6.02-3.75,11.79-7.49,18.58-4.62,8.38-13.94,16.52-19.78,24.25,2.12,3.38,4.39-.81,5.98-2,6.87-5.16,11.98-9.93,17.14-16.86,2.84,2.31-1.61,7.04-3.11,8.93-10.91,13.82-44.06,33.79-61.41,36.44-24.12,3.68-53.41,5.54-72.74-11.23C.18,123.55-3.92,91.71,3.11,62.69c3.92-16.21,12.8-39.17,29.31-45.78C13.02,35.47.45,68.16,4.5,95.19c.54,3.59.44,9.07,5.36,7.55.04-3.47-.32-7.08.55-10.51,4.74-18.51,11.45-40.6,21.82-56.4,1.68-2.56,1.5-5.94,6.1-4.88-23.75,38.13-51.36,112.46,18.02,117.38,36.91,2.62,79.8-10.31,97.89-45.29,14.11-27.28-2.09-45.05-16.73-65.69-1.86-2.62-2.07-6.7-4.23-9.74C118.46,6.74,77.15-2.3,55.47,11.06l3.02-5.98-24.06,9.81c2.31-4.49,8.63-7.89,13.01-9.96,22.82-10.78,63.19-2.95,82.06,14.5,19.59,18.11,46.73,59,36.34,86.29Z"/>
    <path d="M71.73,121.14c-2.84,2.54-3.77-.19-4.03-3.05-.65-7.09,3.82-15.3,2.21-22.94-21.86,8.1-40.68-8.77-31.59-31.02,3.47-8.48,16.8-18.9,23.85-9.06-30.06-6.69-27.8,40.11-2,38.94,12.32-.56,11.01-6.91,7.79-16.83l-15.93,2.86c32.07-28.17,20.55,23.69,19.71,41.11Z"/>
    <path d="M102.01,81.33c.72-1.21,4.43-14.3,3.2-16.06-2.96-4.23-12.19.02-16.66.39-3.49,7.82-5.93,20.65,4.46,23.1,1.6-1.96,8.33-6.31,9-7.44-1.79,2.69-1.97,8.21-7.52,9.66-21.91,5.72-14.14-45.6,12.76-29.76,4.01,10.73-.85,13.49-5.25,20.1Z"/>
    <path d="M118.05,71.44c-6.1-1.48-6.89-25.03-5.81-26.05l5.99.07c-5,8.58.49,16.94-.18,25.98Z"/>
    <path d="M42.38,24.95c-1.35-3.4,7.12-14.57,10.06-11.92l-10.06,11.92Z"/>
    <polygon points="121.7 95.2 115.92 95.4 118.18 89.69 123.96 89.49 121.7 95.2"/>
  </g>
</svg>