<?xml version="1.0" encoding="UTF-8"?>
<svg id="Lag_2" data-name="Lag 2" xmlns="http://www.w3.org/2000/svg" viewBox="0 0 133.18 136.32">
  <g id="Lag_1-2" data-name="Lag 1">
    <path d="M13.75,25.06C47.22-17.01,127.12-5.75,132.87,56.16c5.42,58.33-60.65,101.29-110.33,69.19C-6.17,106.8-5.58,49.35,13.75,25.06ZM21.78,23.12C-1.8,47.47-2.62,101.92,28.18,121.77c50.11,32.29,111.83-17.8,96.65-75.56C112.75.22,52.42-8.52,21.78,23.12Z"/>
    <path d="M104.76,66.87c-9.45,3.42-19.75,10.86-27.88,17.08-4.5,3.45-30.4,28.72-34.31,24.61l4.58-91.96c2.23-2.35,26.47,14.54,29.69,17.38,5.08,4.48,10.17,13.95,15.08,18.9,4.68,4.72,14.62,5.68,12.84,13.99ZM94.81,66.86c-8.67-17.21-22.91-33.79-41.71-40.22-.93,9.32-10.24,66.84-4.52,71.02,8.46,1.38,14.11-9.09,20.3-13.76,7.85-5.93,17.24-12.44,25.93-17.04Z"/>
  </g>
</svg>