<?xml version="1.0" encoding="UTF-8"?>
<svg id="Lag_2" data-name="Lag 2" xmlns="http://www.w3.org/2000/svg" viewBox="0 0 821.55 228.88">
  <g id="Lag_1-2" data-name="Lag 1">
    <path d="M748.32,126.21c-3.37-12.08-16.72,10.8-19.07,10.84l-4.95-21.91c-6.94.9-27.43,1.99-29.65,9.14-.74,2.39-.69,4.75-.01,7.15,2.25,7.9,11.86,4.64,11.55,11.51-11.57-1.54-18.12-7.78-15.87-20.1l-30.02,6.84c-4.32,2.84,5.28,16.74,7.83,19.51,3.24,3.51,8.49,3.73,9.98,7.57-14.55,1.74-18.73-14.69-24.97-24.23-43,12.98-89.85,21.99-134.34,28.95-69.43,10.86-139.96,15.72-209.59,25.24-74.63,10.2-148.56,27.64-224.35,26.35-9.01-.15-17.44-7.84-25.14-3.13l5.92,18.94c-10.97-1.24-5.89-16.7-11.91-23-3.99-4.19-25.6-10.44-33.23-14.89-6.8-3.96-14.74-11-20.51-16.49,3.78-.6,5.85.29,9.05,1.98,5.97,3.16,15.64,13.09,22.4,16.04,6.21,2.72,15.66,3.61,22.39,6.29.77-.83-1.39-12.34-2.05-14.47-.51-1.64-3.78-1.6-3.83-2.74-.16-4,3.96-11.71,2.24-17.72l-6.12-1.13.02-5.99c14.83.35,31.08-8.44,33.66,12.79-4.52,8.44-13.34,9.17-21.58,11.5-.94,19.24,3.94,25.32,22.77,27.76,42.07,5.46,81.67-5.58,122.04-10.92,77.13-10.21,154.93-18.61,232.03-28.7,55.36-7.24,110.73-14.82,165.2-26.95-8.75-17.18,3.42-38.11,23.32-29.96l.78,16.13c29.92-1.9,20.46-31.87,26.85-50.3,2.39-6.9,10.54-16.56,9.46-2.51-.5,6.4-8.42,29.18-5.96,32.78l33.75,7.44-32-1.19,1.82,11.17c2.57,1.89,38.83-5.89,39.21-14.91l.95,5.99c6.03-1.79,25.52-2.57,27.77-9.15,1.8-5.27-1.64-11.67-1.44-17.48.31-9.03,5.17-17.8,4.02-27.16,3.58-.12,4.24-.99,3.98,2.99-.52,7.78-8.63,35.6-2.4,40.17,1.53,1.09,3.19.99,4.96.89,2.71-.16,45.13-20.11,49.18-22.83,10.08-6.75,18.28-20.36,24.32-30.7-9.3.41-16.26-8.43-24.57-12.53-29.11-14.37-78.48-27.65-110.69-33.8-30.23-5.76-60.9-4.03-91.45-5.13-1.72-.06-7.21.78-3.95-2.04,34.54-.27,67-.53,101.03,5.58,43.91,7.88,93,21.88,130.68,45.49,4.25-.1,7.32-16.92,13.02-11.49,3.77,3.59-9.01,11.84-10.13,13.41-6.45,9.07-10.07,20.29-19.13,28.39-14.34,12.82-45.21,20.94-63.03,29.78l1.77,13.83c3,2.75,22.68-22.57,23.19,5.49.16,8.59-6.39,21.64,4.59,25.68l-10,.95.2-31ZM612.27,134.35c-.58,1.57-4.8,5.39-4.04,5.95,15.43.66,29.93-5.86,44.14-10.85l-4.97-12.87c-6.35,4.98-15.28,18.92-24.03,17.86-2.62-.32-4.67-3.3-6.13-3.41s-3.49,2.91-4.97,3.31c1.57-4.23,5-21.67-2.83-20-5.83,5.21-14.74,14.78-7.89,22.1,3.69-.06,7.22-1.13,10.72-2.1ZM53.99,176.83c39.17-1.23,8.23-27.75-1.05-14.14l1.05,14.14Z"/>
    <path d="M454.84,138.77c-6.11-7.68.35-20.68-.47-21.41-6.41,1.69-29.63.69-31.84,7.08-3.37,5.24,8.85,21.79-.3,20.7l-3.92-20.02-7.98,1.95,6.27-8.94-5.93-45.04c9.61.4,5.18,14.26,5.87,21.01.4,3.94,2.2,21.07,3.72,22.2l48.12-.85c1.05,7.55-11.31,2.3-12.15,10.94-1.75,17.99,24.97,15.71,23.07-5.17-.26-2.89-6.45-13.58,2.91-7.52,9.87,6.39-12.72,43.48-27.36,25.08Z"/>
    <path d="M296.46,161.97c-1.7-6.55-1.78-14.63-3.88-20.94-1.42-4.26-8.19-1.37.71-10.66,9.65,21.73,2.58,36.7,34.83,28.17-7.79-12.95,6.85-39.25,20.22-26.86,7.09,6.57-13.64,22.68-11.37,26.97,4.67,8.8,19.81,4.01,27.09,5.12-8.65,7.62-18.22,4.66-28,1.82-2.6-.75-4.88-3.93-6.94-4.18-6.85-.85-22.74,7.52-32.66.56ZM332.16,152.56c3.89,2.99,15.63-15.85,14.09-17.88-11.11-4.32-18.03,7.99-14.09,17.88Z"/>
    <path d="M550.39,111.96c-1.25,42.37,34.16,32.23,26.05-3.82h5.98c3.26,23.27-16.7,52.51-35.14,23.84-7.43,7.33-12,15.55-21.04,4.84-3.27-3.87-12.96-25.22-10.82-29.09,1.82-3.27,3.53-1.08,4.81,1.24,4.11,7.48,1.93,18.29,10,25.89,12.78,12.04,14.11-18.22,20.16-22.9Z"/>
    <path d="M209.99,175.79c-12.08-1.52-4.58-27.12-15.17-29.9-6.69-1.76-19.87,18.75-26.75,21.64l-2.88-42.07,2.19-7.93,3.7,40.05c2.85,5.21,10.37-8.35,12.12-9.94,4.42-4.03,10.81-8.07,17.04-4.95,5.15,2.67,6.87,26.42,9.76,33.08Z"/>
    <path d="M272.09,162.19c-.21-5.13-1.01-11.25-2.92-16-6.76-16.73-8.71,5.73-13.03,10.93-1.74,2.09-3.05,3.56-6.04,2.92,1.37-10.37-6.41-22.92,1.2-31.97l2.87,22,11.3-15.81c5.98-.99,9.47,13.53,8.67,17.94l7.99-3.94c1.4,1.81-4.63,15.93-10.06,13.93Z"/>
    <path d="M90.25,137.06c7.08-1.23,1.9,3.68,2.81,8.09,1.14,5.54,9.18,34.67,17.95,24,7.15-8.7-5.45-18.75,3.16-23.95,1.81,10.12,5.12,21.41-4.16,29.02-13.65,8.14-22.88-33.09-19.76-37.17Z"/>
    <path d="M134,177.31l15.58-8.31.6-6.47c-22.19-1.23-35.21-30.04-5.37-24.71,2,.36,6.26,4.18.56,3.44-4.8-4.04-16.57-1.86-14.43,6.09,1.8,6.7,16.76,11.73,23.07,14.19,3.92,5.81-13.4,17.98-20.01,15.77Z"/>
    <path d="M433,19.19c-.05-2.99,7.13-2.87,9.63-3.3,7.95-1.36,16.31-2.36,24.39-2.44.03,3.1-6.93,3.27-9.28,3.65-7.66,1.23-16.91,1.66-24.74,2.09Z"/>
    <path d="M483.04,13.52c-.84-5.82,1.17-3.52,5-3.94,7.5-.82,15.48-.98,23.01-1.86.1,2.91-7.21,2.97-9.59,3.34-6.14.94-12.41.35-18.42,2.46Z"/>
    <path d="M513.05,9.7c4.43-6.84,16.76-2.96,24.04-5.81-4.38,6.45-17,3.89-24.04,5.81Z"/>
    <path d="M551.1,3.94c-.35-2.66,8.34-2.98,10.06-3.04,3.28-.11,5.27-1.94,7.92,2.19l-17.99.86Z"/>
    <path d="M400.96,24.99c-.38-2.89,5.45-3.02,7.57-3.36,4.16-.68,8.26-.76,12.44-.47l-20,3.83Z"/>
    <path d="M344.9,34.64c2.07-5.2,11.56-3.72,16-3.86l-16,3.86Z"/>
  </g>
</svg>