<?xml version="1.0" encoding="UTF-8"?>
<svg id="Lag_2" data-name="Lag 2" xmlns="http://www.w3.org/2000/svg" viewBox="0 0 214.21 120.49">
  <g id="Lag_1-2" data-name="Lag 1">
    <path d="M5.69,120.49L0,38.7c4.83-5.59,7.36,17.23,7.62,19.28,2.35,18.87.38,37.9,1.88,56.78,6.57,1.59,13.3-1.8,19.12-1.97,34.45-1.01,74.62-7.09,109.95-11.25,21.53-2.54,43.13-7.03,64.59-10.05,1.43-1.22,2.09-4.66,2.35-6.62,2.32-17.54,6.27-55.93,2.55-71.77-.52-2.23-.37-4.16-3.16-4.87L16.06,31.81c17.63-14.04,40.78-8.59,60.79-10.9,25.68-2.97,52.49-9.57,78.6-12.99,17.63-2.31,37.46-1.22,54.77-7.92,7.24,17.91,2.61,35.09,1.61,52.94-.85,15.12,3.41,31.15-6.13,44.11L5.69,120.49Z"/>
    <path d="M135.75,75.53l-6.23-7.75-16.56-.5-5.21,12.07c-4.27-15.6,7.82-24.61,4.25-39.96,9.94,8.61,21.59,22.8,23.74,36.14ZM121.84,61.44v-2.96s-5.92-5.07-5.92-5.07l-.06,7.99,5.98.03Z"/>
    <path d="M45.7,88.97c-2.71-5.24-.86-12.09-1.94-16.66-.38-1.6-3.95-1.31-4-2.52-.21-4.43,4.4-14.56,2.17-20.85l-4.98,1.21-2.98-5.24c7.4-1.23,22.3-4.63,28.03,1.11,9.58,9.61-12.79,16.8-15.07,22.85-1.98,5.28,6.59,17.05-1.22,20.09ZM45.86,62.97l14.01-10.91c-3.85-5.89-9.44-5.49-15.93-5.08l1.92,15.99Z"/>
    <path d="M160.53,83.02c.15.38,8.24,5.08.12,6.67-7.36,1.45-7.28-19.41-9.37-24.5-2.61-6.36-11.4-10.89-9.31-19.6l12.88,12.07c3.36-.79,7.41-18.63,11.11-13.92,2.29,2.92-7.27,16.17-8.02,21.08-1.02,6.71.24,12.01,2.59,18.19Z"/>
    <path d="M97.7,83.29l-24,1.84c4.78-15.03-3.58-31.98.32-47.98,2.82-2.97,3.63.23,3.97,2.99,1.4,11.45-1.53,24.8,2.1,36.69,3.01,4.75,19.49-1.43,17.61,6.46Z"/>
  </g>
</svg>