<?xml version="1.0" encoding="UTF-8"?>
<svg id="Lag_2" data-name="Lag 2" xmlns="http://www.w3.org/2000/svg" viewBox="0 0 601.99 155.4">
  <g id="Lag_1-2" data-name="Lag 1">
    <path d="M508.14,130.95l-1-6.04c-12.27,3.4-24.24,8.2-36.61,11.24-34.3,8.41-69.41,6.59-104.49,9.89l27.04-5.79c41.45.27,79.77-3.02,117.68-21.16l11.79-32.72c-.25-1.54-4.25-2.17-5.82-4.57-1.05-1.61-14.94-23.27-7.15-22.79l12.88,24.03c5.18.96,3.09-.69,4.17-2.8,2.64-5.16,3.78-15.05,11.91-15.07,1.84,1.79-21.55,40.38-17.31,47.86,11.2-8.81,22.9-17.18,34.52-25.42,5.53-3.92,11.38-3.39,15.15-10.82,4.89-9.63,3.5-20.36-.76-29.92-2.62-5.89-8.31-9.45-9.37-15.57,3.88-1.01,7.16,5.52,8.8,8.17,6.97,11.31,12.94,23.86,7.39,37.4-3.31,8.07-46.55,29.95-56.86,41.04-5.57,5.99-2.46,14.7-11.96,13.04Z"/>
    <path d="M414.2,120.35l.38-60c-10.03-.78.06-8.07,7.63-6.6,13.59,2.64,19.42,12.15,11.18,24.64-3.15,4.77-11.28,7.08-12.62,11.37l-.89,27.27-5.68,3.31ZM420.46,82.39c11.56-6.21,18.43-22.23.13-22.01l-.13,22.01Z"/>
    <path d="M380.61,58.13l-8.27,1.1-3.95,28.84,10.01.07c-8.18,10.65-25.86,4.56-38.05,7.73l.03-5.98c7.84.17,16.35.92,23.19-3.83l3.04-27.99-11.99-2.11,2.01-5.07,10.77,1.31,1.33-4.05,3.84.05c-.54,5.41,3.89,4.04,8.09,3.94l-.04,5.99Z"/>
    <path d="M48.46,76.05c-2.03,10.12,3.68,35.74,16.5,35.59,9.92-.12,8.51-19.63,7.33-26.34-.91-5.17-9.35-11.58,2.18-13.08,4.55,13.26,8.1,41.54-10.26,45.08-8.63,1.67-16.83-11.94-18.95-19.21-1.49-5.12-5.62-23.59,3.19-22.03Z"/>
    <path d="M246.63,51.31c-5.18,7.55-5.2,17.24-3.23,26.02,4.36,6.96,14.46-12.4,21.08-9.07s10.46,17.61,11.79,24.34c.38,1.91,3.66,5.96-.98,6.85-6.03,1.17-6.32-23.44-13.88-26.08-5.14-1.28-17.31,21.49-22.07,13.92-1.34-2.14-6.02-40.83,7.29-36Z"/>
    <path d="M114.38,96.49c-3.1,3.14,9.03,30.16,2.71,35.96l-10.69-43.01,4.04-2.05,3.11,5.11,21.67-5.71.99-6.95c-3.22-9.13-23.24,2.16-29.77,1.57,7.22-8.61,19.48-5.66,29.17-8.15,13.99,14.81-8.23,23.23-21.24,23.23Z"/>
    <path d="M498.38,90.87c-9.1,2.24-7.57-3.8-13.2-7.82-4.14-.86-19.16,14.44-22.44-3.89-2.39-13.37,23.99-24.98,27.39-12.92,1.04,3.67.19,8.17,1.3,12.66,1.68,6.77,6.53,6.44,6.95,11.97ZM479.81,82.13c5.81-4.24,1.37-11.74,4.74-17.31-19.64-.03-18.66,27.47-4.74,17.31Z"/>
    <path d="M28.56,61.93c-6.52,8.45-24.13,23.88-24.3,34.79-.21,13.35,10.38,23.82,22.12,27.96,17.37,6.13,68.36,12.9,88.93,15.53,26.87,3.43,54.54,3.7,81.54,6.94,1.94.23,7.51.94,7.13,3.85-11.85-1.4-25.18-3.43-36.98-4.19-42.04-2.74-84.07-7.93-125.64-15.07C23.2,128.62-3.44,118.03.37,94.88c.78-4.73,23.98-36.99,28.19-32.95Z"/>
    <path d="M158.49,70.73c-.85,5.58,1.17,15.87,7.32,17.73,9.75,2.96,22.62-8.72,13.67-17.59l-6.99,5.93c6.35-30.69,25.95,5.44,3.38,14.51-15.51,6.23-28.89-7.98-17.38-20.58Z"/>
    <path d="M450.37,94.57c.87-12.42-3.37-24.61-1.87-37.1.42-3.47.5-6.87,5.1-6.86l2.82,38.96-6.06,5Z"/>
    <path d="M210.35,97.05c-1.61-6.35,4.91-2.95,7.18-5.8,5.66-7.09-11.72-16.1-14.94-21.24,5.14-7.66,11.32-7.71,19.95-6.85l-12.03,3.91c-1.84,8.84,12.86,10.61,13.59,19.42.35,4.21-9.36,10.99-13.76,10.56Z"/>
    <rect x="297.02" y="102.62" width="2" height="92" transform="translate(147.52 445.69) rotate(-89.64)"/>
    <path d="M292.25,113.57c-.74-.89,1.67-19.63,2.18-22.97s-1.03-3.37,3.96-2.97c1.04.83.05,33.38-6.14,25.94Z"/>
    <rect x="379.95" y="-20.86" width="2" height="44" transform="translate(377.4 382.08) rotate(-89.64)"/>
    <path d="M490.89,12.82c-.5-3.36,4.85-2.13,7.05-2,9.29.56,26.44,5.59,32.87,12.26-13.25-4.23-25.65-9.93-39.92-10.25Z"/>
    <rect x="293.93" y="-11.41" width="2" height="32" transform="translate(288.47 299.49) rotate(-89.64)"/>
    <path d="M364.01,148.02l-17.97-2.08c4.82,2.11,19.28-6.81,17.97,2.08Z"/>
    <path d="M581.99,155.4c-.38-2.89,5.45-3.02,7.57-3.36,4.16-.68,8.26-.76,12.44-.47l-20,3.83Z"/>
    <polygon points="229.99 151.18 218.03 149.09 218.03 147.13 230.01 147.2 229.99 151.18"/>
    <path d="M334.94,3.83c2.81-4.6,13.37-.7,17.99-1.85-2.65,4.58-13.36.71-17.99,1.85Z"/>
    <rect x="156.83" y="16.74" width="1.96" height="13.98" transform="translate(133.08 181.38) rotate(-89.64)"/>
    <path d="M166.82,22.76c.69-3.3,9.08-2.09,12.42-2.49,5.13-.61,10.09-2.35,15.58-1.29-.15,3.55-7.7,1.77-10.76,2.16-5.69.71-11.14,2.81-17.25,1.63Z"/>
    <rect x="240.04" y="141.27" width="1.96" height="13.98" transform="translate(91.24 388.33) rotate(-89.64)"/>
    <rect x="221.89" y="8.15" width="1.96" height="11.98" transform="translate(207.32 236.91) rotate(-89.64)"/>
    <rect x="107.76" y="27.43" width="1.96" height="11.98" transform="translate(74.64 141.94) rotate(-89.64)"/>
    <rect x="267.94" y=".44" width="1.96" height="11.98" transform="translate(260.78 275.3) rotate(-89.64)"/>
    <path d="M468.91,8.68c1.52-5.51,5.76-2.03,10-1.89v1.96s-10-.06-10-.06Z"/>
  </g>
</svg>