<?xml version="1.0" encoding="UTF-8"?>
<svg id="Lag_2" data-name="Lag 2" xmlns="http://www.w3.org/2000/svg" viewBox="0 0 266.47 194.22">
  <g id="Lag_1-2" data-name="Lag 1">
    <path d="M220.74,31.57c.05-.91,5.15-3.45-.94-2.98-30.44,15.24-67.55,20.39-87.96-12.55-2.4-.01-5.53,13.95-9.06,16.95-2.66,2.25-5.31.97-4.01-2.04.96-2.22,5.78-4.62,7.15-8.87,1.9-5.9-1.01-19.89,4.04-22.07,14.61,35.84,45.65,43.66,80.16,28.85,7.03-3.02,11.93-7.69,18.7-10.23,1.38,9.77-4.25,19.69-4.32,28.96-.18,23.25,17.36,42,38.78,47.34,2.3.57,3.7-1.62,3.03,2.9-16.78,9.54-35.54,26.15-44.6,43.4-2.34,4.45-8.3,26.72-10.87,27.28-7.18-2.97-11.86-10.62-19.99-12.02-23.18-4.01-64.66,7.13-82.13,23.29-2.2,2.04-12.01,17.3-14.99,13.98,10.23-54.24-57.54-53.54-93.72-44.59l1.21-6.16c17.53-3.75,32.1-17.22,37.14-34.48,2.19-7.5,7.07-35.39,4.09-41.51-1.24-2.55-4.72-2.35-5.44-4.77-.16-.52.29-10.37.57-10.85,1.83-3.12,2.58-1.06,4.55-.51,8,2.23,16.47,7.06,25.06,8.17,6.03-4.39,12.88-3.17,19.98-5.78,8.48-3.11,14.99-9.24,23.52-11.38-2.42,9.74-24.24,12.94-27.59,16.34-1.81,1.84-.03,6.83-6.49,8.58l-32.04-7.34c5.76,11.53,1.71,31.3-1.18,44.08-1.69,7.49-4.23,15.3-8.18,21.91-3.69,6.19-9.58,9.28-11.16,15.87l35,.22c1.11,0,18.82,6.03,20.97,7.12,11.83,5.95,17.24,18.81,19.81,31.14,2.11,1.61,18.78-12.17,22.72-14.2,23.17-11.9,64.46-23.21,86.38-5.15,7.3-17.12,15.13-32.53,27.34-46.74,4.74-5.52,11.24-8.34,14.17-13.94.07-3.44-18.17-16.9-21.98-22.17-1.29-1.78-7.92-13.24-7.91-14.05.07-10.61-.35-21.42.2-32Z"/>
    <path d="M130.02,137.98c-.38.32-4.6.84-3.97-1.47l-.97-4.56-9,5.95-1.92-14.01c6.5,2.9,7.11-.77,11.99-3.91l2.96,8c14.41-19.6,15.36,4.62,25.68,3.74,11.21-4.03,10.49-18.89,25.42-19.4,3.04,6.5-10.65,13.96-10.05,16.83,2.47,2.21,5.2,6.69,7.99,8.05,4.09,1.98,12.1.35,13.86,5.16-12.99,8.71-20.73-7.55-27.02-8.22-9.27-.99-15.94,12.32-25.89-8.09-4.96-1.28-7.98,11-9.09,11.92Z"/>
    <path d="M176.3,100.26c-4.42.07-8.55,2.18-13.02,2.11-5.87-.1-15.16-6.01-15.18,1.52l-3.86-.78c-6.41-11.99-3.78-24.19-3.72-37.05,3.68-.13,4.23-1.01,3.93,3.01-.63,8.53-.51,16.45-.11,24.99,3.27,3.81,12.18-14.08,16.06-13.89l-6.02,12.97c.11,1.8,7.24,4.4,9.4,4.6,4.68.44,14.02-5.25,12.51,2.5Z"/>
    <path d="M68.5,115.37c-5.3-8.53-8.8-19.48-2.24-28.39,4.47-6.07,13.03-1.7,9.15,2.71-2.64,3-9.85-.4-8.04,12.22,1.4,9.78,6.14,6.35,10.85,11.74l-9.71,1.73Z"/>
    <path d="M132.26,106c-17.8,2.15-17.43-17.11-4.82-24.01,3.62,5.2-5.23,9.42-4.22,14.11,1.68,7.8,10.14,2.99,9.05,9.9Z"/>
    <path d="M88.22,111.72c-5.25,5.92-14.05-26.47-4.79-30.01.66,10.46,1.59,20,4.79,30.01Z"/>
    <path d="M106.22,109.84c-7.76-1.47-1.06-14.52.08-11.99l-.08,11.99Z"/>
  </g>
</svg>