<?xml version="1.0" encoding="UTF-8"?>
<svg id="Lag_2" data-name="Lag 2" xmlns="http://www.w3.org/2000/svg" viewBox="0 0 312.17 234.63">
  <g id="Lag_1-2" data-name="Lag 1">
    <path d="M266.61,39.15c-17.09,5.04-32.5,18.13-51.14,19.64-31.24,2.54-32.33-15.06-46.3-35.66-1.2-1.77.34-3.69-4.41-2.62l-4.22,10.94,4.12,2.01c-10.8,18.21-15.51,33.89-37.79,40.29-22.14,6.35-47.85,5.62-64.38-11.89-1.04,17.9-13.39,36.91-25.26,49.92-3.09,3.39-8.96,5.33-11.33,8.82-1.69,2.49.38,4.89.16,5.01-2.91,1.67-22.8-3.3-25.95-7.17-1.64-7.21,16.05-2.26,21.05-2.8,18.44-1.98,38.76-38.91,38.75-56.24s-10.07-35.27-11.78-51.99c-1.12-11.01,3.26-8.64,6.13-.05,8.82,26.4,4.4,61.89,41.43,64.6,27.58,2.02,55.84-21.49,65.11-46.36,1.79-4.81,1.18-15.23,5.03-17.06,4.08-.92,2.68,1.68,3.9,3.95,8.97,16.73,15.74,39.74,38,42.17,13.88,1.52,32.47-6.49,44.55-12.9,7.41-3.94,13.05-9.34,20.38-12.55-1.98,24.88-4.81,54.19,20.49,68.21l19.03,7c-6.58,6.74-15.6,9.01-23.03,14.93-18.13,14.46-20.52,31.71-22.9,53.32-.43,3.86,3.12,9.13-2.57,11.57-2.01.86-9.22-5.97-12.85-7.27-5.33-1.92-25.61-3.93-31.58-3.63-24.32,1.22-64.8,34.46-63.91,61.11-2.67,1.97-6-12.1-7.04-13.89-11.68-20.19-56.47-18.44-76.07-12.92-12.39,3.49-20.82,11.85-32.79,14.08,1.9-9.72,16.54-10.84,21.01-19.96,6.5-13.24,1.53-35.3-6.11-47.42-6.88-10.93-18.92-16.4-26.32-26.66,5.76-.31,11.75,5.43,15.97,9.05,21.88,18.83,24.11,39.48,21.56,67.17,22.26-3.93,50.35-7.04,71.96,1.48,8.33,3.29,10.6,10.15,17.92,13.09,3.91-15.06,30.68-38.62,44.9-44.12,18.14-7.01,43.27-5.82,61.39.78-.72-29.67,13.25-51.91,36.44-68.78-8.5-3.67-18.6-10.35-23.89-18.13-2.23-3.27-7.88-17.11-7.86-20.06l.18-29Z"/>
    <path d="M141.8,162.35c-6.84.52-5.49-9.02-10.9-12.02-6.96,5.95-4.41,17.99-13.11,21.87l-5.91-16.02,9.93,6.04,8.09-19c5.4-3.52,7.29,8.66,11.98,9.13l7.14-13.94c5.71-1.31,14.24,30.9,28.68,13.21-3.26-4.7-4.61-6.97-2.24-12.48,2.06-4.78,18.33-19.78,16.43-7.63-1.1,7.05-5.64,12.43-7.1,19.17,5.77,6.99,11.16,5.9,19.08,4.09-.87,3.55-11.28,4.95-13.84,4.91-4.22-.07-6.89-3.46-11.05-3.13-4.44.36-11.3,8.49-15.88,7.61-8.81-1.69-11.49-32.81-21.3-1.81ZM183.91,144.62l4.09-9.95c-3.05-3.07-14.36,10.93-4.09,9.95Z"/>
    <path d="M87.89,150.01c-4.83.78-3.77-.55-4.89-4-2.76-8.49-1.57-17.27-3.32-24.64-1.4-5.85-8.57-8.15-3.64-14.54,5.18-6.72,16.02-9.1,21.98-1.59,1.54,8.26-12.85,22.6-13.53,26.01-.85,4.25,4.99,13.22,3.4,18.76ZM94.07,109.03c-3.46-5.11-9.77-3.63-12.86.84l3.85,14.09c5.21-3.61,6.29-9.64,9.01-14.93Z"/>
    <path d="M154.85,93.9c3.18,2.71,11.26,2.26,11.19,11.61-.04,5.02-8.3,15.54-11.9,8.95,25.3-13.04-10.22-17.15-7.62-26.68,1.03-3.78,16.59-18.21,21.8-10.26-4.37,4.06-23,8.26-13.47,16.38Z"/>
    <path d="M112.21,112.11c3.76,3.8,14.45-2.66,15.61-9.27.7-3.98-4.67-10.58,4.44-10.54.56,9.22-3.32,23.42-13.6,25.53-15.25,3.13-13.97-15.75-9.45-15.65,4,1.71,2.35,9.26,3,9.92Z"/>
    <path d="M208.22,102.78c-.14-7.16-6.57-12.77-10.91-18.03-4.61,1.97-18.23,24.96-23.12,19.83.71-9.94-6.91-25.47,2.17-32-.16,6.66.16,13.51.78,20.1.19,2.04-1.86,3.62,2.07,5.88,7.67-2.53,14.97-21.21,22.08-19.91,1.36.25,16.13,22.62,6.92,24.13Z"/>
  </g>
</svg>