<?xml version="1.0" encoding="UTF-8"?>
<svg id="Lag_2" data-name="Lag 2" xmlns="http://www.w3.org/2000/svg" viewBox="0 0 160.17 155.12">
  <g id="Lag_1-2" data-name="Lag 1">
    <path d="M14.7,38.52C22.47,20.18,47.34,2.7,67.25.18c13.18-1.67,29.05,8.82,40.25,15.28,21.99,12.69,48.96,32.32,52.58,59.52,1.06,8-6.86,24.4-11.86,31.34-20.22,28.09-57.6,52.04-93.24,48.44C1.49,149.35-15.12,76.24,14.7,38.52c-41.71,98.49,52.14,151.11,121.52,75.77,18.51-20.1,24.5-34.36,10.02-59.57-10.22-17.8-39.09-35.56-57.98-44.11-4.75-2.15-10.23-3-15.35-3.74l4-3.93c-24.94,1.59-47.12,16.5-62.22,35.59Z"/>
    <path d="M46.17,124.72l3.01-84.98,5.56-10.97c-2.29,28.58-5.64,57.14-4.5,85.97,15.6-23.59,39.76-34.48,60.3-52.65l-29.95-24.04c-7.14-5.84-24.02-6.54-25.77-15.27,5.7-5.13,56,29.27,64.3,34.86,13.24,8.93-4.74,7.72-6.43,8.44-4.57,1.96-34.2,24.35-39.28,28.86-10.37,9.22-16.29,21.34-27.23,29.77Z"/>
  </g>
</svg>