<?xml version="1.0" encoding="UTF-8"?>
<svg id="Lag_2" data-name="Lag 2" xmlns="http://www.w3.org/2000/svg" viewBox="0 0 508.29 524.61">
  <g id="Lag_1-2" data-name="Lag 1">
    <path d="M220.72,514.52c14.16,4.06,25.9,7.11,40.93,6.2,63.97-3.83,151.19-39.82,187.26-94.15,16.75-25.24,51.58-102.73,55-131.49,8.08-68.13-42.44-151.83-81.67-205.13C341.11-20.27,187.97-16.17,88.59,67.7c-17.99,15.18-27.22,37.15-43.36,53.68,3.34-10.59,11.85-21.42,18.51-30.54C96.62,45.82,177.14,3.69,232.89.48c72.88-4.2,138.4,18.76,184.55,76.31,49.99,62.35,110.7,162.79,84.58,244.56-10.48,32.81-44.65,115.08-69.91,136.52-17.44,14.8-67.65,43.21-89.31,50.45-19.35,6.47-79.9,18.74-98.68,15.85-5.85-.9-19.67-4.96-23.41-9.65Z"/>
    <path d="M4.13,287.11c-2.93.33-3.55-5.25-3.75-7.19-.64-6.11-.4-13.43.18-19.58,2.95-30.93,15.1-62.65,18.88-93.61l3.48-5.48c-3.48,7.24.02,14.66-.52,20.54-.61,6.67-8.78,25.77-10.88,35.31-3.05,13.83-3.49,25.55-5.28,38.94-.49,3.66-3.32,6.54-3.87,10.2-1.14,7.54,1.69,13.63,1.75,20.88Z"/>
    <path d="M32.88,356.14c-4.06-5.19-9.64-10.39-12.52-16.45-2.31-4.86-8.41-22.99-9.48-28.41-.4-2.05-2.76-8.44,1.14-8.09,3.21,11.04,6.85,26.84,12.1,36.75,5.14,9.7,15.87,17.16,22.36,25.62,10.98,14.32,18.41,31.74,30,45.9,14.73,18,31.86,26.87,48.61,42.41-3.76.1-7.49-2.5-10.6-4.42-35.64-22.05-56.39-61.07-81.62-93.32Z"/>
    <path d="M218.68,516.49c-17.66-6.88-35.1-15.81-47.79-30.28,8.85,1.29,14.62,10.36,22.13,14.9,6.25,3.78,14.98,6.35,21.77,10.38,2.59,1.54,5.05-.32,3.9,5Z"/>
    <path d="M129.07,457.94c4.02-1.02,5.43,1.37,8.07,2.95,9.03,5.41,20.34,13.7,27.78,21.24l-30.53-18.53-5.32-5.66Z"/>
    <path d="M26.87,169.25c-4.48-1.32,1.08-12.1,2.09-15,3.21-9.12,7.62-22.21,14.19-28.88l-16.28,43.88Z"/>
  </g>
</svg>