<?xml version="1.0" encoding="UTF-8"?>
<svg id="Lag_2" data-name="Lag 2" xmlns="http://www.w3.org/2000/svg" viewBox="0 0 595.11 629.47">
  <g id="Lag_1-2" data-name="Lag 1">
    <path d="M554.74,271.66c4.77-13.68,21.82-18.13,28.16-30.84l-17.51-2.59c-20.38,23.31-41.4,48.29-52.92,77.16l11.07-11.92c3.87,5.09-5.31,8.69-7.09,11.47-9,14.03-16.47,36.1-20.34,52.35l-5.92-6.02c-2.94,11.26-8.44,12.21-.16,22.94l-10,3.98c4.89,3.06,5.6,12.25-.11,14.99.82-3.86-3.75-7.81-3.56-10.67.27-4.09,7.7-24.82,9.75-30.32,11.38-30.49,31.75-69.19,50.99-95.3,6.81-9.24,18.09-19.82,23.89-28.14,1.17-1.67,2.74-2.09,1.97-5-11.17-5.13-22.98-12.92-32.56-20.54s-33.06-28.81-38.7-39.3c-9.73-18.13-9.53-49.3,2.07-66.61-1.67-1.28-34.9,6.98-41.31,7.46-12.33.92-34.79-.7-47.22-2.55-10.1-1.5-25.54-5.59-35.46-8.71-2.73-.86-9.55-1.83-9.96-5.05,28.3,6.03,55.62,14.99,84.91,8.49l-2.99,3.99c17.24,1.99,33.32-4.03,50.12-6.58l1.97-11.07c-9.1,2.12-18.7,7.16-27.51,9.37-1.99.5-7.02,1.99-6.51-1.56l42.07-15.76-2.06,15.99c.87-1.46,15.08-7.16,11.97-.95-3.41,6.82-15.19,3.31-17.91,24.13-2.64,20.26,5.16,36.53,13.59,53.71,1.26,2.56,1.15,7.84,2.01,8.93.19.24,2.84-1.22,3.79-.6,2.02,1.31,4.53,8.47,7.83,11.98,16.28,17.3,46.28,28.32,69.91,25.38,1.31,7.13-9.36,3.9-12.01,8.91,3.83,5.03,10.51,2.65,15.93,3.11,1.6,8.99-8.54,8.93-13.95,13.02-9.23,6.99-16.36,16.56-26.24,22.71ZM563,229.69c4.32,1.22,8.14,3.74,10-1.89l-9.99-.06v1.95ZM501.32,183.3l3.95-.94-15.75-33.11c-.53,4.04.25,7.75,1.28,11.63.91,3.45,8.69,20.86,10.53,22.42Z"/>
    <path d="M485.94,492.53c-4.17-3.64-5.08-6.16-11.24-9.7-19.77-11.34-32.73-8.66-53.3-2.03-.26-2.68,4.53-3.46,6.66-4.28,18.63-7.23,31.29-6.36,49.33,2.65l-9.2-15.83c-9.47,2.48-19.52.95-28.96,2.84-25.31,5.05-51.73,31.17-70.03,48.32-.72-3.79.81-5.42,2.91-8.1,7.56-9.69,29.05-25.81,39.99-31.96,17.62-9.9,34.87-15.34,55.43-13.3-.35-20.47.68-40.35,6.39-59.96,3.59-.43,1.91,4.5,1.7,6.75-1.69,17.73-8.18,33.48-2.06,51.24,5.2,3.87,1.62-26.86,2.04-29.05l4.21-16.9c.74,12.03-1.2,25.12-.22,37,.74,8.9,8.39,13.93-2.24,18.08l15.93,24.01c-2.39,3.7-4.53,2.69-7.33.25Z"/>
    <path d="M239.7,115.63c-1.5,1.76-20.51,6.13-24.82,8.1-5.3,2.4-28.26,16.85-31.33,20.6-3.32,4.05-1.41,8.61-3.04,13.02-2.53,6.85-27.12,40.24-32.71,43.38-2.56,1.43-5.05,3.55-6.61-.7-.22-.61,8.82-5.14,10.82-7.14,3.24-3.26,24.86-32.07,25.39-34.66.7-3.4-.15-7.43.09-10.96l-6,5.95c2.73-11.39,5.53-20.71,4.02-32.8-1.85-14.74-14.89-33.13-17.15-46.76-1.48-8.9,3.78-12.51,8.23-2.07,5.09,11.94,10.03,34.44,16.93,44.52,1.41,2.06,10.83.54,4.65,5.18l-4.63,1.09.06,14.91c18.07-9.74,36.48-19.3,51.23-33.65l2.95.98-12.06,10.91,14.01-3.89v3.97Z"/>
    <path d="M292.77,577.99h-5.99c3.77-11.04-13.1-19.51-21.78-21.27-31.9-6.47-68.39,5.8-99.26,4.71-6.41-.23-4.4-3.68-6.15-4.2-1.56-.46-22.4,2.65-25.75,3.74l-.93-3.96,61.01-7.65c-1.21,6.18-14.1,4.71-19,5.93.57,3.52,10.37,2.28,13.08,2.16,13.65-.63,27.05-5.19,40.92-3.86.6-2.82-5.65-3.26-7.3-3.27-4.97-.04-10.36,2.18-15.68,1.18l-6.98-2.06c24.48-2.46,74.52-4.19,91.98,15.62,1.99,2.26-.33,9.4,1.83,12.94Z"/>
    <path d="M316.13,46.13l-7.87-14.04c-5.47,13.6,4.71,17.77,5.77,30.04l-8.9-12.02-13.11,19.88c.85-7.88,10.06-17.2,9.93-24.98-.09-5.55-7.23-14.7-7.69-21-5.5-4.13-10.79,19.09-16.08,19.89.13-7.8,6.82-13.15,9.18-19.87,1.99-5.66-.86-18.04,8.98-12.75.96,6.51,2.03,16.81,7.88,20.78.64-5.09,2.17-9.75,2.31-14.99.09-3.56-4.22-15.91.95-16.98,7.31-1.52,4.33,15.07,4.88,19,1.25,9.02,4.61,17.74,3.78,27.04Z"/>
    <path d="M138.41,508.35c-4.15,7.56.09,10.51-2.12,19.28-3.13,12.4-5.63,15-7.48,30.24-.71,5.82-6.25,7.08,0,13.08l-14.02,3.92c2.49-3.99-.34-9.65.45-12.55,1.53-5.63,11.81-21.38,14.2-29.97,5.31-19.04,1.9-42.23-2-61.38,4.38-.73,4.03.35,4.97,3.92,2.26,8.55.89,19.28,4.84,28.12l4.09-21.95c-.5,9.61,1.84,18.55-2.95,27.29Z"/>
    <path d="M442.83,250.94l-10.78-30.01-8.75,4.18,3.41,18.54-5.83,3.15c.53-14.19-6.72-29.74-7.57-43.31-.24-3.87-.85-6.16,2.89-8.67,5.43-.05.26,24.15,7.83,24.1,14.93-.1,2.18-17.71,3.22-22.98.48-2.41,4.96-4.66,7.02-1.11,1.89,6.23,0,13.22,2.46,19.38,1.53,3.84,10.24,3.92.18,7.82l5.92,28.92Z"/>
    <path d="M332.92,238.25l-19.94-6.11c-.11,4.31,1.46,8.36,2.44,12.47.3,1.25,6.82,15.22-.62,8.57-6.21-5.56-3.72-15.96-5.07-22.65-.86-4.25-6.83-22.76-5.75-24.46,18.01-16.48,38.14,7.32,19.05,21.13l9.88,11.06ZM313.09,224.05c14.78,1.62,16.46-6.05,9.73-17.52l-10.87,1.47,1.14,16.05Z"/>
    <path d="M180.83,255.3l3.88,16c-4.99,5.43-11.35-26.54-11.6-29.29-2.45-26.51,20.98-27.28,19.69-7.45-.48,7.43-5.01,11.41-2.07,17.34l26,17.59-35.9-14.2ZM188.68,230.67c-10.94-13.36-12.84,15.28-6.78,16.62,6.66-.9,8.34-11.57,6.78-16.62Z"/>
    <path d="M363.15,301.04c3.7-4.39,11.97-5.15,17.41-4.46-1.76,4.95-8.41,3.38-11.07,7.97-.72,1.24-1.66,13.2-3.06,15.92l22.01-5.84-24.3,14.76.37,10.83c11.42,3.35,19.27-7.3,29.82-7.56,2.26,1.72-28.63,18.78-34.2,10.96-5.6-7.85.98-20.16,2.14-28.37.65-4.6-3.88-8.56.89-14.22Z"/>
    <path d="M137.42,473.01l-10.88-22.02c-3.74-4.51-3.57-.49-2.54,2.51s6.97,11.92,1.5,13.44c-7.24-30.31-34.05-41.98-60.33-52.73-8.19-3.35-15.38-4.47-23.4-6.8-3.55-1.03-4.67-.54-3.87-5.01,36.18,12.97,94.74,24.74,99.52,70.61Z"/>
    <path d="M238.01,254.49c-2.28-2.59-5.5-3.32-5.15-8.88-4.19.85-14.32,3.08-15.7,7.23-1.12,3.37,1.57,10.4-2.36,10.65l-1.9-33.08,3.21-18.86,28.69,47.15c-3.12,3.46-5.18-2.4-6.78-4.22ZM218.99,229.53l-1.21,12.05,11.11,2c-1.28-1-6.54-18.4-9.9-14.05Z"/>
    <path d="M495.17,199.27l-25.98-2.16,2.79,36.02-7.02-35.8c-3.35-.58-6.88-2.23-10.3-1.89-2.3.23-15.4,7.38-13.42.54,4.92-10.86,12.68-9.25,21.98-4.9-1.81-16.13,11.28-16.06,6.02.03,7.34-.34,14.75,1.12,21.58,3.64,3.17,1.17,5.37-1.05,4.36,4.53Z"/>
    <path d="M200.18,355.42c-4.06-.69-7.15,3-12.85-4.21-11.3-14.29,8.56-24.84,13.01-36.78l12.09-.92c.69,5.17.02,5.15-4.05,6.92,5.24,7.68,12.62,24.76,9.53,33.82-1.67,4.89-12.25,3.42-16.54,3.23-1.74-.08-1.08-2.04-1.19-2.06,2.44.46,13.59-1.24,14.14-3.13,1.87-12.63-4.54-20.67-9.97-30.84-10.53,2.42-18.71,18.81-13.17,27.96.28.46,8.47,5.91,9,6.01Z"/>
    <path d="M364.86,250.47l1.95,5.98-3.94-.07c.66-7.1-8.09-2.4-14-5.05-2.59-1.16-5.33-6.16-7.96-8.03l15.96,3.1-6.06-27.89-5.75-.18.06-5.93c8.52-2.39,15.17-4.85,23.99-1.89,6.45,6.02-15.12,3.21-16.02,3.89-1.75,5.33,3.06,3.13,3.88,5.46,4.13,11.76-.03,27.95,17.88,28.69l-9.99,1.93Z"/>
    <path d="M272.62,285.86l-5.98-.02-.06-17.86c-21.6,3.47-39.56-45.86-11.56-46.22l-1.46,5.98c-16.21,1.94-3.81,44.14,12.3,34.17l1.02-20.09-11.04,7.92c-5.16-5.65,14.94-20.35,17.12-17.87-1.63,17.93-4.27,36.14-.34,53.98Z"/>
    <path d="M320.35,330.16l18.01-2.88-19.11,10.78,1.89,14.21,11.05.97-14.02,6.93c-3.98-22.03-7-50.63,22.29-50.88-9.38,5.58-16.51,9.8-20.12,20.86Z"/>
    <path d="M66.88,242.56l-18.69-32.2-30.99-16.13,3.08-7.95c6.93,6.07,15.56,8.22,22.75,13.28,15.46,10.88,19.95,24.75,23.84,42.99Z"/>
    <path d="M408.69,272.73c-8.59-4.81.73-24.25-11.83-22.09l5.86-2.05.23-15.88-12,3.9c-1.74-1.79-.31-4.66,2.57-6.49,22.83-14.44,13.61-6.64,13.38,9.59-.05,3.42,1.97,6.58,1.95,10.03l-.16,22.98Z"/>
    <path d="M140.73,273.04c.35-8.46,11.48-5.4,17.11-9.82,4.76-3.74,5.75-11.42,5.18-17.1-1.3-12.92-27.13-22.85-26.18-.21.3,7.15,8.37,21-2.09,21.08l-3.46-32.81,5.67-3.16,1.96,3.98c1.67-16.2,23.72-3.04,26.97,4.21,7.6,16.93-7.85,33.86-25.16,33.82Z"/>
    <path d="M320.63,627.99c-.61-.83,0-10.07-.98-13.92-2.65-10.41-8.86-19.4-10.9-29.95l9.96,2.05c-5.12,10.75,2.81,17.7,3.85,28.03l7.99-3.95-3.03,18.06c-.96,2.66-6.69-.04-6.9-.31Z"/>
    <path d="M394.96,208.47c-16.26,2.39-17.52,34.55-.1,38.2.61,3.03-3.2,2.44-4.96,1.93-18.83-5.48-14.23-44.31,5.24-45.94l-.18,5.81Z"/>
    <path d="M298.51,622.03c1.23-14.77-3.23-28.39-7.74-42.03,5.06-.95,3.53.96,5.01,3.9,3.23,6.44,4.31,23.56,12.82,20.2l-3.09,16.03-6.99,1.9Z"/>
    <path d="M35.87,402.41c.14,3.39-6.16,3.66-8.46,3.44-20.22-1.94-8.6-12.29-.41-21.48,5.92,6.4-3.9,16.2,8.87,18.05Z"/>
    <path d="M162.32,329.16l-3.05-4.16-20.93,8c1.3-11.98,21.03-5.27,22.14-15.85,6.13,6.48,12.2-.16,19.94.15-4.13,6.47-17.48,2.53-18.09,11.86Z"/>
    <path d="M135.28,182.98c4.89-5.59,12.16-7.1,18.49-11.89,5.23-3.96,10.49-11.64,15.67-15.88-4.37,13.22-19.53,27.3-34.16,27.76Z"/>
    <path d="M288.3,335.96c-1.89,1.84-14.47-6.44-11.91-10.03,7.88-1.84,18.14-14.18,24.01-3.9-5.99-.41-12,.09-16.05,4.98l3.95,8.95Z"/>
    <path d="M288.15,361.95l9.84-7.17-4.7-16.76c11.12,10.07,14.63,24.63-5.14,23.94Z"/>
    <path d="M15.04,216.24c-4.94-1.02-4.69-6.91-6.58-9.38-3.43-4.49-17.52-11.24.56-10.5l6.01,19.88Z"/>
    <path d="M160.33,333.18c6.14-.93,3.25,1.53,3.87,5.05.39,2.19,2.97,15.04-1,14.91l-2.87-19.96Z"/>
    <path d="M480.74,265.18c-4.77-3.2-5.75-12.81-5.84-18.02,4.77,3.2,5.75,12.81,5.84,18.02Z"/>
    <path d="M329.97,76.24l2.96.03,6.98,8.01-8.05-.98c-2.6-1.65-2.02-4.17-1.89-7.05Z"/>
    <path d="M393.26,502.62c3.35-4.28,8.15-11.45,14.07-11.87-3.35,4.28-8.15,11.45-14.07,11.87Z"/>
    <path d="M30.85,246.34c-5.43-6.17-11.18-15.85-11.81-24.06l11.81,24.06Z"/>
    <path d="M113.23,190.84c.05-2.85,11.43-6.48,12.02-5.89.43,6.98-6.69,6.3-12.02,5.89Z"/>
    <path d="M294.83,570.04c2.37-2.07,10.99,7.52,11.94,10.04-2.56,2.23-12.58-9.47-11.94-10.04Z"/>
    <path d="M272.17,359.86c.48-8.86,5.89-4.23,9.98-1.9l-9.98,1.9Z"/>
    <path d="M357.11,528.41c-.95-3.49,5.13-12.37,8.04-9.93l-8.04,9.93Z"/>
    <path d="M72.36,322.59l-1.87-13.99c4.74,1.67,3.07,10.53,1.87,13.99Z"/>
    <path d="M340.24,348.28l.02-1.96,8-5.97c.9,6.07-1.78,8.88-8.02,7.93Z"/>
    <path d="M363.01,544.45c.5-3.21,2.62-10.79,6.04-11.95.18,4.45-1.43,10.18-6.04,11.95Z"/>
    <polygon points="322.06 58.17 318.08 58.14 316.15 53.13 319.13 50.17 322.06 58.17"/>
    <rect x="42.36" y="328.48" width="13.98" height="1.96" transform="translate(-280.42 376.72) rotate(-89.64)"/>
    <path d="M70.79,256.58h-1.96s-1.93-12-1.93-12c1.3-2.75,5.45,8.74,3.88,12Z"/>
    <path d="M255.93,83.76c-.63-3.61,2.74-6.54,6.01-7.96.63,3.61-2.74,6.54-6.01,7.96Z"/>
    <path d="M343,546.32c-.63-3.61,2.74-6.54,6.01-7.96.63,3.61-2.74,6.54-6.01,7.96Z"/>
    <path d="M385.21,512.59c-.63-3.61,2.74-6.54,6.01-7.96.63,3.61-2.74,6.54-6.01,7.96Z"/>
  </g>
</svg>