<?xml version="1.0" encoding="UTF-8"?>
<svg id="Lag_2" data-name="Lag 2" xmlns="http://www.w3.org/2000/svg" viewBox="0 0 393.27 529.61">
  <g id="Lag_1-2" data-name="Lag 1">
    <path d="M330.36,521.51c.38-.35,3.82.7,5.44-.39,3.98-2.7,12.03-38.75,14.79-46.56,6.78-19.24,19.24-41.12,23.95-60.28,7.01-28.51,14.81-84.62,13.2-113.4-.85-15.18-6.04-30.31-7.49-44.28-1.58-15.27-.06-33.12-1.92-48.79l-44.75,66.36-9.7,9.28c2.56-20.23,8.01-40.36,6.44-61.02-.77-10.12-4.26-21.66-5.61-32.22-.2-1.54,1.23-20.07-4.13-14.77-1.99,7.85-4.59,15.46-8.51,22.6-5.56,10.12-27.35,40.21-35.14,48.95-2.02,2.27-3.09,4.93-6.85,4.11.65-7.47,4.91-13.51,5.9-21.18,2.25-17.46-3.41-29.7-5.24-46.06-4.2-37.59-4.95-76.01-13.56-112.83l-47.16,81.01-6.37,4.62c-2.93-8.23,1.64-16.33,1.21-24.91-.55-10.95-3.09-25.49-4.05-37.85-.2-2.59-1.03-12.28-3.64-13.26-9.4,36.99-23.71,72.32-37.77,107.68l-43.46,85.78c7.22-32.19,29.72-60.09,42.91-90.36,19.46-44.64,34.37-93.63,40.78-141.86.78-5.89,1.14-14.69,4.91-19.19,4.98-1.09,3.15,10.5,2.97,13.08-1.66,23.98-4.43,43.15-2.48,67.87.95,12.05,6.16,24.11,3.75,37.06,9.4-4.92,11.16-16.4,16.46-24.58,15.44-23.82,33.48-44.04,32.17-75.13l5.96.06c1.32,11.55-.99,23.3-.16,34.96,1.52,21.29,5.17,48.2,7.56,70.05,3.1,28.33,10.29,56.52,9.45,85.09l29.3-37.73,7.64-18.43,8.55-29.53c6.1,9.45,1.82,23.81,2.84,34.97,1,10.98,4.95,22.88,5.73,34.1,1.12,16.18-.69,32.89-1.29,48.96,26.28-33.32,53.66-64.98,51.97-110.4l2.76-3.2c7.94.05-.69,33.52-1.22,38.98-3.67,38.54,1.04,59.46,5.11,96.25,8.59,77.63-17.71,137.38-41.1,207.46-2.51,7.52-6.54,36.93-15.16,37.02-4.87.05-6.38-6.81-4.98-8.1Z"/>
    <path d="M70.97,419.84l-8.45-20.44c-9.22-54.34-3.47-99.96,9.72-152.38,6.82-27.11,18.67-57.75,23.9-84.65,4.62-23.74,11.62-92.49,8.43-114.6-.37-2.55,3.41-4.41-3.2-3.71-2.15,39.75-8.98,83.05-23.27,120.35-.44,1.15-3.19,11.21-5.59,8.43,11.56-31.08,19.57-63.44,24.06-96.4,3.41-25.01,6.6-51.19-.96-75.41l5.03-1.02c11.58,32.73,8.33,68.56,5.44,102.65-4.93,58.12-20.36,98.11-33.47,152.81-8.72,36.39-17.3,100.19-8.01,135.92,2.69,10.35,10.2,18.04,6.36,28.47Z"/>
    <path d="M120.69,464.17c-3.66-.79-3.67-3.95-4.01-6.95-2.15-19.08-.51-41.59-3.65-59.99-.88-5.14-4.61-9.05-5.7-14.25-6.58-31.46-9.22-59.42.5-90.88,3.72-.41,1.63,4.21,1.37,6.41-1.87,15.73-4.89,27.8-3.68,44.53,1.42,19.63,8.9,40.71,11.33,60.36,2.4,19.43.47,41.12,3.85,60.77Z"/>
    <path d="M3.25,375.42c-4.11-1.06-3.19-2.97-3.11-5.98,1.11-40.62,20.21-74.16,32.91-111.8l37.44-77.79c-7.73,26.49-22.73,50.48-33.43,75.81-8.65,20.49-19.11,45.69-25.53,66.73-5.42,17.76-10.07,34.13-8.27,53.03Z"/>
    <path d="M16.78,449.51c-6.09-5.81-7.6-18.2-7.8-26.04l7.8,26.04Z"/>
    <rect x="-.92" y="405.46" width="13.98" height="1.96" transform="translate(-400.4 409.94) rotate(-89.64)"/>
    <rect x="-3.77" y="382.44" width="11.98" height="1.96" transform="translate(-381.2 383.21) rotate(-89.64)"/>
  </g>
</svg>