<?xml version="1.0" encoding="UTF-8"?>
<svg id="Lag_2" data-name="Lag 2" xmlns="http://www.w3.org/2000/svg" viewBox="0 0 370.92 542.91">
  <g id="Lag_1-2" data-name="Lag 1">
    <path d="M247.83,23.44c.12-1.45,3.23-3.98,2.02-6.99-4.55,1.54-5.03,8.28-6.31,12.71-8.24,28.67-11.47,73.74-11.66,103.84-.18,28.39,5.56,55.45.16,83.79-13.81,72.44-49.98,141.32-77.87,208.96l-4.9,2.06c4.91-48.94-14.74-95.21-25.13-142.15-12.47,15.79-25.54,36.35-31.35,55.79-.71,2.37-3.77,30.18-9.13,23.95.39-33.87-16.68-65.81-13.4-100.08-8.53,11.11-14.41,24.85-22.16,36.92-27.74,43.2-52.28,58.76-42.21,117.09,2.69,15.59,7.35,27.73,10.01,43.75,3.42,20.58,21.78,40.1,26.74,60.07-2.82,3.16-10.7-11.86-11.55-13.42C12.71,476.11-6.57,409.8,2.17,372.44c8.11-34.7,42.82-65.29,58.44-97.81,10.23-21.3,12.64-43.08,20.18-64.1,1.17-3.27,1.37-5.86,5.89-5.09-2.09,18.37-10.4,36.75-12.08,55.17-2.57,28.27,7.89,55.15,11.24,82.8l13.78-29.29c12.36-15.59,21.84-31.61,24.45-51.58.22-1.65-1.16-22.19,4.34-16.84,4.16,17.31-1.28,30.42,2.28,48.45,7.21,36.53,23.91,73.25,24.76,111.71.52.76,2.2-1.09,2.97-2.01,7.12-8.46,35.39-78.12,41.17-93.16,15.1-39.26,32.02-91.41,31.26-133.33-.1-5.56-2.7-11.89-2.73-18.05-.15-34.84,1.16-111.08,13.62-142.07,1.62-4.02,16.57-20.39,20.25-16.7-.33,8.54-6.73,14.52-7.96,23.11-7.56,52.86,22.51,113.63,38.24,162.62,15.71,48.93,24.84,101.1,5.62,150.48,24.02-28.32,49.21-58.19,48.61-97.71l5.98.04c1.82,8.78-2,18.93-1.96,26.78.15,31.01,12.83,65.38,16.92,96.59,7.95,60.67,2.11,121.93-15.06,180.44l-7.52-.15-2.22-9.71,5.96,2.03c2.24-16.21,9.1-33.52,11.81-49.44,8.73-51.22,4.98-108.22-5.02-158.97-2.97-15.1-11.61-31.03-9.17-47.61l-52.31,74.43-6.14,1.2c-2.57-2.56,12.77-39.82,14.13-47.06,13.05-69.43-29.01-142.94-45.51-209.14-1.92-7.7-8.8-33.24-8.76-39.05.07-11.63-.68-24.61.23-36Z"/>
  </g>
</svg>