<?xml version="1.0" encoding="UTF-8"?>
<svg id="Lag_2" data-name="Lag 2" xmlns="http://www.w3.org/2000/svg" viewBox="0 0 231.21 422.36">
  <g id="Lag_1-2" data-name="Lag 1">
    <path d="M162.05,181.6l25.41-5.42c6.96-4.29,14.03-12.09,12.37-20.82-6.05-31.78-65.11-42.49-79.68-10.97l24.97,27.11,14.93,6.13-6.02,1.95c-.31,9.29,7.64,15.8,11.3,23.63,27.96,59.83-34.59,27.24-37.61,30.21l3.9,18.99-3.99-2.99,11.63,52.05c-3.62-2.12-5.3-10.46-6.46-14.46-8.85-30.58-14.51-62.2-26.88-91.74-4.18-.63-3.24-.26-4.46,2.49-4.82,10.8-5.85,25.41-17.03,33.07-8.11,5.56-29.77,7.65-36.69-.94,9.39.2,19.36,2.5,28.86,1.08,15.19-2.28,26.84-37.82,21.46-51.77l3.95,2.06-3.92-14.03-3.98,3.95.1-14.57-7.98-4.5c-12.92,14.82-38.08,11.17-42.26,32.74-6.45-2.52,6.15-12.55-.95-13.99-3.71-.75-15.94,5.78-18.93-.1l27.54-6.35c4.96-13.87,18.69-20.26,30.87-26.69l-.05-22.61c.47-.63,16.02,8.1,13.94,1.13-4.03-13.51-20.15-24.68-32.77-29.27l2.92,10.02h-3.97c-1.19-9.46-3.55-12.61-13.14-13.89-23.24-3.11-42.84,12.69-45.05,35.51-3.35.53-2.19-4.93-1.94-6.99,2.97-24.29,29.59-37.72,52.2-32.7l.06-11.97c.99,17.33,16.26,16.35,26.86,24.17,9.87,7.28,12.47,16.21,18.37,25.53,1.24,1.96-.23,3.57,4.44,2.6l7.09-35.67c.34-20.67,1.38-60.8-17.66-74.11-8.44-5.9-22.81-8.45-31.78-2.57-5.93,3.89-6.03,12.27-11,16C53.96,9.47,56.68,1.2,71.49.15c41.14-2.94,41.52,38.88,43.27,69.18,6.3-4.96,6.96-14.9,11.21-21.84,5.86-9.57,37.37-45.85,46.86-28.55,9.99,18.2-6.33,71.52-21.33,86.62-2.43-3.69,4.57-9.05,6.74-13.3,8.48-16.55,25.43-62.69,4.73-73.78-24,13.62-41.76,39.58-47.45,66.75-.76,3.63-4.7,29.67-4.43,31.23.24,1.39,10.39,7.42,10.32,12.97,10.65-3.91,18.08-9.08,25.04-17.89l-2.03,7.97c22.71,1.57,45.52,3.51,56.16,27.02,10.88,24.03-16.7,42.76-38.55,35.08ZM116.04,181.33c.04.11,1.27-.27,1.99,1.36,4.38,9.88,5.36,42.48,8.12,46.28,2.98,4.09,33.14,9.93,38.75,4.87,7.72-11.25.12-24.16-5.72-34.49-2.43-4.3-9.9-15.67-13.06-18.91-8.14-8.34-20.88-9.19-27.95-18.11,6.56-2.62,16.57,14.29,19.94,5.17-7.83-3.26-11.54-14.95-21.87-14.18-3.11,9.42-1.13,18.4-.2,28-.08-.23-1.79-.07-3-3.88-1.71-5.41-2.32-12.43-2.87-18.15-2.75-.57-4.81.68-5.67,3.3-2.74,8.29,6.82,39.27,10.41,48.67,1.26,3.28,3.75,10.49,6.85,12.09-.86-14.16-4.34-27.95-5.71-42.03ZM125.62,243.39c.16-4.38,1.18-10.44-3.88-12.01l1.93,12h1.96ZM106.2,153.29c-2.53-9.21,10.33-14.48,11.78-21.43,1.24-5.92-3.14-12.5-8.55-6.51l-4.14,9.91-8.94-4.02c1.34,2.95,3.67,5.01,4.63,8.33,1.52,5.27-.99,15.24,5.22,13.73ZM96.26,147.2l3.99.02-1.96-9.98h-1.96s-.07,9.97-.07,9.97ZM94.34,131.19c1-10.64-8.87-10.62-7.98-.05l7.98.05ZM56.15,162.93c6.38,3.84,33.8-16.37,30.12-19.78-11.7,1.68-24.61,9-30.12,19.78Z"/>
    <path d="M206.53,421.9c-3.66-3.88,4.66-7.23,5.63-9.31,7.97-17.13,17.14-80.88,15.09-99.59-.51-4.7-1.53-10.23-7.02-11.15-10.59-1.04-30.06,31.16-33.31,40.83-5.67,16.92-6.14,37.36,5.78,51.12-5.29,5.03-22.89-31.26-21.75-36.11l7.88,12.04c-1.97-23.22,12.04-51.81,29.16-67.11,16.64-14.86,22.01-2.97,23.16,14.47,1,15.22-10.29,89.23-17.74,100.73-1.21,1.86-5.19,5.88-6.88,4.08Z"/>
    <path d="M182.66,395.76c-4.31-1.91-5.63-6.66-9.21-9.76-10.35-8.97-50.17-39.31-61.01-43.1-7.26-2.54-15.69-3.89-23.4-3.72-3.19,8.86,8.58,10.96,6.9,18.02-7.82-5.37-20.77-24.84-4.15-23.86,30.27,1.77,56.94,32.5,80.96,48.36,2.26-2.67-26.12-55.43-29.11-63.65-.7-1.92-4.87-10.31-.42-10.53l39.45,88.24Z"/>
    <path d="M157.13,321.59c-2.76-.04-4.01-5.79-4.86-8.08-5.36-14.4-11.31-29.32-14.77-44.02l13.32,29.55,6.31,22.56Z"/>
    <path d="M192.57,411.81l-41.84-22.24c13.2,3.18,26.7,9.78,37.9,17.27,2.3,1.54,5.17-.47,3.94,4.96Z"/>
    <path d="M166.97,347.66c-6.18-3.7-7.83-13.36-7.83-20.04l7.83,20.04Z"/>
    <path d="M2.25,144.6c-3.5.44-1.85-4.55-1.94-6.98-.18-4.99.19-10.04.12-15.01,3.5-.44,1.85,4.55,1.94,6.98.18,4.99-.19,10.04-.12,15.01Z"/>
    <path d="M132.77,383.42c1.17-5.13,11.67.86,11.96,4.08l-11.96-4.08Z"/>
    <polygon points="22.08 172.73 19.12 172.7 14.13 166.71 22.11 168.77 22.08 172.73"/>
  </g>
</svg>