<?xml version="1.0" encoding="UTF-8"?>
<svg id="Lag_2" data-name="Lag 2" xmlns="http://www.w3.org/2000/svg" viewBox="0 0 496.75 658.21">
  <g id="Lag_1-2" data-name="Lag 1">
    <path d="M87.14,406.42c2.88-20.43,21.75-43.75,44.3-37.77,20.56,5.46,23.67,25.32,26.65,43.21,12.72-24.25,44.67-54.45,74.13-51.31,33.24,3.54,38.44,25.53,28.27,54.37-1.26,3.57-12.87,20.07-11.52,21.52,87.51-49.8,79.51,116.74-2.55,86,2.07,12.09,7.93,26.72,7.81,38.95-.09,9.12-4.58,38.27-7.38,47.03-6.34,19.79-22.62,32.74-44,29.55-18.28-2.73-28.9-32.13-34.35-47.61-.54-1.55.24-6.22-3.47-4.42-5.19,2.51-9.48,21.88-12.24,27.87-9.28,20.13-17.73,40.27-42.36,43.65-35.92,4.93-61.63-14.46-53.66-52.34,2.24-10.62,10.82-15.96,13.27-25.79-31.79,9.85-67.02,14.71-69.88-29.37-.96-14.83,2.57-19.8,12.19-30.1,11.18-11.96,23.37-13.99,38.16-19.67-12.15-6.37-22.07-9.92-30.76-21.27-2.16-2.82-2.07-6.37-3.65-9.34-.59-1.11-4.18-1.45-5.03-3.91-5.21-15.06,18.72-38.36,33.14-40.34,17-2.35,28.32,2.76,42.77,10.09.92-9.16-1.07-20.12.18-29ZM293.85,510.11c2.53-3,8.04-17.3,9.34-21.76,11.84-40.6-11.73-72.74-52.14-46.76-5.61,3.61-12.04,11.37-17.22,14.77-2.59,1.7-4.42,2.04-4.99-1.07-.44-2.44,13.35-16.57,15.76-20.23,14.98-22.69,30.33-65.34-10.48-68.48-38.58-2.97-72.35,29.39-75.19,67.29-5.25.42-3.3.2-3.88-3.05-2.24-12.51-1.64-33.32-7.69-44.12-6.83-12.2-26.49-17.86-38.15-10.26-16.97,11.05-20.02,35.54-18.33,54.1,1.26,13.83,7.12,14.09,12.35,23.58,4.47,8.11,9.05,16.44,11.47,25.47,6.23-5.61,10.04-12.82,17.59-17.38,6.38-3.85,24.52-12.17,30.52-5.3-36.68,5.3-55.33,25.66-43.84,63.16,4.75,15.5,16.77,24.2,33.44,20.87,15.03-3,29.75-13.63,36.87-27.05,14.61-27.52-4.52-35.44-22.5-51.95,8.07-1.5,23.43,11.41,27.59,17.45,10.37,15.04.65,35.88-9.14,48.52-17.12,22.1-58.38,30.85-69.43-.75-5.15-14.72-3.54-26.26-5.4-40.38-2.13-16.15-5.98-12.93-13.36-22.59-4.51-5.91-4.62-12.84-8.12-17.82-2.48-3.54-19.67-13.02-23.91-14.15-12.62-3.36-29.47.05-39.11,8.82-29.42,26.8,14.54,55.63,41.35,56.25,5.13,10.37-7.46,6.9-13.3,8.4-22.45,5.77-53.16,17.58-49.59,46.04,5.72,45.55,52.59,30.72,79.72,13.68,2.26,11.35-9.48,17.7-15.02,26.03-25.13,37.85-1.32,65.25,41.32,59.96,32.84-4.07,41.44-51.94,51.71-77.49l5.83.11c4.87,18.52,18.07,61.72,42.51,60.1,29.59-1.95,36.15-41.57,37.63-64.71,1.21-19.08-1.34-33.75-11.61-50.07,6.02-7.55,13.08.26,19.05,1.02,12.67,1.62,29.51.17,38.32-10.27Z"/>
    <path d="M346.53,188.06c.61-4.15,12.61-30.29,15.22-30.9,7.06-1.64,10,23.94,11.79,28.06,9.53-12.62,16.99-24.43,30.22-33.76,6.26-.12,1.34,36.38.76,41.97,11.49-11.14,21.73-23.41,36.22-30.79l3.95,2.08c1.2,6.2-10.31,26.04-11.3,32.8-.39,2.69,2.74,4.54,3.04,7.24,1.37,12.39-19.61,29.59-18.2,30.73,11.51,1.59,33.61,3.52,33.8,18.14-12.1,4.99-22.22,10-35.96,7.89,5.55,7.38,15.4,10.77,17.05,21.08l-1.7,4.52c-11.63,5.27-20.71,5.96-32.48.25-7.18-.14,16.38,44.32,17.64,48.18,8.06,24.85,15.17,72.54,18.16,99.32,2.34,20.99,1.34,43.61,3.84,64.77,4.55.88,3.19-.23,4.47-2.52,6.73-12.09,10.31-29.58,15.57-42.6,2.12-5.25,2.09-5.1,2.29.3-4.22,25.54-25.82,48.58-18.55,74.86l-5.96-2.05c-.29,4.4-2,8.49-2.2,12.94-.16,3.63,3.01,19.1-1.01,19.01-12.99-18.63-22.16-39.08-36.75-56.61-12.82-15.4-30.35-26.18-41.61-42.86,1.83-3.09,4.57.53,6.08,2,12.63,12.29,27.57,25.72,38.67,39.27,10.45,12.77,17.76,29,27.73,42.19,4.49.9,2.57-1.88,3.29-4.65,3.73-14.46,4.79-21.17-2.02-34.38-1.77-3.43-15.24-19.59-13.9-21.04l18.85,22.11c.97-41.27-3.31-85.73-10.79-126.48-3.98-21.65-7.68-42.56-19.05-61.69-3.37-.27-1.8,4.35-3.87,7.09-9.24,12.18-20.47-6.17-25.9-12.01-1.58-1.7-1.36-1.84-4.13-1.3-2.16,8.13-11.35,26.16-20.98,24l-6.04-24.17c-50.23,61.5-34.26-13.07-12.76-40.07-15.18,6.84-28.7,18.7-46.11,19.68-5.75-10.31,27.43-34.71,24.22-37.83-46.44-7.04-27.18-33.03,10.13-21.95l-13.74-36.08c12.05-3.08,15.48,7.78,21.4,12.18,5.34,3.97,14.23,9.33,20.44,12.07,1.03-9.73-1.19-21.6.2-31ZM402.13,251.38c.79.85,20.51,5.49,22.58,5.52,2.91.05,23.47-3.72,19.44-9.2-7.49-2.44-23.38-9.13-30.73-7.76-.92.17-7.13,5.52-8.7,6.92-.92.82-5.59,1.31-2.58,4.52ZM402.28,229.4c-4.84-5.32,20.7-22.42,23.86-27.14,2.89-4.32,12.91-29.43,10.49-32.63-23.38,13.16-35.61,38.18-52.33,57.67,2.01-12.29,10.31-20.96,14.06-33.04,3.13-10.05,7.86-26.32,1.35-34.83-3.98,0-23.74,28.67-26,34.02-3.63,8.6-2.62,19.46-10.39,25.7-1.67-10.32,5.38-20.29,5.26-30.86-.03-2.98-4.03-27.55-9.88-23.15-11.12,20.35-8,41.65-8.44,63.95l18.82,1.98c3.93,1.93-1.23,9.34-2.83,8.11-.73-8.93-9.54-6.46-15.73-3.82-3.32,31.15,40.72,32.17,31.85-1.15l-10.07-8.98c16.59-2.01,14.76,9,18.94,18.03s18.89-1.35,13-9.83c7.04,1.93,13.53-2.62,16.03-8.95,3.72-9.43-16.81,6.22-18,4.91ZM422.35,219.54c3.98-1.04,4.52-4.24,4.01-7.97-3.98,1.04-4.52,4.24-4.01,7.97ZM425.92,283.54c3.06-4.36-27.35-32.15-35.82-26.19l.02-8.02c-9.69,12.54-24.43,20.62-37.96,8.67-12.96-11.43-5.39-16.61-6.47-27.72-.43-4.46-25.27-25.28-30.3-27.41-1.18-.5-3.38-.39-2.96.95l17.72,34.14c-5.22,7.13-9.14-.59-13.94-2.1-10.16-3.19-19.6-4.81-29.98-1.17-5.65,7.91,32.25,17.25,37.9,14.24-8.08,13.32-27.88,17.22-34.21,33.74,21.5,1.66,33.59-21.44,54.14-23.63,2.79,2.87-13.88,20.34-16.53,24.5-5.88,9.22-14.84,27.42-14.03,38.32,1.6,21.43,26.6-13.47,29.77-20.36,1.68-3.65,5.36-20.36,7.66-20.38,6.85,6.12-.07,15.82-.94,23.17-4.39,37.2,14.21,20.92,17.62-.27,1.11-6.9-2.3-15.6,3.33-20.79,4.8-.92,2.61,3.5,3.2,6.7,2.68,14.48,3.49,29.05,21.51,31.42,2.58-16.6-3.11-25.69-15.73-35.09l9.92,3.06c-.82-7.84-12.1-11.35-7.84-20.04,8.77,3.72,17.66,13.66,27.35,15.72,6.14,1.3,10.78.18,16.54-1.48Z"/>
    <path d="M156.32,219.85l-.25,39c0,.81-6.75,12.23-8.1,13.94-12.8,16.25-32.27,20.32-51.17,12.78-23.53-9.39-20.86-40.64-16.49-61.17l-3.99-1.04c-5.88,19.88-36.6,60.97-60.24,44.54-1.33-.93-12-18.33-12.93-21.02-5.8-16.85-2.15-44.51,9.32-58.42,1.64-1.99,15.73-11.41,17.1-11.4l29,.18c1.09-4.8-.79-3.24-2.58-4.48-14.61-10.14-24.38-16.03-28.7-35.18-9.91-43.89,34.58-66.7,67.77-40.1,2.27-14.9,1.77-31.13,13.81-41.95,24.72-22.22,39.99-6.59,51.34,18.31,11.12-6.09,22.59-13.16,35.6-11.26,30.53,4.45,34.19,28.96,19.2,52.7-2.32,3.67-19.73,22.96-18.19,24.83,6.43-4.75,33.1.7,37.46,4.74,2.75,2.55,5.95,16.24,6.33,20.55,1.7,19.43-6.12,35.48-18.34,49.81-21.05,24.67-40.37,20.46-65.97,4.64ZM158.98,215.25c11.09,13.33,39.41,17.48,53.4,6.03,7.3-5.98,21.58-29.62,23.27-38.82,7.3-39.81-21.88-44.96-52.84-33.41-17.37,6.48-9.88,7.96-16.52,21.53-3.64,7.45-17.08,17.08-17.58,18.56-1.25,3.71,7.53,22.82,10.26,26.1ZM202.2,127.44c7.79-8.39,18.08-24.13,16.49-35.68-2.41-17.49-12.64-24.3-30.35-23.8-3.69.1-22.29,6.43-24.54,8.48-3.57,3.25-1.82,11.5-3.17,15.94-1.71,5.62-12.22,17.98-11.76,24.25,8.59,4.63,14.09,13.39,18.36,21.89,1.2,2.38,2.13,13.44,5.41,10.09,4.03-4.13,5.47-2.21,9.2-4.53,4.51-2.8,16.84-12.85,20.36-16.65ZM157.98,175.25c12.69-15.24,6.62-43.54-10.07-53.37l-7,7.87-.17-9.89-5.79-.16c2.26-7.66,1.86-19.53,4.69-26.44,5.07-12.39,25.05-16.05,3.52-36.31-8.96-8.43-16.65-7.32-26.48-1.04-24.74,15.82-16.75,45.75-5.72,67.64,1.44,1.08,18.64-10,21.97.12-22.55-1.31-37.65,15.47-42.85,36.11-8.08,32.04,23.97,45.51,49.85,30.37,2.48-1.45,16.5-13.04,18.06-14.91ZM144.96,115.77c2.41-11.12,11.71-19.94,10.22-31.92-3.97-4.73-23.33,27.42-10.22,31.92ZM86.47,193.41c.71,20.44-8.7,54.06-2.3,72.85,3.42,10.05,12.55,13.67,21.78,16.24,11.36,3.16,11.66,3.54,22.69-1.12,37.03-15.67,22.72-55.83,13.75-85.55-17.22,5.88-37.17,11.97-50.76-4.51-11.76-14.26-5.97-31.77,1.46-46.58,8.25-16.43,18.34-15.62,4.81-35.14-8.91-12.85-25.57-21.08-41.32-17.93-5.87,1.17-18.95,10.48-22.48,15.47-12.87,18.2,1.1,44.88,16.75,56.86,5.25,4.02,26.42,12.26,25.71,16.31l-44.53,3.22c-39.53,6.49-33.74,83.86-1.22,83.34,18.93-.3,34.77-26.92,41.86-42.19,4.76-10.26,6.3-23.8,13.81-31.28Z"/>
    <path d="M455.5,557.07c-.94.97-7.06,4.99-7.32,4.64-1.9-6.79,3.96-6.4,6.07-9.47,10.05-14.59,22.66-49.88,26.16-67.56,3.81-19.26,4.01-41.42.6-60.76l-7.99,5.94-.98-8.02-9.11,21.94c1.3-11.22,4.06-25.38,14.16-31.91-2.12,9.09,6.52,3.75,7.97,11.04,6.34,31.87-6.46,110.34-29.57,134.14Z"/>
    <path d="M485.62,17.92C488,11.8,487-.12,495.71,0l1.04,11.97-11.13,5.95Z"/>
    <path d="M356.99,433.14l.93,9.99-6.76-11.24c-.66-3.21-.31-3.08,2.71-2.68,11.37,1.5,20.83,6,27.03,16.06-9.04-3.24-12.57-12.55-23.91-12.12Z"/>
    <path d="M402.73,469.42c-3.64-2.16-8.45-5.85-7.9-10.05,3.64,2.16,8.45,5.85,7.9,10.05Z"/>
    <path d="M136.43,525.65v-5.91c14.93,5.24,20.69-2.01,30.05-11.82-.75,14.82-16.83,23.11-30.05,17.73Z"/>
    <path d="M154.58,495.82c-3.1-3.33,10.74-11.31,12.01-4.87l-4.09,6.02-7.92-1.16Z"/>
    <path d="M130.53,501.69c-2.18-2.59,5.49-13.71,7.93-4.84,1.85,6.71-5.77,7.41-7.93,4.84Z"/>
  </g>
</svg>