<?xml version="1.0" encoding="UTF-8"?>
<svg id="Lag_2" data-name="Lag 2" xmlns="http://www.w3.org/2000/svg" viewBox="0 0 233.67 419.8">
  <g id="Lag_1-2" data-name="Lag 1">
    <path d="M170.49,124.35l24.59-18.34c7.9-13.4-16.21-16.38-25.37-15.67-3.66.28-14.38,3.06-16.16,5.89-2.72,4.31,1.66,8.84.73,12.65-1.09,4.47-13.94,11.06-13.95,18.19,12.81,8.34,22.31,26.33,27.4,40.76,6.55,18.59,18.71,59.31-15.77,39.42,5.83-1.24,18.69,5.81,20.12-3.92.69-4.69-3.58-24.94-5.33-30.56-.99-3.18-16.46-36.57-20.35-32.55-.63,14.25-18.44,14.68-28.05,7.82-1.62,12.95,9.24,24.36,3.93,36.91l19.7,15.21-4.15,1.14,4.06,12.88-15.83-20.1,5.82,22.05-3.98-1.03c-2.14,17.02-3.57,40.61-19.66,50.52-5.71,3.52-17.71,8.88-18.63-1.78,7.5,8.07,21.22-2.08,26.05-8.82,7.63-10.66,12.22-41.97,6.33-53.58-1.65-3.26-14.58-13.3-15.89-16.52s1.07-3.92,4.03-1.99c4.04,2.64,8.55,10.3,9.89,15.09,4.05.35,1.37-5.85.5-7.46-6-11.23-24.34-16.32-26.32-30.68-5.13-.88-3.1.5-4.17,2.78-5.3,11.24-3,23.96-3.91,36.04-7.77,1.13-8.18,6.13-10.24,13.04-3.65.48-1.62-4.18-1.07-6.11,2.39-8.29,8.82-14.63,7.26-23.84l-11.99,5.92c-1.05-.71-3.33-21.48-3.47-25.02-.12-3.05,4.85-12.31-1.29-10.96-6.33,1.39-25.33,32.08-31.73,38.31l-13.7,27.36c-1.5-8.69,2.12-14.14,5.78-21.29,7.51-14.67,21.64-25.41,28.58-40.47-14.25.46-29.28.97-39.92-10.24,7.7.46,17.27,9.03,24.6,4.28,5.85-11.17,8.64-21.2,19.52-29.02-12.04-12.03-62.62-10.37-55.65,13.23,1.13,3.82,7.29,5.64,6.53,9.48-3.67-.11-7.12-4.97-8.03-7.96-8.55-28.02,26.8-28.98,45.25-23.84l-9.92-12.02,10.95,6.09c5.83-11.52,23.59-7.22,35.05-9.84,3.45-27.81-24.43-44.85-39.57-64.21,4.04.5,9.39,5.33,12.39,8.04,11.17,10.07,18.65,22.99,28.36,34.19,3.25,1.66,4.92-6.85,9.08-8.9,11-5.42,8.23,7.6,14.88,13.02l3.09-11.96,4.96.21c6.26-17.37,17.49-36.98,34.59-45.66,22.34-11.33,29.23,13.69,26.5,31.86l-5.01-21.85c-13.19-24-44.87,11.83-49,27.5l8.01-1.11c8.56,10.04.71,22.56-2.22,33.14l18.95,2.15,12.76-11.28,14.49-26.56c.01,12.11-9.06,21.63-14.18,31.88,15.18-3.1,26.18-.8,39.63,6.58,3.43,17.49-13.78,30.95-29.86,31.48ZM110.51,121.98c13.55-6.57,38.11,1.27,38.1-19.74-2.11-2.46-26.09,21.35-21.71,5.2,1.54-5.69,11.95-6.52,11.76-13.26-.88-.8-11.07,2.97-12.77,4.16-2.65,1.84-17.43,21.52-15.39,23.64ZM112.47,128.01c-4.14,13.18,24.83,25.12,27.88,15.1,2.92-9.59-20.07-18.21-27.88-15.1ZM114.66,100.01c8.05-2.59,19.82-33.76,16.21-37.89-16.34,3.31-16.82,24.28-16.21,37.89ZM118.16,172.03l-7.73-33.12-18.07,2.97c-3.05,2.92,11.13,32.56,15.82,28.08l-5.92-9.05c-1.45-3.57,2.84-3.72,5.01-2.99,1.32.45,7.65,13.2,10.89,14.1ZM107.73,90.92c-.12-3.29-8.4-21.74-11.87-21.01-10.44,4.3-1.81,34.01,7.69,32.02,3.01-2.17,4.31-7.63,4.18-11.01ZM105.92,135.44c2.76-6.51,3.46-12.76.42-19.3l-5.8-.2-1.04,9.96c-6.03-6.17-7.11-9.74-5.9-18.01-6.22,8.85-8.36,23.49,2.22,29.74l10.1-2.19ZM58.63,101.67c-6.18,5.31,24.52,11.23,27.04,11.52l6.89-10.33c-.29-5.43-29.5.45-33.93-1.19ZM90.65,95.85c.54-3.73.05-6.92-3.92-8.01l-.06,7.99,3.98.03ZM73.8,143.19c1.7-1.94,1.81-5.15,3.68-7.29,2.89-3.3,8.42-3.46,8.88-8.98.54-6.55-4.56-8.8-10.43-7.19-2.26.62-2.18,4.38-3.32,5.05-1.67.98-5.28-1.47-8.58-.74-8.23,1.8-19.36,16.59-17.68,25.55,11.72-4.66,19.88-11.68,27.13-21.82,3.9,6.53-4.32,11.06-5.14,16.94.07,2.1,5.28-1.3,5.47-1.51ZM72.14,179.74c14.25-4.57,15.06-23.09,14.21-35.89-18.58,2.79-13.66,21.92-14.21,35.89Z"/>
    <path d="M233.56,268.76c-7.13-.21-14.23,1.16-20.69,4.21-5.67,2.68-31.72,24.05-35.57,28.92-9.3,11.75-1.67,24.2-2.15,37.43-.29,8.03-3.14,22.64-10.18,27.02-4.07-9.85,5.35-13.24,6.06-15.42,3.22-9.79-1.33-24.22.22-34.53-2.7-3.06-11.5,10.11-12.49,12.49-3.96,9.63.19,19.45-11.72,22.37-2.62,6.2,21.49,21.47,17.83,25.07-3.57.73-4.83-1.94-7.02-3.98-2.04-1.91-10.64-15.95-13.94-10.19-4.73,8.26-2.56,26.66-2.17,36.03-13.04-14.74,6.94-37.21-6.69-50.01l6.97,3.99,2.03-1.93c.7-8.54,9.71-17.98,11.02-25.08,3.97-21.56-2.67-45.7-5.43-66.9l7.56,29.27,2.06,30.78c4.82-2.21,9-7.88,9.41-13.2.6-7.85-8.21-40.47-11.18-49.66-3.95-12.24-12.2-24.3-13.6-37.22l15.78,37.05,11.68,49.11c12.32-10.65,40.32-43.64,57.25-41.67,3.44.4,5.56,2.46,4.94,6.06Z"/>
    <path d="M154.72,404.26c-.39-6.21,7.27-6.67,11.06-9.91,23.18-19.85,60.75-71.47,60.61-102.65-.02-5.3-5.95-12.41,1.11-14.96.84,3.69,1.87,7.03,2.06,10.91,1.52,32.27-31.26,84.46-54.71,105.81-5.64,5.13-11.54,12-20.12,10.8Z"/>
    <path d="M96.96,361.9c-3.14-1.65-5.49-8.69-6.88-12.06-1.67-4.03-2.39-11.84-3.94-14-3.31-4.61-43.7-16.84,5.08-13.95l-16,2.87,19.96,5.16c-8.89,9.44.97,21.4,1.78,31.98Z"/>
    <path d="M117,40.02l-6.84-31.97-8.93,1.88c-.3-7.15,4.18-8.32,9.95-9.93,4.97,12.5,5.7,26.52,5.82,40.02Z"/>
    <path d="M130.69,408.14l18.92,8.13,3.04-6c7.04,18.39-17.17,5.9-21.96-2.13Z"/>
    <rect x="60.84" y="224.83" width="48" height="2" transform="translate(-141.52 309.23) rotate(-89.64)"/>
    <path d="M13.12,25.36c-.75-4.36.39-4.06,3.95-5.01,7.31-1.94,16.31-.08,20.02,7.15-8.83-3.23-14.42-6.01-23.97-2.14Z"/>
    <path d="M116.79,394.03l11.9,12.06c-4.97-.25-11.69-7.03-11.9-12.06Z"/>
    <path d="M49.74,241.58c1.52-1.15,7.07-12.88,10.06-9.9-.36,2.38-7.09,12.62-10.06,9.9Z"/>
    <path d="M145.69,246.2l-9.82-22.05c6,4.28,8.66,14.98,9.82,22.05Z"/>
    <polygon points="17.7 249.4 17.76 241.41 19.71 241.43 23.69 249.42 17.7 249.4"/>
    <rect x="107.94" y="53.03" width="11.98" height="1.96" transform="translate(59.2 167.59) rotate(-89.64)"/>
  </g>
</svg>