<?xml version="1.0" encoding="UTF-8"?>
<svg id="Lag_2" data-name="Lag 2" xmlns="http://www.w3.org/2000/svg" viewBox="0 0 311.35 297.88">
  <g id="Lag_1-2" data-name="Lag 1">
    <path d="M87.14,46.09c2.88-20.43,21.75-43.75,44.3-37.77,20.56,5.46,23.67,25.32,26.65,43.21C170.82,27.29,202.76-2.91,232.22.23c33.24,3.54,38.44,25.53,28.27,54.37-1.26,3.57-12.87,20.07-11.52,21.52,87.51-49.8,79.51,116.74-2.55,86,2.07,12.09,7.93,26.72,7.81,38.95-.09,9.12-4.58,38.27-7.38,47.03-6.34,19.79-22.62,32.74-44,29.55-18.28-2.73-28.9-32.13-34.35-47.61-.54-1.55.24-6.22-3.47-4.42-5.19,2.51-9.48,21.88-12.24,27.87-9.28,20.13-17.73,40.27-42.36,43.65-35.92,4.93-61.63-14.46-53.66-52.34,2.24-10.62,10.82-15.96,13.27-25.79C38.25,228.85,3.02,233.71.15,189.63c-.96-14.83,2.57-19.8,12.19-30.1,11.18-11.96,23.37-13.99,38.16-19.67-12.15-6.37-22.07-9.92-30.76-21.27-2.16-2.82-2.07-6.37-3.65-9.34-.59-1.11-4.18-1.45-5.03-3.91-5.21-15.06,18.72-38.36,33.14-40.34,17-2.35,28.32,2.76,42.77,10.09.92-9.16-1.07-20.12.18-29ZM293.85,149.78c2.53-3,8.04-17.3,9.34-21.76,11.84-40.6-11.73-72.74-52.14-46.76-5.61,3.61-12.04,11.37-17.22,14.77-2.59,1.7-4.42,2.04-4.99-1.07-.44-2.44,13.35-16.57,15.76-20.23,14.98-22.69,30.33-65.34-10.48-68.48-38.58-2.97-72.35,29.39-75.19,67.29-5.25.42-3.3.2-3.88-3.05-2.24-12.51-1.64-33.32-7.69-44.12-6.83-12.2-26.49-17.86-38.15-10.26-16.97,11.05-20.02,35.54-18.33,54.1,1.26,13.83,7.12,14.09,12.35,23.58,4.47,8.11,9.05,16.44,11.47,25.47,6.23-5.61,10.04-12.82,17.59-17.38,6.38-3.85,24.52-12.17,30.52-5.3-36.68,5.3-55.33,25.66-43.84,63.16,4.75,15.5,16.77,24.2,33.44,20.87,15.03-3,29.75-13.63,36.87-27.05,14.61-27.52-4.52-35.44-22.5-51.95,8.07-1.5,23.43,11.41,27.59,17.45,10.37,15.04.65,35.88-9.14,48.52-17.12,22.1-58.38,30.85-69.43-.75-5.15-14.72-3.54-26.26-5.4-40.38-2.13-16.15-5.98-12.93-13.36-22.59-4.51-5.91-4.62-12.84-8.12-17.82-2.48-3.54-19.67-13.02-23.91-14.15-12.62-3.36-29.47.05-39.11,8.82-29.42,26.8,14.54,55.63,41.35,56.25,5.13,10.37-7.46,6.9-13.3,8.4-22.45,5.77-53.16,17.58-49.59,46.04,5.72,45.55,52.59,30.72,79.72,13.68,2.26,11.35-9.48,17.7-15.02,26.03-25.13,37.85-1.32,65.25,41.32,59.96,32.84-4.07,41.44-51.94,51.71-77.49l5.83.11c4.87,18.52,18.07,61.72,42.51,60.1,29.59-1.95,36.15-41.57,37.63-64.71,1.21-19.08-1.34-33.75-11.61-50.07,6.02-7.55,13.08.26,19.05,1.02,12.67,1.62,29.51.17,38.32-10.27Z"/>
    <path d="M136.43,165.33v-5.91c14.93,5.24,20.69-2.01,30.05-11.82-.75,14.82-16.83,23.11-30.05,17.73Z"/>
    <path d="M154.58,135.5c-3.1-3.33,10.74-11.31,12.01-4.87l-4.09,6.02-7.92-1.16Z"/>
    <path d="M130.53,141.36c-2.18-2.59,5.49-13.71,7.93-4.84,1.85,6.71-5.77,7.41-7.93,4.84Z"/>
  </g>
</svg>