<?xml version="1.0" encoding="UTF-8"?>
<svg id="Lag_2" data-name="Lag 2" xmlns="http://www.w3.org/2000/svg" viewBox="0 0 240.42 244.38">
  <g id="Lag_1-2" data-name="Lag 1">
    <path d="M155.88,175l-.25,39c0,.81-6.75,12.23-8.1,13.94-12.8,16.25-32.27,20.32-51.17,12.78-23.53-9.39-20.86-40.64-16.49-61.17l-3.99-1.04c-5.88,19.88-36.6,60.97-60.24,44.54-1.33-.93-12-18.33-12.93-21.02-5.8-16.85-2.15-44.51,9.32-58.42,1.64-1.99,15.73-11.41,17.1-11.4l29,.18c1.09-4.8-.79-3.24-2.58-4.48-14.61-10.14-24.38-16.03-28.7-35.18C16.95,48.82,61.44,26.01,94.63,52.61c2.27-14.9,1.77-31.13,13.81-41.95,24.72-22.22,39.99-6.59,51.34,18.31,11.12-6.09,22.59-13.16,35.6-11.26,30.53,4.45,34.19,28.96,19.2,52.7-2.32,3.67-19.73,22.96-18.19,24.83,6.43-4.75,33.1.7,37.46,4.74,2.75,2.55,5.95,16.24,6.33,20.55,1.7,19.43-6.12,35.48-18.34,49.81-21.05,24.67-40.37,20.46-65.97,4.64ZM158.54,170.4c11.09,13.33,39.41,17.48,53.4,6.03,7.3-5.98,21.58-29.62,23.27-38.82,7.3-39.81-21.88-44.96-52.84-33.41-17.37,6.48-9.88,7.96-16.52,21.53-3.64,7.45-17.08,17.08-17.58,18.56-1.25,3.71,7.53,22.82,10.26,26.1ZM201.76,82.59c7.79-8.39,18.08-24.13,16.49-35.68-2.41-17.49-12.64-24.3-30.35-23.8-3.69.1-22.29,6.43-24.54,8.48-3.57,3.25-1.82,11.5-3.17,15.94-1.71,5.62-12.22,17.98-11.76,24.25,8.59,4.63,14.09,13.39,18.36,21.89,1.2,2.38,2.13,13.44,5.41,10.09,4.03-4.13,5.47-2.21,9.2-4.53,4.51-2.8,16.84-12.85,20.36-16.65ZM157.54,130.4c12.69-15.24,6.62-43.54-10.07-53.37l-7,7.87-.17-9.89-5.79-.16c2.26-7.66,1.86-19.53,4.69-26.44,5.07-12.39,25.05-16.05,3.52-36.31-8.96-8.43-16.65-7.32-26.48-1.04-24.74,15.82-16.75,45.75-5.72,67.64,1.44,1.08,18.64-10,21.97.12-22.55-1.31-37.65,15.47-42.85,36.11-8.08,32.04,23.97,45.51,49.85,30.37,2.48-1.45,16.5-13.04,18.06-14.91ZM144.51,70.92c2.41-11.12,11.71-19.94,10.22-31.92-3.97-4.73-23.33,27.42-10.22,31.92ZM86.02,148.56c.71,20.44-8.7,54.06-2.3,72.85,3.42,10.05,12.55,13.67,21.78,16.24,11.36,3.16,11.66,3.54,22.69-1.12,37.03-15.67,22.72-55.83,13.75-85.55-17.22,5.88-37.17,11.97-50.76-4.51-11.76-14.26-5.97-31.77,1.46-46.58,8.25-16.43,18.34-15.62,4.81-35.14-8.91-12.85-25.57-21.08-41.32-17.93-5.87,1.17-18.95,10.48-22.48,15.47-12.87,18.2,1.1,44.88,16.75,56.86,5.25,4.02,26.42,12.26,25.71,16.31l-44.53,3.22c-39.53,6.49-33.74,83.86-1.22,83.34,18.93-.3,34.77-26.92,41.86-42.19,4.76-10.26,6.3-23.8,13.81-31.28Z"/>
  </g>
</svg>