<?xml version="1.0" encoding="UTF-8"?>
<svg id="Lag_2" data-name="Lag 2" xmlns="http://www.w3.org/2000/svg" viewBox="0 0 205.86 410.27">
  <g id="Lag_1-2" data-name="Lag 1">
    <path d="M65.7,36.6c.61-4.15,12.61-30.29,15.22-30.9,7.06-1.64,10,23.94,11.79,28.06C102.24,21.15,109.7,9.33,122.93,0c6.26-.12,1.34,36.38.76,41.97,11.49-11.14,21.73-23.41,36.22-30.79l3.95,2.08c1.2,6.2-10.31,26.04-11.3,32.8-.39,2.69,2.74,4.54,3.04,7.24,1.37,12.39-19.61,29.59-18.2,30.73,11.51,1.59,33.61,3.52,33.8,18.14-12.1,4.99-22.22,10-35.96,7.89,5.55,7.38,15.4,10.77,17.05,21.08l-1.7,4.52c-11.63,5.27-20.71,5.96-32.48.25-7.18-.14,16.38,44.32,17.64,48.18,8.06,24.85,15.17,72.54,18.16,99.32,2.34,20.99,1.34,43.61,3.84,64.77,4.55.88,3.19-.23,4.47-2.52,6.73-12.09,10.31-29.58,15.57-42.6,2.12-5.25,2.09-5.1,2.29.3-4.22,25.54-25.82,48.58-18.55,74.86l-5.96-2.05c-.29,4.4-2,8.49-2.2,12.94-.16,3.63,3.01,19.1-1.01,19.01-12.99-18.63-22.16-39.08-36.75-56.61-12.82-15.4-30.35-26.18-41.61-42.86,1.83-3.09,4.57.53,6.08,2,12.63,12.29,27.57,25.72,38.67,39.27,10.45,12.77,17.76,29,27.73,42.19,4.49.9,2.57-1.88,3.29-4.65,3.73-14.46,4.79-21.17-2.02-34.38-1.77-3.43-15.24-19.59-13.9-21.04l18.85,22.11c.97-41.27-3.31-85.73-10.79-126.48-3.98-21.65-7.68-42.56-19.05-61.69-3.37-.27-1.8,4.35-3.87,7.09-9.24,12.18-20.47-6.17-25.9-12.01-1.58-1.7-1.36-1.84-4.13-1.3-2.16,8.13-11.35,26.16-20.98,24l-6.04-24.17c-50.23,61.5-34.26-13.07-12.76-40.07-15.18,6.84-28.7,18.7-46.11,19.68-5.75-10.31,27.43-34.71,24.22-37.83-46.44-7.04-27.18-33.03,10.13-21.95l-13.74-36.08c12.05-3.08,15.48,7.78,21.4,12.18,5.34,3.97,14.23,9.33,20.44,12.07,1.03-9.73-1.19-21.6.2-31ZM121.31,99.93c.79.85,20.51,5.49,22.58,5.52,2.91.05,23.47-3.72,19.44-9.2-7.49-2.44-23.38-9.13-30.73-7.76-.92.17-7.13,5.52-8.7,6.92-.92.82-5.59,1.31-2.58,4.52ZM121.45,77.94c-4.84-5.32,20.7-22.42,23.86-27.14,2.89-4.32,12.91-29.43,10.49-32.63-23.38,13.16-35.61,38.18-52.33,57.67,2.01-12.29,10.31-20.96,14.06-33.04,3.13-10.05,7.86-26.32,1.35-34.83-3.98,0-23.74,28.67-26,34.02-3.63,8.6-2.62,19.46-10.39,25.7-1.67-10.32,5.38-20.29,5.26-30.86-.03-2.98-4.03-27.55-9.88-23.15-11.12,20.35-8,41.65-8.44,63.95l18.82,1.98c3.93,1.93-1.23,9.34-2.83,8.11-.73-8.93-9.54-6.46-15.73-3.82-3.32,31.15,40.72,32.17,31.85-1.15l-10.07-8.98c16.59-2.01,14.76,9,18.94,18.03s18.89-1.35,13-9.83c7.04,1.93,13.53-2.62,16.03-8.95,3.72-9.43-16.81,6.22-18,4.91ZM141.52,68.08c3.98-1.04,4.52-4.24,4.01-7.97-3.98,1.04-4.52,4.24-4.01,7.97ZM145.09,132.08c3.06-4.36-27.35-32.15-35.82-26.19l.02-8.02c-9.69,12.54-24.43,20.62-37.96,8.67-12.96-11.43-5.39-16.61-6.47-27.72-.43-4.46-25.27-25.28-30.3-27.41-1.18-.5-3.38-.39-2.96.95l17.72,34.14c-5.22,7.13-9.14-.59-13.94-2.1-10.16-3.19-19.6-4.81-29.98-1.17-5.65,7.91,32.25,17.25,37.9,14.24-8.08,13.32-27.88,17.22-34.21,33.74,21.5,1.66,33.59-21.44,54.14-23.63,2.79,2.87-13.88,20.34-16.53,24.5-5.88,9.22-14.84,27.42-14.03,38.32,1.6,21.43,26.6-13.47,29.77-20.36,1.68-3.65,5.36-20.36,7.66-20.38,6.85,6.12-.07,15.82-.94,23.17-4.39,37.2,14.21,20.92,17.62-.27,1.11-6.9-2.3-15.6,3.33-20.79,4.8-.92,2.61,3.5,3.2,6.7,2.68,14.48,3.49,29.05,21.51,31.42,2.58-16.6-3.11-25.69-15.73-35.09l9.92,3.06c-.82-7.84-12.1-11.35-7.84-20.04,8.77,3.72,17.66,13.66,27.35,15.72,6.14,1.3,10.78.18,16.54-1.48Z"/>
    <path d="M174.67,405.61c-.94.97-7.06,4.99-7.32,4.64-1.9-6.79,3.96-6.4,6.07-9.47,10.05-14.59,22.66-49.88,26.16-67.56,3.81-19.26,4.01-41.42.6-60.76l-7.99,5.94-.98-8.02-9.11,21.94c1.3-11.22,4.06-25.38,14.16-31.91-2.12,9.09,6.52,3.75,7.97,11.04,6.34,31.87-6.46,110.34-29.57,134.14Z"/>
    <path d="M76.16,281.68l.93,9.99-6.76-11.24c-.66-3.21-.31-3.08,2.71-2.68,11.37,1.5,20.83,6,27.03,16.06-9.04-3.24-12.57-12.55-23.91-12.12Z"/>
    <path d="M121.9,317.96c-3.64-2.16-8.45-5.85-7.9-10.05,3.64,2.16,8.45,5.85,7.9,10.05Z"/>
  </g>
</svg>