<?xml version="1.0" encoding="UTF-8"?>
<svg id="Lag_2" data-name="Lag 2" xmlns="http://www.w3.org/2000/svg" viewBox="0 0 351.69 424.27">
  <g id="Lag_1-2" data-name="Lag 1">
    <path d="M327.95,423.87c-1.75-1.32,1.35-14.59-5.29-17.65-1.45-.67-11.69-2.49-13.71-2.52-94.9-1.39-192.28-3.83-286.02,16.23l-22.93-1.12c3.64-6.35,20.34.38,21.47-5.77-7.29-32.74-8.05-66.29-8.07-99.8-.05-76.44,4.22-153.96-7.3-230.41l1.14-22.94c4.56,2.82,2.19,5.12,2.3,8.43.39,12.16,1.23,26.44,2.41,38.55,5.36,54.76,7.34,105.04,7.85,160.06.34,36.29-7.46,108.62,8.11,138.68.68,1.31-.36,4.24.4,6,1.87,1.3,4.04,1.66,6.28,1.7,24.76.44,59.78-11.42,86.42-12.81,44.58-2.33,93.49-.93,138.01-.95h63.77s3.4-4.66,3.4-4.66c-8.87-45.94,1.8-92.14,4.89-137.91,2.74-40.44-.3-79.98,8.66-120.05L346.63,0l5.06,1.98-5.65,76.92c2.07,101.71-26.03,215.12-15.89,315.96.55,5.44,5.56,20.6,5.48,21.73-.19,2.62-4.9,9.37-7.67,7.27Z"/>
    <path d="M234.44,27.28c-.43-3.52,4.53-1.87,6.99-1.96,28.66-1.01,57.62,1.47,86.02-3.49,3.41,7.91-10.9,5.96-16.01,5.93l-77-.49Z"/>
    <path d="M79.41,32.3c-1.99.1-11.46,5.63-12.99-.06,19.21-3.11,38.47-4.76,58-3.63l-13.01,3.9c-10.62.37-21.39-.73-32-.2Z"/>
    <path d="M158.43,28.8c-.43-3.52,4.53-1.87,6.99-1.96,10.66-.37,21.42.39,32.1.3,8.03-.07,16.69-1.99,25.6-1.19,1.86.17,5.84.55,5.31,3.29l-70-.44Z"/>
    <path d="M8.34,43.83c4.68-6.33,16.94-5.44,24.03-5.81l-24.03,5.81Z"/>
    <rect x="140.43" y="14.69" width="2" height="30" transform="translate(110.84 170.93) rotate(-89.64)"/>
    <polygon points="42.39 36.04 57.92 33.27 64.38 35.21 42.39 36.04"/>
  </g>
</svg>