<?xml version="1.0" encoding="UTF-8"?>
<svg id="Lag_2" data-name="Lag 2" xmlns="http://www.w3.org/2000/svg" viewBox="0 0 103.06 103.61">
  <g id="Lag_1-2" data-name="Lag 1">
    <path d="M27.55,13.72c-.03-.1-.53-.18-.69-.68-.75-2.43-2.23-9.07-.91-11.18s7.28-.71,8.8.96l13.48,16.24c1.27.22,2.67-3.19,3.54-4.28,1.83-2.31,4.36-4.74,6.61-6.67,2.79-2.41,6.02-4.57,9.04-6.58.63-.42,3.16-1.62,3.79-1.52.45.07,3.95,2.47,4.1,2.89,2.11,6.13-9.15,22.31-11.74,28.36-1.94,4.54-2.98,8.09-5.57,12.4-.54.9-1,3.22-2.02,3.42-1.75.34-5-4.1-6.38-5.21-.83-.67-2.31-1-2.96-1.73-.7-.78-.64-1.89-1.35-2.95-1.86-2.77-7.22-6.32-9.77-9.37-3.61-4.31-6.12-8.93-7.97-14.11ZM53.88,42.08c2.93-4.34,4.55-9.33,6.97-13.93,2.99-5.67,7.11-11.52,9.51-17.44.44-1.09,3.39-8.55.57-8.04-6.92,5.09-15.61,10.43-18.27,19.05-4.19-.39-1.6,3.22-3.7,5.11-3.1-.88-1.76-2.91-2.21-5.18-.36-1.8-10.38-14.53-12.21-16.31-6.17-6-5.77,3.16-4.62,7.35,3.23,11.85,13.95,18.7,21.4,27.42.21.24,2.28,2.14,2.54,1.95ZM65.6,22.17l-1.56,2.34c1.63.4,1.52-1.18,1.56-2.34ZM62.48,27.64h-.77s-.39,1.56-.39,1.56c.98.1,1.32-.62,1.17-1.56Z"/>
    <path d="M92.56,95.58l-.78.2v2.14s-.39-1.17-.39-1.17l-1.17.39c-.14-1.27.46-2.45.42-3.71-.08-3.04-4.55-6.94-6.34-9.34l.05-1.78c-.12-.13-.7.27-.98.22-.67-.12-7.45-9.38-8.25-10.72-1.84-3.1-6.7-12.13,1.12-8.54,2.57,1.18,7.56,5.63,9.89,7.69.88.78.74,1.92,2.12,1.58.19-5.26,2.42-13.87,7.06-16.96,4.25-2.83,8.07,1.37,7.71,5.72-.75,9-4.62,18.68-7.15,27.25-.68,2.29-.86,5.24-1.63,7.35-.7,1.94-1.59,1.51-1.69-.32ZM93.35,83.09c.39-.06.74-.49.95-.8,1.4-2,5.31-19.29,5.22-22.05-.02-.72-.32-1.68-.94-2.13-1.7-.53-4.9,5.2-5.44,6.63-2.34,6.24-.37,12,.19,18.35ZM90.21,86.21c.29-2.13.09-6.66-1.16-8.41-.97-1.36-5.32-4.64-6.85-6.04-1.41-1.29-2.89-4.12-5.27-3.9-.49.47,3.19,5.83,3.73,6.61,1.39,2.01,3.34,4.5,4.87,6.46,1.41,1.81,3.05,3.65,4.67,5.28ZM97.64,78.4l.78-2.73c-.67.1-1.69,2.49-.78,2.73ZM91.39,77.62h-.78s.39,2.34.39,2.34h.38s0-2.34,0-2.34ZM82.4,79.57c.29-.59-1.11-1.93-1.56-1.56.34.68.62,1.72,1.56,1.56ZM92.17,83.48l-.39-1.56h-.38s0,1.56,0,1.56h.78ZM96.07,84.26l.39-1.95c-.83.33-1.32,1.06-1.17,1.95h.78Z"/>
    <path d="M21.02,101.49c-.09-.09-1.55-.18-2.39-.82-2.92-2.25-7.94-8.02-10.64-10.95-4.36-4.72-7.02-7.4-7.92-14.36-.16-1.28-.15-2.01,1.38-2.34,1.19-.26,7.7,1.77,9.08,2.44,2.75,1.34,4.72,4.03,7.23,5.69l.59-.2c1.71-3.02,8.53-9.79,11.94-9.95,4.86-.23,3.69,5.73,2.79,8.66-.5,1.62-1.69,3.29-2.25,4.78-2.27,6.05-4.72,12.05-6.31,18.32-.02.31-2.17.87-2.29.85-1.51-.28-.96-1.86-1.2-2.12ZM22.2,98.27c1.67-6.47,5.1-12.43,7.37-18.6.26-.71,2.53-6.5-.1-4.79-2.08,1.35-7.77,6.24-8.23,8.58-.16.83.43,1.43.03,2.34-.86,1.97-3.93.48-5.62.34.19-2.35-1.76-4-3.39-5.39-1.03-.88-6.66-4.8-7.6-3.51.83,6.24,6.14,11.28,10.53,15.42,1.88,1.77,4.51,3.45,5.93,5.58l1.07.03ZM23.02,101.44h-.77s-.39,1.56-.39,1.56c.98.1,1.32-.62,1.17-1.56Z"/>
  </g>
</svg>