<?xml version="1.0" encoding="UTF-8"?>
<svg id="Lag_2" data-name="Lag 2" xmlns="http://www.w3.org/2000/svg" viewBox="0 0 127.91 102.59">
  <g id="Lag_1-2" data-name="Lag 1">
    <path d="M59.04,101.35c-6.94,4.09-7.78-3.02-10.47-5.64-7.23-7.05-19.29-17.56-24.61-25.48C12.58,53.32,6.77,29.58,0,10.46l4.99-3.01c5.01,1.1,30.85,45.06,37.84,52.09,1.64,1.65,1.72,2.9,4.83,2.16C47.47,37.82,93.79-1.03,115.03.02c23.92,1.18,8.48,28.9,1.61,39.96-14,22.53-33.96,39.34-54.25,55.85-1.85,1.51-2.55,5.04-3.36,5.52ZM70.27,84.62c14.72-10.83,36.23-31.8,45.26-47.78,4.74-8.38,11.65-22.15,5.22-30.83-16.97-12.37-58.28,26.8-65.34,42.4-2.84,6.28-4.87,24.44-5.82,25.33-5.17,4.8-11.36-13.22-13.84-17.14-7.59-11.97-15.59-25.33-25.8-35.12-1.18,17.18,29.06,69.19,44.86,71.78,7.66,1.26,11.7-5.87,15.46-8.64Z"/>
  </g>
</svg>