<?xml version="1.0" encoding="UTF-8"?>
<svg id="Lag_2" data-name="Lag 2" xmlns="http://www.w3.org/2000/svg" viewBox="0 0 31.12 43.26">
  <g id="Lag_1-2" data-name="Lag 1">
    <path d="M20.62,40.92l-.78.2v2.14s-.39-1.17-.39-1.17l-1.17.39c-.14-1.27.46-2.45.42-3.71-.08-3.04-4.55-6.94-6.34-9.34l.05-1.78c-.12-.13-.7.27-.98.22-.67-.12-7.45-9.38-8.25-10.72-1.84-3.1-6.7-12.13,1.12-8.54,2.57,1.18,7.56,5.63,9.89,7.69.88.78.74,1.92,2.12,1.58.19-5.26,2.42-13.87,7.06-16.96,4.25-2.83,8.07,1.37,7.71,5.72-.75,9-4.62,18.68-7.15,27.25-.68,2.29-.86,5.24-1.63,7.35-.7,1.94-1.59,1.51-1.69-.32ZM21.41,28.43c.39-.06.74-.49.95-.8,1.4-2,5.31-19.29,5.22-22.05-.02-.72-.32-1.68-.94-2.13-1.7-.53-4.9,5.2-5.44,6.63-2.34,6.24-.37,12,.19,18.35ZM18.27,31.55c.29-2.13.09-6.66-1.16-8.41-.97-1.36-5.32-4.64-6.85-6.04-1.41-1.29-2.89-4.12-5.27-3.9-.49.47,3.19,5.83,3.73,6.61,1.39,2.01,3.34,4.5,4.87,6.46,1.41,1.81,3.05,3.65,4.67,5.28ZM25.7,23.74l.78-2.73c-.67.1-1.69,2.49-.78,2.73ZM19.45,22.96h-.78s.39,2.34.39,2.34h.38s0-2.34,0-2.34ZM10.46,24.91c.29-.59-1.11-1.93-1.56-1.56.34.68.62,1.72,1.56,1.56ZM20.23,28.81l-.39-1.56h-.38s0,1.56,0,1.56h.78ZM24.13,29.6l.39-1.95c-.83.33-1.32,1.06-1.17,1.95h.78Z"/>
  </g>
</svg>