<?xml version="1.0" encoding="UTF-8"?>
<svg id="Lag_2" data-name="Lag 2" xmlns="http://www.w3.org/2000/svg" viewBox="0 0 139.8 115.58">
  <g id="Lag_1-2" data-name="Lag 1">
    <path d="M67.67,43.64c4.76,1.14,3.23-.86,4.45-2.58,5.31-7.53,8-15.48,14.67-23.32,16.28-19.16,32.32-25.08,52.73-6.32,3.85,34.95-30.87,55.7-51.19,78.32-3.85,4.28-17.75,24.97-20.52,25.66-3.49.87-6.99-1.97-9.95-3.49-15.36-7.88-46.74-26.61-54.05-42.01-11.89-25.06,5.67-45.41,31.19-48.24,19.49-2.16,28.35,2.32,32.67,21.97ZM92.57,80.97c13.67-14.12,43.25-39.93,43.3-59.92.03-12.7-14.36-16.34-25.02-15.27-7.84.78-21.32,13.86-25.92,20.15-5.95,8.13-7.21,17.71-11.32,24.24-1.42,2.26-3.33,1.77-5.04,3.44-3.65-.27-5.15-25.51-17.86-28.02-15.79-3.12-36.76,1.81-44.07,17.65-8.08,17.51,2.89,31.25,16.09,41.78,5.41,4.31,40.12,26.7,44.19,24.34,6.59-10.33,16.96-19.41,25.66-28.39Z"/>
  </g>
</svg>