<?xml version="1.0" encoding="UTF-8"?>
<svg id="Lag_2" data-name="Lag 2" xmlns="http://www.w3.org/2000/svg" viewBox="0 0 124.4 97.75">
  <g id="Lag_1-2" data-name="Lag 1">
    <path d="M115.8,8.53c-2.87-2.66-12.93-3.59-17.18-3.28-28,2.02-30.92,26.99-39.62,48.41-5.35-6.28-.39-12.68-1.65-20.05-.74-4.34-7.26-17.28-10.6-20.06C35.93,4.54,5.57,2.71,4.91,21.93c-.57,16.39,4.81,29.8,18.38,39.18,6.8,4.7,34.55,15.82,37.61,20.5,2.15,3.29-.14,4.18-2.14,6.05C35.01,69.44,4.45,67.06.31,32.13c-5.17-43.68,55.8-35.25,60.85-.44l13.08-20.96c14.11-15.31,53.73-16.16,49.89,10.19-1.43,9.81-23.64,41.04-31.16,49.04-2.9,3.08-7.08,4.72-10.18,7.81-3.35,3.33-16.79,19.62-18.09,19.94-1.87.45-5.64-1.9-3.98-3.99,17.09-19.43,39.21-34.54,52.18-57.92,4.26-7.68,10.73-19.99,2.89-27.26Z"/>
  </g>
</svg>