<?xml version="1.0" encoding="UTF-8"?>
<svg id="Lag_2" data-name="Lag 2" xmlns="http://www.w3.org/2000/svg" viewBox="0 0 114.24 138.53">
  <g id="Lag_1-2" data-name="Lag 1">
    <path d="M43.94,67.99c.22-1.8,1.93-16.76,4.09-13.97,1.57,5.8-2.81,10.12-4.09,13.97Z"/>
    <path d="M77.62,120.21c-.73-.63,1.67-4.78-1.97-4.01-3.22,7.59,6.78,11.59,7.48,15.33.5,2.66-1.53,8.46-5.61,6.67-9.83-22.03-31.42-38.23-50.74-52.33-1.84-1.35-4.68-.29-5.88-1.97-2.81-3.96-8.9-22.88-12.8-25.21l-8.11,1.02C.56,39.81,4.25,23.31,17.34,7.83l2.99,5.94c5.27.48,10.6-.91,14.98-3.84s5.16-7.84,9.04-9.94l-1.8,13.65,13.66,8.41,4.08-14.62,6.03-1.31c.9,8.95-6.62,17.73,2.89,24l9.75-13.22c12.92-10.69,22.47-14.18,30.28,3.46l5.01-3.94c-2.99,9.82-5.66,20.29-9.21,29.9-4.98,13.49-14.33,28.86-18.22,41.93-.73,2.47-5.08,35.45-9.19,31.94ZM98.15,38.33c4.06-10.77,9.37-14,1.84-25.66-8.14-5.1-27.37,11.6-25.82,21.5l15.07-11.89c2.71,15.15-9.73,28.93-11.31,43.91-3.53.49-2.02-4.6-1.49-6.54,2.2-8,8.61-18.19,9.65-26.5.49-3.94-.52-3.02-3.88-2.91-4.77,15.61-22.79,25.32-16.31,43.89l-9.72.09-9.61,17.69c-.82,3.02,13.97,17.38,17.12,14.22l8.18-29.95-6.22,28.93c2.17,9.19,1.61-8.21,6.08-6.94,1.43,6.1-7.57,13.15-1.09,17.95l30.35-69.86,3.16-13.88-6,5.95ZM64,54.11l6.09-14.86-11.89-9.17c-4.68,11.33-11.67,21.68,5.8,24.03ZM43.94,67.99c-.69,5.71-1.85,15.14.86,20,8.43-11.4,17.59-21.74,9.18-35.95l-5.96,1.98-1.15-4.19-6.82,2.14c-2.77-3.14,21.61-30.32,2.3-35.2-6.8-1.72-14.27,34.92-16.38,41.1-3.55.47-2.01-4.56-1.48-6.53,3.12-11.6,8.18-23.85,11.76-35.38l-7.04,5.94-.96-6.02c-8.61.46-11.38,5.72-10.1,13.95l-1.91-6.92-3.98-1.09c-4.54,9.59-9.08,17.51-3.22,27.96l13.11-17.9c4.83,11.57-12.68,12.99-11.74,22.62.07.75,6.04,12.74,6.6,13.45,1.49,1.92,4.27-.13,4.61.29,1.6,1.98,1.49,13.67,8.04,4.43,1.64-2.32,1.08-6.98,4.26-6.71l-4.04,13.01,9.9,9.02c-1.43-7.85,1.98-13.42,4.15-19.97Z"/>
  </g>
</svg>