<?xml version="1.0" encoding="UTF-8"?>
<svg id="Lag_2" data-name="Lag 2" xmlns="http://www.w3.org/2000/svg" viewBox="0 0 156.01 195.13">
  <g id="Lag_1-2" data-name="Lag 1">
    <path d="M81.18,194.84c-4.66.96-3.2-.57-4.46-2.59-19.16-30.78-61.4-52.55-66.47-87.32-.87-5.96-2.95-18.85,5.63-18.47-12.62,33.87,26.03,59.12,47.89,78.44,5.19,4.58,8.12,13,15.52,11.95,4.7-17.92,14.49-37.19,24.01-53.2,12.84-21.58,49.42-59.84,48.94-83.26-.71-34.34-25.94-24.17-43.07-7.41-9.87,9.65-8.6,17.82-17.09,25.95.79-10.71-9.12-48.62-18.19-52.6-18.88-8.29-34.14,12.27-39.45,27.55-1.07,3.08,1.71,5.73-4.24,4.65-1.64-19.63,27.09-46.79,45.63-36.1,10.58,6.1,15.42,26.79,16.36,38.49,5.6.75,6.82-5.7,10.25-8.72,8.26-7.27,36.95-27.6,46.04-18.04s8.76,26.28,5.51,38.04c-7.94,28.7-52.94,74.27-68.05,110.22-4.84,11.52-7.38,19.89-4.75,32.43Z"/>
    <path d="M25.74,110.49c-2.4-9.68,1.45-23.34-9.75-27.16-5.1-1.74-13.68,1.61-12.06-4.97,9.42-1.79,15.47,2.06,23.95,4.15l6.09-27.87c-8.09.33-12.01-6.15-17.82-10.21-1.49,8-5.89,22.81-16.16,21.88,14.31-13.18,16.57-27.62,10.3-45.9l6.02,1.37c1.29,9.33,8.32,31.37,20.27,28.44,3.32-.82,15.02-11.97,17.56-9.53-4.11,9.62-11.88,11.4-17.13,21.88-1.44,2.87-6.12,14.7-6.65,17.42-1.92,9.86,3.13,24.07-4.64,30.51Z"/>
    <path d="M73.43,152.79l-9.82-17.11-13.96-13.02,17.92,8.1c.86-8.38,4.23-16.84,10.13-22.94l-17.85-15.11c2.39,3.8-7.75,30.7-12.17,25.91.69-8.91,7.87-15.21,9.32-23.85,1.39-8.3-3.67-14.83,1.95-20.02,8.01,13.27,11.17,31.51,30.83,26.17-3.32,8.99-13.59,12-16.8,22.19-4.04,12.84,3.57,18.43.46,29.69Z"/>
  </g>
</svg>