<?xml version="1.0" encoding="UTF-8"?>
<svg id="Lag_2" data-name="Lag 2" xmlns="http://www.w3.org/2000/svg" viewBox="0 0 108.68 519.31">
  <g id="Lag_1-2" data-name="Lag 1">
    <path d="M72.61,519.31c-3.28-3.07,23.99-17.28,24.08-18.83-2.57-3.75-4.48-3.31-8.49-2.63-3.65.62-28.38,10.36-31.55,12.36-.96.6-2.61,2.54-2,2.99l9.99.09c-.33,10.11-10.19,3.37-16.02,3.88-2.34-5.57,7.31-2.87,4.01-7.92-.14-.21-2.79,1.01-4.29-2.77-8.74-21.97-12.34-64.94-19.22-90.28-4.18-15.41-13.87-29.99-17.06-42.77-3.88-15.54-3.46-60.81-4.1-79.43-.53-15.56,1.78-94.11-3.21-101.8-.91-1.4-6.99-1.36-3.84-5.19.25-.31,3.35.42,3.83-1.42.56-2.13,1.26-17.78.09-18.7l-3.98,1.99c.45-4.22-.63-9.09-.08-13.14.47-3.51,3.48-2.68,4.01-4.4,4.39-14.19,6.87-27.62,8.42-42.42-8.83,5.42-.54-7.73-.02-11.09,5.3-34.44-.29-56.69,25.62-84.76,9.77-10.59,15.97-20.26,27.94-5.67s12.4,30.78,5.82,47.9c-5.16,13.42-16.56,37.64-27.24,46.89-3.55,3.07-11.61,5.71-13.12,8.84-.86,1.8-2.94,17.89-2.96,21.2-.17,35.68,10.16,84.08,14.82,120.15,2.18,16.87,2.36,34.06,5.91,50.77-3.07.47-2.33-3.75-2.9-6.03-5.47-21.92-4.29-44.14-9.61-66.03-3.33,2.25-2.91,5.44-3.17,8.86-1.46,19.13-1.88,36.66,3.75,55.12-3.5,4.14-7.91-10.57-7.94-12.02-2.67-.53-2.07.75-2.06,3,.06,12.64,10.23,25.69,9.8,39.02l-13.74-42.06-4.01,7.95-1.87-27.99c-3.47-.5-1.91,4.54-2.02,6.95-1.1,25.27-1.61,50.13,1.53,75.02l5.99-3.94,1.86,24.01-3.95-2.05,29.09,144.2c19.26-4.09,34.46-24.32,52.01-7.67,1.46-8.53-3.73-15.73-5.37-23.51-.43-2.02-1.98-7.03,1.56-6.5l9.78,38.03c-15.34-6.29-23.03,8.09-36.07,11.77ZM65.64,41.28c1.06,1.98-1.99,6.8,5.93,8.04l.1-16-6.03,7.96c.35-7.66-2.71-21.86-10.85-21.96l-.99-6.12c-23.12,5.99-9.19,26.28-4.25,41.98-.84-.55-11.29-9.74-11.56-10.48-.72-1.98,3.23-12.02-1.27-15.6-10.68,12.59-17.95,25.49-11.25,41.92,10.71,1.72-6.99-14.89,3.05-15.97l6.95,16.01,3.99-5.94c2.22,4.23.77,17,7.91,16.03,1.87-11.13-7.7-16.36-9.95-25.99l-3.87,1.93-1.88-18.02c5.56,3.68,5.78,11.97,9.21,17.59,1.17,1.92,11.68,11.6,12.57,10.54-.58-4.16-2.58-7.81-3.9-12.02.94.61,3.68,2.39,3.97,2.02l-1.9-10,6.93,10.02c7.39-10.33-9.07-18.31-2.84-30l-10.02,5.91.11-13.98,3.98,6.01c5.52,2.46,3.2-7.89,6.96-1.92,3.5,5.55,2.82,12.89,4.97,16.57,1.24,2.12,3.84,1.29,3.94,1.47ZM55.37,79.2l10.16-23.92c-4.96,2.55-9.38,10.74-11.14,15.87-.65,1.9-2.95,8.34.98,8.05ZM33.44,75.08c.33,4.18,5.85,21.03,10.72,19.99,1.84-.39,5.94-4.94,4.86-7.61-.38-.94-14.49-8.52-15.58-12.38ZM37.25,101.09c1.49-1.74-2.24-11.69-5.89-12.03-1.23,2.32,2.04,16.53,5.89,12.03ZM34.47,225.09l.19-30c-2.99.36-4.7,7.03-5.5,9.53-3.54,11.13-5.37,24.01-8.83,35.37.07,5.99,2.53,2.16,3.49-.51,2.21-6.16,4.24-12.34,6.69-18.39l3.95,4.01ZM32.1,281.07c-1.24-8.32-3.4-17.07-5.73-25.13-.78-2.7-.15-6.21-4.03-6.93,1.02,10.23,1.46,25.17,9.76,32.06ZM28.7,185.04c.35-3.61,1.67-6.68,1.54-10.43-.06-1.67-.65-9.92-3.37-9.56l1.83,19.99ZM27.08,127.03l-1.88-13.99c.47,4.16-6.43,15.4,1.88,13.99ZM17.16,112.97c-.54-4.69,3.99-10.34-1.88-12l-.08,11.99h1.96ZM18.44,226.98l.12-18.97-3.86-15.04c-.05,8.99-1.62,17.74.07,26.74.41,2.2.52,7.5,3.68,7.27ZM10.51,218.94l-.18,29c0,.54,4.01,9.04,5.92,9.03.77-11.07-.08-21.27-2.82-31.99-.59-2.3.19-6.48-2.92-6.04ZM15.59,360.96l.09-13.98h-1.96s-.09,13.97-.09,13.97h1.96ZM10.83,164.93l2.19-29.97-8.11,24.71,5.92,5.26ZM10.57,206.93c-.31-7.79,2.18-15.71,1.6-23.46-.27-3.69-.51-6.28-3.41-2.53l-.13,19.01,1.94,6.98Z"/>
    <path d="M91.02,451.44c-2.88.46-2.69-3.49-3.35-5.59-5.68-18-10.18-39.83-12.21-58.49l15.55,64.08Z"/>
    <polygon points="57.45 383.23 45.74 343.17 54.57 365.23 57.45 383.23"/>
    <path d="M67.25,415.29c-3.14-1.32-5.74-9.36-6.53-12.4-1.01-3.88-1.81-7.59-1.27-11.63l7.81,24.03Z"/>
    <polygon points="67.6 359.29 58.35 335.66 51.96 309.21 66.32 349.66 67.6 359.29"/>
    <path d="M82.89,471.39c-4.7-1.34-3.8-10.15-3.87-14,3.84,1.37,2.7,10.58,3.87,14Z"/>
    <path d="M75.08,441.35c-4.51-1.23-4.23-6.28-3.9-10.01h1.96s1.94,10.01,1.94,10.01Z"/>
  </g>
</svg>