<?xml version="1.0" encoding="UTF-8"?>
<svg id="Lag_2" data-name="Lag 2" xmlns="http://www.w3.org/2000/svg" viewBox="0 0 254.76 99.88">
  <g id="Lag_1-2" data-name="Lag 1">
    <path d="M194.44,46.09c-.52,3.7-7.53,22.94-11.15,22.9l-23.77-34.11c-7.11,2.97.77,35.45.79,42.96.01,3.99-.32,3.2-4.09,3.02-1.17-17.03-4.11-36.16-1.58-52.96.3-2.02-1.38-6.81,2.91-5.02,4.41,1.84,22.76,43.82,28.77,38.16l6.38-36.87-6.06-1.18c-1.33-5.13,1.58-14.34,7.98-6.9-.95,9.49,1.1,20.81-.19,30Z"/>
    <path d="M136.25,74.71c-9.33-5.26-28.11,12.12-33.03,5.81-.75-.96-7.73-21.83-7.87-23.04-.46-3.93,3.36-31.08,5.44-32.78l25.8-4.04c1.66,10.75-11.52,6.43-19.25,9.68-9.08,3.82-6.71,14.1-6.92,22.14l20.01-3.84-17.87,11.18,4.73,14.76,19.93-4c4.15.6,10.55-2.41,9.04,4.12Z"/>
    <path d="M80.17,88.37c-5.24.81-3.56-.81-4.54-4.36-2.9-10.52,1.8-17.33.26-28.2-.67-4.69-7.9-29.46-12.33-29.51-5.37,6.67-13.27,37.27-20.6,39.62-11.23,3.6-25.93-18.59-34.48-24.01-1.91,17.05,1.31,33.69,2.29,50.42.09,1.59,2.36,7.68-1.68,7.54-2.93-.1-2.9-6.68-3.04-8.88-1-15.97,1.51-36.72-1.6-51.77-.24-1.15-7.57-2.86-2.91-7.37,13.23,1.55,17.77,15.99,27.03,23,15.52,11.75,16.94,3.37,23.57-9.96,2.65-5.32,9.19-29.44,16.35-24.53,1.37.94,11.92,28.9,11.9,31l-.23,37Z"/>
    <path d="M218.98,56.62c-7.73-7.28-7.34-28.95-9.45-39.45l5.1-1.94c1.05,9.51.72,27.1,6.04,34.78,16.01,23.12,41.79-35.47,24.1-47.61,9.23-9.24,10.37,10.7,9.9,18.16-.99,15.69-17.71,53.01-35.68,36.07Z"/>
  </g>
</svg>