<?xml version="1.0" encoding="UTF-8"?>
<svg id="Lag_2" data-name="Lag 2" xmlns="http://www.w3.org/2000/svg" viewBox="0 0 562.73 558.93">
  <g id="Lag_1-2" data-name="Lag 1">
    <path d="M556.55,236.16c4.97.62,6.89,2.86,5.94,8.07-32.85-4.85-52.01,33.61-64.08,58.89-19.83,41.53-23.36,62.97-.88,105.25,1.07,2,6.37,1.95,3.86,9.48-9.17-1.22-17.64-2.74-27.06-2.22-15.22.83-44.62,13.65-57.73,22.03-5.49,3.51-16.09,15.57-20.46,17.53-.87.39-3.28.49-2.96-.99,12.88-12.59,24.67-23.12,40.85-31.09s35.83-16.75,53.4-11.34c-6.4-17.29-24.47-15.63-39.3-10.61-45.02,15.24-93.36,65.18-107.7,110.32-.63,1.98-3.42,5.97-.69,7.36l39.4-52.69,9.97-6c-19.75,23.13-43.31,48.84-54.94,77.21-2.59,6.32.13,13.39-6.68,17.4l-3.77-22.07c-3.94-14.74-12.17-28.19-23.81-38.09-2.23-1.9-3.22-4.87-6.98-4.02,18.12,18.81,20.74,44.01,27.56,68.15-5.11.87-3.59-.82-4.87-4.02-13.25-33.39-4.6-48.27-40.02-71.88-27.41-18.27-85.77-18.34-116.54-8.07-20.93,6.99-44.21,21.19-63.21,32.55-4.43-3.14-1.79-3.02-1.31-5.26,7.11-33.56,32.06-52.37,26.73-93.4-2.62-20.15-35.06-49.69-52.06-59.9-17.99-10.8-47.68-24.81-65.32-8.02,1.54-6.64,1.94-8.78-3.9-13.02,15.16-7.4,27.32-2.52,43.4-10.36,46.7-22.77,59.75-84.89,59.54-132.9-.08-18.57-7.68-41.68-5.66-61.12l7.66,47.06-2.29,33.87,1.95,19.1c6.58-25.13,10.25-48.57,6.17-74.63-3.53-22.55-14.3-43.3-17.78-65.91l-4.45-5.54c-1.81,8.85,4.16,18.83,6.38,27.5.5,1.97,1.98,7.03-1.56,6.51l-11.74-44.05c3.86-3.38,41.55,14.05,48.91,14.05,4.12,0,7.98-3.38,12.16-3.56,4.66-.2,9.82,2.51,15.87,2.13,7.79-.49,32.8-2.73,38.55-5.36,10.78-4.94,41.55-59.87,42.95-74.26,3.2-2.31,14.92,16.07,17.81,19.16,15.79,16.87,65.74,53.96,87.57,58.62,28.17,6.01,58.96-14.76,84.27-24.57-3.04,15.32-.6,30.49-.3,45.98-4.53-.32.75-12.36-5.93-11.01l3.88,25c6.37-1.85-5.08-14.02,4.04-11.96,1.46,35.79,21.07,75.35,49.53,97.18,9.55,7.32,50.7,30.56,61.23,33s12.04-2.74,20.45-5.34l-6.05,9.91ZM528.48,248c3.57.24,8.55-2.18,10.04-5.9-3.57-.24-8.55,2.18-10.04,5.9ZM528.55,234.01c1.16-5.35-1.39-3.45-3.91-4.98-14.85-9.04-33.52-16.61-46.82-27.38-11.64-9.41-18.78-23.21-30.83-32.15,8.55,20.22,21.72,43.37,42.6,52.32,12.28,5.26,26.61,6.79,38.96,12.19ZM479.54,395.7c-7.23-13.02-5.47-26.41-6.39-40.41s-4.12-22.92-.66-38.16c7.31-32.22,30.71-57.69,56.03-77.08-37.05-7.98-59.39-19.03-78.45-52.73-20.04-35.42-33.08-81.2-28.45-121.96-12.9,4.55-25.46,10.17-38.55,14.27-17.46,5.47-61.96,18.36-78.21,14.55-9.72-2.28-35.41-28.12-40.68-37.33-5.81-10.15-8.25-26.83-16.64-35.24-1.75-1.76-1.67-4.39-5.6-3.4l-4.16,19.95-1.85-15.98c-3.35,6.54-6.59,14.46-10.51,20.56-1.02,1.59-20.92,27.12-14.82,25.25l16.12-15.88-3.11,8.93-44.77,35.17c-27.31,15.3-58.35,9.02-81.32-10.92,2.43,24.35,15.55,46.28,17.5,71.14,2.98,37.95-16.18,133.03-46.95,157.7-4.34,3.48-20.78,10.84-20.1,13.82.27,1.17,17.55,8.22,21.42,10.67,6.88,4.35,20.3,15.8,26.39,21.64,29.04,27.81,51.78,76.3,31.24,115.21,20.56-3.53,40.64-10.53,61.47-12.75,35.38-3.76,73.91.52,104.3,20.99,18.35,12.36,25.63,27.71,37.87,45.06,7.37-17.63,13.95-42.99,24.73-58.51,11.4-16.42,42.53-45.91,59.41-56.57,19.65-12.4,40.98-24.13,64.73-17.99ZM526.4,253.97l-2.83-3.89c-26.71,16.67-47.75,53.39-49.49,84.92-.27,4.85.29,8.15,1.78,12.67l7.14-21.92c9.17-15.68,15.03-34.47,24.26-49.9,4.56-7.63,11.48-18.24,19.13-21.88ZM487.51,397.77c-1.51-5.55-2.6-14.86-7.85-18.05.44,5.98,2.18,14.9,7.85,18.05ZM345.5,86.84l-85.65-54.51c4.38,20.48,20.17,40.03,37.03,51.86,16.23,11.39,30.33,4.02,48.62,2.65ZM97.57,75.3c-.9,3.77,2.11,4.75,3.95,7.02,20,24.74,62.69,21.85,85.97,2.52,2.29-4.5-8.77-3.22-11.06-3.14-27.41.93-52.52,6.22-78.85-6.39ZM138.99,481.54c2.91-7.89-13.63-1.19-12.01,3.94l12.01-3.94ZM100.91,497.32c24.09-17.62,36.26-46.3,28.43-75.81-6.64-1.68-3.34,7.59-4.53,12.49-5.54,22.82-18.02,41.19-23.9,63.32Z"/>
  </g>
</svg>