<?xml version="1.0" encoding="UTF-8"?>
<svg id="Lag_2" data-name="Lag 2" xmlns="http://www.w3.org/2000/svg" viewBox="0 0 82.8 86.41">
  <g id="Lag_1-2" data-name="Lag 1">
    <path d="M11.47,76.84C1.75,66.59-1.5,58.29.62,43.21,2.43,30.25,18.7,3.62,32.12.67c16.49-3.64,47.59,7.9,50.23,27.07,4.23,30.75-21.97,60.52-53.25,58.58-11.69-.73-11.01-2.5-17.63-9.48ZM77.97,34.15c-.71-8.55-3.02-14.86-10.66-19.39-2.32-1.38-21.96-9.64-24.14-10.09C20.31.02,1.29,36.8,4.83,56.6c7.9,44.13,76.75,20.85,73.14-22.45Z"/>
    <path d="M68.49,32.48c-4.59,20.49-15.12,38.54-39.16,33.68-6.96-1.41-10.88-7.75,1-6.99,15.7,1,22.67,1.02,30.98-14.86,2.17-4.15-.48-12.47,7.18-11.83Z"/>
    <path d="M26.42,44.2c-7.86-.05-7.91-7.99.05-7.98l-.05,7.98Z"/>
    <path d="M44.51,32.33l5.98.04c.69,10.01-6.8,9.96-5.98-.04Z"/>
  </g>
</svg>