<?xml version="1.0" encoding="UTF-8"?>
<svg id="Lag_2" data-name="Lag 2" xmlns="http://www.w3.org/2000/svg" viewBox="0 0 153.8 170.78">
  <g id="Lag_1-2" data-name="Lag 1">
    <path d="M153.63,69.78c2.39,37.27-20.44,92.52-61.29,99.79C15.17,183.3-28.06,76.87,20.5,24.35,64.83-23.59,149.37,3.3,153.63,69.78ZM34.56,144.59c17.07,14.46,32.69,19.47,55.85,16.98,51.64-5.56,77.41-106.21,36-136.48-3.77-2.75-25.98-15.32-29.76-16.32-21.83-5.83-63.48,8.37-77.07,26.74C-.38,62.48,7.54,82.64,15.29,110.59c.46,1.66-1.42,5.04-.57,8.69,2.09,9.09,12.85,19.38,19.84,25.31Z"/>
    <path d="M43.92,115.49c28.23,9.25,79.19,23.52,73.23-24.56-1.11-8.94-8.3-16.25-.5-24.54l11.29-.08c4.59,6.83.65,12.85.36,18.94-.15,3.18,1.7,6.11,1.33,9.33-.86,7.29-9.1,26.44-15.06,31.08-12.39,9.62-30.93,9.05-45.63,5.87-4.16-.9-30.83-10.05-25.01-16.03Z"/>
    <path d="M84.45,33.73c19.2.01,22.01,30.53,1.7,27.13-5.2-8.27-4.71-18.16-1.7-27.13Z"/>
    <path d="M49.73,71c.68,3.6,1.22,7.13-.55,10.57-6.38,9.36-27.97-21.86-13.46-25.86,8.24-2.27,12.78,8.75,14.01,15.29Z"/>
  </g>
</svg>