<?xml version="1.0" encoding="UTF-8"?>
<svg id="Lag_2" data-name="Lag 2" xmlns="http://www.w3.org/2000/svg" viewBox="0 0 19.98 20.77">
  <g id="Lag_1-2" data-name="Lag 1">
    <path d="M19.6,10.6c1.37,1.55-1.24,6.43-2.48,7.72-3.35,3.48-11.37,3.01-14.99.18-1.54-1.2-3.58-4.54-.62-4.49,1.33.02,3.52,3.24,7.03,3.55,6.12.52,6.99-2.44,9.18-7.25.31-.19,1.73.13,1.88.3Z"/>
    <path d="M1.59,2.01c1.76-.51,7.36.08,6.7,2.77-.3,1.22-4.79,1.64-5.9,1.35C.31,5.59-.82,2.72,1.59,2.01Z"/>
    <path d="M16.45,3.4c-1.03,1.01-3.75.61-3.85-1.27-.16-3.15,3.18-2.41,4.28-.31.11.44-.11,1.27-.43,1.58Z"/>
  </g>
</svg>