<?xml version="1.0" encoding="UTF-8"?>
<svg id="Lag_2" data-name="Lag 2" xmlns="http://www.w3.org/2000/svg" viewBox="0 0 220.41 209.62">
  <g id="Lag_1-2" data-name="Lag 1">
    <path d="M36.41,58.97c.48-2.24-.2-5.33.53-8.43,2.21-9.47,13.33-28.43,7.9-36.66-3.22-4.89-13.91-4.51-5.03-12.88l13.85,8.08,7.1-5.95-4.06,8.92,14.95,9.22c6.36.09,12.03-15.72,15.07-11.98-4.05,12.27,7.72,20.26,9.9,31.97,6.6,3.05,19.94-15.85,23.97-11.76l-4.09,15.94c3.01,2.97,10.31-9.06,11.7-10.93-3.92-2.9-15.76-29.64-15.43-32.03.64-4.71,4.94-1.85,6.83,1.17,2.63,4.2,9.74,26.9,11.02,27.89l19.12-21.84c8.49,11.63,16.19,27.6,25.88,38.07,1.85,2,5.62,1.6,6.41,2.52.54.62,2.62,10.69,5.49,15.46,3.45,5.74,11.53,15.87,18.4,16.6l2.25,13.67c-7.08-4.09-9.85,1.44-7.19,8.12,2.19,3.01,15.7.75,18.85,9.21,2.47,6.65-3.37,3.67-6.71,6.72-4.36,5.38-24.9,36.12-28.34,37.79-3.1,1.51-3.63-.84-1.95-3.99s16.26-20.76,15.13-21.9l-22.08,13.85c.44-.71-.1-2.9,1.05-3.92l19.07-17.95c-4.72,4.07-11.31,2.85-15.92,4.99-3.81,1.76-20.09,22.75-18.23,24.79,2.21,2.42,9.64-9.6,14.04-7.9-3.45,5.59-16.05,18.65-22.11,24.91-2.08,2.15-16.03,17.14-18.14,14.82-.78-3.67,1.19-5.53,2.73-8.28,7.61-13.57,22.28-29.42,31.56-42.52,1.55-3.65-2.35-3.49-4.86-2.91-5.92,1.38-13.95,5.12-20.59,6.35-8.62,11.45-10.08,27.38-15.42,39.72-2.01,4.66-13.3,27.59-15.44,30.27-1.85,2.31-3.8,1.01-6.15,1.21l-2.7-46.05-32.17-23.82-14.74,7.54,4.78-15.4-13.73-12.55-4.95.82-15.09,18.94c-7.57,2.99,2.35-14.81,1.12-15.96-16.73-2.33-10.07,20.56-22.13,23.84l2.08-15.97-9.94-1.07c3.51-5.39,11.62-5.94,14.94-11,4.47-6.82,14.38-34.7,17.37-43.8-.6,4.26-1.36,9.76-1.1,13.98l13.13-21.91c-1.71,11.43-23.86,34.04-2.23,35.99,2.04-16.73,20.42-33.1,14.29-49.92l-3.92-.98c9-11.91,9.49-15.66-.86-27.01-2.9-.11-13.59,29-15.22,33.87ZM184.01,121.89c3.91,1.02,26.02-6.88,26.02-8.82-2.95-3.29-10.44-5.96-14.52-4.83l-11.5,13.65ZM196.13,99.99l2.06-9.99-10,3.96,7.94,6.03ZM164.21,91.76c14.2,5.16,22.93,4.73,31.86-8.45l-16.66-17.44-15.2,25.89ZM149.96,129.67c19.47-.94,36.12-6.99,40.17-27.72-9.22-7.36-42.18,26.14-40.17,27.72ZM170.28,75.81l6.12-17.96c-10.02,2.11-19.48,13.84-6.12,17.96ZM149.3,124.99c8.03-8.09,16.4-16.08,24.81-24.15-16.98-10.45-15.93,1.56-21.96,9.39-2.02,2.62-6.38,3.95-9.16,7.36-8.79,10.8-19.26,24.42-23.17,37.9,8.44-6.67,14.72-17.44,22.04-24.98,2.37-2.44,5.51-3.58,7.44-5.53ZM158,36.21c1.31,2.94-2.43,24.12,7.05,23.34,19.06-1.56-9.12-31.33-10.44-29.82-2.26,5.75,3.06,5.76,3.39,6.49ZM161.97,83.1c-1.19-4.54-10.8-13.45-14.66-5.4-7.53,15.73,17.36,15.71,14.66,5.4ZM152.37,67.7c1.62,1.21,5.17-1.06,5.79-3.3l-1.73-12.67c-7.15-2.17-5.8,14.66-4.06,15.97ZM147.88,43.08c5.04-6-.58-13.46.76-20.39-4.13-4.18-4.04,1.9-5.97,3.91-8.26,8.65-11.02,8.44-4.12,20.97,1.31.91,8.28-3.25,9.33-4.5ZM146.41,55.66l2.07-9.98-5.88,5.15,3.81,4.84ZM109.95,135.44l6.89,14c4.66-12.68,24.38-29.17,28.3-39.89,2.04-5.58-8.31-18.05-14.91-15.05-10.33,4.7-10.81,15.33-8.21,25.01l-11.95-4.06c.07,8.28,7.49,12.28,7.92,21.01.15,3.14.27,3.47-3.06,3l-4.98-4.02ZM134.39,61.59c-2.91-1.55-5.05-1.03-8-.05,4.35-7.64,10.38-11.71,6.1-19.95l-19.83,15.25,4.69,10.61c2.82-3.8,4.82-4.51,9.04-5.91-1.7,2.99-6.17,8.33-5.7,10.66l8.35,7.25c9.13-5.23,4.9-10.63,5.35-17.86,2.43,1.29,2.68,2.83,3.94,5.05,7.3-.3,4.23-9.89-.89-12.99-3.4,2.21-2.84,4.58-3.05,7.94ZM129.72,165.56l4.11-17.97c-7.27,3.59-16.73,15.71-4.11,17.97ZM114.2,95.46c23.63-7.3.23-29.98-3.63-14.61-1.11,4.41,3.58,10,3.63,14.61ZM111.55,197.45c6.46-5.54,20.05-27.44,3.09-28.03-10.12-.35-.91,22.29-3.09,28.03ZM112.29,49.26l2.24-11.78-12.03,6.94,9.79,4.85ZM106.31,77.4c8.17-.14,10.46-8.84,3.03-11.95-5.18-2.17-4.57,9.74-3.03,11.95ZM109.81,157.44c5.53-1.45,2.11-5.73,2.02-9.98h-1.96s-.06,9.98-.06,9.98ZM108.22,85.43l-8.11,8.95,9,11.02c7.5-5.69-1.32-12.89-.89-19.96ZM100.93,63.9c.93-1.41,5.35-2.07,5.44-3.48l-9.2-8.75c-19.86,6.8-15.55,16.64-6.88,31.65,8.58-2.58,8-15.41,10.64-19.41ZM94.23,89.33c7.47,1.27,12.87-7.81,10.07-13.91-3.69-3.14-11.44,12.59-10.07,13.91ZM105.78,157.4c-2.06-4.15-.65-26.01-4.83-25.98l-10.19,16.11,15.02,9.87ZM102.03,117.38c.65-2.25-2.4-20.05-6.84-18.01-8.87,4.07,4.03,21.21,6.84,18.01ZM80.2,121.38c-3.53,8.56-11.58,17.35,2.65,20.02,4.34.19,12.82-16.39,11.16-18.06l-13.81-1.97ZM76.6,35.23c-5.43,10.86-4.93,16.1,4.81,23.98l10.77-12.5c-2.8-6.81-8.32-10.39-15.57-11.48ZM90.1,103.3c.59-.62,2.56-8.89,2.07-9.96-2.65-1.12-4.78,8.3-4.02,9.95.65-.1,1.69.28,1.96,0ZM84.05,117.26l7.99-.93-4.96-5-3,2.97-.03,2.96ZM84.21,95.26c12.06-3.23-6.98-26.77-9.86-24.04-3.62,9.79-.2,13.61,4.07,21.94l4.87-1.68.92,3.77ZM48.08,113.03c35.24,6.61,37.96-3.87,20.17-31.86l-20.17,31.86ZM68.59,31.17c.43-8.76-5.6-8.52-11.9-12.07,1.36,6.48,4.88,12.5,11.9,12.07-.07,1.39-3.83,10.32.94,9.97,2.17-.16,6.02-8.98,5.06-11.92-2.36-.84-4.9,1.89-6,1.95ZM58.04,119.12c-.82,6.43,9.31,11.47,11.94,5.05,3.18-7.76-7.89-4.52-11.94-5.05ZM64.41,55.14c.16-4.38,1.18-10.44-3.88-12.02l1.93,12,1.95.02ZM50.23,91.06c6.63-5.21,15.15-15.34,12.11-23.92-6.91,5.09-9.22,16.08-12.11,23.92ZM24.05,116.88c1.46,1.53,11.13-4.27,11.57-6.88l-6.51-7.06-5.06,13.94Z"/>
  </g>
</svg>