<?xml version="1.0" encoding="UTF-8"?>
<svg id="Lag_2" data-name="Lag 2" xmlns="http://www.w3.org/2000/svg" viewBox="0 0 420.05 438.22">
  <g id="Lag_1-2" data-name="Lag 1">
    <path d="M420.04,8.15l-6.02-.02c9.42,21.59-10.6,68.28-32.81,74.44-5.22,1.45-15.69.55-17.36,1.56-.93.56-7.1,15.84-9.56,19.49-13.59,20.15-31.52,24.66-55.05,24.64-5.84,21.83-20.45,41.74-41.45,50.86,2.5,18.56-8.02,53.24-25.41,62.69-5.47,2.97-13.54,2.2-15.49,3.43-1.03.65-8.72,17.61-11.64,21.42-11.18,14.6-22.5,19.08-40.73,20.14-1.61,15.69-10.47,40.73-27.09,46.03-4.8,1.53-14.86.78-16.62,3.3-1.47,22.3-13.99,42.35-38.93,38.07-2.13,11.32-6.3,26.01-15.36,33.75-2.76,2.36-8.78,3.68-10.1,5.87-3.82,6.3,1.62,20.42-12.55,23.51-30.11,6.56-49.88-25.24-42.23-51.82l2.26,22.58c5.03,23.17,47.86,38.76,47.65,8.63-.05-7.91-5.17-5.44-9.84-10.19-6.52-6.64-14.03-23.97-5.97-31.76,13.83-13.37,19.56,21.95,19.77,31.07,12.62,1.17,26.31-28.75,21.31-35.95-1.09-1.58-6.99-2.7-10.19-5.85-9.85-9.71-12.84-29.87,4.06-33.89,13.75,9.26,14,22.4,13.28,37.64,21.5,8.39,35.45-17.97,31.96-36.53-1.05-5.57-9.67-10.21-12.31-17.65-2.08-5.87-2.17-13.27-3.4-19.48,10.41-.99,13.25,8.41,16.44,16.53s1.24,18.14,12.63,19.11c15.02,1.27,30.54-28.3,31.12-40.32.52-11-18.9-19.75-15-35.05,5.12-8.36,14.03,8.27,15.98,12.1,4.7,9.25.27,15.9,17.37,13.74,16.54-2.09,25.81-21.72,33.51-34.45-.22-3.21-20.71-5.98-19.21-23.49.48-5.64,4.17-19.01,11.73-14.59,7.93,8.77,12.69,19.22,13.91,31.01,22.26,8.02,43.74-54.12,33.81-61.22-14.16-1.53-31.93-9.82-22.3-26.45,8.37-14.45,28.48,7.37,24.82,20.01,21.13.17,38.25-26.01,40.1-45.51-14.05.98-36.6-34.65-14.84-32.25,20.02,2.2,16.31,25.47,20.21,28.31,21.26,9.86,56.04-16.64,59.01-37.1,1.13-7.78-17.48-11.22-19.54-22.35-1.1-5.93,5.35-24.69,14.41-22.11,10.05,2.86,11.17,28.54,11.38,37.57,16.28,3.99,24.97-4.75,33.55-16.98,15.16-21.6,13.64-35.05,10.76-60.55,5.04-.74,10.23,2.62,9.95,8.05ZM361.6,73.78c-.37-7.8.04-17.8-4.27-24.6-6.82-10.75-13.32,6.06-11.31,13.07.93,3.25,12.7,14.58,15.58,11.53ZM297.27,118.41c.63-8.24-9.01-18.59-16.82-21.09-5.28,3.56-2.48,7.83.05,11.84,1.42,2.24,16.14,17.41,16.76,9.25ZM253,171.08c-.32-5.6-8.29-23.96-15.91-19.24-11.01,6.82,5.17,23.38,15.91,19.24ZM212.57,236.84c1.07-8.4-2.66-16.41-8.85-22.01-9.01,8.29-2.66,21.83,8.85,22.01ZM114.04,318.22c.56-3.73.06-6.93-3.91-8.02-.56,3.73-.06,6.93,3.91,8.02ZM79.74,366.01c3.99-9.99-3.04-39.12-15.58-24.74-1.88,12.23,5.76,19.48,15.58,24.74ZM51.5,405.82c-.58-10.41-1.24-21.9-8.8-30.01-15.56,4.46,4.86,34.69,8.8,30.01Z"/>
    <path d="M52.6,232.83c-.67,2.32-6.18,5.62-9,5.11-3.34-2.09-22.36-5.65-22.97-7.33-4.62-12.71,19.9,2.6,21.42,2.84,2.42.39,4.02.73,5.64-1.57,1.84-13.19,4.19-24.89,1.17-38.07,10.98,2.08,17.66,13.16,29.91,10.17l3.14-30.03c3.15-4.91,11.85,5.54,16.54,7.63,3.25,1.45,6.67,2.98,10.34,2.54l7.35-37.91c4.26-6.29,19.52,10.45,27.05,5.33,5.5-3.74,8.2-38.69,13.15-39.01,10.38,9.7,37.6,17.53,29.05-5.84h5.99c3.54,24.88-17.62,22.2-34.13,14.71-5.69,7.87-4.68,32.25-14.23,36.05-6.51,2.6-20.22-7.29-24.05-4.36-7.71,26.8,1.58,48.55-34.02,26.95-3.5,30.51-1.48,36.48-32.16,21.79l-.2,31Z"/>
  </g>
</svg>