<?xml version="1.0" encoding="UTF-8"?>
<svg id="Lag_2" data-name="Lag 2" xmlns="http://www.w3.org/2000/svg" viewBox="0 0 426.79 437.4">
  <g id="Lag_1-2" data-name="Lag 1">
    <path d="M197.68,317.92c3.24,20.72,22.32,12.74,36.76,15.39,8.83,1.63,19.27,8,29.1,8.04,5.48,6.39-30.06,23.45-31.85,29.19l9.23,66.65c-2.25,2.52-21.05-18.51-24.03-20.97-7.6-6.29-17.09-11.06-24.79-17.39l-59.09,27.68c-3.99-4.48,15.32-35.47,15.94-42.6l-39.46-36.48c1.44-5.99,34.84-12.96,41.1-12.96,7.15,0,16.45,4.94,22.18.49,8.11-6.31,16.7-40.79,20.62-51.66,1.17-3.24-1.02-5.33,4.55-4.36,1.29,11.97-2.04,27.57-.25,39ZM251.47,349.22l-1.14-4.09c-12.53-8.51-39.26-2.87-47.9-8.05-10.29-6.17-7.64-36.15-9.64-36.21l-19.38,45.83c-15.47-5.58-43.11-9.66-53.94,4.71,5.49,5.18,31.96,23.32,33.48,28.68,2.31,8.11-11.81,26.5-11.89,36.47l50.87-25.35,42.06,31.96c4.79.19-10.75-51.92-10.17-54.84.92-4.69,22.75-15.03,27.65-19.11Z"/>
    <path d="M334.42,199.77l-32.14,2.68-4.98,17.06c-6.11-4.52.74-11.92-.9-17.96-18.25-2.57,4.46,31.36,1.79,33.99-12.64.76-9.11-18.82-19.04-24.02l-20.9,17.77c-7.2-8.01,41.63-32.01-5.81-30.04-1.17-6.19,1.83-6.32,6.04-8.94-1.45-3.33-10.91-2.9-9.93-8.04.89-4.69,4.69-1.32,6.62-.63,7.08,2.53,13.12,9,21.32,7.77.18-24.4-14.23-45.9-15.53-70.09,2.58.61,4.42,3.25,5.42,5.56,4.29,9.95,10.36,25.73,13.86,36,2.94,8.61,3.57,17.93,6.29,26.6l15.77-19.22,7.4-16.61c8.75,7.24-12.38,32.01-7.2,37.93l20-3.85-4.05,9.94,12.81-1.57,3.15,5.68Z"/>
    <path d="M142.01,266.54c-20.12,5.07-40.84,1.48-60.9,5.78-7.22,5.08-8.13,44.65-21.43,49.73l-11.74-59.97c-10.27.07-20.7-.7-30.98-.39-4.51.14-17.33,5.4-16.94-1.05.66-3.61,10.77-14.93,14.1-11.9l-8.05,8.94,45.91-1.58c2.95,15.6,2.45,33.89,7.88,48.86.77,2.13.87,4.8,3.86,5.11,6.68-9.66,9.32-38.51,16.42-44.89,4.66-4.19,34.98,2.11,43.9-3.72l-29.79-14.44,22.15-40.6c-8.33-4.28-14.36,2.22-21.24,3.62-8.99,1.83-18.75.73-25.85,5.56l-16.83-19.59c2.97-2.64,11.06,10.64,16.84,11.18,18.14,1.71,34.64-5.72,52.12-8.8,5.2,9.16-24.35,43.1-21.15,47.71l41.56,12.68.19,7.74Z"/>
    <path d="M177.32,58.79c.11-.04.05-1.62,1.27-2.09,8.7-3.39,20.96-4.35,26.82-11.71-20.42-3.29-36.57,5.71-55.83,9.85l-.27,7.77c8.8-1.66,19.51-2.11,28.02-3.81-.11.04.26,1.27-1.36,1.99-10.74,4.79-31.06-.37-26.78,15.82l-1.9-6.7-6.02-1.33,3.92,14.03,5.98-1.99,9.68,50.07c-3.38-.58-3.55-3.93-4.5-6.47-6.43-17.21-7.51-38.85-19.09-54.82l-38.01,2.89c-1.25-4.85,3.34-4.94,6.64-6.26,10.82-4.29,30.78-2.62,23.51-17.54l4.99,8.14c8.79,3.01,15.3-12.19,11.29-17.15-1.8-2.23-17.82-8.56-21.23-9.01-9.58-1.26,8.3,13.64.97,15.98.28-4.92-15.44-18.43-11.88-22.05l32.95,12.06,14.18-31.76c-.07,8.5-8.09,19.04-9.21,27.13-.49,3.58,1.69,6.16,1.7,7.92,0,.65-7.6,5.09-5.78,10.84l20.01-3.88-5.94-6.01c5.99-.61,13.14,1.07,18.9.02,4.3-.78,18.96-13.38,13.09.15l17.97,2.14c.76,4.76-4,5.97-7.29,7.69-7.43,3.87-18.48,6.42-26.8,8.08ZM145.28,64.57l.04-5.98-7.99-.05-.04,5.98,7.99.05ZM119.28,66.4c2.89.19,15.85,1.09,15.97-2.88.14-4.6-5.47-1.18-6.81-.93-2.21.4-9.28,1.03-9.16,3.81Z"/>
    <path d="M425.48,34.36c3.12,2.39.04,3.66-2.98,3.99-5.17.57-42.52-.96-43.02,4.7l14.95,34.96-4.23,4.12c-2.08-.48-7.14-13.29-8.1-16.1-1.13-3.32-1.26-5.42-2.62-9.46-1.57-4.69-2.33-9.72-4.34-14.26l-7.72-.34,1.01-7.98-6.96,1.99,3.94,7.99c-7.85-.49-16.06,2.65-23.51,3.41-2.98.3-5.25,1.99-4.48-2.55,4.51-4.87,24.69-7.98,26.04-13.92,1.16-5.08-13.44-7.48-13.89-13.01,10.21-2.75,13.23,7.33,21.94,8.11l.2-25.98c3.49-.44,1.85,4.55,1.94,6.98.2,5.66-.25,11.37-.1,17.01l16.03-9.89c2.48,9.61-12.63,6.27-12.07,15.91,4.68-1.99,12.88,4.09,14.96,4.11l33,.21ZM375.51,32.05v2.96s3.06,2.96,3.06,2.96l3.78.02,3.12-2.9-9.96-3.04Z"/>
    <path d="M50.45,193.98l-13.92-8.08c.04,14.96,6.51,28.2,10.83,42.12l-31.23,17.73,24.22-19.23c2.82-11.9-15.16-44.87-13.78-51.64.32-1.57,3.4-4.2,5.05-1.05l18.83,20.15Z"/>
  </g>
</svg>