<?xml version="1.0" encoding="UTF-8"?>
<svg id="Lag_2" data-name="Lag 2" xmlns="http://www.w3.org/2000/svg" viewBox="0 0 120.19 225.85">
  <g id="Lag_1-2" data-name="Lag 1">
    <path d="M95.89,116.28c-62.01-4.39-55.58,63.44-63.02,106.25l-5.65,3.31c-.72-15.56,4.54-31.63,4.41-47.03-.13-14.33-8.62-56.81-20.57-65.22-5.53-3.89-10.97,1.06-11.05-11.9,2.91-.58,6.26,2.01,8.74,1.59,6.09-1.02,35.57-45.69,38.03-53.86,4.01-13.31,2.29-35.08,3.89-49.42,14.98,12.91,2.72,36.56,3.57,55.1.51,11.07,6.44,37.92,14.75,45.04,7.13,6.12,17.05,6.7,23.53,10.55,2.55,1.52,4.11,2.12,3.39,5.58ZM35.56,165.9c4.47-25.8,14.54-47.94,42.35-53.75-1.25-4.09-8.18-3.77-11.34-6.66-12.73-11.61-10.2-34.42-19.3-47.47-11.09,16.87-19.75,35.49-35.17,49.01l14.66,26.85,8.81,32.01Z"/>
    <path d="M100.02,96.33l-5.98-.06c1.86-6.98,1.45-26.99-1.69-32.7-1.6-2.91-10.18.37-10.06-6.33,2.14-3.85,7.02-2.03,9.48-3.5,2.07-1.24,8.43-22,12.63-17.38-4.4,14.21-9.39,25.46,9.39,26.7,14.3.94.66,4.78-2.6,7.32-7.95,6.18-12.44,15.85-11.16,25.96ZM102.14,74.32c5-3.72-5.86-18.37-6.85-18.03-5.13,1.73-.9,4.5-.29,6.2,1.41,3.97,2.92,10.04,7.15,11.83Z"/>
  </g>
</svg>