<?xml version="1.0" encoding="UTF-8"?>
<svg id="Lag_2" data-name="Lag 2" xmlns="http://www.w3.org/2000/svg" viewBox="0 0 264.11 265.05">
  <g id="Lag_1-2" data-name="Lag 1">
    <path d="M197.68,145.57c3.24,20.72,22.32,12.74,36.76,15.39,8.83,1.63,19.27,8,29.1,8.04,5.48,6.39-30.06,23.45-31.85,29.19l9.23,66.65c-2.25,2.52-21.05-18.51-24.03-20.97-7.6-6.29-17.09-11.06-24.79-17.39l-59.09,27.68c-3.99-4.48,15.32-35.47,15.94-42.6l-39.46-36.48c1.44-5.99,34.84-12.96,41.1-12.96,7.15,0,16.45,4.94,22.18.49,8.11-6.31,16.7-40.79,20.62-51.66,1.17-3.24-1.02-5.33,4.55-4.36,1.29,11.97-2.04,27.57-.25,39ZM251.47,176.88l-1.14-4.09c-12.53-8.51-39.26-2.87-47.9-8.05-10.29-6.17-7.64-36.15-9.64-36.21l-19.38,45.83c-15.47-5.58-43.11-9.66-53.94,4.71,5.49,5.18,31.96,23.32,33.48,28.68,2.31,8.11-11.81,26.5-11.89,36.47l50.87-25.35,42.06,31.96c4.79.19-10.75-51.92-10.17-54.84.92-4.69,22.75-15.03,27.65-19.11Z"/>
    <path d="M142.01,94.19c-20.12,5.07-40.84,1.48-60.9,5.78-7.22,5.08-8.13,44.65-21.43,49.73l-11.74-59.97c-10.27.07-20.7-.7-30.98-.39-4.51.14-17.33,5.4-16.94-1.05.66-3.61,10.77-14.93,14.1-11.9l-8.05,8.94,45.91-1.58c2.95,15.6,2.45,33.89,7.88,48.86.77,2.13.87,4.8,3.86,5.11,6.68-9.66,9.32-38.51,16.42-44.89,4.66-4.19,34.98,2.11,43.9-3.72l-29.79-14.44,22.15-40.6c-8.33-4.28-14.36,2.22-21.24,3.62-8.99,1.83-18.75.73-25.85,5.56l-16.83-19.59c2.97-2.64,11.06,10.64,16.84,11.18,18.14,1.71,34.64-5.72,52.12-8.8,5.2,9.16-24.35,43.1-21.15,47.71l41.56,12.68.19,7.74Z"/>
    <path d="M50.45,21.63l-13.92-8.08c.04,14.96,6.51,28.2,10.83,42.12l-31.23,17.73,24.22-19.23c2.82-11.9-15.16-44.87-13.78-51.64.32-1.57,3.4-4.2,5.05-1.05l18.83,20.15Z"/>
  </g>
</svg>