<?xml version="1.0" encoding="UTF-8"?>
<svg id="Lag_2" data-name="Lag 2" xmlns="http://www.w3.org/2000/svg" viewBox="0 0 29.32 31.54">
  <g id="Lag_1-2" data-name="Lag 1">
    <path d="M17.22,12.87c1.58-.33.67-2.02.94-2.36.15-.19,1.84-.83,2.43-1.64.13-.18-.29-.82.35-1.06.58.14,1.11.57,1.74.19,1.23-.76.96-2.18,1.16-2.34.99-.76,4.23-1.5,5.49-.98l-4.48,3.13c-2.42,2.09-3.96,3.65-5.69,6.34-.17.26-.76.27-.77.52-.02.43.5,1.89.77,2.32.42.67,3.63,3.34,4.43,3.77,1.26.67,4.32.86,3.58,3.03-1.19,3.49-4.98.45-6.82-.18-1.24-.43-2.82-.38-4.07-.95-1.92.6.5,9.47-3.88,8.86-3.57-.5-.35-6.42-1.81-7.91-2-2.03-9.14,1.34-10.36-1.37-1.84-4.05,8.66-3.93,10.75-3.89.24-.24-.32-5.91-.44-6.79-.38-2.81-2.06-6.85-2.17-9.1-.04-.72.19-1.58,1.04-1.3-.04.91.45,2.04,1.57,1.95C11.04,2.67,9.32.06,10.37,0c.09,0,1.61.5,1.75.59,1.21.74,1.45,5.13,2.06,6.92.76,2.21,1.93,3.43,3.04,5.37Z"/>
  </g>
</svg>