<?xml version="1.0" encoding="UTF-8"?>
<svg id="Lag_2" data-name="Lag 2" xmlns="http://www.w3.org/2000/svg" viewBox="0 0 129.26 144.32">
  <g id="Lag_1-2" data-name="Lag 1">
    <path d="M41.47,144.08c-5.9,1.59-4.3-5.02-3.89-8.99,1.05-10.27,6.57-20.14,7.95-30.2.49-3.56,1.47-28.11.63-29.41-14.56-6.02-30.1-14.26-46.15-11.68l.02-5.98,47.64-10.15c3.27-3.15,2.96-26.66,2.49-32.37-.36-4.32-6.63-12.73-.71-15.15,3.41-1.4,4.74,7.45,5.8,10.12,2.65,6.65,7.23,26.83,13.98,28.05,3.81.69,32.74-8.02,37.52-10.32,3.47-1.67,20.01-17.15,21.58-15.36,4.54,5.18-8.78,9.92-11.07,11.91-6.44,5.59-35.59,31.79-36.95,37.27-.78,3.14,6,12.2,8.55,14.64,3.29,3.15,13.72,7.16,13,10.97-.88,4.67-4.69,1.33-6.62.64-8.38-3.02-21.12-12.75-30.5-6-2.68,1.93-13.57,22.78-15.06,27.01-4.02,11.35-4.41,23.6-8.2,35ZM70.11,50.26l6.93,8.01,21.14-21.81c-15.35,1.75-29.96,7.09-44.27,12.52l-1.73,22.94c12.67,5,14.72.96,21.51-8.95l-3.58-12.72ZM83.9,78.34l-6.9-12.03-5.05,6.93,11.95,5.09ZM61.95,41.99c1.28-2.01-.44-6.93-1.12-9.42-.85-3.12-3.34-11.05-6.53-12.4l-2.16,23.97,9.81-2.15ZM51.76,98.13l10.14-19.9c-14.14-5.99-12.65,4.02-12.08,14.94.12,2.25-1.36,5.47,1.94,4.96ZM47.97,68.13l.09-16.01-28.02,5.85c2.28,5.14,25.66,12.37,27.93,10.16Z"/>
  </g>
</svg>