<?xml version="1.0" encoding="UTF-8"?>
<svg id="Lag_2" data-name="Lag 2" xmlns="http://www.w3.org/2000/svg" viewBox="0 0 218.74 159.74">
  <g id="Lag_1-2" data-name="Lag 1">
    <path d="M218.12,124.41c-.17.41-2.77.44-3.8,3.2-1.23,3.28-.91,12.24-3.03,13.39l-94.84,16.33-1.96-3.03,94.22-18.32c7.28-15.42,2.82-32.38-5.78-46.18l5.93,3.07c-.36-14.95-4.57-23.73-15.94-32.92-6.67-5.38-53.55-34.77-58.96-35.32-4.87-.49-9.7,18.27-12.68,22.53-1.05,1.49-3.2-.68-4.99,1.05-2.15,2.08-4.54,6.96-5.21,10.04l-3.81-5.91c6.68.26,16.49-25.37,14.05-28.02l-32.04,9.8c.8-8.25-2.38-17.59-9.85-22.07-1.86,8.85-3.7,21.12-12.17,25.92,3.97-13.11,13.07-23.24,8.23-37.94,9.11-.93,15.42,25.78,16.97,26.22,8.99,2.55,9.36-4.22,11.49-5.4,6.76-3.76,7.77-5.47,11.91-8.23.71-.47,11.89,1.48,14.58-6.21,5.31,2.91,1.44,10.65,3.23,13.68.86,1.45,25.74,12.15,30.23,14.86,10.97,6.63,21.31,15.92,31.37,22.77,1.96,1.33,5.69.47,7.37,1.58,1.97,1.3,8.75,26.46,9.81,31.07s-.33,9.33.5,13.41c1.25,6.17,7.81,14.42,5.19,20.64Z"/>
    <path d="M96.69,120.15c-4.06,3.4-20.19-14.46-24.9-16.07-5.89.4-7.81,33.76-7.24,39.85-27.26-8.9-20.75-43.81-15.58-66.08-8.1.6-22.14-.33-23.92-10.15,6.06.36,11.35-1.68,16.65-4.27,3.86-1.88,16.93-9.74,15.2-14.23-9.01-9.48-29.14-23.39-42.52-21.65-5.02.65-6.97,7.72-13.12,5.99-.43-6.5-3.6-15.85,2.09-21.03,7.02-6.39-.95,12.2,7.96,9.07l-3.89-14c14.21.67,28.18,9.37,37.86,19.24-5.54.66-11.35-7.13-18.5-9.56-3.19-1.08-5.9-2.22-9.41-1.62l.05,7.87c21.3,3.88,45.56,18.95,53.6,39.51-1.23,8.4-7.17-9.82-8.9-9.07l-27.1,16.8,17.98,3.1c-2.06,22.15-17.32,47.35,7.57,62.05l6.28-37.96c9.03-.03,14.4,8.97,21.7,13.35,2.32,1.39,2.72,4.25,5.23.85,1.81-3.25,1.5-16.59,1.16-21.09-.21-2.79-6.6-15.01-.97-14.91,2.56.05,4.74,19.71,4.83,23.01.22,7.54-.49,13.72-2.13,20.97Z"/>
    <path d="M74.57,146.01l25.89,11.13c-3.76,5.14-3.38,1.22-6.19.22-2.14-.76-24.19-7.07-19.7-11.36Z"/>
    <path d="M115,78.27l9.95,4.05-.95-7.98c13.79,11.4-6.32,18.68-9,3.93Z"/>
    <path d="M174.7,120.63c-3.7-.91-13.53.05-11.96-6.06l10.05-1.05,1.91,7.11Z"/>
    <path d="M120.57,140.29c-3.52-2.47-15.48.71-13.93-6.07l8.78,2.22,5.21-4.13-.05,7.98Z"/>
    <path d="M71.12,51.99c-4.26-1.63-3.89-6.7-6.78-10.18-3.94-4.73-11.96-6.34-15.06-11.94,9.15,2.76,22.44,11.18,21.84,22.12Z"/>
    <path d="M169.09,58.6l-2.96-.03-4.96-5.01,3.01-2.97c4.67.18,5.55,4.03,4.91,8.01Z"/>
    <path d="M180.87,96.67l.02-3.96c4.19-.83,6.96-3.51,9.98,1.05l-10,2.92Z"/>
  </g>
</svg>