<?xml version="1.0" encoding="UTF-8"?>
<svg id="Lag_2" data-name="Lag 2" xmlns="http://www.w3.org/2000/svg" viewBox="0 0 522.64 439.67">
  <g id="Lag_1-2" data-name="Lag 1">
    <path d="M520.08,201.41c-2.48,2.7-9.39,5.33-13.53,9.4-30.13,29.66-37.42,78.33-19.01,116.33,3.27,6.75,10.52,11.32,10.23,18.7-6.39-.56-10.75-4.93-12.08,3.89h-2.9c-31.24-36.13-82.69-5.35-113.77,15.67-25.04,16.93-50.81,36.23-51.82,69.32-11.64-.26-14.29-16.05-21.03-23.95-11.6-13.59-34.12-34.05-51.47-38.61-34.86-9.17-78.64,17.24-100.4,43.43-5.35,6.45-8.8,14.69-13.45,20.59-1.74,2.21-2.03,4.14-5.66,3.3,1.46-11.38,4.22-22.75.18-33.97l-3.98,3.95c4.89-39.22-29.99-73.99-62.11-90.72-7.55-3.93-12.31-4.26-19.15-6.92-3.28-1.28-6.08-5.49-9.58-6.45-12.26-3.38-19.49,5.41-30.55,7.33l.38-7.66c48.42-16.13,66.15-48.2,62.07-98.72-2.51-31.07-18.86-88.84-32.07-117.39-3.64-7.87-18.67-23.47-16.77-31.1,2.56-2.56,2.03-3.81,5.04-1.05,4.68,4.28,12.03,19.38,17.77,26.19,6.9,8.19,16.4,17.51,26.15,21.88,37.77,16.92,67.2,16.23,100.66-8.23,18.65-13.63,43.21-39.97,58.48-57.52,5-5.74,25.13-37.84,27.32-38.76.85-.36,4.98-.76,4.95.99,1.4,8.15-2.5,15.88-2.03,23.67,1.24,20.73,35.62,50.99,54.63,57.53,29.82,10.27,113.07,1.57,139.52-16.93,3.2-2.24,3.82-9.06,9.51-7.99-.67,12.53-11.17,19.52-12.3,32.81-2.31,27.09,12.45,68.64,34.56,85.32,13.6,10.26,30.68,13.46,44.77,21.26-1.14,1.28-1.43,3.2-2.56,4.43ZM502.04,207.26c1.26-1.45,4.7-7.97,3.84-9.42-44.44-19.8-83.93-64.02-86.46-114.5-7.67,2-16.85,7.57-24.43,8.63-11.12,1.55-22.66-.04-32.57-.67-11.44-.73-25.25,2.7-38.11,1.51-35.97-3.34-70.79-34.76-81.49-68.58-14.25,19.2-27.16,39.98-44.08,57.01-3.57,3.59-11.19,7.08-14.26,10.81-1.38,1.67-.84,5.4-1.21,5.75-1.19,1.13-6.37-2.42-9.84-1.05-4.84,1.89-14.52,11.64-19.45,14.64-4.73,2.88-12.49,2.54-14.77,8.17l10-1.91c.82,5.86-9.19,8.12-13.17,8.08-3.72-.04-2.55-4-4.14-4.28-3.42-.61-6.89,1.77-10.08,1.84-23.73.57-51.4-5.62-71.55-18.25l-4.97,3.93-3.97-6.01c1.47,19.22,13.44,36.5,18.34,54.41s10.06,55.14,8.8,72.73c-1.88,26.17-14.41,57.64-40.39,67.76,36.97,18.66,76.27,31.59,93.05,73.08,5.5,13.6,10.55,34.35,10.18,48.57,1.09,1.28,10.83-7.71,11.99-8.89,22.43-22.76,31.87-37.02,66.23-43.71,29.24-5.7,46.39-.69,70.68,15.87,15.02,10.24,21.25,22.97,33.06,35.89,3.24-7.06,6.66-15.81,10.9-22.2,15.62-23.52,82.28-66.41,110.73-69.01,12.31-1.12,27.5-.52,38.94,4.23-10.01-36.75-6.36-87.05,18.7-116.94,2.94-3.5,7.59-5.31,9.49-7.49ZM485.84,335.76c.77-.78-7.91-16.4-8.89-20.02-1.36-5.03-1.03-10.37-2.17-15.74-.57-2.66-1.36-9.94-4.61-10.32-3.33,5.03,7.96,53.87,15.68,46.08ZM445.05,143.49c-1.34-20.11-8.67-38.41-5.72-59.14.71-4.98,5.04-7.15,3.19-10.86l-16.1,7.85c-2.75,11.09-.62,22.73,2.42,33.46l16.21,28.68ZM189.45,81.86l15.1-11.86,17.11-23.92c-13.41,9.45-22.07,23.29-32.21,35.78Z"/>
    <path d="M119.39,411.45c7.9,2.21,3.09,21.32-3.12,19.97-7.11-5.47,4.54-12.64,3.12-19.97Z"/>
    <path d="M406.78,187.27l-10.6,3.72-10.35-13.88c-4.89.62-5.06,6.26-9.59,8.52-11.36,5.67-15.34-20.42-2.2-22.68,14.17,1.5,17.13,13.97,23.74,24.25,9.9-6.22,2.18-11.6,1.92-16.96-1-20.43,27.48-15.55,27.34,6.15-.08,12.95-10.84,15.26-11.83,20.15-1.05,5.24,4.94,17.36,3.27,23.64-.52,1.97-3.25,4.26-4.95,1.13l-6.76-34.04ZM406.95,163.27l8.81,28.01c11.8-9.87,8.13-29.71-8.81-28.01ZM378.62,180.88c3.9-16.41-10.05-20.14-7.78.16l7.78-.16Z"/>
    <path d="M280.58,282.88c-1.13.66-1.62,5.2-4.38,6.6-15.28,7.74-29.57-26.82.04-17.05-1.35-10.48-21.99-16.82-16.82-28.05,1.89-4.1,12.16-9.76,15.02-3.98-20.45,6.17-6.7,11.61-.41,19.33,8.13,9.98,1.57,15.62,17.1,16.88,30.82,2.5,15.6-6.86,19.63-20.53,2.52-8.58,14.17-3.49,15.24,4.14.93,6.63-5.56,8.67-5.75,14.48l15.98,2.14c-6.69,11.53-14.61,2.46-21.1,1.91-4.63-.4-11.01,2.98-16.14,3.62-4.84.61-15.79-1.02-18.4.52ZM316.29,268.69c4.52-1.19,4.3-6.15,4.03-9.96l-3.98-.02-.05,9.99ZM264.22,278.37c1,9.01,8.96,10.63,13.93,3.08l-13.93-3.08Z"/>
    <path d="M302.65,206.59c-4.98,1.02-3.53-1.13-5.17-3.76-3.04-4.87-5.27-10.75-6.72-16.3-7.71,9.42-28.48,26.93-40.71,19.34-3.24-2.01-3.94-2.46-3.36-6.61l18.07-1.84,1.71-5.73c-3.5-6.69-8.27-6.43-14.45-3.14s-6.79,11.41-13.32,11.64c2.19-12.83-6.65-22.51-9.78-34.04,4.72-4.99,12.41,20.25,13.77,21.23l2.73.63c6.33-3.24,12.46-7.64,19.98-5.28,6.56,2.06,3.78,9.7,8.32,13.65,7.38-5.68,13.45-8.13,13.2-18.77-.14-6.05-5.63-13.9,1.04-19.06,6.68,5.14,3.82,13.38,5.75,20.12,2.74,9.6,9.89,17.85,8.94,27.92Z"/>
    <path d="M130.71,197.5l.06-5.98c3.9,2.16,16.25,1.52,15.78-4.53-3.08-10.04-10.19-14.34-18.65-19.44-9.09,8.03,9.62,21.32-3.13,25.93-.75-13.02-9.67-23.12-7.79-36.04,8.84,3.72,28.05,12.65,30.94,22.08,4.65,15.18-3.11,19.41-17.22,17.99Z"/>
    <path d="M372.44,241.06c.33,3.52.12,6.53-1.15,9.89-3.86,10.18-22.53,13.47-7.6,23.59l22.51,6.58c-5.07-.95-10.09,1.88-14.81,1.73-28.4-.87-29.43-42.41,1.05-41.79ZM363.47,254.15c2.48-2.73,4.92-6.01,6.96-9.1-9.95-1.67-15.11,7.12-16.08,15.88.9,1.1,7.97-5.51,9.12-6.78Z"/>
    <path d="M364.18,194.43c-8.57,7.46-19.33-8.02-21.59-15.46l-7.76,1.82c8.04-9.93-1.06-20.58.22-31.98,7.17,1.83,4.51,14.78,7.73,17.22s14.23-3.34,14.09,1.91c-.09,3.2-9.34,2.04-9.96,2.95-.9,10.61,8.44,23.79,19.87,18.13.23.19-2.02,4.9-2.6,5.4Z"/>
    <path d="M160.14,287.67c-6.38,6.57-29.13-3.96-30.13-14.08l-5.77,1.88c-1.92-5.62,4.92-8.12,5.76-11.35.98-3.78-3.72-16.02.46-22.62,9.5-.74-1.87,14.89,2.78,20.1l9.06-.02c1.45,5.59-4.36,4.79-8.01,5.98-.54,8.94,9.75,15.07,17.59,17,1.04.26,13.59-2.38,8.26,3.1Z"/>
    <path d="M187.71,277.35c-14.11,13.05-33.5-14.56-18.44-25.69,17.24-12.73,30.86,14.2,18.44,25.69ZM185.76,273.37c5.32-5.34,4.14-19.08-6.4-19.74-22.55-1.41-6.06,32.26,6.4,19.74Z"/>
    <path d="M313.48,171.29c4.46-3.85,8.66-2.47,11.08,2.73l-9.79,18.61,17.95,4.13c-21.77,12.81-36.31-10.74-19.24-25.47ZM310.82,184.64l10.05-9.91c-5.94-.36-10.26,4-10.05,9.91Z"/>
    <path d="M186.45,191.32c2.25,15.39-16.55,18.82-24.63,6.29-16.44-25.52,21.62-26.82,24.63-6.29ZM182.32,193.14c-.66-7.63-17.02-17.96-19.36-10.17-3.77,12.53,20.85,27.47,19.36,10.17Z"/>
    <path d="M218.12,203.47c-11.98,9.81-23.77-10.86-23.29-21.54,5.21-5.79,4.63,20.34,18.81,18.21,4.32-.42,6.79-5.42,7.13-9.29.67-7.61-9.36-13.45,2.08-14.75,1.7,9.04,3.49,20.63-4.73,27.36Z"/>
  </g>
</svg>