<?xml version="1.0" encoding="UTF-8"?>
<svg id="Lag_2" data-name="Lag 2" xmlns="http://www.w3.org/2000/svg" viewBox="0 0 124.64 173.91">
  <g id="Lag_1-2" data-name="Lag 1">
    <path d="M70.49,158.05l1.95,7.98c-10.3.58-15.89-1.13-22.03,7.87l-.16-11.79c-19.66-.05-45.02-15.93-49.39-35.68-3.35-15.15,3.92-43.93,8.75-59.26,2.8-8.86,9.37-28.72,20.57-27.46,7.89,2.06,9.94,13.33,18.98,12.16-2.65-14.52-9.63-28.39-19.67-39.11L46.54,0l14.56,45.15c20.17-1.76,28.04-17.55,47.18,1.05,34,33.05,11.93,107.8-37.79,111.85ZM19.03,71.71c-3.62,8.35-9.5,16.02-12.25,24.81-11.98,38.3,23.47,66.47,59.81,58.55,36.23-7.9,56.07-34.17,54.19-71.42-.85-16.77-16.96-43.68-36.02-41.14-12.95,1.73-23.68,16.51-36.66,15.56-8-.58-14.65-13.73-21.47-12.09-7.78,1.87-9.11,18.71-13.49,24.8l5.88.93ZM57.17,49.94c-2.29-12.48-5.79-26.41-10.84-38.06-.76-1.75-.26-5.43-3.86-4-10.93,4.34.14,12.49,2.39,17.47,2.82,6.26,4.34,14.15,7.45,20.56,1.39,2.86-.49,5.02,4.86,4.04Z"/>
  </g>
</svg>