<?xml version="1.0" encoding="UTF-8"?>
<svg id="Lag_2" data-name="Lag 2" xmlns="http://www.w3.org/2000/svg" viewBox="0 0 341.53 402.62">
  <defs>
    <style>
      .cls-1 {
        fill: #fff;
      }
    </style>
  </defs>
  <g id="Lag_1-2" data-name="Lag 1">
    <path d="M177.94,371.59c.53.52,2.45,1.68,1.81,2.42-.41.48-5.18.54-4.24-1.21.33-.6,1.79-.96,2.42-1.21Z"/>
    <path d="M151.89,379.47c1.45.21,1.44-1.44,2.4-2.09.87-.59,2.93,1.2,3.07-1.54,6.24,2.55,5.65,3.23.75,7.18l-9.86.08.61-1.81-3.33-.62c-.75.05,1,1.72-.62,2.43-.97.42-1.16-2.24-2.72-1.2l.61,1.2-2.37.55-.66-1.14c.27,1.86-1.58,1.15-3.04,1.2l1.81-1.51-2.41-1.52-.62,3.63c-2.16-2.57-3.73-.17-4.55-.17-.95,0-1.02-2.31-1.89.21-1.43-.67-3.54.19-4.63-.03-.24-.05-2.7-2.52-4.06-2.43-.48.68,1.04,3.62-1.21,3.03.04-2.09-1.17-4.82-.62-6.85.22-.83,2.27-.65,1.82-2.24-1.24.79-1.52,1.47-3.02.61l.61,1.81-2.07.56-1.05-1.71c-2.11.58-3.01.91-4.75-.66l1.82,3.63.6-1.21c1.81,1.04,2.64,1.99,4.84,1.22-.35,2.49,1.3,2.99-1.52,4.84l-1.21-1.8c-1.8,2.66-3.68,2.4-6.66,2.1-1.47-.15-1.51-1.88-3.72.88l-2.64-1.78-.32,1.86h-6.57s-.68-1.25-.68-1.25l-2.12,1.2.31-1.81c-2.43,1.82-3.47,4.07-5.75.6l-2.14,2.41c-1.19-3.53-5.56-.46-7.86-.32-2.62.16-9.75-.77-11.82-2.4-2.2-1.73-1.34-6.47-6.33-4.56l-.34-1.8c-2.15-.45-1.64,1.98-4.22,1.19l-.63-5.44c-2.22-.75-4.47,2.87-6.04.92,1.97-3.2-1.02-5.4,3.55-6.46l-.54-1.12,4.24,1.81-.31-2.41c1,.81,1.12,2.69,2.73,2.42-1.03-1.7.15-2.46,1.81-3.04-1.6-.72-2.34-3.03-1.2-4.23,2.78,1.09,3.2,1.11,3.33,4.25l2.72-.62v-3.63s1.8,1.81,1.8,1.81l-.33-3.04,2.76-.59c.72,1.54-1.16,1-1.21,1.57-.09,1.13-.09,4.98,1.2,5.09l.6-1.81.62,2.42,1.84-2.15-1.85-3.91,3.63,1.22c-.58,2.58-2.98,5-.61,7.26l-4.84,2.42c1.1,1.27,7.06,1.51,7.27,1.83.29.43-1.4,3.45,1.51,3.64l-.91-2.14,1.05-.4-.45-1.1c1.92.19,3.17-.26,3.94,1.81l4.19-2.44,2.17,2.44-.29-1.82c2.59-.7,4.09.86,6.35-.6.16,1.18,1,2.6,2.43,2.42l-.6-2.42c3.07.53,7.19-1.73,9.69.61.75.71-1.51.11-1.21,1.5.14.65,1.3.21,1.82.31l-.48-2.14c.38-2.1,14.36-.91,17.13-2.11-.65,2.66,1.11.4,2,.18,4.77-1.17,11.81-1.71,16.79-2.05,1.15-.08,2.25.69,2.97.66.16,0,.81-1.89,2.18-1.22,1.26-1.18-4.11-2.47-4.52-2.47-.48,0,.05,1.92-1.54,1.25l1.81-3.03-3.33,1.82-.61-1.24c-1.26.78-2.77.85-4.06,1.3-.54.19-1.14,1.64-3.5,1.16l.6-4.24c-2.51.07-2.21,2.52-1.82,4.23-2.9-.7-5.58-.66-8.48,0,.35-2.27,1.31-3.65.6-6.06-1.84-.32-.93.55-1.26,1.43-1.31,3.44-.5,4.35-4.77,4.99-3.58.53-8.41-1.26-11.25-.86-.21.03-1.09,2.68-3.31.2l.9-1.52c-1.76,1.5-3.38,3.59-3.95-.29,2-1.01,1.77-3.6-1.19-2.74v2.43s-4.25,0-4.25,0v-1.81s2.12,1.2,2.12,1.2c2.77-2.29-3.31-5.2-4.54-7.26l4.24.28-1.21,1.83c.53,1,3.17.75,3.03,2.73,1.58-.98.65-3.14-1.22-2.42l.62-1.81c2.13,2.24,2.45.02,4.84,0l.12,1.7c2.3-.11,1.9,1.62,2.31,3.45l-2.43-2.11-.59,3.6,1.51.65.55-1.18c2.38,1.73,4.28-3.01,6.71-3.68l1.21,2.41,1.84-3.04c.97-.16,1.87.48,2.45,1.18.96,1.17.52,3.58,1.76,3.08l1.52-1.52c-.67-1.35-1.38-1.42-1.2-3.32,2.44.11,1.84,4.77,4.22,2.12l-2.4-2.13c0-3.6,3.63,1.19,3.93,1.21.96.08.71-1.81.3-2.41,1.77-.63,1.52,2.74,2.99,1.75.16-.11-.31-1.58.94-1.15,1.39,1.6,2.51,2.71,1.52,4.84,3.51-.14-.26-3.74,2.12-5.45l.3,2.42c1.81.52.67-1.31,2.08-1.26,1.68.05,4.65,1.31,6.04,1.25.32-.01.35-.86.85-1.13,2.49-1.37,1.71.36,2.32.51.32.08,1.13-.38,1.92-.17,2.07.56,3.1,2.06,5.58.8l.32,4.26,3.32-.62c-1.04-1.65-3.05-.19-2.44-3.27.1-.48,2.19-.13.63-1.88l1.2-.29v3.63s3.03-3.02,3.03-3.02l-.6,3.63c.92-.65,5.79.14,6.05.92v1.51c-.19.24-2.38-1.36-3.02.31-.7,1.81,1.18,2.33,1.54.27,1.76.89,2.76.75,3.9-.89.31-1.45-.98-.52-1.84-1.3-2.16-1.96.03-5.57,1.89-4.18.85.64-.11,2.7,1.77,2.15v-2.43s3.03,1.22,3.03,1.22v-1.83c3.93.99,9.06-.14,12.89.64.79.16,2.05,2.09,1.05,3,1.5-.88,2.37-2.29,4.23-1.2v-1.83s6.09,2.12,6.09,2.12c1.08.65-1.05,2.49.88,2.13,2.41-.46-.34-3.55,4.38-3.49,2.37.03.97,3.5,4.09,2.89l-.29-2.42,2.17,1.83,3.84-.71.38-1.76c1.72.48,3.3-.1,5.05.39,1.34.37,1.31,1.36,1.72,1.45,2.3.49,8.52-1.12,11.35-1.22,8.86-.31,17.83.81,26.68-.62l1.52,1.85.33-1.86,17.23-1.17,1.22,2.42.62-2.42,2.4,1.81c.74-3.93,3.94-1.95,6.38-1.94,3.21.01,4.6-.1,7.14.38,3.17.6.95.02,3.15-.58,1.96-.54,6.16-.01,8.48-.91l.42,1.73,1.62.16.09,2.38,2.41-.6c-.82,2.29-1.74,2.51,0,4.84-.41-.06-.79.21-1.17.25-4.19.46-2.11-1.25-4.28-3.27.35,3.77-4.14,4.18-6.99,3.66-1.59-.29-1.02-1.81-2.4-1.91-1.27-.09-3.5.26-3.35,1.88l-.91-1.24-2.71,1.24-.1-1.07-1.11.47c-.55-.72,1.76-3.34-.3-3.03l-2.14,4.24-4.53-1.83.3,1.82c-1.03-.46-3.07.13-3.8-.11-1.29-.43-1.8-3.25-4.93-2.93-.58.06-.47,1.52-1.3,1.73-.5.12-1.41-.65-2.07-.24-1.32.83-.38,2.79-4.25,1.55l.6-2.13-1.19-.29v3.63c-2.41-.93-5.31-.78-7.48-1.22-.41-.08-.43-.98-.53-1-2.52-.61-5.98-.16-7.45,1.65-1.77-1.46-3.01-.54-4.17-.65-.42-.04-.29-1.1-.78-1.21-.8-.18-3.51.57-4.73-.02l-.32,1.85c-1.25-.37-3.24-.55-4.4.02-.76.38-.04,1.68-1.66,1.19l-.04-1.75-3.6-.06.61,1.81c-1.24-.69-3.46,1.32-3.62,1.21-.04-.03.12-.71-.23-.96-2.02-1.46-5.13-2.1-7.41-.9l-.34-1.03-1.96.51c-2.6-3.82-2.92,2.03-5.83,1.78l.61,2.41c-3.41-1.87-5.77,1.69-8.28-3.07-1.79.2-3.01.46-2.63,2.47l-2.42-.6.61,1.81c-1.21.7-3.13-.08-3.88.02-.44.06-.33,1.16-.75,1.23-2.5.4-4.56-1.46-5.37-3.66-.67,1.26-1.99.91-2.73,1.2-.47-.46-.79-1.43-1.52-1.81h-.9c-.85,1.07.03,2.72,0,3.02-.48,4.04-2.04.58-2.83.11-2.1-1.26-3.22.11-3.23,2.31l-2.7-2.27c-1.31.4-2.34.9-1.53,2.26h-2.42c-.45-3.46,5.31-2.47,2.65-5.47-2.78.13-1.34,3.24-4.47,3.06l.61,2.41c-2.59.06-8.84-.96-10.9,0-.05-.8.04-1.62,0-2.42l-.7,1.11c-.98.48-2.55,1.69-3.44.55-.47-.6.63-2.11-1.31-1.65l.6,3.02h-3.02s.61-1.81.61-1.81l-2.43-.61c-.13.13,1.18,3.37,1.31,3.5.1.11,1.51-.58,2.1,1.4.89-.71,4.02-.71,4.45-.96.91-.52.8-1.64,1.83-2.13.08,1.2-.06,2.44,0,3.64l1.2-.62v1.22s-3.31-1.22-3.31-1.22l-.92,1.82,4.24,2.43v-3.02ZM174.91,363.71c-.39-.07-1.74-.22-1.81.3l2.42.91c.16-.11-.46-.85-.61-1.21.97.18,2.62,1.58,3.03,1.21.67-.61-1.88-2.14-1.53-3.06l-2.1.04c-.24.88.35,1.21.6,1.81ZM139.77,364.31l-3.02-1.2c-.49,2.07,2.01.32,3.02,1.2ZM169.46,366.13l2.76-1.21-.35-2.42-2.41,3.63ZM124.62,363.11c-2.22-.04-3.17,1.53-3.02,3.63.73.93,3.39-3.28,3.02-3.63ZM169.45,363.11c-1.01-1.18-1.25,1.19-1.57,1.21-.67.04-3.35-1.23-3.27.9,1.77,2.88,5.9-.87,4.84-2.11ZM148.24,369.16c.27-3.13,2.25-.33,3.64-2.12-1.04-1.59-2.86-.23-4.22,0l.58,2.11ZM65.24,370.97l-2.43.37c-1.41-.82.32-3.29-3.33-3.99l-1.5,2.72,1.81.92c-2.63,3,.64,4.66,1.51.59.49.99,2.04,1.39,2.54,1.95.2.23-.49,1.26.49,1.68.7-2.15,1.81-1.7.9-4.25ZM65.85,369.77c.21-1.11-.66-2.01-1.81-1.81v1.2s1.81.61,1.81.61ZM184,369.77l-2.42.3c.65.93,1.3,1.06,2.42.91v-1.21ZM168.85,370.38h-1.21c.48,1.12-.19,2.32.91,3.02l.3-3.02ZM56.16,374.01c0-2.22-1.8-2.22-1.81,0h1.81ZM136.74,372.2h-1.81v1.21h1.81v-1.21ZM121.59,374.61l-.92-1.2h-.9s0,1.81,0,1.81l1.81-.61ZM88.88,378.25l1.8-1.51-.91-.9h-.9s0,2.42,0,2.42ZM137.95,375.83l-2.33.09-.69,2.93c.14.17,3.6-1.72,3.02-3.03ZM125.83,380.68c.27.17,2.79-.22,3.63.61l-1.49-1.78.28-1.24c-2.15,1.36-2.66-1.97-5.45-1.82-.98,3.61,2.1,2.27,2.95,3.12.27.27,0,1.07.07,1.12h-2.42s0,1.21,0,1.21h2.42s0-1.21,0-1.21ZM111.86,380.75c-1.59,0-2.68-3-4.2-2.23-2.52,1.27.81,3.1-.6,5.18,1.73.29,1.91-.09,2.27-1.68-1.84.01-1.14-1.9.45-1.95.78-.03.57,2.76.3,3.32l2.43.31-1.25-.93.6-2.01ZM133.1,381.89l.59-2.13-.89-.89-.62.59-.29,2.42h1.21ZM155.52,378.86h-1.2s-.61,1.81-.61,1.81h1.81s0-1.81,0-1.81ZM78.68,380.53c-.3-.18.16-1.16-.4-1.07-1.54,3.1-1.17.99-2.51.81s-3.88.26-5.35.26c-1.25,0-3.4-1.2-4.29.11l-.27,3.06c.77.79,8.46-1.44,8.79,1.22l.9-.02c-.54-1.62,3.58-2.01,4.45-1.81.49.11.42,1.24.73,1.25.34.02,5.23-1.1,6.58-1.32,3.95-.64,7.62-3.27,9.76,1.27l3.93-2.11c-.78-.87-2.68-3.07-3.92-2.61-.33.12-.23.97-.74,1.07-1.81.35-6.29,1.33-6.25-1.18l-2.01,1.15-1.61-1.16v1.83c-1.09.34-1.43-.94-2.13-.98-.33-.02-.83.67-1.18.65-.96-.06-4.05-.17-4.48-.43ZM102.8,380.07h-1.81s1.22,3.63,1.22,3.63c1.28.08.81-3.49.59-3.63ZM105.23,380.68h-1.21v1.81h1.21v-1.81Z"/>
    <path d="M13.74,169.17c-.58,2.2-.24,3.44.6,5.45l-3.63-1.81.61,5.45,3.94-1.8c1.76,1.13-.5,1.58-.31,3l2.97,1.51-.55,1.52-2.13-1.82c-.7.65-3.57.9-3.29,2.09.14.57,1.59,2.58,2.09,2.76,1.69.62-.22-3.03,2.71-1.2l-1.21.6.93,1.21,2.4-1.2c1.56,1.16.97,2.49.34,4-.52,1.26-2.56,1.58-1.78,2.6.08.1.9-.12,1.11.49.18.53-.03,1.38.19,2.1.75,2.43,1.29,2.9.43,5.95-1.68-.04-2.8-.66-2.42-2.42-2.88-.25-3.25,1.92-2.74,4.25h2.74c-.15,2.63,1.18,4.44,3.68,5.21l-.19,9.66c-.22,1.39-4.58,1.71-5.25-1.35-.11-.48,2.83-3.28,2.37-4.43-1.44.89-3-2.35-3.06-3.32-.01-.21,2.7-1.33,1.84-3.34-3.12.14-1.25,4.1-4.84,3.03.77.68,3.44,4.78,1.51,5.45-.55.19-2.23-3.86-2.46-4.2-.53-.77-2.16-1.1-2.43-2.43-.14-.7,1.38-1.84.38-3.02l2.38-.95-1.18-2.09c.52-.06,1.11-.25,1.45-.66,2.16-2.61-.61-.92-.24-2.99l2.09-1.24,2.74,1.23c.47-6.24-2.38-1.52-4.65-3.22-2.4-1.79-.92-7-6.25-5.87l.36-2.44-2.78-1.5c.31-2.33,2.78-1.01,3.92-.28,2.32-2.98-3-4.04-2.11-7.28,3.26-.91,3.68,1.86,6.67,1.2l-3.02-7.27,3.02,1.21v-1.83s3.03,0,3.03,0ZM9.51,180.09l-1.83.35v3.88c2.39.28-.22-3.2,1.83-4.23ZM12.53,188.56c-.56-3.16-2.31-4.6-5.44-3.63,1.03,2.6,2.82,3.86,5.44,3.63ZM17.38,193.41c.35-.35-.5-1.8-.91-1.8-1.68,0,0,2.72.91,1.8ZM11.93,204.32c-.37-.37-2.41.28-2.41.91,0,2.35,3.97.66,2.41-.91ZM18.59,210.38c.79-.74-1.58-2.59-2.42-1.81s1.58,2.59,2.42,1.81Z"/>
    <path d="M319.36,18.64c.06.15,1.53.64.97,2.05,1.64-1.74,3.23-.29,4.83-1.82l.97,2.45,3.28-2.45c-.53,3.4,2.2,2.84,2.4,3.05.57.61-.51,3.67-1.49,4.22l-.3-1.81-1.5,1.22-1.53-.62.61-1.81c-1.4-.53-3.39,2.27-3.92,2.27-.49,0-2.61-2.35-4.57-.16-.7.78-.43,1.95-.95,2.71-.49.71-4.25,4.9-4.35,5.23-.31,1.09.35,4.67-.75,6.31-1.24,1.24-1.72-2.75-1.64-3.25.24-1.46,2.86-4.11,2.86-4.38,0-.62-.73-1.39-.53-2.25.19-.79,1.47-1.28,1.57-1.92.23-1.42-4.55-4.1-4.1-1.56h-1.16c.27-1.71-5-1.98-6.07-1.48-.67.31-1.03,1.41-1.83,1.52l-.31-2.42c-.42,1.19-5.75,6.4-6.36,3.32-.34-1.72,2.56-.73,2.9-2.49l-1.08-5.08h2.42s.3,1.82.3,1.82c1.28-3.19,6.35-1.52,9.39-2.43l.91,3.02,1.9-1.77,2.04,1.17c.06-1.48,1.01-4.82-.16-5.94-.27-.26-1.14-.03-1.47-.26-1.35-.96-.81-10.05-1.4-12.29.05-2.22,2.25-.81,3.23-1.48.59-.4.18-2.07,1.64-.96,2.45,1.85,1.77,14.74,3.27,18.26ZM316.08,8.57c-1.67-.17-.97.03-1.18.93-.35,1.44-.63,2.57-1.24,3.92l3.63.61c-.03-2.02-1.77-3.26-1.21-5.46ZM316.68,20.69v-3.02s-.6,0-.6,0l-.61,3.02h1.21Z"/>
    <path d="M310.62,372.21c.05.04-.18.68.48,1.16.59.43,1.48.12,2.24,1.27.82,1.22.77,3.55,2.13,4.83-2.34.7-3.67.22-3.33-2.41l-1.57.99,1.87,3.24c-1.41-.05-3.3.68-3.03-1.2l-2.12,2.42-1.51-1.82-.31,1.83c-3.62-2.48-3.54,1.17-6.96,1.2l.58-1.18-1.79-.64c.68,2.23-2.1,2.44-3.93,2.45-1.53,0-.59-.41-.31-1.23-1.74.11-3.27.23-4.56-1.12l-1.81,2.33c-1.76-3.06-3.15-3.14-4.85-.01-1.7.35-.38-1.57-1.21-1.82-1.45-.43-.9,2.33-2.72,1.82l.56-1.76-2.37-1.27v2.42s-.91-1.22-.91-1.22l-.31,1.22c-1.01.34-1.57-1.01-2.12-1-.94.02-1.96,2.54-2.73-2.33l.62.91c1.22.04,1.67-3.02.89-3.04-2.21.35-3.79,0-5.14,2.13l1.1.39c.46.53-2.03,3.28-2.92,2.03,2.24-.97.84-5.02-.6-3.94-.4.3.33,4.07-1.82,4.24l.6-6.06c3.61,1,9.69-1.25,11.82,1.83l.29-1.21c3.3.82,8.21-1.3,11.12-.6.52.13,0,1.8,2.82.6l-.6,3.63,1.8-1.82c.26.68.25,2.87,1.51,2.42,2.77-1-3.02-2.6-1.51-3.94,3.1-1.84,7.28-.19,9.93-.47.78-.08,5.32-1.92,5.53-2.86l.6,3.03.92-2.43,2.41.61v-3.33s1.2-.29,1.2-.29Z"/>
    <path d="M10.72,58.27c1.6-1.92-.44-1.99,3.63-.61l.61-7.27c-2.52-.62,0,2.44-.6,3.02-.09.09-1.09-.19-1.63.16-.65.42-.49,2.07-2,1.66l-.61-9.08c1.28-.46,2.08,1.71,2.71,1.68.51-.03.93-1.37,2.12-.82,2.1.97,2.28,5.22,1.82,7.21-.12.49-1.18.2-1.26,1.3-.18,2.39,1.26,5.08,1.3,7.33.1,6.94-.98,15.23-1.26,22.37-.15,3.98-.36,2.64-1,5.57-.17.79.7,2.14-.2,3.23h1.83s-.62,1.82-.62,1.82l1.76.34,2.48,3.3-5.45-.6c.67,1.43,1.21,3.07-.31,4.23-1.15.54-1.99-3.56-1.51-4.23l-3.58.55-.36-2.98,2.73,1.81c.67-1.41-1.27-3.17-1.15-3.85.14-.77,1.69-1.41,2.01-2.18.24-.55-.06-2.98.41-4.4.18-.56,1.21-.3,1.2-1.33-.04-4.44-2.53-4.16-2.97-5.61-.35-1.18.07-2.7-.22-4.01-.36-1.62-2.19-2.05-1.05-4.19.3-.57,1.25-.36,1.23-1.37-.03-1.45-1.09-2.39-1.23-3.7-.28-2.52.61-6.51.09-9.26.24-.28,1.02-.03,1.08-.1l.3,2.42c.93-.65,1.06-1.3.91-2.42h-1.21ZM13.75,61.9c2.21-.94,2.66-3.56,0-3.63v3.63ZM17.38,98.26l-1.52-1.81h-.9s0,1.81,0,1.81h2.42Z"/>
    <path d="M11.55,237.39c.71.62,1.79.93,2.09,1.88-.68,4.76,2.39,11.12-1.71,14.44,3.4,1.46-.34,3.45,1.84,6.05l-1.24.32,1.65,2.2c.16,2.25-1.56,1.92-1.65,2.04-.12.17,1.38,2.12,1.49,3.92.17,3.09.08,8.73-1.49,11.22l1.79.03.03,10.88c-4.11.07-.76,1.34-.64,1.66,1.4,3.7.17,7.21.09,10.7-.06,2.61,2.16,5.04-1.27,7.03l1.86.34,1.45,34.39,2.75,13.77-1.9-3.55-4.15-.7,3.03-.91c-2.21-4.33-.17-10.87-4.85-13.33l2.43-.3c.67-3.05-.9-5.12-1.64-7.67-.26-.9,1.36-1.8-.73-2.3l.54-1.54-2.42.6c.44-2,1.8-2.15,3.64-2.43-2.22-4.83-.14-14.68-2.43-18.92-.38-.71-1.59-.79-1.67-1.32-.16-1.08,1.51-6.36.97-8.39-.5-1.91-3.17-1.53-2.93-3.47l3.02,1.21v-1.82s3.03.61,3.03.61c.81-3.36-2.98-3.54-4.87-4.54-.26-.13-1.85-4.27-3-4.85l1.82-.3-.5-1.1,3.45-1.22.66,1.11.32-2.4-3.34-2.43,3.64.6,1.21-1.21-2.45-2.15c-.43-2.23,2.15-1.37,2.46-3.64.03-.25-.18-3.47-.25-3.64-.28-.71-1.23-.68-1.42-1.01-1.02-1.82-.97-4.36,1.05-5.31-1.07,0-2.48-.2-2.43-1.52,3.04-1.24,1.95-3.72.6-6.06l1.22-.91-1.82-1.22h2.42s-.55-1.55-.55-1.55l1.07-.54c.22-2.5-1.25-3.74-1.64-5.49-.41-1.87,1.53-3.27,1.64-4.34.08-.83-1.66-2.19-1.12-3.53.68-1.02.57.41.84.64ZM11.32,285.53c-3.74-.64-.75,2.63,0,1.81v-1.81Z"/>
    <path d="M107.66,21.9v1.82c1.64.56.94-1.06,1.62-1.21,1.07-.24,5.42-.87,5.98-.03v3.69s-3.01,1.22-3.01,1.22c-.48-1.97-4.12-1.79-6.01-1.65-1.63.12-3.82.48-5.58.66-2.88.3-4.7.1-7.24-1.49l-.67,1.28c-1.48.17-6.41-.49-7.56-.36-2.09.23-2.48,2.29-3.9-.89l-1.25,1.73-17.84-.52.3,1.21c-.99.07-1.24-1.13-2.3-1.1-1.54.03-3.7,2.59-4.33-.11-5.17,2.08-11.03,1.53-16.35.9-1.48-.17-4.19,1.22-3.06-2.12l9.06-1.2.33,1.8c3.09.25,5.79-.82,8.85-.96,6.07-.29,12.6-.07,18.62-.46,1.33-.09,2.26-1.77,4.24-.4.55.38.08,1.44,1.01,1.22l.31-1.84c2.71-.54,2.99,1.38,5.14,1.85v-1.83s3.62,1.22,3.62,1.22c.26-2.89,4.09-2.1,5.78-.6.63-2,6.2-1.74,6.04,1.2l.95-2.39c.3-.26,4.31.69,5.05.56.42-.08.44-1.89,2.18-1.19Z"/>
    <path d="M316.69,255.83c-.6.05-1.22-.02-1.81,0-.23-1.45.28-2.57,1.81-2.42.06.8-.07,1.63,0,2.42.36-.03.99.17,1.16-.06l.08-1.73,2.7-.61c1.56.03.7,7.57.9,9.08-1.84-.81-2.74.18-3.63,1.8l3.02,2.44,1.21-2.42,1.22,17.57c-.39.39-3.02-.95-2.43,1.21l2.41-.6-1.81,2.42,2.35.99c.16,4.63.99,9.28,1.28,13.87.07,1.14-.37,2.15-.32,3.05.02.49.92,1.08.96,1.76.03.42-4.7,2.29-3.67,4.58l3.01-.95c1.86-.47.56,1.72.67,2.39.26,1.66,1.09,3.24,1.18,4.92.1,1.86-1.23-.08-2.43.31,2.47,4.05-3.68,3.06-2.41,1.23.04-.05.82.11,1.2-.44.69-1.01.52-2.59,2.42-2.63v-1.2c-2.38.58-1.54-1.21-2.41-2.12-.65-.69-2.27-.56-2.46-1.31-.59-2.37,1.16-4.66,3.09-6l-2.41-3.68c1.11-1.74,1.04-2.48.54-4.46l-2.41.61-.62-3.33,2.43.9c.66-1.57-1.86-2.55-1.81-2.72.52-1.85,2.45.81,3.32.31l-.91-3.65-1.49,1.83c-.54.66-.73.75-1.24,0-1.65-2.41,2.09-5.63-1.51-6.99l.92-1.51.6,1.21c2.12-2.01.39-3.93-.3-6.06l3.02.3-2.75-.98c-.8-.48-1.1,2.49-2.09,1.27-1.63-1.99,4.59-4.29,2.36-6.31l1.27-.66c-.71-1.04-1.45-.84-2.41-.3l-.62-4.25-1.81.6,1.88-6.98c-1.02-1.55-1.08-.72-1.28-2.71Z"/>
    <path d="M125.84,22.5v2.43c1.79-1.47,3.95-2.59,5.14,0,1.38-2.25,2.94-.99,4.2-1.24,3.37-.69,2.49-2.25,6.57.64.66.47.07,1.69,1.64,1.19,1-3.59,4.62-2.93,4.87.62.86-1.41,2.79-.64,2.93-.73.45-.27,1.18-3.69,2.16-.53,3.73-2.18,3.3,1.08,4.91,1.86,1.4.68.74-1.62.91-1.81.9-.11,1.24,2.9,2.42,1.81.15-.14-1.08-1.3-.18-1.18l2.59-1.24.62,3.64c1.96.44.64-1.1,1.62-1.82,1.26-.92,5.33-1.95,6.54-.58l1.21-1.23c.98,1.9,3.44,2.45,4.54,3.34,1.88,1.52-.01,4.22-2.33,3.23l-1.29-5.36c-1.64-1.52-1.65,4.05-1.82,4.24-1.64.53-1.11-1.82-2.72-1.6-1.06.14-2.22,2.18-4.25,2.28-.63.03-7.88-1.56-8.51-1.85-1.34-.61-2.02-1.45-3-2.45h-.89s-.93,1.82-.93,1.82l-2.1-1.21-.08,1.08c-1.61-1.12-3.04.55-3.85.52-.92-.04-2.86-2.62-3.62.21-3.45-.39-3.45-3.14-4.34-3.52-2.45-1.03-2.3,2.9-5.95,2.28-3.23-.55-2.97.28-4.83.04-1.31-.16-3.16-2.14-4.81-1.88-.7.11-.65,2.2-1.9,1.87l-1.3-1.87-2.67.41-1.18-3.38c1.59-.28,2.26.3,2.44,1.81l2.68-2.18,4.58.35Z"/>
    <path d="M237.32,377.04c-.22.56.41,1.35-1.18,1.24l-.03,1.18c1.03.22,2.06.5,1.81,1.83-3.5.17-2.89-.74-4.84-3.03.55,1.43-.91,1.77-1.01,1.98-.14.29.45.98.39,1.03-.18.14-3.38,1.11-3.94,1.83l-.29-3.62c-2.4-.61-1.03,2.8-1.22,3.02-1.91-2.02-4.55.75-6.35-1.79l.29-2.45c-.91,1.67-3.35,1.34-3.66,1.56-.22.16-1.99,2.02-2.2,2.06-1.78.39-4.11-.49-6,.47l-.87-1.67c-2.14,1.58-4.69.54-7.26,1.21l.62-1.2c-2.27.12-2.7-.9-2.43-3.04l1.81.6-.59-3.03c1.39,1.38,6.08.32,6.06,2.72l-1.22.91,1.5.03c.99-1.56.91-3.5,3.34-3.05l.59,1.81c1.28-4.66,7.54-1.08,9.37-1.16.47-.02.04-2.03,1.54-1.25l.62,5.45c2.47-.96,1.34-2.92.6-4.84l1.83.35v3.88c1.84-1.03,1.92-3.09,1.2-4.84,1.08-.35,1.41.91,2.11.98,1.23.12,4.14-1.58,6.12.19l.54-1.18c.91.94,1.88,1.33,2.74,1.82.11-.27-.07-.83,0-1.21,1.72.51,2.25,1.27,4.19.62-.31,1.61,2.14,3.7,1.7,1.65-.77-3.57,1.25-1.57,3.49-1.61,1.77-.03,6.13-.82,7.63-.32,1.34.44,2.21,2.12,3.27,2.09.47-.01.1-2.33,3.64-1.83,1.29,1.41-.57,1.75-.84,2.32-.34.71-1.1,3.66-1.59,3.75-3.51-2.19-3.7-2.95-7.55-.61v-2.42c-3.05,4.03-3.37,1.62-7.28.61l-.6,2.42-.3-1.82-1.22,1.2c-1.67-2.19-2.7-1.77-1.52-4.84l-1.51,1.21c-.37-1.59-1.11-.98-1.51-1.21ZM230.65,379.46l-1.81-1.81v1.81s1.81,0,1.81,0Z"/>
    <path d="M315.47,187.34l-1.81,2.44,5.44-2.42c-.3,3.11,1.34,9.66-3.02,9.7.21,1.34,1.95.83,2.49,1.61.46.67.82,11.55.55,12.54-.18.69-1.53-.1-1.23,1.3,2.17.58,1.62,4.76,0,6.07l1.22.68c.77,2.57-1.78,1.99-1.83,3.56l2.46,1.32c-.23,8.15,1.76,16.6-.64,24.44l1.83.31-1.59,3.97-3.27-.65.61-2.42-1.81.6c1.09-2.4-.16-3.45-.65-5.7,3.12-1.07,2.32-1.58,3.3-3.8.09-.21.97-.23,1.02-.58.21-1.52-2.15-3.47-.63-5.68-3.53,1.04-.64-4.48,1.21-3.64v-.9c-1.25-2.84-3.27-2.14-5.45-3.66-.5-1.84,2.53.49,2.41-1.2-.03-.44-1.7-.94-2.06-1.5-.64-.97-.38-5.37,2.07-4.86l.6,3.02.57-3.88-2.11-.9c-1.69-3.08,1.65-4.29,1.92-5.48.23-1.02-.34-2.1-.22-2.36.06-.12,1.03-.11,1.08-.42.32-2.07-4.11-4.14-.05-6.65l-1.74-.97.53-2.97-2.37,1.61.28,3.85-1.54.59c-.69-2.99-.56-5.45,2.4-6.96l-3.01-3.65,1.25-1.25c-1.35-2.53-2.27-8.87,1.77-5.12Z"/>
    <path d="M8.9,144.32c2.08-.1.57-2.01,3.63-.61-1.16-4.7,1.91.57,1.88,2.38l1.76.05-.6-1.81h3.03c1.16,3.61-2.79,3.45-3.03,6.35,4.5,1.53,3.08,4.24,4.21,8.15-2.52.42-3.86,1-3.91,3.67l-.91-3.63,2.4.61.62-1.82c-2.69.55-3.29-2.6-5.96-1.1-.09,1.73-.47,2.81-1.92,3.83l3.03.3c-.23,2.3-.94,4.19.91,6.08l-.65,1.16c-2.21.6-3.21-1.2-4.2-1.18-1.26.02-2.86,2.93-3.32-1.81l4.84,1.21-.64-2.69c3-.92,0-2.37-1.78-2.76l-.91,3.63-.96-2.41-2.37-.32,2.42-.9c-1.14-2.67.87-3.58,3.02-1.82l-.6-2.42h1.82c-.3-1.69-.37-3.03.23-4.65.14-.39,1.45.3.71-2.03-.21-.67-1.33-2.77-1.86-3.02-1.62-.74-.27,2.49-1.51,1.52l-2.99-4.91,2.38-3.88,1.22,4.85ZM14.95,151.6c-2.66-.48-.37,2.57.61,1.81l-.61-1.81Z"/>
    <path d="M195.98,375.39c.32.19-.22,1.83,1.95.44l.61,1.81c-2.1,1.05-2.39-.2-4.24-.6l1.21,4.23-3.03-1.21v1.82c-3.04-2.12-4.91.1-7.48.43-.74.09-4.25.17-5.53.24-4.1.21-8.15-1.69-12.13-.06l-.61-1.82-1.22,1.84h-1.21s-.61-1.24-.61-1.24l-1.5,1.22,2.13-6.06c1.59.83,2.08,1.41,3.92.61l.24,1.56,2.19,2.07c-.61-3.5.53-2.58,2.73-4.24l.3,1.82c1.69.33,1.18-.62,1.21-1.82,1.98-.14,3.01,1.65,5.05,1.62s2.13-1.33,2.34-1.43c.32-.15,1.08.54,1.69.14.42-.27.39-1.39,1.03-1.56.53-.14,10.48-.09,10.95.19ZM190.66,380.07l-.61-2.42h-.59s0,2.42,0,2.42h1.21ZM184.6,379.46c-.32-1.2-1.29-1.36-2.42-1.2.32,1.2,1.29,1.36,2.42,1.2Z"/>
    <path d="M13.75,223.71c-.75,1.05-1.4,2.09-1.84,3.32,4.73,2.95.19,7.98-4.21,5.16l1.13-.89-1.13-4.56c1.85-.4.78.9,1.62,1.84.27.3,2.32,1.49,2.62,1.18l-1.21-4.24-1.81.61-1.21-2.74,3.63,1.52c.86-2.82-2.05-4.49-2.32-5.16-.23-.57,1.06-2.35,1.09-3.04.07-1.56-1.49-3.21.33-4.53l.89,2.76,1.83-.34c.38,2.1-.04,6.59,2.42,6.67v.89c-.64.62-1.26.75-1.81,1.52,2.75-.82,3.1-.55,4.59,1.78l-.69,1.87,1.86,1.2.31-1.81c2.52.94-.01,2.13.1,3.23.35,3.63,2.39,8.66.48,12.69-.3.62-1.09.2-1.2.75-.26,1.29.82.61,1.18,1.36,1.76,3.69-1.8,2.96-1.79,3.48,4.48-.33,2.97,6.8,3.07,10.33.03,1.1-.62,2.21-.57,3.04.07,1.21,2.1,3.56,1.15,5.72-2.11-.52-2.8-2.54-5.45-1.82.93-2.08.1-5.82,3.03-6.07l-1.21-1.8c2.02.76.46-3.91-.04-5-.27-.6-2.23-1.53-2.18-3.2l2.2-4.84-2.38-1.26.61-2.95-1.24-1.55h3.63c.37-1.37-1.44-1.74-1.57-2.7-.22-1.58,1.39-3.89-1.46-4.87l3.03-1.2c-1.03-1.59-2.46-1.69-4.24-1.53l1.21-4.24c-.14-.17-2.98,1.85-2.42-.61Z"/>
    <path d="M10.11,121.29c.23.33,2.61,2.21,3.03,1.81-.93-1.56-3.13-4.61-.31-5.45l1.62,3.54,2.32.1c-.62-2.97-1.06-3.55,1.04-5.89.36-.4-.04-1.17,1.38-.77-1.06,2.41-.15,4.23,0,6.66l-4.8.66c.78,1.86-1.42,2.49-1.28,3.24.04.24,1.46,4.34,1.57,4.56.82,1.64,6.59,6.96-.32,3.66l-.04,2.08c2.6.39,2.46,2.75,4.72,2.9l.77,4.71-.6-1.19-2.43-.93c2.37-.87,1.25-2.38-.73-2.96s-2.77.92-3.21-.98l-2.08,1.27.56,1.76c-.8.79-3.22-2.36-3.03-3.32l2.42.9c-.09-1.64.58-3.67-.91-4.84-1.66-.31-.46,1.34-1.05,2.28-.15.24-.94.33-1.31.81-.3.39-1.08,3.73-2.84,1.39-1.03-1.37.44-4.44,1.36-4.97.15-.09,2.3,1.02,2.86-1.16.38-1.49-1.61-3.19-1.75-4.79-.16-1.72.89-2.24.97-2.99.02-.26-1.14-3.27-.35-4.52,2.92-.29,2.14,2.02,2.42,2.42h-1.21s0,1.82,0,1.82h1.21s0-1.82,0-1.82Z"/>
    <path d="M81.11,361.12c.14.11,2.87.26,3.51.77l.62-2.42c3.74-.19,2.25,2.34,2.44,3.86.05.41,1.01.31,1.31,1.23.49,1.53-.93,2.59,1.09,3.08-1.86,1.88-4.53.31-5.75-1.51-1.51,1.41.82,2.21-1.83,3.04l-.65-1.27-2.34.7-.63-1.25c-1.74,1.6-3.89,3.05-6.36,3.03l1.81-1.82c.34-1.7-.62-1.18-1.82-1.22-.15-.14,1.02-1.54,1.12-2.25.27-1.92-1.92-1.83,2.18-2.53l.95,1.75h1.19c-.02-2.42,2.58-2.23,1.83-4.84.91,0,.9,1.31,1.32,1.65Z"/>
    <path d="M313.05,81.9c.18,1.16-.81,1.27-.91,2.45-.25,2.82,1.52,3.16,1.53,3.36.13,2.09-1.8,2.28-1.82,3.89l3.63-.6-.6,3.02,2.42-1.2c-.33,2.6,1.45,11.57-1.52,12.72-1.14.44-1.15-.38-.49-1.2.1-.12,1.32.29.8-1.21h-4.23c-.42,2.13,1.29,2.72,3.01,3.05l.03.87c-.78.7-2.8,7.61-4.25,6.37,1.14-1.73-.34-3.98,1.82-4.53-2.68-3.69-1.66-9.2-.6-13.34l-1.21.3c-.36-1.09,1.08-1.97,1.02-2.72-.04-.61-1.34-1.43-1.47-2.5-.07-.58.57-7.1.76-7.5.33-.71,1.24-1.39,2.11-1.22ZM315.47,95.84h-1.2s.6,2.42.6,2.42c-2.33-2.14-3.26-.99-3.02,1.82l4.84-1.22-1.22-3.02Z"/>
    <path d="M313.05,69.17c.99-1.91,3.78-2.6,1.62-5.88-.47-.72-2.22-.56-1.63-2.6,2.71.72,2.38-1.81,4.85-1.82l-.76,12.01-1.66.11.61,1.53,1.21-.32v2.04s-1.21.67-1.21.67c1.2,1.37,1.92,3.28.3,4.56l-.61-1.22-4.54,2.43c-1.64-2.48,1.13-3.71,1.18-4.01.4-2.23-1.32-3.71.63-7.5l-1.21.61v-2.42s1.2.92,1.2.92v.9Z"/>
    <path d="M317.89,108.57v22.42s-3.63.6-3.63.6l-1.21-2.42c-.72,1.91.63,3.96-1.82,4.85.81-2.39.11-7.86,2.74-9.07,2.19-1,1.22,2.06,1.79,1.79l1.51-3.34c.33-1.74-1.33-.44-2.13-.58-1.16-.2-1.92-1.27-3.31-.32v-2.04s1.17-.41,1.17-.41l-1.17-2.39,2.95-.08c.54-1.5.81-3.1,1.14-4.67.25-1.17-.73-4.45,1.96-4.34Z"/>
    <path d="M208.22,27.36l.92-1.81,1.52.6-.32,1.82c1.16,1.74,4.25-1.08,3.35-3.03l1.22,1.82,3.6-1.8c2.07,2.81-.57,3.11-.59,6.04-2.97-2.88-3.72,0-3.97.02-1.25.09-3.73-1.62-4.2-1.61-.9.03-2.3,2.26-4.25-.08l-3.61,2.28-.46-2.27-1.04-1.02c2.2-3.74,5.1-4.97,7.83-.96Z"/>
    <path d="M316.08,169.78c.22,1.32,1.89.84,2.47,1.6,1.06,1.4-.2,5.88-1.57,6.87l-2.71-3.02c-1.38,2.61,1.22,2.58,1.01,5.69-.1,1.52-2.09,1.77-1.62,2.17s2.22.14,1.81,1.83c-4.1.17-2.39-3.35-2.62-5.41-.26-2.25-2.05-6.02.8-6.11l-.03-1.18-1.18-.32c1.13-1.6,2.16-2.96,4.24-3.35l-1.2-.6v-1.2c1.6.05,1.8-2.41,2.43-3.64.99.37,1.23,3.62,1.1,4.39-.27,1.6-1.34,2.4-2.93,2.28Z"/>
    <path d="M187.01,27.36l.92-1.81c1.64,1.87,2.26.25,3.52.19,1.17-.06,2.46.32,3.63.17s2.59-2.26,4.05-.07c-2.73.92-1.12,2.79-2.72,4.54l-1.21-1.81c-1.68-.57-1.35,1.07-1.93,1.19-5.5,1.18-5.19-.35-8.94-.52-1.11-.05-2.63.92-3.97.54.1-1.67-.58-3.71.92-4.86,2.17,1.5,3.87.18,5.73,2.43Z"/>
    <path d="M11.26,103.06l-1.76.06c-.26.21,1.16,1.3,1.44,1.81.09.15-.13,3.53,1.03.06l.85-.06c3.86,3.55,1.78,3.77,1.54,7.04-.11,1.53.77,2.93.58,4.47l-2.72-2.41c-1.54.8.02,3.5-2.11,3.02l-3.01-5.79,1.22-1.25c-.17-1.1-.71-1.96-.25-3.11.22-.55,2.52-1.22.66-3.07-.53-.52-1.94.58-1.65-1.01.5-2.76,2.43-.01,4.22-2.14l-.06,2.37ZM11.32,107.36c-.95-.54-2.4,1.96-2.41,2.12-.03.77,3.28,1.89,4.22,1.51l-2.18-1.79.36-1.84Z"/>
    <path d="M251.81,26.7c0-1.14,3.66-2.85,4.58-2.92,3.21-.22,1.96,3.12,2.13,5.39-1.21.27-1.47-1.08-2.59-1.08-1.27,0-4.15.92-5.27,1.68l-.62-2.42c-2.74,3.45-11.04.39-7.55-4.26,3.2,2.27,6.27-1.13,8.48,3.65l.86-.05Z"/>
    <path d="M337.16,387.86l-1.08.69c.69.02,1.49.29,1.74.99.77,2.21.74,6.96,1.7,9.82.44,1.32.52,2.12,2.01,1.32v1.81c-3.15.49-6.48-.27-4.86-3.95l-1.81-.29,1.21-1.51-1.81-.92v-.89s1.15-.56,1.15-.56c-1.59-1.9.68-3.55.7-4.84,0-.37-2.49-1.36-2.45-2.17,2.9,0,1.98-.81,2.21-2.49.09-.65-.13-1.92.81-1.76l.49,4.75Z"/>
    <path d="M136.58,15.68c.19-.12.13-1.04.5-1.06.45-.03,1.19.51,1.85.51,2.91,0,5.8-.19,8.71.1-.12,6.2-3.35,2.29-5.77,2.36-2.12.06-2.34,1.41-5.91.03-.58-.23-.4-1.21-.76-1.21-.23,0-3.66,1.29-4.46,1.49s-1.55-.36-2.1-.27-.13,1.66-1.29,1.23c-3.17-3.34,2.03-4.97,4.23-2.43l.92-1.81c.84.68,3.11,1.64,4.07,1.05Z"/>
    <path d="M111.81,16.34c.14-.1-.01-1.02.45-1.09.6-.09,2.17.75,3.27-.01l.9,1.82,1.22-1.81,1.54,2.12-.94,1.52c-.78.16-3.57-1.92-4.79-1.85-.35.02-.26,1.11-.75,1.23-2.85.72-4,.92-6.7,1.79-.22.07-3.32.56-3.53.56-.24,0-1.65-3.45-3.9-1.74l1.22-3.03,3.32,2.42.3-2.42c2.07,1.57,5.86-.58,6.25-.51.6.1,1.36,1.61,2.14,1.01Z"/>
    <path d="M316.78,140.61l1.11-.53c.39,1.08-1.02,1.52-1.01,2.11,0,.46,1.17,1.12,1.02,1.81s-3.11.87-3.02,2.44c.14,2.47,3.09-.89,3.62-1.52v7.27s-3.61-1.2-3.61-1.2l-1.22,1.81,1.21-4.85h-2.42c-.32-1.41,1.51-2.42,1.67-3.44.19-1.2-1.44-3.09-1.1-4.63l2.17-1.53,1.6,2.25Z"/>
    <path d="M283.97,20.69c2.2-.69,3.54-6.37,5.46-2.14-.13,2.11-2.56,2.82-3.32,3.98-.92,1.39-.47,2.99-2.67,3.97l.53,2.06-1.81.63-.03-5.67c3.63-.76,1.45-2.63-1.21-1.87l-.58-2.76,1.81,1.21,1.21-3.03.62,3.63Z"/>
    <path d="M313.66,155.84l2.1-1.21c1.59,1.04.55,2.18.31,3.63l2.42.64c-.58,2.65-.04,4.64-3.32,5.43l.31-1.81c-2.17-.58-1.65,1.06-3.02,1.81-.62-.47-1.06-9.19.9-9.69l.31,1.21ZM316.63,159.53l-2.36-.66c-.3,1.49,1.25,1.63,2.12,2.42l.24-1.76Z"/>
    <path d="M293.05,17.66l-.6,3.63,1.82-3.03,1.83,2.68-4.86,7.62.59-3.03-1.14,1.43-1.27.38-1.83-2.71,2.74-.87c.76-1.32.15-6.19,2.71-6.11Z"/>
    <path d="M276.55,23.26c.5.54.65,2.45,1.05,2.28l3.94-2.42c.18,2.44-2,5.94-4.49,5.44-.78-.16-1.55-.99-1.88-1-.6,0-2.5,2.26-3.93,1.61.94-2.38,1.42-5.15,3.93-6.48.43.12,1.1.26,1.38.57Z"/>
    <path d="M164.61,12.82v4.84s-3.02-2.42-3.02-2.42v2.43c-1.38.71-3.58-1.74-3.95-1.73-.41.01-.97,1.2-1.53,1.44-.9.39-2.47-.76-3.31.88l-1.51-2.72c1.88.13,1.92-1.92,3.32-2.13l1.82,1.82,2.98-1.85,1.26,1.85c1.18-1.08,2.03-2.75,3.94-2.41Z"/>
    <path d="M227.02,29.18c.47-1.18-1.1-4.23.31-4.84s.7,1.63.9,1.81l.89-.02c2.1-1.72,5.59-.62,7.58-3.01.45,1.67-.98,4.96-2.4,5.77-2.29,1.31-1.23-1.35-3.03-.92l-1.82,2.42-.6-3.03c.16,1.63-1.5,1.52-1.83,1.81-.13.12-.21,3.49-1.83-.6l-.9,1.22-1.81-1.22-.6,1.81-.91-3.63,2.41,1.21v-2.43c.68.08,1.52-.14,2.12.02,1.78.47-1.58,2.85,1.53,3.63Z"/>
    <path d="M21.62,275.23c-.1,2.54,1.9,6.34.02,8.18l1.83,1.24-2.45,4.82,1.21.9h-2.42s.08-2.36.08-2.36l1.72-.07c.22-.22-.29-3.26-.58-3.78-.56-1-1.92-.63-2.31-1.18-.44-.63-1.19-4.38-2.47-5.54l1.44-1.59c1.07.79.04,2.91,2.42,2.41,1.98-.42-.93-2.45-.29-3.02h1.81Z"/>
    <path d="M171.66,14.28c.35.32.08,1.18.52.96l2.72-2.42.61,3.93,1.21-.3c-.36,4.3-5.39,0-5.75.01-.5.03-.84,2.74-2.72,1.81v-1.83c-3.42,1.02-2.62-1.05-1.2-3.01l1.21,1.8,1.21-2.42c.15-.11,1.83,1.14,2.19,1.46Z"/>
    <path d="M315.48,51.6l-.31-1.83-.6,1.24c-2.68.54-3.03-3.32-.3-3.96l-1.82-.9c2.78-1.06,2.52-.77,4.23,1.2l-1.21-4.24,3.03-.61c-.23,2.84,1.17,9.24-3.02,9.1Z"/>
    <path d="M25.26,312.83c-.71,2.4-.03,4.93-.23,7.43-.05.56-.97,1.12-.87,1.81s1.59,1.59,1.1,2.84c-4.99,1.72-1.19-4.7-1.84-5.41l-2.38-.95,1.19-1.21c-.3-1.05-3-.46-2.41-1.81.51-1.16,5.62-.18,3.63-3.34l1.81.63Z"/>
    <path d="M19.8,169.17l-1.81-.6c-1.45,1.77,5.08,3.36-.61,4.25-.3,1.07,1.42.27,1.2.9-.82,2.34-3.68-.86-2.81-3.05.31-.77,1.29-.7,1.47-.99.98-1.55-1.92-5.17-1.69-5.34h3.03s-.6-3.64-.6-3.64c3.57.62-.02,5.94,1.81,8.48Z"/>
    <path d="M23.44,291.58l.61,7.88-4.84-3.04v-1.2s2.41.31,2.41.31l-1.51-2.12-1.51,1.2c.15-.74-.68-1.52-.62-2.11.18-1.72,1.82.06,2.11.05.38,0,2.4-1.13,3.34-.98Z"/>
    <path d="M210.05,13.42v1.82s2.42-.31,2.42-.31l-2.72,2.7c-2.33-2.17-6.09.59-7.57-3.31-.82-2.16,5.21.14,5.77.06.73-.11,1.07-1.31,2.1-.96Z"/>
    <path d="M24.79,330.86c.04.09.96.09,1.08.51v2.04s-1.24-.27-1.24-.27l-.88,1.49c-2.08-1.27.49-2.33.3-3.32-.35-1.25-3.39.08-3.03-1.82.2-1.08,1.76-.23,1.81-.31.94-1.56-2.22-.81-.91-2.44l3.06-1.08c2.27,1.03-.44,4.64-.19,5.21Z"/>
    <path d="M58.39,18.47c1.3,1.1,1.1,2.54.79,4.04l-1.21-2.42c-1.28.56-.31,2.33-2.39,2.77-.81.17-2.97-2.25-4.87-.96-.05-3.63.7-3.41,3.16-1.78.7.46.36,1.7,2.29,1.17-1.43-2.32-.18-4.87,2.24-2.82Z"/>
    <path d="M231.87,16.45l3.63-1.82,1.21,3.03c-2.21.25-9,1.14-8.5-2.65l2.74-1.59.92,3.03Z"/>
    <path d="M267.89,23.43c1.28,1.45.59,2.52,2.13,1.5l-.9,1.81-1.51-1.2-2.12,2.43-.31-1.83-1.81.61v-3.63s1.21,1.81,1.21,1.81c1.41-.82-.41-2.52,2.13-2.99.45.46.75,1.01,1.18,1.5Z"/>
    <path d="M92.95,15.33c3.01-.61,4.06,3.43,2.59,4.49-2.33.14-4.17.43-5.41-1.94-.19-1.04,1.91-2.36,2.82-2.55Z"/>
    <path d="M194.29,17.05c-1.11.34-1.45-.93-2.25-1.11-.94-.22-2.14.72-2.51.46-.6-.41-1.35-3.29-3.11-3.29,1.28-1.92,3.75.31,4.43.2.55-.09,1.19-1.26,1.92-1.12.94.18,1.72,3.83,1.53,4.85Z"/>
    <path d="M7.55,269.05c-.48.77-2.49.13-1.08,3.15-2.26-.44-1.99-2.27-2.41-4.24l1.81.6.02-1.52c-1.79-.41-1.22-1.74-1.22-3.33,2.66-.83,3.77,3.94,2.89,5.33Z"/>
    <path d="M24.2,359.97l1.06.12c-.81,2.21-3.11.39-4.84.59-.06-1.41,2,.36,1.82-1.51-.13-1.38-1.28-2.19-1.83-3.33l4.24.59-1.81-1.51,1.51-.89c2.56,1.33-1.09,4.88-.15,5.94Z"/>
    <path d="M327.59,317.05l.6,9.08c-2.49.26-2-1.91-3.56-2.7.48-1.01.36-2.35,1.74-2.16l-1.2-.88c1.08-.92.4-3.79,2.41-3.35Z"/>
    <path d="M185.22,15.84l1.81-1.21v3.03s-4.54-1.81-4.54-1.81l-.9,1.52-1.22-.63c.44-1.38.64-3.53,2.42-3.33l.3,1.82.92-2.42,1.21,3.03Z"/>
    <polygon points="248.22 14.64 247.51 18.17 243.99 18.87 243.65 14.61 248.22 14.64"/>
    <path d="M220.34,12.82l.36,1.22,1.4-.57c.21,1.11,2.25,2.87.68,3.91-1.57.65-3.54.53-4.6-.93l.97-3.25,1.19-.37Z"/>
    <path d="M124.57,16.4l.35-1.16c.87.62,1.19,1.67.88,2.69-.47,1.51-8.38,1.18-5.08-2.73l3.85,1.2Z"/>
    <path d="M317.29,83.72c-.31,2.07.99,5.52-1.2,6.67l-.92-3.69-1.5.05.61-3.64c1.16.89,1.58,1.14,3.02.6Z"/>
    <path d="M21.63,344.32l-.35,2.44c.89,1.15,3.3-.31,2.77,1.79l-3.63,1.22c.4-2.36-2.02-3.35-1.82-6.06l3.03.61Z"/>
    <path d="M84.63,15.85l-2.92,1.31-.72,3.53c-1.98-.92-2.46-3.42-2.41-5.45,1.08-.35,1.41.89,2.2,1.05.93.19,2.66-.82,3.86-.44Z"/>
    <path d="M1.75,223.53c.24.16,1-.43,1.7.43.87,1.08,1.42,3.37,2.42,4.6-3.28.19-4.37-.16-2.42-3.02-1.82,1.24-4.83-4.85-2.74-3.64.6.35.66,1.37,1.04,1.63Z"/>
    <path d="M22.49,306.52c.29.37,1.19-.09.94.81-1.62-.23-1.04,1.63-2.11,2.42l-3.29-1.86-.04-1.76,3.01.31-1.19-3.95c1.42.89,1.57,2.64,2.68,4.02Z"/>
    <path d="M6.47,244.92c-1.43-.1-1.31.5-1.21,1.83.13.17,2.73-.66,1.81,1.51-1.19,2.79-5.31-2.83-2.43-4.24l-1.8-2.12,3.62,3.02Z"/>
    <path d="M313.87,136.08c-.35.25.09,1.48-1.42.97-.33-2.88,2.75-6.18,5.44-3.94-1.1,1.31-2.66,2.01-4.02,2.97Z"/>
    <polygon points="272.45 15.23 272.45 19.48 269.47 18.83 270.12 15.33 272.45 15.23"/>
    <polygon points="196.19 16.36 194.91 12.82 198.49 13.78 198.26 15.87 196.19 16.36"/>
    <path d="M312.94,54.76c.13.07,1.37,2.3,1.32,2.58l-3.63,1.53.61-4.24c.55.05,1.19-.17,1.7.13Z"/>
    <path d="M5.86,119.48h-1.79c-2.27-6.93,3.3-5.28,1.79,0Z"/>
    <path d="M71.91,18.27c.11-.11-.21-1.3.27-1.19l3.01,1.13c1.02.7.21,3.93-1.17,2.5l-2.11-2.44v3.64c-1.93-1.62-3.08.08-4.23-2.74-.73-1.79,3.23.13,4.23-.9Z"/>
    <path d="M258.47,18.22c-.1.12-2.42.49-2.98.65v-3.64s2.76.57,2.76.57c.32.47.47,2.11.22,2.42Z"/>
    <path d="M327.59,344.92l1.21-2.41-2.42-1.82,4.22,1.55c-.3,1.65-1.11,3.05-3.01,2.68Z"/>
    <path d="M6.47,169.17l-1.81-.61c-.91,5.14-4.1,2.32-.85-1.16l2.66,1.77Z"/>
    <path d="M329.41,338.25c-2.23-.29-3.94-3.56-1.51-4.83,1.46,1.23,1.66,3.03,1.51,4.83Z"/>
    <path d="M7.68,150.38c1.53,3.17-.44,3.54-.59,4.07-.2.7.15,1.51-.2,2.43-.43,1.11-2.89,2.46-2.59-.47.26-2.59,1.79-1.53,2.53-2.37s-1.81-4.17.85-3.67Z"/>
    <path d="M261.55,22.51c.07,2.23.14,4.62-.9,6.66l-.92-2.67,1.82-3.99Z"/>
    <path d="M333.73,379.33l1.73-.47-1.81,1.82,1.21,1.2c-2.26.6-2.12-1.77-3.63-2.72l2.16-.86.34,1.04Z"/>
    <path d="M22.23,270.98c-.1.09-1.1-.19-1.63.16-.65.42-.49,2.06-2,1.66l1.82-4.24c1.51-.46,2.32,1.95,1.81,2.42Z"/>
    <polygon points="13.74 233.41 14.35 237.65 11.31 235.53 13.74 233.41"/>
    <path d="M217.32,13.42l-.3,3.03-3.94-3.63c1.48.77,2.6,1.15,4.23.61Z"/>
    <path d="M316.08,52.21c.18.89.14,4.04-1.5,3.63-1.88-.47-.52-4,1.5-3.63Z"/>
    <path d="M19.19,220.08c.41.29.61,3.23-.29,3.63l-2.12-2.72c.15-.71,1.92-1.26,2.41-.92Z"/>
    <polygon points="21.01 373.41 19.8 376.13 21.01 377.65 17.39 377.04 19.21 376.43 18.59 374.02 21.01 373.41"/>
    <polygon points="4.65 192.8 2.8 190.12 5.26 188.56 4.65 192.8"/>
    <polygon points="264.58 15.23 265.19 19.48 267 20.08 264.65 20.02 263.38 15.53 264.58 15.23"/>
    <path d="M316.08,38.87h-1.82s.61-4.24.61-4.24c2.07.73.54,2.88,1.21,4.24Z"/>
    <path d="M317.89,138.87c-2.37.35.44-1.46-1.8-1.23l1.2-3.02c2.13.78.56,2.79.59,4.24Z"/>
    <path d="M277.3,20.08l.31-2.43c1.39-.02.38,6.4-1.17,2.47l-2.16.56,1.22-3.63,1.8,3.03Z"/>
    <path d="M60.4,18.28c1.05.19,1.14-.64,1.6-1.14,1.68-1.83,1.33,2.2-.09,2.94l-1.51-1.79Z"/>
    <path d="M6.48,198.27c-.49,1.31.42,3.18-1.82,3.02v-3.03s1.82,0,1.82,0Z"/>
    <path d="M24.04,370.98c.34,2.21-3.15,1.51-4.24,1.2.57-1.55,2.99-.71,4.24-1.2Z"/>
    <path d="M16.77,366.74c.45.44-1.18,3.61-2.42,3.02-.45-.44,1.18-3.61,2.42-3.02Z"/>
    <path d="M18.59,106.14c-.16.46,1.98,3.73.31,3.62-.75-.05-2.46-3.4-.31-3.62Z"/>
    <polygon points="24.05 301.89 20.41 300.69 24.04 300.08 24.05 301.89"/>
    <path d="M326.98,330.38c1.21,1.17-2.12.95-.6,2.42-3.7-.21-.59-3.57.6-2.42Z"/>
    <path d="M329.4,359.48l.1,1.07,1.11-.48v1.21c-1.92-.16-.77.58-.6,1.82l-1.8-3.34,1.19-.28Z"/>
    <polygon points="4.63 277.07 5.26 280.07 2.85 277.34 4.63 277.07"/>
    <path d="M313.66,212.8v-2.41c3.26-.27,2.64,2.1,0,2.41Z"/>
    <polygon points="18.59 110.39 18.59 111.59 16.17 111.59 16.17 109.78 18.59 110.39"/>
    <path d="M2.24,259.47v-2.42c2.41.01,2.38,2.42,0,2.42Z"/>
    <polygon points="90.09 20.08 88.26 19.73 88.28 16.45 90.09 20.08"/>
    <path d="M331.22,349.16c-1.66-.69-1.71-2.15-1.2-3.63,1.58.46.81,2.44,1.2,3.63Z"/>
    <path d="M24.65,367.34l-2.42-.61v-1.2c1.45-.23,2.57.28,2.42,1.81Z"/>
    <path d="M21.62,311.59c.16.16-.54,2.28-.66,2.36-3.22,1.98-.44-3.49.66-2.36Z"/>
    <polygon points="10.72 86.14 10.12 83.11 11.89 84.68 10.72 86.14"/>
    <path d="M5.26,255.83c-.4.38-2.4-.28-2.41-.91-.02-1.81,3.56-.17,2.41.91Z"/>
    <polygon points="250.64 15.85 250.64 18.87 249.44 18.87 249.44 15.85 250.64 15.85"/>
    <polygon points="23.45 306.14 23.74 303.11 24.68 304.62 23.45 306.14"/>
    <path d="M306.39,374.01c-.18-.12.81-4.47,1.81-.91-.39.55-1.25,1.29-1.81.91Z"/>
    <polygon points="9.51 89.17 10.41 86.75 11.32 88.26 10.41 89.17 9.51 89.17"/>
    <path d="M2.24,175.83l-.61-1.81c2.52-.32,3.27,1.64.61,1.81Z"/>
    <path d="M76.75,15.84l.61,2.42c-1.19.92-3.3-2.95-.61-2.42Z"/>
    <rect x="224.6" y="14.63" width="1.21" height="2.42"/>
    <path d="M323.95,329.77c-.08.08-.4-.03-.59,0-.09-1.11-.19-2.64,1.2-3.03.04.62-.36,2.75-.61,3.03Z"/>
    <polygon points="335.46 375.23 334.85 377.65 333.65 377.64 334.26 375.22 335.46 375.23"/>
    <path d="M290.63,326.14c.16,1.13,0,2.1-1.2,2.42v-2.42s1.2,0,1.2,0Z"/>
    <path d="M222.17,23.72c.16,1.13,0,2.1-1.2,2.42v-2.42s1.2,0,1.2,0Z"/>
    <polygon points="197.93 381.89 196.11 381.59 196.73 379.47 197.93 381.89"/>
    <path d="M19.8,180.08c-1.13-.44-1.87-1.95-1.81-3.03,1.13.44,1.87,1.95,1.81,3.03Z"/>
    <path d="M318.5,181.29h-.59c0-1.25-.96-2.24.3-3.02l.29,3.02Z"/>
    <path d="M23.44,369.17v.59c-1.12.39-1.9.39-3.02,0v-.59s3.02,0,3.02,0Z"/>
    <rect x="331.84" y="367.35" width="1.81" height="1.21"/>
    <path d="M3.44,200.08l-1.81-.61v-1.2c1.15-.19,2.02.71,1.81,1.81Z"/>
    <path d="M22.22,340.68c0,2.23-1.81,2.23-1.81,0h1.81Z"/>
    <path d="M150.67,17.05c-.92.92-2.58-1.8-.91-1.8.4,0,1.25,1.46.91,1.8Z"/>
    <path class="cls-1" d="M12.53,188.56c-2.62.23-4.42-1.03-5.44-3.63,3.13-.97,4.88.47,5.44,3.63Z"/>
    <path class="cls-1" d="M9.51,180.09c-2.05,1.03.56,4.51-1.81,4.23v-3.88s1.81-.35,1.81-.35Z"/>
    <path class="cls-1" d="M11.93,204.32c1.57,1.57-2.4,3.25-2.41.91,0-.63,2.03-1.28,2.41-.91Z"/>
    <path class="cls-1" d="M18.59,210.38c-.83.78-3.21-1.07-2.42-1.81.83-.78,3.21,1.07,2.42,1.81Z"/>
    <path class="cls-1" d="M17.38,193.41c-.92.92-2.58-1.8-.91-1.8.4,0,1.25,1.46.91,1.8Z"/>
    <path class="cls-1" d="M316.08,8.57c-.56,2.19,1.18,3.44,1.21,5.46l-3.63-.61c.6-1.35.89-2.48,1.24-3.92.22-.89-.49-1.09,1.18-.93Z"/>
    <polygon class="cls-1" points="316.68 20.69 315.47 20.69 316.09 17.66 316.68 17.66 316.68 20.69"/>
    <path class="cls-1" d="M13.75,61.9v-3.63c2.66.07,2.21,2.69,0,3.63Z"/>
    <polygon class="cls-1" points="17.38 98.26 14.96 98.26 14.96 96.45 15.86 96.45 17.38 98.26"/>
    <path class="cls-1" d="M11.32,285.53v1.81c-.75.81-3.74-2.46,0-1.81Z"/>
    <path class="cls-1" d="M14.95,151.6l.61,1.81c-.98.75-3.27-2.29-.61-1.81Z"/>
    <path class="cls-1" d="M315.47,95.84l1.22,3.02-4.84,1.22c-.24-2.81.69-3.96,3.02-1.82l-.6-2.42h1.2Z"/>
    <path class="cls-1" d="M11.32,107.36l-.36,1.84,2.18,1.79c-.95.38-4.25-.74-4.22-1.51,0-.16,1.46-2.66,2.41-2.12Z"/>
    <path class="cls-1" d="M316.63,159.53l-.24,1.76c-.87-.79-2.42-.92-2.12-2.42l2.36.66Z"/>
  </g>
</svg>