<?xml version="1.0" encoding="UTF-8"?>
<svg id="Lag_2" data-name="Lag 2" xmlns="http://www.w3.org/2000/svg" viewBox="0 0 306.69 378.29">
  <g id="Lag_1-2" data-name="Lag 1">
    <path d="M9.22,361.47c-1.16-.82.47-10.31.54-12.31.4-12.04-1.02-25.79-1.54-37.96-.77-17.96-2.32-36.14-3.3-54.21-.1-1.9.12-3.85.03-5.75l1.2.61v-1.82s-1.2.61-1.2.61c.11-1.35-.49-2.61-.6-3.93-.35-4.09-1.68-16.16-1.26-19.32.15-1.13,1.1-.78,1.25-1.26.64-2.16-.92-1.82-1.37-2.77-1.11-2.32-1.06-9.31.79-11.59l-1.81.89v-3.01s1.19.61,1.19.61c.73-2.14-.94-2.19-1.25-3.29-1.09-3.78.63-6.84-1.15-9.68l2.41-1.49-1.72-.07c-.16-.73-.29-1.51-.33-2.25-.49-10.2-.3-20.45.18-30.56l-1.17-.59c.62-1.49.1-3.06,1.83-3.58-2.38-3.58-.98-9.82-1.2-14.17,2.77,1.76-.17-3.23-.32-4.19-.33-2.04-1.05-7.69.96-8.21-1.7-4.82-.86-10.2-1.24-15.3l1.81-.31c.02-.52-1.68,0-1.87-2.39-.06-.69-.01-5.36.07-6.02.13-1.06,1.21-1.54,1.21-2.43,0-.38-1.03-.2-1.19-.69-.43-1.33.92-4.27.9-5.34-.43-27.78,1.26-56.12.9-84.38-.03-2.67-1.68-3.98,1.83-5.95,4.83-2.72,5.71-.27,6,4.14,1.58,23.48-1,49.31-1.81,72.9-1.21,35.24-.96,70.81.03,106.1,1.17,41.73,4.05,83.99,5.95,125.95.57,12.69,2.55,23.81,1.22,36.72-.38,3.67-1.77,6.6-5.96,6.28Z"/>
    <path d="M299.12,359.71c-.35-7.82.46-16.01,0-23.79-1.44-23.76-7.44-47.84-4.84-72.34.03-1.42.61-2.74.65-4.17.88-32.48,1.33-62.12.56-94.6-.78-32.66-1.09-63.69.05-96.41.4-11.33-1.34-22.91,1.63-33.93.68-2.53,3.8-12.04,5.36-13.32,1.33-1.09,4.25-1.96,4.17.56-.07,2.04-2.88,8.52-3.54,11.52-2.74,12.41-1.22,24.96-1.59,37.58-1.28,43.35,1.16,86.28.66,129.45-.39,33.75-5.09,70.29-1.88,103.71.62,6.44,2.31,12.86,3,19.3.97,9.06.18,18.39,1.24,27.08.13,1.08,1.07,1.93,1.03,2.94-.07,2-3.83,7.06-6.48,6.43Z"/>
    <path d="M265.96,11.42l.61-1.2-1.59,1.24-2.93-.64-.31,1.8c-2.43-.56-5.83,1.81-6.93-1.2l-1.51,1.51,1.2.89c-1.54-.2-3.59.33-5.01,0-.34-.08-1.15-2.39-4.02-.58l1.8,1.19-11.21,1.2c-1.35-.04-1.71-3.7-4.45-.89l2.41.3c-.83,1.97-3.65,1.02-5.43,1.19l.61-1.2-1.51-.02c-.4,1.57-1.21,1.3-2.72,1.21.28-.76,1.22-1.28-.3-1.21-2.06.09-4.16,1.4-6.33,1.22l1.2,1.19c-1.6.01-2.71.56-3.3-1.11l-1.46.47-.65-1.16c-.01,1.36-1.75,1.03-.61,2.4-4.86.61-9.47,2.43-14.47,1.81l1.2-1.19h-2.41s.61,1.19.61,1.19l-3.62.61c.96-2.14-1.41-2.36-.69-.07l-8.35,1.28,1.2-.89c-.36-.94-3.48-.55-4.38-.27-.5.16-.4,1.01-.89,1.13-1.52.37-7.69,1.53-8.77,1.27-.8-.19-.66-2.28-2.23-1.82l1.2,1.79h-3.02s.61-1.19.61-1.19l-5.14,1.78-.61-.59c.57-1.48-.43-1.38-1.74-1.83l-.97,2.43c-1.14-.47-.27-1.74-2.41-1.2l.3,1.21c-2.36-.4-4.65.45-7.22.64-9.95.74-20.64-.18-30.63.79-3.03.29-2.12-.2-3.73-.23-.86-.02-2.26,1.72-3.64,1.28l-1.18-1.28c-1.95,1.81-6,.44-9.07.58-9.31.4-18.55,1.63-27.74,1.85-12.56.3-25.28,1.37-38.54,2.39-2.18.17-8.18,1.91-9.3.25-1.38-2.05-.69-7.32,2.01-7.44.84-.04,1.95.68,3.06.61,38.08-2.26,76.23-2.97,113.94-4.27,31.83-1.1,63.65-4.88,95.23-8.44,16.57-1.87,33.06-5.04,48.89-10.22l3.18,1.59c.34,1.32.15,2.81-1.15,3.49l-27.11,6.35ZM191.21,20.46l-.91-1.2-1.5.9,2.41.29ZM174.64,20.47l-.9.9,1.49.9.9-.9-1.49-.9Z"/>
    <path d="M245.94,355.67c1.92-.1,6.31-.74,7.71.37,1.65,1.31,1.05,4.6-1.28,4.86-17.43.48-34.68,2.84-52.01,4.05-56.75,3.96-113.99,8.47-171.03,12.83-1.18.09-9.02.63-9.5.47-.9-.29-1.57-1.01-1.67-1.97-.01-3.28,8.09-1.9,10.56-2.12,54.17-4.65,108.03-9.07,162.16-13.25,18.13-1.4,37.12-4.29,55.04-5.24Z"/>
  </g>
</svg>