<?xml version="1.0" encoding="UTF-8"?>
<svg id="Lag_2" data-name="Lag 2" xmlns="http://www.w3.org/2000/svg" viewBox="0 0 44.79 48.85">
  <g id="Lag_1-2" data-name="Lag 1">
    <path d="M37.83,12.63c5.14,4.4,9.03,16.32,5.73,22.5-.5.93-1.44.98-1.74,1.64-.28.61-.07,1.65-.53,2.45-.17.29-3.98,2.96-4.53,3.2-.98.43-4.96.97-5.17,1.12-.96.72-1.78,3.28-3.89,3.95-2.41.77-3.35-.76-4.1-.7-1.03.07-1.92,3.19-6.09,1.6-3.65-1.4-10.58-10.79-12.88-14.26-1.65-2.49-5.7-7.91-4.37-10.81,1.21-2.64,8.19-5.94,10.9-7.05l-1.43-5.72,2.83-3.42c2.9-1.25,3.33,3.69,5.17,4.16,1.37.35,3.97-1.55,5.34-2.09l-1.9-.55,1.08-1.62-1.53-.07c-.03-1.07-.74-2.53-.66-3.47.04-.55,3.11-3.32,3.65-3.46,2.18-.58,5.07,7.22,6.72,8.86s5.46,2.08,7.4,3.74ZM35.82,14.08c.39-.52-.53-1.51-1.06-1.88l-2.19.26c2.11,3.13,1.99,7.13,6.51,7.59.43-2.3-2.98-3.5-2.16-5.42h-2.18c-.23-.97.94-.37,1.08-.55ZM25.51,16.8l-1.09-4.34c-1.1.75-4.99.7-4.83,2.36.07.66,6.61,11.75,7,11.21l.27-1.63c2.14,1.56-.2,5.26,2.99,5.42.51-2.97-1.76-4.45-1.75-7.47l-2.59-.13c-.32-1.4.39-.81,1.12-1.43l-.58-3.46-2.16,1.08-.54-2.71,2.16,1.08ZM13.55,19.51c-1.43-1.18-4.32,4.39-4.09,4.89l11.15,10.3c.45-2.16-1.54-2.91-2.56-4.76-1.73-3.14-3.4-7.01-4.5-10.44ZM8.13,20.6c-.55-.55-2.18,1.06-1.62,1.62s2.18-1.06,1.62-1.62ZM34.75,28.2c1.08-.29,1.22-1.16,1.08-2.17-1.08.29-1.22,1.16-1.08,2.17ZM40.17,34.72l-3.26-.55v3.8c1.25.51,3.44-3.1,3.26-3.25ZM36.92,40.68c1.17.61,3.88-1.99,3.25-2.71l-3.25,2.71ZM17.17,40.36c-.83-.57-3.07-1.33-4.15-1.84-.46.39,7.18,8.73,9.23,7.05-1.36-1.29-3.7-4.25-5.08-5.21Z"/>
  </g>
</svg>