<?xml version="1.0" encoding="UTF-8"?>
<svg id="Lag_2" data-name="Lag 2" xmlns="http://www.w3.org/2000/svg" viewBox="0 0 33.88 32.61">
  <g id="Lag_1-2" data-name="Lag 1">
    <path d="M21.02,30.49c-.09-.09-1.55-.18-2.39-.82-2.92-2.25-7.94-8.02-10.64-10.95C3.63,14,.96,11.31.07,4.36-.09,3.09-.08,2.36,1.44,2.03c1.19-.26,7.7,1.77,9.08,2.44,2.75,1.34,4.72,4.03,7.23,5.69l.59-.2C20.04,6.94,26.87.17,30.28,0c4.86-.23,3.69,5.73,2.79,8.66-.5,1.62-1.69,3.29-2.25,4.78-2.27,6.05-4.72,12.05-6.31,18.32-.02.31-2.17.87-2.29.85-1.51-.28-.96-1.86-1.2-2.12ZM22.2,27.27c1.67-6.47,5.1-12.43,7.37-18.6.26-.71,2.53-6.5-.1-4.79-2.08,1.35-7.77,6.24-8.23,8.58-.16.83.43,1.43.03,2.34-.86,1.97-3.93.48-5.62.34.19-2.35-1.76-4-3.39-5.39-1.03-.88-6.66-4.8-7.6-3.51.83,6.24,6.14,11.28,10.53,15.42,1.88,1.77,4.51,3.45,5.93,5.58l1.07.03ZM23.02,30.45h-.77s-.39,1.56-.39,1.56c.98.1,1.32-.62,1.17-1.56Z"/>
  </g>
</svg>