<?xml version="1.0" encoding="UTF-8"?>
<svg id="Lag_2" data-name="Lag 2" xmlns="http://www.w3.org/2000/svg" viewBox="0 0 50.14 47.1">
  <g id="Lag_1-2" data-name="Lag 1">
    <path d="M2.12,13.72c-.03-.1-.53-.18-.69-.68C.68,10.61-.79,3.97.53,1.86s7.28-.71,8.8.96l13.48,16.24c1.27.22,2.67-3.19,3.54-4.28,1.83-2.31,4.36-4.74,6.61-6.67,2.79-2.41,6.02-4.57,9.04-6.58.63-.42,3.16-1.62,3.79-1.52.45.07,3.95,2.47,4.1,2.89,2.11,6.13-9.15,22.31-11.74,28.36-1.94,4.54-2.98,8.09-5.57,12.4-.54.9-1,3.22-2.02,3.42-1.75.34-5-4.1-6.38-5.21-.83-.67-2.31-1-2.96-1.73-.7-.78-.64-1.89-1.35-2.95-1.86-2.77-7.22-6.32-9.77-9.37-3.61-4.31-6.12-8.93-7.97-14.11ZM28.45,42.08c2.93-4.34,4.55-9.33,6.97-13.93,2.99-5.67,7.11-11.52,9.51-17.44.44-1.09,3.39-8.55.57-8.04-6.92,5.09-15.61,10.43-18.27,19.05-4.19-.39-1.6,3.22-3.7,5.11-3.1-.88-1.76-2.91-2.21-5.18-.36-1.8-10.38-14.53-12.21-16.31C2.96-.64,3.36,8.52,4.51,12.72c3.23,11.85,13.95,18.7,21.4,27.42.21.24,2.28,2.14,2.54,1.95ZM40.18,22.17l-1.56,2.34c1.63.4,1.52-1.18,1.56-2.34ZM37.05,27.64h-.77s-.39,1.56-.39,1.56c.98.1,1.32-.62,1.17-1.56Z"/>
  </g>
</svg>