<?xml version="1.0" encoding="UTF-8"?>
<svg id="Lag_2" data-name="Lag 2" xmlns="http://www.w3.org/2000/svg" viewBox="0 0 727.86 19.02">
  <defs>
    <style>
      .cls-1 {
        fill: #fff;
      }
    </style>
  </defs>
  <g id="Lag_1-2" data-name="Lag 1">
    <path d="M98.18,10.57c-.09.55.02,1.19-.57,1.53l-2.15.29.3,1.2h-1.51c-1.23-.51-1.75-5.31-3.03-4.83-1.72.64-1.2,4.73-4.56,3.63v-2.99s2.42-1.54,2.42-1.54l-5.45-2.12.97,1.78-.63,1.27-3.98-.03c-.64,2.04,3.24,1.39,3.63,1.82l-1.86,4.2-4.81-1.18c-.73-1.52,1.17-1.01,1.26-1.58.39-2.68-2.42-4.69,3.59-4.17-1.34-1.99-3.33-1.56-5.45-1.52,2.1-4.22.13-2.35-3.03-2.42l2.42,3.02-2.41,1.52c1.71,1.03,2.52,1.96,3.02,3.93l-9.09-.6,1.82-.6-.74-3.84-3.21-2.2c-2.05,1.43.39,1.99.3,3.62h-4.24s.6,1.82.6,1.82c-3.55.99-2.61-2.56-3.96-4.22-1.47-1.8-2.97-.01-2.46,1.83l2.54,1.15-.36,1.85c.25.23,2.41-.59,1.82.9-.79,1.99-3.47-1.83-4.84-.89,1,5.4-.04,2.2-2.99,1.47-1.79-.44-3.74-.13-5.48-.9l-.03-1.78c3.6-1.25,4.31.74,7.27,1.81.07-1.62.41-2.26-1.22-2.72l1.22-1.51-3.68-.26-.57-2.77c-3.12.9-4.01,0-6.66-1.2.11,2.32,3.53,2.61.04,3.69l.57,1.76h-3.03s1.2,1.82,1.2,1.82c-1.19.17-2.77-.88-3.83-.65-.67.15-.61,1.61-1.28,1.74-2.23.42-2.91-3.95-5.8-2.89l1.81,1.22c-.02,3.46-3.31-2.2-5.13-1.83l-.92,2.42c1.06-.03,2.67.22,2.42,1.82-2.7.46-4.14-.86-6.05-2.41-.13,2.24-4.53,1.49-6.34,1.85-1.04.2-1.64,1.18-2.45,1.2-.34.01-.19-1.01-.75-1.2-.39-.14-3.69-.69-4.02-.66-.28.02-1.18,2.68-4.16,2.35-3.97-.45-3.46-4.31-4.72-7.16,2.1.44,2.22-1.66,3.46-2.31,4.31-2.24,11.7-.71,16.23.48l-.9-1.82c2.43-.37,4.9-.43,7.36-.28.7.04,1.48.74,2.14.75.97.01,1.63-1.27,3.47-1.09,1.59.15,2.75,1.59,4.3,1.86l.33-1.23c1.66,1.74,1.86.34,2.68.3,3.3-.17,6.97-1.53,10.93-1.57.83,0,3.36.38,4.06.69,1.49.67,2.82,5.25,4.74,1.79l-1.83-1.21c1.61.17,2.17.23,2.82-1.23l8.28.62c.78.11.3,1.05.41,1.22-.39.05-.81-.03-1.21,0v.9s2.42.91,2.42.91c.15-.1-.95-1.44-1.21-1.81,2.37-.27-.39-1.11,2.11-1.84,4.93,1.4,9.88-.19,14.87.63l-.62,1.2c2.54-.44,6.14-1.07,8.2.6l.29-1.81c4.59-.71,4.47,1.35,5.77,4.85,1.79-.59,4.08-2.19,3.32-4.25,1.78,1.06,3.61-.22,5.04-.03.4.05.55,1.09,1.16,1.45,1.47.84,2.52.56,3.59,1.16,1.12.63,1.29,1.72,2.56,2.32,3.18,1.5,2-.49,4-.66l1.52,3.65c1.25.3,2.11-.19,1.49-1.51-.32-.69-5.4-4.37-6.04-5.77,3.91,1.06,7.72-.16,10.72,2.94,1.26.19,2.01-2.34,3.51-2.34.94,0,1.72.99,2.44.98.93-.02,2.9-2.15,4.32.85l2.05-.63-.61-1.81,7.76,2.09-1.7,3.36c-.21-.19.73-2.65-1.52-1.81-1.87.69,1.3,3.02.29,4.23l-1.52-.6-.29,1.2,3.03.61-.32-1.82c2.24-1.76,3.47.84,3.46,2.96l1.71,1.28c-1.61.3-3.53.07-5.05.22-.78.08-1.43.82-2.07.92-2.5.37-4.51-2.33-4.79-2.39-1.32-.3-2.21.93-3.29.97-2.17.08-5.43-1.41-7.52-2.13l.3,1.82c-3.56.12-6.13-1.75-9.08,1.22l-.92-2.42-1.51,1.21.6-3.02-3.63,1.21c-.48,2.01,2.65,1.2,3.03,3.02-2.08-.63-4.18-.89-6.32-1.26-.78-.14-1.53-.93-1.87-.92-.48,0-1.24,1.14-2.96,1-1.58-.14-3.45-2.65-5.83-3.64.09-.56-.04-1.23,0-1.82h-2.42s0,1.2,0,1.2c.76.22,1.72.32,2.42.61ZM26.06,7.58c-3.35-.77-4.18,3.05-1.21,1.51.41-.21,1.12-1,1.21-1.51ZM30.31,5.75c-1.15.98,3.1,2.58,3.63,2.42.43-1.72-3.11-2.86-3.63-2.42ZM136.37,8.14c-.5.57,1.61,4.13,3.03,3.63-.97-1.43-1.07-3.26-3.03-3.63Z"/>
    <path d="M146.67,5.11c.24-.32,3.44-.54,4.09-.21.84.42.94,3.18,3.44,2.56,1.37-.34.16-2.91,2.16-2.35l-.59,3.95,1.5.3c.16-2.45,1.2-1.46,1.91-2.01,1.58-1.24.76-2.51,4.18-.47l1.78-2.37c1.2,1.56,3.41.55,5.16,1.63,2.36,1.45,2.39,4.09,6.05,1.38-.22,4,4.04,2.35,3.04,0l2.63.66c1.8-3.35,2.03-2.58,4.96-2.81.45-.03.9-.69,1.19-.67.95.07,1.41,2.17,1.64-.04l.73-.23c3.12.68,7.78-1.56,9.14,1.86l3-1.84,47,.63-1.18,1.56,1.47,1.47.31-1.83,2.42,1.21-2.42-2.42c2.42.1,5.28-.25,7.26,1.2.25-2.97,6.32-1.83,8.82-1.61.91.08,1.63.99,2.28.88.75-.13,1.6-1.53,2.85-1.09l-.6,4.24c1.71-.86,2.73-2.79,4.84-1.82l-.51-1.44c.38-1.72,8.12-.91,9.92-.76.94.07,1.67.97,2.39.96.97-.01,1.69-.9,2.53-.96,3.14-.25,6.39-.17,9.56-.25.21,3.14,2.5,3.31,4.25,5.46l.33,6.09-2.42-1.81v3.03c-1.92-.47-3.97-.17-5.71-1.28-1.23-.78-3.59-4.84-2.17.68l-2.42-.61v1.83c-1.9-.32-.38-2.43-.85-3.05-.69-.9-3.92-1.05-3.39-4.83l1.19.62.92-2.42,3.03,4.83c2.38-2.58,4.09-2.66,3.33-7.27-1.94-.41-1.79.59-2.73,1.82l-.67-1.22c-2.01-.58-1.86.78-2.55,1.16-2.05,1.12-4.23,2.07-6.16,3.41l3.03,1.53v3.61c-.11.13-2.41-1.48-2.68-1.86-1.18-1.65-.17-4.82-2.82-3.3-.18.1-.71,3.05-2.07,3.33-.7-2.2-1.86-1.3-1.97-1.4-1.77-1.56-1.33-3.64-5-4.04l.61,3.64c2.94-1.13,4.32.46,4.75,3.34-.61,1.59-2.28.18-2.98.59-.16.09-1.59,3.28-3,1.09s-2.21-7.56-6.27-6.9c-.7.11-.65,2.4-2.2,1.87l-.62-2.42h-1.2s.51,1.71.51,1.71l-1.12.4,1.21,3.34c-1.36-1.74-4.2-1.28-3.65-3.34.1-.37,1.84.04,1.22-1.51l-1.7.5-.41-1.11-4.53,3.06c-.49,2.28,2.83.87,2.4,2.99l-4.24,1.21c.28-.81,1.05-1.15,1.22-2.13.56-3.33-2.66-3.47-1.21,0l-1.21.3c-.13-2.29-5.11-3.2-6.38-1.87-1.16-.25-1.15-3.57-2.42-2.96-2.06.99-2.13,4.72-1.52,6.66-2.43.64-.47-3.41-1.52-3.63-1.25-.36-.73.79-1.1,1.03-1.05.68-1.55-.65-1.56,1.72-2.67.74-4.3,1.16-6.73-.33l1.2-1.8c-1.87.44-.85-2.69-2.13-3.04l-3.32,1.21c.5-4.66-.3-6.69-5.15-6.67l.39,2.34,2.33.1-1.2,1.51,1.8.92-1.81,3.62,1.81-1.22.03,1.78,2.4.04v1.81c-.93.9-5.63-2.58-6.67-3.33l1.8-1.81-3.01-1.22,1.2-.29v-2.43c-1.4-.31-2.2.98-3.38,1.2-3.25.62-6.46-1.66-10.19,1.89-1.41,1.34-1.11,3.66-4.07,3.28-2.49-1.88-4.04-4.47-2.97-7.58-1.59-.79-1.97,1.23-2.11,1.22-1.34-.13-1.26-2.07-2.43-1.83-1.73.37,2.4,4.29,3.32,4.25l-.36,1.24-4.47.57c-.87.91,1.64,3.59,3.03,3.03-.56,1.69-2.72,1.18-4.24,1.2l.54-2.34-2.67-1.89-1.52,3.62c-1.45.63-1.75-1.98-2.11-1.81l-2.12,2.42c.76-2.72-1.48-2.84-3.64-3.63.66,2.64,1.85,2.72,3.64,4.23l-3.63-.6-.29,1.81c-1.72-1.2-4.52-.18-3.96-3.02-.97-.15-2.03,1.82-2.21,1.84-.48.05-4.05-.69-4.45-.93-1.23-.73-.58-2.02-.75-2.43-.25-.59-1.71-.18-.47-3.31l-3.63-.62,1.81,2.41c-2.08-.09-.19,2.56-3.02,1.83l.6-4.84c-3.35-.5-1.68,2.04-2.36,3.2-.85,1.44-4.63,1.25-3.09,4.07-2.99-.5-5.54.39-7.27-2.72l1.81-.6c-2.27-1.66-3.3.77-4.24-3.04l2.41.31,1.22-3.03c-1.2.84-5.45-.17-4.24-1.82ZM167.28,9.34c-.16,1.13,0,2.1,1.2,2.42l.61-2.42h-1.81ZM173.33,13.58c.15-1.11.03-1.77-.9-2.41l-.9.9,1.8,1.51ZM176.36,11.76c-1.13-.15-2.09,0-2.42,1.2,2.01-.35,1.91,3.12,3.93,2.43,1.77-.61-.1-2.66-1.46-1.87l-.05-1.76ZM183.64,9.34v1.2s1.81.61,1.81.61c.2-1.11-.66-2.01-1.81-1.81ZM233.94,8.1l1.8.3c-1.14.47-3.51,2.81-2.41,3.94,1.74,1.79,2.95-5.06,5.45-3.63l-1.81,2.43c2.65,3.14,1.43-2.06,4.24-1.23-1.61-2.15-6.05-6.21-7.27-1.81Z"/>
    <path d="M446.65,11.67l-.6,3.63c3.36.03,1-3.43,3.02-3.03v-.59c-2.16.29-.68-2.77-1.82-4.24,1.63-.15,2.82-1.11,3.95.59l.29-1.2c1.8,1.08,2.66-.38,3.83-.43,3.15-.13,6.35.73,9.31,1.41.62.14,1.3-.4,1.64-.36.52.06.93,2.08,2.2,1.81l-1.21,1.8h1.81c-.16-1.28.22-3.19,1.61-3.56,2.28-.61,1.73,2.06,2.61,2.68,2.36,1.68,2.26-2.08,4.27-.33.24-1.62-2.14-1.79-.3-3.02,1.43,2.41,3.25-1.81,4.55,1.19h-2.42c.63,5.05,5.96-4.63,6.06,1.22,1.59.65,2.53-1.51,3.3-1.6s4.67.7,5.57.79c.78.08,1.32-.35,2.03-.4-.65,2.14.3,6.85,2.85,7.16.85.1,1.36-1.09,2.21-1.02,2.3.2,1.04.36,3.75.12.99-.09,2.53,2.35,2.84-.1,2.38.85,1.31-.19,2.13-.73,1.78-1.16,3.42-2.58,5.62-3.04-.17-1.31-2.71-2.51-.9-3.62,1.29.78,2.62,1.56,4.07,2.03,1.76.57,1.84-.94,3.49,1.6.09-1.44-1.38-2.97.6-3.63-.16,2.58,2.4,3.23,4.32,4.03l-.06,3.24,1.21-.3-.3,3.31c-2.67,3.22-3.99-.01-4.26,0-1.23.02-3.24,2.41-6.05,1.87l-.61-1.84-2.12,1.81-1.2-3.35-2.44.93-1.22-1.82c-.56,2.37,1.28,2.18,3.03,2.43l-.65,1.79-12.97.04-.32-2.44c-2.13-.61-1.24,1.16-2.71,1.21-1.34-.92-.87-1.77-.31-3.02l-3.02,1.21-.62-2.42c-1.69.3-.39,2.23-1.18,2.74-2.06,1.32-3.26-2.16-4.26-1.52,0,1.81-2.52,2.15-3.96,2.2-1.33-.66-1.56-3.81-3.92-4.03l1.21,3.02c-.5.37-6.58-2.99-6.68.31,2.29.35,1.05,2.1-.3,2.13-.43,0-.3-1.73-1.82-1.88l-2.71,1.26c-.76-2.45-3.04-.89-2.44-4.84-.94-.23-.34.85-1.03,1.19-.62.3-4.13,1.62-4.71,1.73-2.08.38-3.88-1.76-5.76-.5l-.31-2.42-2.12,1.51,3.63,3.33-3.63-1.21-.11,1.67c-.19.22-2.74.84-3.16.78-.38-.05-.39-1.01-.5-1.04-.71-.2-2.87.38-3.49-1.28s-.91-4.42,1.18-4.98ZM450.91,11.06l-.61,3.63,3.01-2.73c-.4-.77-1.83-1.29-2.41-.91ZM458.78,12.88v1.81s1.82-.61,1.82-.61l-.92-1.2h-.9ZM463.63,8.64c-.35.35.51,1.8.91,1.8,1.68,0,0-2.72-.91-1.8ZM472.71,11.66c.35-.35-.51-1.8-.91-1.8-1.68,0,0,2.72.91,1.8ZM476.96,14.08c.15-1.53-.97-2.05-2.42-1.81l1.52,1.81h.9ZM515.14,11.65l.29,3.04c1.3,1.92,3.57-.78,3.34-2.43l-2.16.56-1.47-1.17ZM516.96,9.22c-.35.35.51,1.8.91,1.8,1.68,0,0-2.72-.91-1.8Z"/>
    <path d="M626.65,5.55c1.87-.26,2.03-.04,1.82,1.82l2.66-.65,1.21,1.27,2.19-.63-.93-1.2.66-1.16c2.73-.15,3.63.83,5.71,1.76l1.23-4.23,1.51,3.03c.57-1.96,2.65-4.62,3.64-1.82l.88-.04c-.71-1.39,4.21-1.33,5.17-1.24,1.69.16,6.9,1.75,8.48,1.67.72-.04,2.94-2.86,3.94-.41l-1.81,1.83,3.02-1.21-1.2,2.41,4.52-1.21c1.08.7.84,1.36.39,2.37l1.74.66.61-3.31c-.71-1.19-1.37-.51-2.42-.32V1.9c2.35.35,5.32-.1,7.53.03,3.35.2,2.36.36,6.15.01,3.51-.32,5.94.21,9.03,1.8l.4-1.13,2.63,1.12c.58-1.46,2.37-1.86,3.82-2.26,2.07-.57,10.72-1.69,12.46-1.43.48.07.15,1.33,1.27,1.3,1.27-.03,2.16-.91,3.16-1.05,4.24-.58,7.59.41,11.72.99l-.07,2.05c-.52,1.62-3.21.34-4.45.39-1.72.08-3.41.94-5.19.58l-.29-1.2c-1.57,2.65-3.11,1.28-4.88,1.55-1.99.3-5.57,1.37-7.29,1.41-.37,0,.31-1.22-1.67-1.11-2.97.15-2.76,1.81-3.8,2.25-1.14.48-5.16-1.27-6.6,1.35l-.31-2.41-2.76,2.46c-2.43-1.47-5.01-2.84-8.14-3.06l-.31,2.42-3.3-1.81-.13,1.08c-3.22-1.13-2.52,1.58-4.7,2.3-1.72.57-2.57-.25-3.88-.18-.43.02-.96.83-1.42.91-1.26.22-6.49-3.96-7.7-2.9-.92-2.55-2.3-.22-4,.61v-1.83s-5.15-.6-5.15-.6l.9,4.85c-1.54-2.11-2.67.19-3.02,0l-1.22-1.22-.6,1.82c-.74-1.75-.52-2.2.6-3.63-1.6.08-1.96,1.52-3.91,1.23-1.5-.22-2.06-2.32-3.97-1.84l.61,2.41c-2.59,1.13-3.72.43-6.06-.6l-.61,2.42c1.37.93,1.29-2.52,2.42-1.21.33.38,0,2.12-.96,2.32-.21.05-3.92-.19-4.35-.29-1.1-.25-4-2.38-4.38-2.03-.87.8,2.68,2.24,1.81,3.63l-3.02-1.82-.05,1.75c-.4.29-9.15,1.18-7.22-1.13,1.27.61,3.44.6,3.03-1.21-.23-.22-2.42.56-1.81-.9.73-1.76,2.2.31,3.27.32l.96-1.54-2.42.31c-.65-3.54,3.25-3.38,4.54-6.06.08.75.25,1.68.3,2.42-1.68.24-2.02.7-1.81,2.42h.9c1.9-1.25.98-1.44.92-2.42ZM626.65,9.19l-2.42.61v.59s2.42,0,2.42,0v-1.21ZM706.04,1.89v2.42s.6,0,.6,0l.61-2.42h-1.21Z"/>
    <path d="M377.57,6.24l2.99.06.04,1.76,2.7-1.81c4.94,6.44,6.12-.49,6.73-.66,1.86-.53,3.02,1.11,4.22,1.24,2.07.23,8.64-3.55,5.13,1.82,1.23.77,2.2-.31,2.73-.32.85,0,2,1.83,3.03-.89l1.02,2.91,6.81,1.36.97-1.85c-.89-.27-2.06.69-2.69.54-1.04-.24-.37-2.05-1.85-1.77-.26.05-1.05,3.62-2.72-1.8,1.53.9,2.52,1.62,4.23.6-.2,2.93,1.24,2.48,1.53,0,2.13,1.28,2.68-1.48,4.53.61l.04-1.77c3.19-.76,5.46,1,8.48,1.45l-.02,2.74,2.07-.66c.65.85-.02,1.61,1.56,1.27l.26-4.25,2.39-.62,1.29,1.84c2.31-2.34,3.9.92,6.97-.59l-.6,2.42,2.17-1.83,3.28.63c.55,2.04-1.6.71-1.82,1.52-.4,1.39,1.74.91,1.82,2.11-2.96-1.36-1.24.4-1.93,1.07-.48.46-1.83.1-2.3,1.06l1.76.98-.67,1.65-3.88.66c-1.77.1-.45-.83.22-1.02s2.53.2,1.95-1.05c-.69-1.47-2.35-.2-2.42-.3v-1.83s-2.13,1.21-2.13,1.21l-.65-1.24-2.68,1.24,1.82.31c-.64.66-1.1,1.39-2.11,1.53-1.88.27-.42-3.72-2.73-3.05l-.86,4.25-6.01,1.23-1.02-1.83c2.63.17,3.44-1.99,4.87-3.27.23-.21,1.53.61,1.76-1.52-1.67-.75-2.32-1.55-4.2-.67l1.11,2.94-1.51,1.27-1.35-.49-2.5,2.34c-.7-2.82,1.85-4.77-1.82-6.66l.6,4.84-.61-1.81c-1.04-.47-2.03,1.47-2.41,1.21-.21-.15-.24-2.35-1.83-1.81l-.31,3.02c-.5-1.58-1.12-1.29-2.72-1.21l1.21,3.02c-2.57,1.05-6.79-2.4-8.7-1.77-.47.15-.36,1.16-.74,1.18-.55.03-1.45-.62-2.35-.55s-2.99.7-3.54.57c-.85-.19-.71-2.38-2.24-1.83l-.31,1.2-2.43-2.41-.3,3.01-2.16-.56-.27,1.16-.9.02-.6-1.23h-1.22c-.86,2.5-3.5,1.27-1.96-1.36.68-1.16,2.29-1.73,2.87-2.85h-3.63s.6-1.82.6-1.82h-1.81c-.43.41,1.1,3.94-1.51,3.02-2.05-.73,1.6-3.1,1.51-4.23l-2.73,1.8c-2.27-2,0-1.48.91-3.01-1.19-.15-2.6-1.01-2.42-2.43ZM394.53,9.26l-3.63,1.22.62,3.63.6-1.82c1.58-.54,1.02.92,1.5,1.1.79.29,3.44-.44,3.95-1.4l-3.02-.29v-2.43ZM397.56,7.44l-1.81,1.52v.9s1.81,0,1.81,0v-2.42ZM398.78,10.48v1.2s.87-.03.87-.03l2.16-1.78-3.03.61ZM402.39,11.71c-2.87-.19-3.45,1.81-2.39,4.21l1.87-1.77,1.76.55-1.24-3ZM406.06,14.11c-.19,1.89,2.32,2.18,3.63,2.42.36-1.97-2.69-.97-3.63-2.42ZM420.6,10.47l2.08,1.84,1.55-3.06-1.81-.61v2.42s-1.82-.6-1.82-.6Z"/>
    <path d="M529.07,9.82h1.82s0-2.43,0-2.43l9.09.61-.46,1.52,1.36.89,3.91-2.98c1.87,4.06,2.62.28,3.45.02,1.51-.47,3.69,1,4.79,1.11,1.24.13,2.52-1.02,3.92.04v-1.82s7.3.95,7.3.95l-1.27,4.47-2.99.34,2.41,2.73.35-1.25,1.47.64-.6-2.42h1.81s-.34,2.39-.34,2.39l1.56,1.23c-.69-2.09-.93-2.99,1.21-3.94l-1.21-.6c2.62-1.85,1.12-2.1.61-4.54l1.21,1.81c1.54.31.96-.32,1.52-1.25l2.71,1.24,1.83-2.43.31,1.83,3.03-1.23,2.42,1.83.3-1.2,2.42,1.2-.6-2.41c3.64-.53,6.2,3.74,8.25-.65l2.05.64-.62,1.5,1.21.31,1.21-2.42-.9,4.24c1.35-.46,3.11-3.78,3.94-3.02l-.61,1.81,6.06.6-.6-2.42,1.19.6.63-2.42.6,1.2h1.2s.88-1.7.88-1.7c2.6.34,2.3,1.4,3.07,3.52l.31-3.02c2.99,1.05,3.03.62,5.15-1.2l.3,2.41,4.84.61c0-1.13.23-2.65,1.83-2.42l-2.73,4.24-.91-1.21c-.7-.53-2.84,3.78.61,1.82l-1.51,2.42c-.93-1.55-1.91-1-.91-3.02l-4.4-.03c-1.74,2.6-3.99,3.78-7.11,4.26.89-1.48,2.42-1.82.91-3.63-2.27.56-2.47,5.84-2.73,6.06-.23.19-2.76-.92-3.62.6l-2.79-4.2.96-1.85c-2.59-.34-1.45,3.05-1.87,3.57l-4.79.05,1.21-1.81c-3.02,1.19-6.55,1.9-7.58-1.81-1.53.09-1.43,6.07-2.42,7.27l-.37-1.12-1.14.51.54-4.78-2.35-1.27c.03,1.57-2.56,2.68-3.88,2.45-.18-.03-1.48-3.2-2.49-.05l.94,2.1-3.97,3.38c-1.64-1.15-2.65-.84-4.55-.61,1.39-2.36-3.45-3.15-3.64-.6h-.59c.42-1.98-1-2.41-2.76-2.45-2.33-.06-2.3,1.64-3.6-1.16-1.99,1.95-5.07,3.51-3.33-.61l1.21,1.21,1.19-.91-.96-1.54-2.97,1.84-.6-1.21c-2.73,1.7-.59,3.54-3.65,4.84-1.91.12.64-1.15-1.46-1.46.49-1.16,1.3-2.52-.65-2.16l-2.11,4.08-1.53-.45v-1.81s1.82,0,1.82,0c-.26-1.9-.49-3.45-2.71-3.63-1.68,1.25-.89,2.57.89,1.82v.9c-1.72.77-1.62,4.49-3.93,3.94l-.31-2.41c-1.51.57-2.38.38-3.03-1.21,2.25.63,2.82.28,4.23-1.52-1.05-1.54-1.15-.34-1.98-.17-1.14.24-4.65,2.22-5.28,1.68-1.12-.95,2.42-1.93,1.81-2.41-3.1.26-2.32-1.5-4.25-2.78-.45-2.89,3.5-2.58,1.82.35ZM545.44,11.04c-1.13-.16-2.1,0-2.42,1.2,1.13.16,2.1,0,2.42-1.2ZM568.48,13.45v1.21s2.42,0,2.42,0v-.59s-2.42-.61-2.42-.61ZM589.68,9.2v2.42s1.21,0,1.21,0v-2.42s-1.21,0-1.21,0ZM603.62,11.01l-3.03.61,2.13,2.41.9-3.02Z"/>
    <path d="M306.67,7.48l1.21-.45.3-1.38,2.5,1.79c.97.2,1.42-1.36,2.33-1.53,2.38-.45,10.04.64,10.63,3.37l.59-1.4,1.22-.42.1,1.72,1.73.1-1.21,3.02,3.02-.3-2.12,2.04-1.51-1.13,1.2,4.85-2.12-1.73-1.5,1.13-.91-1.78c-2.09,1.08-3.87,2.24-6.38,1.78.91-1.8-1.09-2.86-1.51-.6l-2.12-1.21c-.48,3.65-1.8,3.01-2.73,0-1.1,2.74-1.73,1.05-3.94,1.82l-.61-5.45,1.81,1.81,1.22-3.91c-.79-1.81-3.15-.22-3.65-.59l-.59-2.77-1.44.59-.97-1.5c0-1.38,6.58-.68,5.45,2.12ZM308.6,10.01c-.42.88.74,1.41.94,2.1.28.98-1.53,2.38.76,2.03v-6.06c-1.02-.17-.42.87-.81,1.62-.13.24-.84.21-.88.3ZM315.74,6.87l-2.33,2.83,1.43,2.01c-.79-2.83,1.36-2.1.9-4.84ZM316.39,10.54c-.45,1.96.38,1.89,2.02,2.42,1.1-1.16,1.52-2.17.97-3.67l-2.99,1.25Z"/>
    <path d="M356.53,6.68c1,.68,4.94.68,6.63,1.39,1.02.43,2.75,3.37,4.7,2.41l1.22,2.42c1.13-3.78-5.34-5.23-1.51-7.86l.31,3.01,1.52.02.42-1.05,1.08.43-.6-2.42,5.99.66.13,8.64.93.95,3.86-.56-1.52,3.63h-.89c.27-1.83-2.7-2.05-3.81-1.67-1.18.4-1.45,1.9-2.87,1.69l-.3-1.82-3.94,1.81.53-2.76c-.88.11-1.75-3.98-2.95-2.68-1,1.07,1.15,1.83,1.25,2.69.4,3.43-3.47-.16-3.56-.39-.29-.73,1.06-1.82.2-2.29-1.94,1.21-.94,2.38-.92,4.24-1.89-1.14-2.17.38-3.62,1.21l-.56-2.34,1.75-.99c-.16-1.21-4.01-4.34-4.09-4.64-.23-.88,1.03-3.11-1.35-4.45,1.41-1.9,1.25.23,1.98.74ZM362.41,11.09c-.19-.22-3.05,2.27-2.41,3.03.82.98,2.77-2.61,2.41-3.03Z"/>
    <path d="M349.69,13.52c-2.02.49-3.41.21-5.4.06-.58,2.88-.91,3.48-3.68,3.59l-.3-1.82c-2.27,1.86-3.83,2.99-6.97,2.42l-.3-1.81-1.22,1.81-2.73-4.55,1.51.91c1.46-.74,1.04-3.87,0-4.86-1.23-1.17-2.84.34-2.11-3.62l1.81,1.81.3-2.42,3.04,3.63.3-1.82,3.34,1.81,1.8-1.8c.79.66,1.06,1.74,1.82,2.43,2.17,1.95,4.13.7,2.73-.32-.69-.51-3.87-.05-3.03-2.71l2.41.61.57-2.16,3.67.34c-.03,3.21-2.8.16-4.23,2.12,2.17,1.1,5.85,1.19,4.85-2.12,2.01.77,2.56,1.37,4.84.6.25,1.32-1.29,1.87-1.51,2.95-.56,2.69-.48,2.2-1.51,4.92.97-.23,2.3-1.29,2.41-1.21.14.1.98,3.17,2.44,1.81.59-.55-1.59-2.78.3-2.41l1.53,6.05-9.1-1.21,1.82-.6c.16-.79.32-1.68.61-2.43ZM339.39,11.1v1.21s1.81,0,1.81,0v-1.21s-1.81,0-1.81,0Z"/>
    <path d="M611.11,12.38c.09-.17,1.58-.53,1-1.98h1.2s.08,1.09.08,1.09c3.8-1.75,6.71,4.66,1.74,2.54l.6-2.42c-1.91.58-2.09,1-1.81,3.03h-1.2s-.11-1.13-.11-1.13l-1.71.53c-.04-.6-.1-1.08.21-1.65Z"/>
    <polygon points="641.18 9.78 642.11 11.6 643.61 11.29 639.99 12.21 641.18 9.78"/>
    <path d="M653.93,7.97c1.07.4,3.5.05,3.03,1.81l-2.43.34-.6-2.15Z"/>
    <path d="M630.89,3.13l3.02.3-2.12,2.11c-.94-.64-1.05-1.3-.91-2.41Z"/>
    <polygon points="221.81 16.59 221.82 18.41 218.19 17.19 221.81 16.59"/>
    <polygon points="667.85 1.9 668.46 4.32 665.44 3.1 667.85 1.9"/>
    <path d="M193.94,12.97c.49-.41,3.54,1.1,3.02,2.42-.36.35-4.02-1.59-3.02-2.42Z"/>
    <path d="M579.98,15.26l-1.8-2.12.89-.89c1.14.74.97,1.75.9,3.02Z"/>
    <polygon points="404.84 6.24 403.32 7.47 401.81 6.53 404.84 6.24"/>
    <path d="M43.64,8.17h1.81s0,1.81,0,1.81c-1.14.19-2.01-.71-1.81-1.81Z"/>
    <path d="M511.5,6.8v1.21s-2.42,0-2.42,0c.32-1.2,1.29-1.36,2.42-1.2Z"/>
    <polygon points="281.81 12.94 281.2 15.36 280 15.36 280 14.46 281.81 12.94"/>
    <path d="M42.43,9.99l1.2,1.5c-.55.65-.92,1.11-1.81.91l.61-2.42Z"/>
    <polygon points="530.3 15.88 532.71 16.49 532.71 17.08 530.3 17.7 530.3 15.88"/>
    <path d="M503.02,6.8l2.42.9-1.5.91c-.65-.55-1.11-.92-.91-1.81Z"/>
    <polygon points="587.26 14.05 589.07 14.34 587.27 15.86 587.26 14.05"/>
    <rect x="464.24" y="15.91" width="1.81" height="1.21"/>
    <rect x="658.77" y="9.18" width="1.81" height="1.21"/>
    <path d="M352.72,8.07c1.14-.19,2.01.71,1.81,1.81l-1.81-.61v-1.2Z"/>
    <rect x="226.06" y="14.17" width="1.81" height="1.21"/>
    <path class="cls-1" d="M30.31,5.75c.52-.44,4.06.69,3.63,2.42-.53.16-4.78-1.44-3.63-2.42Z"/>
    <path class="cls-1" d="M136.37,8.14c1.96.37,2.06,2.2,3.03,3.63-1.41.5-3.53-3.05-3.03-3.63Z"/>
    <path class="cls-1" d="M26.06,7.58c-.1.51-.81,1.3-1.21,1.51-2.96,1.55-2.14-2.28,1.21-1.51Z"/>
    <path class="cls-1" d="M233.94,8.1c1.22-4.4,5.66-.34,7.27,1.81-2.8-.83-1.59,4.37-4.24,1.23l1.81-2.43c-2.5-1.43-3.7,5.43-5.45,3.63-1.1-1.13,1.27-3.46,2.41-3.94l-1.8-.3Z"/>
    <path class="cls-1" d="M176.36,11.76l.05,1.76c1.37-.79,3.24,1.26,1.46,1.87-2.02.69-1.92-2.78-3.93-2.43.33-1.2,1.29-1.35,2.42-1.2Z"/>
    <path class="cls-1" d="M167.28,9.34h1.81s-.61,2.42-.61,2.42c-1.2-.32-1.36-1.29-1.2-2.42Z"/>
    <path class="cls-1" d="M173.33,13.58l-1.8-1.51.9-.9c.94.64,1.05,1.3.9,2.41Z"/>
    <path class="cls-1" d="M183.64,9.34c1.14-.19,2.01.71,1.81,1.81l-1.81-.61v-1.2Z"/>
    <path class="cls-1" d="M515.14,11.65l1.47,1.17,2.16-.56c.23,1.65-2.04,4.35-3.34,2.43l-.29-3.04Z"/>
    <path class="cls-1" d="M450.91,11.06c.57-.38,2,.14,2.41.91l-3.01,2.73.61-3.63Z"/>
    <path class="cls-1" d="M476.96,14.08h-.9s-1.52-1.81-1.52-1.81c1.45-.24,2.57.28,2.42,1.81Z"/>
    <polygon class="cls-1" points="458.78 12.88 459.68 12.88 460.6 14.08 458.78 14.69 458.78 12.88"/>
    <path class="cls-1" d="M463.63,8.64c.92-.92,2.58,1.8.91,1.8-.4,0-1.25-1.45-.91-1.8Z"/>
    <path class="cls-1" d="M472.71,11.66c-.92.92-2.58-1.8-.91-1.8.4,0,1.25,1.45.91,1.8Z"/>
    <path class="cls-1" d="M516.96,9.22c.92-.92,2.58,1.8.91,1.8-.4,0-1.25-1.45-.91-1.8Z"/>
    <polygon class="cls-1" points="626.65 9.19 626.65 10.39 624.23 10.39 624.23 9.8 626.65 9.19"/>
    <polygon class="cls-1" points="706.04 1.89 707.25 1.89 706.64 4.31 706.05 4.31 706.04 1.89"/>
    <path class="cls-1" d="M394.53,9.26v2.43s3.03.29,3.03.29c-.52.97-3.16,1.7-3.95,1.4-.48-.18.09-1.64-1.5-1.1l-.6,1.82-.62-3.63,3.63-1.22Z"/>
    <path class="cls-1" d="M402.39,11.71l1.24,3-1.76-.55-1.87,1.77c-1.06-2.4-.48-4.4,2.39-4.21Z"/>
    <polygon class="cls-1" points="420.6 10.47 422.41 11.07 422.42 8.65 424.23 9.26 422.68 12.31 420.6 10.47"/>
    <path class="cls-1" d="M406.06,14.11c.94,1.45,3.99.45,3.63,2.42-1.31-.24-3.81-.53-3.63-2.42Z"/>
    <polygon class="cls-1" points="397.56 7.44 397.56 9.87 395.75 9.87 395.75 8.97 397.56 7.44"/>
    <polygon class="cls-1" points="398.78 10.48 401.81 9.87 399.65 11.65 398.78 11.68 398.78 10.48"/>
    <polygon class="cls-1" points="603.62 11.01 602.72 14.04 600.59 11.62 603.62 11.01"/>
    <rect class="cls-1" x="589.68" y="9.2" width="1.21" height="2.42"/>
    <polygon class="cls-1" points="568.48 13.45 570.89 14.06 570.89 14.65 568.47 14.65 568.48 13.45"/>
    <path class="cls-1" d="M545.44,11.04c-.32,1.2-1.29,1.36-2.42,1.2.32-1.2,1.29-1.36,2.42-1.2Z"/>
    <path class="cls-1" d="M316.39,10.54l2.99-1.25c.55,1.5.13,2.51-.97,3.67-1.64-.53-2.47-.45-2.02-2.42Z"/>
    <path class="cls-1" d="M308.6,10.01c.04-.09.76-.06.88-.3.39-.75-.2-1.79.81-1.62v6.06c-2.28.35-.48-1.06-.75-2.03-.2-.69-1.35-1.22-.94-2.1Z"/>
    <path class="cls-1" d="M315.74,6.87c.46,2.74-1.68,2.02-.9,4.84l-1.43-2.01,2.33-2.83Z"/>
    <path class="cls-1" d="M362.41,11.09c.35.42-1.59,4.01-2.41,3.03-.63-.75,2.23-3.25,2.41-3.03Z"/>
    <rect class="cls-1" x="339.39" y="11.1" width="1.81" height="1.21"/>
  </g>
</svg>