<?xml version="1.0" encoding="UTF-8"?>
<svg id="Lag_2" data-name="Lag 2" xmlns="http://www.w3.org/2000/svg" viewBox="0 0 581.54 549.68">
  <defs>
    <style>
      .cls-1 {
        fill: #fff;
      }
    </style>
  </defs>
  <g id="Lag_1-2" data-name="Lag 1">
    <path d="M557.74,1.2c.33.55,0,1.92.45,2.92.79,1.78,3.19,3.32,3.69,4.91.78,2.48-.44,15.6-1.4,18.31-1.18,3.33-4.17,4.72-4.5,7.16-.9,6.75.74,15.46.03,22.43,6.82-.48,2.86,4.65,2.45,8.28-.64,5.75.02,13.61-.02,19.66-.34,50.5-4.53,101.69-6.11,152.18-.34,10.8-.05,20.74-.02,31.88,0,1.3.64,2.48.64,3.65,0,2.25-1.26,3.84-1.84,5.83l1.88.34c.38,3.56-.48,7.54-.46,10.94.13,34.7.8,70.2,1.64,105,.5,20.7.08,40.65,3.16,61.26.46,3.06,2.27,8.04,2.36,10.6.05,1.64-1.28,1.85-1.21,3.29,1.27,1.14,16.28-2.05,19.3-1.88,2.19.13,3.25.98,3.76,3.07.3,2.06-5.77,1.14-7.42,1.27-3.96.32-8,1.14-11.96,1.21l1.22-1.21c-2.14-1.23-3.41.47-4.62.58-5.55.47-10.62-.29-15.86.22-1.66.16-4.27,1.21-6.19,1.05l.91-1.23-7.97,1.22.62-1.22-1.53-.03-.94,1.57.92.91c-3.2.23-.89-4.88-4.89-1.16l-3.08-1.32c-.37,2.92-8.06-.78-8.89.04v1.83c-1.96.28-.6-1.9-3.31-1.24-.16.04-1.55,3.48-1.31,0-3.46,1.44-9.38-2.17-11.02,1.23-1.66-1.47-4.98-2.26-5.23.62l-1.61-1.89c-1.03.12-1.97.63-3.01.68-3.81.18-7.47-1.05-10.97.64l-.68-1.3c-5.18,1.58-10.88.61-15.91.59-4.11-.02-3.82.79-8.62.08-1.49-.22-5.97.07-6.71,1.8l-.99-1.77-3,.55c-.17-2.79,3.4-1.3,4.59-1.35,28.91-1.12,58.59-1.49,87.63-2.37l.68,1.27,1.86-1.21,18.69-.63c-1.82-5.16-2.51-11.88-3.06-17.49-.28-2.83.46-5.74.4-7.35-.03-.87-2.1-2.08-1.62-5.5.4-2.85.11-1.58.08-3.69-.03-3.08,1.55-5.69.46-8.45-.22-.55-1.23-.24-1.17-1.3.15-2.95,1.86-3.55,1.86-3.78-.03-1.17-1.6-1.89-1.63-3.05-.02-.71.69-6.55,1.64-6.16l-2.49-4.29,1.28-.66c-.89-2.24-.51-2.74,1.13-4.32-2.71-2.98-1.1-4.74-1.23-7.32-.09-1.7-.72-4.02-.55-6.07.07-.87,1.04-1.58,1.21-2.52.63-3.49-2.53-3.94-2.46-5.48.02-.4,1.16-.19,1.23-.67.11-.8.05-4.22-1.21-3.32l3.07-2.14c-2.68-.94-1.05-3.56-1.32-5.37-.14-.9-1.04-1.6-1.14-2-.04-.16,1.78-.74,1.82-2.48l-1.21-.88,1.23-.32-1.85-1.54,1.84-2.14-1.83-1.23,1.84-.61-1.85-1.24,1.27-3.05-1.28-.62c3.01-4.26-.77-9.07.32-13.54.4-1.64,1.57-1.56,1.58-1.83.11-1.98-4.04-2.85-.62-4.28.2-1.62-1.69-2.64-1.78-3.76-.06-.76.99-1.5,1.13-2.4.25-1.57-.54-2.8-.63-4.25-.1-1.62,1.7-2.44-.62-3.07,2.53-2.97-.53-5.83-.47-9.21.03-2.12,1.59-5.23,1.73-7.44.07-1.14-1.11-.45-1.28-1.71-.39-2.94,1.29-6.95,1.22-7.32-.1-.58-1.22-1.05-1.45-1.64-.72-1.84-.53-3.37-2.18-5.18l2.46-1.25-1.27-3.64.66-1.24,1.22.3c-1.55-3.39.82-6.64.61-9.46-.04-.49-1.28.16-1.25-1.85s.84-2.75,2.49-3.73l-2.45-.92c-.15-1.23.93-1.46,1.13-2.73.39-2.48-1.83-5.8,1.36-6.81-1.36-2.72-2.08-5.85-1.27-8.86l-1.83.31c2.09-1.89,1.83-3.72,2.2-5.88.69-4.07.02-2.52-.24-5.27-.09-.98,1-1.87,1.08-2.99.11-1.48-1.18-4.21-.96-5.53.13-.78,1.57-1.22,1.6-2.41.02-.88-1-1.82-1.11-3.07-.3-3.26,2.37-6.7-.73-8.61l1.17-.56-1.14-4.97,1.8-.29c.2-2.23-1.16-3.56-1.27-5.83-.17-3.53,1.11-8.5,1.31-12.3.1-1.94-1.16-2.78.59-4.87l-1.85-.32c.91-2.28-.5-4.65.03-6.93.1-.45.99-.49,1.15-.91,1.62-4.12-.53-3.86-.54-4.19-.12-2.6-.57-5.38.33-8.2.36-1.14,1.18-1.62,2.11-2.17l-1.84-.3c-.22-.18-.68-5.44-.65-5.76.05-.42,1.16-.33,1.27-.79.34-1.44-.76-2.97-.64-4.18.13-1.33,1.66-1.89,1.71-2.45.09-1-2.07-2.4-2.22-3.17-.13-.69,1.08-2.22,1.18-3.6s-.57-2.55-.48-3.59c.12-1.42,1.68-4.68,2.29-6.2l-2.52-1.33c.6-1.97.42-4.07.7-6.01.26-1.79.49-2.69.71-4.81.15-1.45,1.78-.76-.75-3.81l1.84-3.09-1.83-.91,1.68-6.61-1.06-.41c2.63-3.3-.17-11.17.14-14.06.15-1.4,4.37-5.7-.14-5.3,2.68-7.66-.59-16.47.62-24.54l-16.84,1.25c-11.95-1.41-28.37.27-39.79-2.48-.48-.11-.39-1.22-.76-1.24-1.45-.08-4.35.78-6.73.65-2.62-.14-5.58-1.51-7.41-1.68s-7.06,1.91-6.98-.79l-1,1.24c-2.64-.26-6.64,1.26-6.36-2.47l-2.12,1.89c-3.08-.07-5.45.6-7.68-1.89l-.34,1.89c-6.55-.71-14.51.79-20.86,0-1.3-.16-.62-1.79-2.42-1.29-.55.15.1,1.52-.91,1.24l-.61-1.83c-.16,2.8-8.61,2.5-10.61,1.81-.86-.3.17-2.39-1.98.02l-1.21-1.24c-.82,0-1.25.84-1.96,1.02-2.6.63-1.91-.91-2.03-.98-.4-.24-.99,1.05-1.52,1.05-.4,0-.93-1.02-1.84-1.08-.27-.02-1.25,3.77-3.16-1.23l-2.06.03.61,2.45c-2.15-2.27-4.67-.24-6.34-.58-.44-.09-.32-1.17-.77-1.23-1-.12-3.76-.07-3.61,1.2l-1.23-1.85-.64,1.89c-4.23-.64-8.81,1.95-10.4-3.1l-1.54,2.44c-1.66-1.9-2.5-.22-3.99-.28-1.01-.04-2.33-1.77-3.67.28l-.65-1.25c-.59.17-1.16.5-1.8.5-3.16-.03-5.27.02-8.7-.24-1.81-.14-4.71,1.54-3.27-2.07-2.59-.51-2.32,2.17-2.51,2.36-.95.92-6.21-.65-7.72-.92-.61-.11-1.55.57-1.93.33-.8-.5-.43-3.47-3.77-.54l-.93-1.83c-1.03,2.6-2.25,1.35-4.6,1.83l.61-1.83c-1.53.41-2.33.89-3.37-.62l.31,2.45h-4.29s.61-2.44.61-2.44c-3.71-1.77-2.86,3-5.58,1.47l-.56-2.09c-2.17-.57-.81,1.84-1.22,2.46-1.91-.83-4.65-.38-6.32-.6-.24-.03-1.07-1.78-1.96-1.85l-1.82,1.82-1.27-2.49c-.98.89-3.7.03-3.87.13-.3.18-.1,1.67-1.56,1.74-1.24.06-3.53-.94-3.44-2.45l-1.52,1.84-.65-1.25c-1.49,1.1-3-.09-4.23.03-1.33.13-4.81,2.88-4.63-1.24-1.96,2.04-3.63,2.06-6.4,1.88-1.2-5.73-4.55,2.55-5.88-2.49l-1.55,1.21-1.21-1.24-4.17,1.27-3.18-2.46-1.52,1.84c.27-1.66-.26-1.77-1.55-2.46l-2.13,1.85-.93-2.45-1.83,1.9c-1.95-.02-2.42-1.72-3.15-1.85-.54-.1-1.77,1.24-3.56,1.21-2.27-.04-3.83-1.89-5.58-1.95-1.13-.04-.8,1.21-1.31,1.31-1.51.29-3.38-.93-5.11-.02v-3.07s-4.04,1.69-4.04,1.69c-1.04-1.14-.71-2.13-2.71-1.69l-.3,1.82c-1.69-.01-2.58-2.11-2.87-2.29-.24-.14-1.03.5-1.7.18-1.44-.68-1.51-2.73-4.03-.32l-.6-1.23c-1.74,2.79-4.22-1.38-6.71-1.26-.39.02-.29,1.01-.64,1.12-2.35.75-5.68.91-6.77-1.72l-2.13,1.24-.94-2.45-2.44,2.45-1.54-3.07-3.05,1.84-.93-2.44-.93,2.44c-1.58-1.04-2.47-1.32-4.28-.61v-1.85s-1.55.54-1.55.54c-1.06-1.92-4.73-1.5-5.8.68.07-1.9-2.55-.45-1.86-3.06-1.82,1.56-4.41,1.46-5.82-.61-1.28,3.31-1.29-.49-2.44,0-.93.4-.46,2.46-2.15,1.84v-1.84s-2.12.56-2.12.56l-1.05-1.72c-1.83.69-2.3.15-3.88-.68-2.4,4.44-3.4.44-4.36.14-.75-.24-4.1.6-4.44.39-.28-.18-.26-1.19-1-1.58-.11-.06-2.37-.12-2.48-.08-.35.13-.19,1.04-.67,1.11-.67.11-6.62-.48-7.18-.7-1.09-.43-1.05-1.89-2.02-2.19-1.43-.45-3.8.84-4.58.79-2.44-.15-7.51-3.93-8.85-.94-1.16-1.56-2.92-.43-4.75-1.27-.47-.22-.49-1.19-.83-1.21-.96-.04-2.48,1.17-3.58,1.29-1-2.45-1.7-1.18-3.29-1.65-4.63-1.37-6.25-1.01-10.82-1.51-1.29-.14-2.74-1.2-3.75-1.15-1.14.06-1.5,1.45-2.73,1.2v-1.85c-3.75.71-8.15-.63-12.07-.98-1.53-.14-4.38,1.08-5.11-.85,2.05.13,4.09.26,3.68-2.46l-1.53,1.22-1.23-1.84-1.83,1.67c-1.92,0-1.43-2.08-2.12-2.64-.29-.23-1.72.39-2.62.24-1.72-.29-5.42-.84-6.8-1.24-1.49-.43-4.43-2.62-5.78-2.82-.78-.11-1.63,1.32-3.49,1.12-2.57-.28-7.34-2.36-10.66-2.91-4.95-.83-10.44-.95-15.47-1.39.68,1.97-.01,9.87,1.62,10.38,1.07.33,9.53-1.1,11.57-1.17,6.8-.24,13.46.74,20.23,1.23.82.06,2.56-.55,2.15.91-.23.81-2.88-.46-3.95-.31-.8.11-1.52,1.03-1.89,1.04-.53,0-1.38-1.41-2.95-1.47-2.36-.08-2.8,2.21-3.16,2.24-.89.1-6.53-5.28-7.4.08-3.55.73-3.04-1.55-5.8-1.88v1.85c-1.6-1.06-2.57.37-4.02.58-1.59.23-5.17-.67-5.73,1.04-.44,1.34,1.09,8.16,1.19,10.31,1.05,22.79.73,46.56,1.18,69.38.43,22.31,1.6,45.47-.46,67.57-.13,1.39,3.21,7.84-.74,8.8,1.1,1.09,1.17,4.16,1,5.72-.93,8.26-.98,16.78-1.76,25.06-.21,2.26-1.75,3.39-1.77,3.86-.08,1.94,1.39,2.9,1.37,4.31-.02,1.3-.96,1.81-1.17,2.62-.32,1.23,1.34,1.76-.74,2.27,2.29,3.69.13,9.61,0,13.81-3.43-.15-1.78-3.87-2.03-5.75-.14-1.04-1.24-1.68-1.04-2.84h1.83c.41-.45-.69-6.13-.61-7.05.12-1.36,1.87-1.86,1.86-3.06,0-1.06-1.41-1.92-1.6-2.74-.18-.77,1.02-1.31.89-2.07-.1-.57-1.12-.98-1.16-1.95-.01-.37.95-.24,1.06-.45.45-.82,0-1.7.2-2.5.14-.55,1.22-.45,1.25-.76.12-1.24-1.05-1.98-1.04-2.43,0-.42.93-1.01.96-1.8.06-1.48-1.73-2.55.67-3.11l-1.22-.68c.79-1.46-.47-3.08-.35-4.23.05-.52.9-1.1.92-1.83.03-1.23-1.58-2.51-1.19-4l2.44,1.22c-.1-1.58-1.43-2.19-1.53-3.96-.2-3.36,2.02-8.45,1.94-11.8s-.43-3.27-.05-7.25c.15-1.54-2.88-4.72.87-5.22.19-.24-4.39-4.93,0-4.29.34-.28-2.15-7.1-2.16-8.54,0-.49.22-3.29.29-3.95.05-.52,1.34.14,1.29-1.87-.06-2.85-1.82-2.79-1.88-3.12l1.27-1.29c-.82-5.31,1.03-10.26-1.28-15.22,2.09-1.31.82-7,.73-9.82-.04-1.39.65-2.88.52-4.3-.18-2.02-1.74-4.71-1.71-6.29.06-2.57,1.56-6.96,1.11-10.34-.19-1.46-1.19-2.26-1.32-3.64-.2-2.26,2.05-5.31-.55-6.14.86-.74,1.63-4.57,1.56-5.53-.1-1.39-2.17-2.28-2.19-2.55-.09-1.02-.15-5.81-.04-6.68.12-1.03,2.03-.89,1.32-3.63l-1.88-1.55,1.85-.32c-1.7-2.08.04-3.29-.51-4.94-.33-.98-1.29-.72-1.4-1.78-.96-9.32.67-22.03-1.18-31.3-.27-1.37-1.58-1.84-1.72-2.54-.18-.91.9-2.08.92-3.07.07-3.39-1.19-7.61-.65-10.99-.35-2.25-7.27-1.29-8.91-1.57-2.38-4.92,7.58-3.84,10.66-3.61s22.88,2.62,24.38,3.22c5.6,2.23,7.73,2.31,13.49,3.68,12.53,2.98,26.17,7.45,38.87,8.97,2.35.28,5.91-.41,7.79.05.68.17.72,1.47,1.29,1.9,2.03,1.52,7.51.12,9.76.56.62.12,4.64,2.27,7.78,2.76,14.86,2.34,29.93,3.88,44.79,6.14,36.44,5.53,72.04,11.56,108.86,14.43,21.16,1.65,42.14,1.59,63.18,3.1,2.77.2,9.39.08,10.12,2.42l.94-1.85,23.89.58c29.01,2.57,58.54-.7,87.74,1.25,17.77,1.18,36.17,4.18,54.02,4.05,6.48-.05,12.97-.47,19.22-2.22l-.21-22.08c-.59-1.89-4.86-4.05-6.71-3.68-.2.04-1.32,2.59-3.47.94.98-2.74,5.04-1.23,7.35-2.47,2.64-1.41,1.2-5.2,1.2-7.33,0-3.65-.58-19.12.35-21.19,1.17-2.6,6.37-3.07,7.54-1.12ZM549.88,315.82c.35.35,1.82-.51,1.82-.92,0-1.7-2.75,0-1.82.92Z"/>
    <path d="M36.51,426.27c.45.3.78,7.67.69,8.91-.09,1.18-1.27.84-1.33,1.28-.17,1.3,1.13,2.72,1.14,3.72,0,.87-1.05,1.41-1,2.24.06.89,1.29,1.94,1.19,3.81-.06,1.13-1.21.8-1.31,1.32-.36,1.85.7,8.7.64,11.58-.17,8.36-.85,15.93.06,24.42.39,3.67,1.49,7.26,2.38,10.82,1.83.31,2.88-1.29,3.99-2.45,3.4-3.56,3.88-9.58,8.32-11.92,1.7-.89,11.86-2.04,14.37-2.19,17.89-1.08,38.3-.1,56.38-.02,47.91.2,95.34,2.29,142.92-.01l31.25.02.37,1.85c-7.06-.57-14.14.48-21.15.6-5.95.1-12.32-.55-18.4-.44-4.72.09-11.33,1.58-15.36-.16l-.64,1.24c-7.63-1.19-15.81-.09-23.91.02-10.51.14-21.19,0-31.23.34-1.87.07-1.2-1.09-4.78-.57-2.6.38-5.7,1.34-6.89-1.63-2.48,3.58-2.81,1.41-5.02,1.35-.73-.02-1.32.86-1.74.84-2.05-.11-3.15-.68-6.13-.71-7.38-.06-15.09-1.87-22.09.98l-.54-1.18c-12.14.03-24.84.97-37.12.86-9.16-.08-19.76-1.77-29.81-.06-.69.12-1.36-.05-1.51.98l14.38-.02,4.63,1.25c-7.02.3-14.16-.37-21.18-.02-3.77.19-10.16.65-13.66,1.67-1.82.53-3.72,1.65-5.34,2.63-2.25,2.99-5.9,10.07-8.58,12.27-.73.6-1.46.88-2.38.67-.36-.08-2.87-5.9-3.13-6.79-1.9-6.5-2.07-16.05-2.17-22.98-.03-1.88-.86-4.73,1.86-4.02l-1.88-.94.76-9.08,1.73-.4c.53-1.67-1-.92-1.42-1.96-.93-2.33-.62-4.24,1.42-5.72v-.9s-1.72-.89-1.72-.89c1.58-3.26.42-7.07.44-10.47.01-1.78,1.01-3.26.06-5.22l1.23.31-1.21-4.25c.17-.81,1.9-1.31,2.42-.96ZM69.03,480.87l-3.68.61v.6c1.34.04,3.2.34,3.68-1.21Z"/>
    <path d="M1.55,405.4c-1.07.14-.58-1.39-.61-2.14-.39-9.58.15-19.27.02-28.87-.02-1.62-.67-3.14-.7-4.88-.94-77.67.89-155.8.03-233.78l.95-3.35c.9.02.21,13.91.25,15.65,1.43,60.31.28,122.42.03,182.81-.1,24.85.14,49.72.02,74.57Z"/>
    <path d="M438.26,473.51v1.84c-.95,0-1.8-.65-2.76-.62-6.93.19-13.61,1.03-20.31,1.18-1.9.04-4.74-1.89-5.45.67-1.38-2.16-2.08-.42-3.09-.35-4.26.32-8.17-.17-12.3-.32-1.2-.04-.58,1.43-1.78,1.35s-2.13-1.09-2.48-1.09c-.8.02-1.73,2.43-2.46-.25h-.58c-3.31,2.65-6.14.91-9.26.71-.29-.02.03,1.06-1.14,1.22-1.65.22-4.05.08-5.62-.61l-.56,1.18-1.84-1.25c-1.6,2.89-7.27-.51-10.48,1.81l-.55-1.18c-4.44,1.22-12.44,1.66-17.29,1.61-1.62-.02-4.54.02-4.81-1.62-.58,0,.04.93-.74,1.22-1.2.44-10.57.56-12.76.61-6.64.17-15.5.51-22.11.05-1.08-.08-2.01.12-2.72-.96l141.06-5.2Z"/>
    <path d="M570.11,525.65l.58,2.09c-.16.54-.55.66-1.01.85-1.96.85-10.32,1.58-12.94,1.78-6.34.48-19.15,1.52-25,.85-1.22-.14-.78-1.91-2.72-1.27l.62,1.22c-1.75-.87-6.25.52-7.24-.16-.32-.22.34-1.36-1.04-1.07-1.51,4.14-5.91-2.46-6.45,1.23l-.93-1.26c-1.27-.15-2.21,1.28-3.68,1.33-1.14.04-.78-1.22-1.32-1.31-2.49-.43-4.84,1.4-5.41,1.25-.23-.06-.23-1.12-.72-1.23-1.16-.26-2.65.13-3.88,0l1.22,1.83c-3.31.49-4.48-2.68-7.97-1.22-.47-1.52,1.3-1.56,2.23-1.61,9.4-.45,18.93-.29,28.23-.46,15.73-.3,32.16.6,47.42-2.84Z"/>
    <path d="M34.83,291.18l1.1.45c-1.69,2.37.18,5.47-.04,7.31-.11.95-1.21,1.64-1.22,2.48-.01.9,1.74,2.29,1.3,3.7l-1.3,1.51c2.58.02,1.1,1.48-.61,1.85-.29-2.88-1.11-5.34-1.14-8.36-.02-1.82.97-5.69.85-6.67-.07-.63-1.08-1.26-.99-2.42.1-1.29,1.77-2.01,1.74-2.48-.1-1.75-.67.11.01-3.2.18-.86-1.69-2.98-.35-5.89.85-1.84,3.14-1.4,2.57.77-.76,2.88-1.03,7.25-1.94,10.95Z"/>
    <path d="M35.9,424.42c-.23.25-2.53-2.15-1.83-3.06l1.83.61.05-3.35-1.89-.34c1.14-1.6.26-3.63.61-5.12.12-.49,1.26-.34,1.25-.71-.03-1.01-2.08-2.76-1.24-4.6,1.99,1.52,1.27-.98.61-2.03-.26-.42-1.14-.34-1.15-.68-.02-.69,1.45-6.13,2.06-5.87,2.04,2.15.45,5.92.6,8.3.32,4.98.64,4.93,0,10.38-.21,1.76,1.05,4.4-.91,6.46Z"/>
    <path d="M527.18,518.3l-1.22,1.21,3.06.61c-3.43-.13-6.69,1.1-10.1,1.26-.5.02-2.24.19-1.24-.64h1.22c1.02-.78-.92-.77-1.26-.65-1.17.4-.86,1.16-1.3,1.26-3.13.68-7.95.45-11.23.62l2.46-.61c-.75-1.86-.45-3.61,1.83-3.06l-.62,1.83,2.76.63.25-1.55,2.87-.88.52,1.17c4.08-2.61,7.48-.95,12-1.2Z"/>
    <path d="M553.56,515.23c-2.15,3.57-6.4,2.24-9.81,1.84l1.83,1.21-14.71,1.85,1.83-1.23-.62-1.54,4.92-.3-.62-1.22,7.98.6-.62-1.22h9.82Z"/>
    <path d="M35.7,311.4c-.95,1.83-1.43,7.27-1.57,10.29-.01.22,1.54-.08,1.21,2.44-.16,1.24-1.33.81-1.31,1.21.06,1.16,2.37,4.32,1.25,6.74-2.4,1.34-2.31-1.46-3.03-3.11l1.18-1.17-1.84-2.14,1.83-.93c-2.27-1.6-.26-2.2-.02-3.71.48-2.97.49-5.46-.58-8.26l1.22-.61-1.76-.06-.1-2.09,3.09-.65c.72.58.84,1.23.4,2.05Z"/>
    <path d="M78.23,539.15l-3.06,1.22c2.86,1.65,5.83,2.15,8.86,3.11.37.12,2.11.56,1.25,1.2-1.83.59-3.12-1.28-3.65-1.3-.98-.04-2.07.57-2.99.46-3.25-.37-6.34-1.61-9.83-.97l-1.61-3.72h11.04Z"/>
    <path d="M37.13,262.44h-1.84s0-4.29,0-4.29l1.85-.31c-4.29-2.37,1.22-9.11-2.45-11.66,1.96-.97,1.79-1.32,2.14-3.38,1.51-.03,1.46,11.35,1.23,12.91-.36,2.54-2.2,4.12-.93,6.73Z"/>
    <path d="M34.67,339.14c.02.76.55,1.43.58,2.19.08,2.53-1.15,8.91-.53,10.91.18.59,2.02.02.57,2.84-2.07.44-.9-1.39-1.22-2.65-.12-.47-1.17-.39-1.24-.81-.31-1.75,1.42-4.74-.6-7.26l1.85-.32c.56-1.56-1.84-1.56-1.88-2.18-.06-.82,1.55-3.41,2.49-2.72Z"/>
    <path d="M37.75,263.68c-1.87,2.03-.35,3.66-.61,5.77-.24,1.92-2.67,3.63,0,5.58l-1.19.56.57,2.19h-2.45c-.5-2.18,1.35-1.29,1.29-3.34-.08-2.73-1.76-3.37-1.6-5.25l1.53,1.22c-.14-2.42-.02-3.9-1.22-6.13l3.68-.61Z"/>
    <path d="M36.52,381.48c.18.13-.55,3.16-.44,4.37.09,1.06.76,1.67.86,2.59.11,1.01-.62,2.98-.44,3.68.17.66,2.88.05-.37,2.88l-2.12-1.04c-.24-2,1.47-5.54,1.18-7.27-.34-2.05-1.86-1.32-.28-4.06.31-.55.54-1.9,1.6-1.13Z"/>
    <path d="M488.54,529.35c1.77,1.81-4.62-.07-3.69,2.43h-1.22s.62-1.21.62-1.21c-2,.32-5.2-.48-6.96,0-.51.13-.34,1.29-.69,1.23-.85-.15-3.12-1.51-4.61-1.23.2-1.14.97-.92,1.75-1.03,2.42-.35,7.13-.59,9.68-.69.93-.04,4.68.06,5.12.51Z"/>
    <path d="M538.68,31.34c.2.08.45,1.35,1.38,1.05.92,1.71-9.42,1.17-10.42.59.27-1.51,2.97-.05,3.92-.16,1.56-.18,2.49-2.55,5.12-1.48Z"/>
    <path d="M90.49,483.32l5.83-.88c4.88.62,9.83.07,14.73.27.75.03,2.28-.47,2.14.61h-22.69Z"/>
    <path d="M485.48,522.59c-.24,1.12-1.2,1.13-2.12,1.24-3.41.41-7.3.53-10.75.58l9.19-1.23-3.67-1.21c2.8-.71,4.67.33,7.36.61Z"/>
    <path d="M458.48,533.01h-1.21s.61-1.83.61-1.83l-2.45-1.23,10.41.31c-2.06,1.82-7-.65-7.36,2.76Z"/>
    <path d="M505.71,518.92l.62,1.82-2.46-1.22.45,1.09c-1.55,1.19-2.46,2.35-4.75,1.96l.46-1.11-1-.15.54-1.51c2.72.67,3.67-.42,6.13-.89Z"/>
    <path d="M493.31,519.65c.11.05.18.82.65,1.03,1.11.5,3.23.91,3.79,1.9l-3.67.62.62-1.83-2.73-.66-.95,1.26c-.71-1.51,1.13-2.83,2.3-2.32Z"/>
    <path d="M452.97,529.95v1.83c-2.29-.72-5.54.65-7.35-.92l7.35-.91Z"/>
    <path d="M36.47,377.13l-3.01.04,1.09-.68.14-3.6c1.8.7,2.14,2.5,1.78,4.25Z"/>
    <path d="M441.71,530.03l3.28.84c-1.22,2.09-6.08,1.94-3.28-.84Z"/>
    <path d="M86.2,26.23l-8.58-.91c.81-1.3,1.41-.55,2.3-.52,1.85.05,5.42-.29,6.28,1.43Z"/>
    <rect x=".95" y="410.31" width=".61" height="11.04"/>
    <rect x="123" y="482.71" width="8.59" height=".61"/>
    <path d="M530.24,516.46c.11.61.96,2.3-.3,2.45-2.41.3-3.62-3,.3-2.45Z"/>
    <polygon points="422.31 534.24 419.93 534.17 419.25 530.56 422.31 534.24"/>
    <path d="M116.87,547.14c-.15.71-2.46,3.06-3.06,2.44l.56-1.8-1.17-.64h3.68Z"/>
    <path d="M35.28,366.14c.49.41,1.18,2.81.62,3.68-2.29-.31-2.33-5.12-.62-3.68Z"/>
    <path d="M129.75,547.14l-2.16,1.84-.41-1.09-2.33.47c-.44-2.4,3.72-.8,4.9-1.22Z"/>
    <path d="M389.8,531.8c-.97,1.74-5.11,2.94-3.32-.02l3.32.02Z"/>
    <path d="M33.45,356.94c1.62-.47,3.47,2.66,1.52,3.06-1.72.35-.97-2.37-1.52-3.06Z"/>
    <path d="M155.5,23.18c.19.87-1.19.84-1.76.86-1.63.05-3.31-.48-4.98-.26-.14-1.07,1.39-.58,2.14-.61,1.53-.07,3.08.04,4.6,0Z"/>
    <path d="M490.24,521.56c.1.05,1.32,1.31,1.37,1.63h-3.68s.65-1.8.65-1.8c.59-.14,1.09-.1,1.65.16Z"/>
    <path d="M435.19,530.57l-.62,1.83-1.63-1.17-2.04,1.17c-.08-2.47,2.67-1.83,4.29-1.83Z"/>
    <path d="M301.48,537.92c-.43-2.32,3.14-.59,4.28-1.84.19,2.41-2.87,1.29-4.28,1.84Z"/>
    <path d="M135.88,23.79l-.91,2.45c-.74-.8-1.78-1.28-1.53-2.45h2.45Z"/>
    <path d="M92.95,545.9l-2.06.55c-.79-.38-1.17-.9-1-1.77,1.15-.07,2.69-.18,3.06,1.22Z"/>
    <path d="M291.66,537.32c-.39.98-3.63,2.32-4.28.91l4.28-.91Z"/>
    <polygon points="449.9 521.98 450.52 525.65 448.68 525.65 448.69 522.27 449.9 521.98"/>
    <path d="M471.37,529.34c-.24-.02.36,4.41-1.22,3.06-.6-.51-1.02-3.45,1.22-3.06Z"/>
    <path d="M367.72,533.63l.95-1.19,1.19-.03c1.89,1.72-.25,2.04-2.14,1.22Z"/>
    <path d="M164.09,25.01c-1,.27-.37-.86-.72-1.07-.79-.48-1.97.24-2.34-.46,1.55-1.9,3.42-.81,3.06,1.53Z"/>
    <path d="M33.45,379.64l2.13-.62c2.13,1.58-1.31,2.96-2.13.62Z"/>
    <path d="M180.04,23.18c-.85,1.42-4.1.24-5.51.6.8-1.41,4.09-.24,5.51-.6Z"/>
    <polygon points="364.04 533.02 364.04 534.86 363.13 534.85 361.59 533.32 364.04 533.02"/>
    <polygon points="36.51 398.65 34.07 398.03 35.91 395.59 36.51 398.65"/>
    <path d="M127.9,25.02v.6s-3.68,0-3.68,0c.6-1.9,2.21-.67,3.68-.6Z"/>
    <path d="M34.68,334.84h-.91s-1.54-1.83-1.54-1.83c1.47-.24,2.6.28,2.45,1.83Z"/>
    <path d="M460.95,523.81h-3.68s0-.6,0-.6c1.47-.07,3.08-1.3,3.68.6Z"/>
    <path d="M176.97,543.45c-.33,1.22-1.31,1.38-2.45,1.22v-1.22s2.45,0,2.45,0Z"/>
    <rect x="246.9" y="482.71" width="4.29" height=".6"/>
    <polygon points="464.01 523.21 464.01 525.04 462.17 525.04 462.79 523.2 464.01 523.21"/>
    <path d="M35.29,363.69c-.33,1.22-1.31,1.38-2.45,1.22v-1.22s2.45,0,2.45,0Z"/>
    <path d="M486.09,521.97h-1.22c-.15-1.13-.02-1.79.92-2.45l.3,2.45Z"/>
    <path d="M294.73,537.32v1.22c-1.13.15-1.79.02-2.45-.92l2.45-.3Z"/>
    <path d="M356.68,534.24h-2.45s0-1.22,0-1.22c1.14-.16,2.12,0,2.45,1.22Z"/>
    <path d="M469.53,523.2h-3.06s0-.6,0-.6c1.3-.03,2.61-1.09,3.06.6Z"/>
    <polygon points="405.13 532.41 405.13 533.01 403.3 533.63 402.68 531.8 405.13 532.41"/>
    <path d="M408.82,533.02c-.93-.93,1.82-2.62,1.82-.92,0,.41-1.47,1.27-1.82.92Z"/>
    <polygon points="427.82 531.18 427.52 533.02 425.99 531.18 427.82 531.18"/>
    <polygon points="36.52 371.05 36.52 372.27 34.07 371.65 34.07 371.05 36.52 371.05"/>
    <path d="M107.66,546.52v.6c-1.13.39-1.93.39-3.06,0v-.6s3.06,0,3.06,0Z"/>
    <rect x="114.42" y="482.71" width="3.67" height=".6"/>
    <path class="cls-1" d="M549.88,315.82c-.93-.93,1.82-2.62,1.82-.92,0,.41-1.47,1.27-1.82.92Z"/>
    <path class="cls-1" d="M69.03,480.87c-.47,1.56-2.33,1.25-3.68,1.21v-.6s3.68-.61,3.68-.61Z"/>
  </g>
</svg>