<?xml version="1.0" encoding="UTF-8"?>
<svg id="Lag_2" data-name="Lag 2" xmlns="http://www.w3.org/2000/svg" viewBox="0 0 566.94 338.84">
  <g id="Lag_1-2" data-name="Lag 1">
    <path d="M564.96.91c.34.29,1.27,7.4,1.34,8.6,2.19,36.72-2.81,75.01-3.67,111.48-.28,12,.28,23.73.4,35.68.02,2.04-.93,14.04-.37,14.66,1.45-.4,3.01-.9,4.23.33-2.03,2.87-1.5,5.61-1.97,8.87-3.99,27.57.81,58.32.72,86.29-.03,9.42-1.36,17.69-.87,26.82.13,2.46.45,5.12.32,7.58-.27,4.9-3.38,12.72,1.81,15.65.55,3.07-7.36,4.44-7.71,2.42l-1.11-28.05-19.22,1.84c-14.67-.71-29.05.72-43.39,1.83-2.86.22-4.7-.18-7.28-1.25l.3,1.2c-1.96.42-3.87-.51-5.67-.54-24.04-.48-49.82,1.33-74.21,1.63-3.65.05-9.76.51-12.67-1.09l-.69,1.22c-1.66-.58-3.04.71-3.53-1.23l-2.39,1.87-8.15-.05,1.2-1.19h-6.62s3.61,1.19,3.61,1.19l-7.5.6-.33-1.79-3.85.08-1.27,1.73-.64-1.85h-3.61s-2.68,1.84-2.68,1.84c-.7-4.43-4.04.75-4.83,0l.6-1.8c-1.43.61-4.94-.72-5.69-.53-.69.17-.73,1.39-1.06,1.6-.83.52-2.98-.05-4.1.13l.3-1.2c-1.28-.45-.72,1.21-1.24,1.24-.86.05-2.93-.97-4.28-1.02-9.67-.36-22.07,1.45-31.29.42-1.06-.12-1.74-.35-2.38-1.24l-1.15,1.26c-7.09-.74-14.79,1.41-21.79.6-1.2-.14-.76-1.88-2.67-1.25l-.32,1.77c-1.68-.89-3.11,0-4.78.05-37.59,1.19-75.47,3.2-113.16,6.21-29.3,2.34-58.29,5.83-87.58,5.85-16.41.01-32.76-.72-49.16-.63,2.84,6.59-7.56,7.38-11.94,6.5l-.69-5.63-5.99-.34c-1.91-5.64.8-6.39,5.96-5.95l-.27-6.67-8.8-2.12,2.26-4.51,6.21-.31c-.3-5.23.1-10.42.01-15.64-.12-7.36.13-15.69-.16-22.77-.05-1.15-1.16-2.54-1.13-4.34.03-1.62,1.02-2.51,1.05-3.01.06-1.16-1.12-4.84-.95-7.8.21-3.52.4-8.22.37-12.33-.02-2.82-1.55-8.35.81-9.38l-1.25-.69c.53-3.8-.54-7.41-.49-11.35.02-1.29.92-4,.9-4.22-.1-.78-1.27-1.43-1.4-2.49-.17-1.38.96-4.13.97-5.4,0-.29-1.04-.17-1.15-.66-.45-2.06.95-4.33,1.12-5.45.13-.84-1.15-1.32-1.01-2.18.07-.46.97-.98.98-1.32.01-.46-1.14-.93-1.35-1.48-.54-1.43-1.03-5.97-.93-8.13.06-1.36,1.19-4.67,1.05-5.49-.17-.99-3.58-.27.02-3.56-3.24-2.32-.37-6.61-.59-7.72-1.5-7.52-.63-15.4-1.86-22.24-2.7-14.93-1.1-35.26-2.89-51.33L0,48.94c9.93-4.31,7.92-.05,8.68,6.99,6.2,57.66,5.89,115.84,9.84,173.7.09,1.39,1.23,2.59.4,4.37l-1.2-.61v2.41s1.8-1.2,1.8-1.2l4.19,55.78c3.45-.06,7.28.78,10.56.89,12.82.43,25.33-2.58,38.01-3.63,33.97-2.84,68.9,1.13,102.33-.78,2.5-.14,5.42-.84,7.97-1.04l-.3,1.21h2.42s.29-1.21.29-1.21l.61,1.25c2.42-1.55,5.01-.09,7.81,0,29.59.82,59.4.04,89.04,1.31,18.34.78,36.75,2.95,55.01,2.97,47.27.07,94.88.15,142.3-1.3,21.22-.64,54.5.65,74.11-4.86,1.41-.4,2.43-1.51,3.86-1.86-.14-6.28.49-12.65.37-18.89-.4-21.08-.73-42.36-1-63.26-.07-5.43-1.13-12.28-.92-17.61.04-1.07,1.09-2.01,1.65-2.89l-1.25-.67c1.05-2.74-.42-4.49-.59-7.13s.44-4.9.5-7.26-1.68-5.16.72-7.53l-1.8.6,1.2-2.4-1.24-.34c1.84-2.7-.31-5.06-.39-7.07s.51-6.89,2.23-7.97l-1.8-1.21,1.81-.6c.26-2.26-1.66-1.89-1.81-2.12-.2-.3,1.05-.94,1.06-1.95.03-2.18-.95-5.77-.94-7.97.03-7.15.22-16.36.57-23.43.12-2.52,1.64-5.16,1.63-5.47-.02-2-.64-4.54-.56-6.67.23-6.27.21-17.88,1.26-23.46.19-1,1.19-1.55,1.23-2.44.02-.39-1.16.01-1.29-1.18-.25-2.26.9-4.11.95-6.05.34-11.72-.6-25.72-1.26-37.48-.36-6.39.72-13.19-2.07-19.14,3.28-2.71,5.16-1.64,8.96-.82ZM100.3,289.44h-1.8v1.2h1.8v-1.2ZM107.53,289.44l-4.22.61.61,1.2c-7.96.04-15.86.07-23.81.61-8.37.57-16.99,1.47-25.33,2.4-.83.09-2.13.28-2.7.91,2.65,1.72,6.76.74,9.94.91,12.21.67,24.52,1.02,36.78,0,9.23-.77,18.54-2.44,27.63-4.17l1.01-1.85c-4.09.76-7.8,1.7-12.05,1.19l5.42-.6c-1.01-2.23-4.13.41-6.32-1.2l-.31,1.8h-9.64s3.01-1.8,3.01-1.8ZM170.23,290.63c-1.08-2.67-2.43.51-2.83.6-3.47.74-10.2.81-13.71-.02-.84,2.68-1.57.28-2.55.12-.84-.14-2.63,2.31-4.72.04l-2.41,2.88.02-1.81-1.16-.57-20.26,3.59.61,1.8-3.01-1.19c.37.63.51,1.43-.31,1.8-1.73.76.35-2.26-1.19-2.38-1.81,1.15-6.02.41-6.35,2.98l-1.17-.03-.36-1.2c-1.46.63-2.76.96-4.21.11l-.85.86.58,1.47h-1.81c-.32-.21,1.65-2.05-.28-1.79-5.11.69-9.99,1.13-15.1,1.45-2.76.17-6.04-1.22-8.45,1.55-2.27-3.54-3.51-1.46-6.11-1.42-2.93.05-9.34.01-12.01-.34-1.17-.16-.84-1.29-1.18-1.29-.73,0-1.92.95-3.42,1.12-1.08.12-9.73-.49-10.77-.75-1.25-.32-1.14-1.54-1.51-1.54l-3.27.61-.29,1.8-2.45-1.82h-1.11c-.85,2.51-1.5.32-3.09.03-1.67-.31-3.75.32-5.31-.03-.46-.1-.32-1.02-.69-1.08-1.41-.2-4.74.21-5.47,1.7-.45.92.07,4.1.62,4.82.86,1.15,13.2.48,15.71.58,31.37,1.17,57.1.63,88.59-1.79,43.9-3.38,87.55-5.52,131.44-7.81,5.27-.27,10.61-1.54,15.95-1.23.99-.76-.06-1.1-.89-1.2-1.21-.16-9.65-.39-9.96,0l.61,1.19h-1.82s.61-1.2.61-1.2l-6.04.59.61-1.2h-5.13s-.01,1.81-.01,1.81l-3.91-.62,1.21-.9-11.12-.92-.65,1.23c-1.36.31-.69-.82-1.02-1.05-2.4-1.7-7.41,2.11-11.46,1.01-.51-.14-.27-1.07-1.34-1.21s-2.28.16-3.36.05l.61,1.2h-9.65s1.81-.6,1.81-.6c-.6-1.99-2.11-.5-3.31-.6-1.63-.13-3.62-1.22-5.18-.32l.05,1.52c-2.17,1.26-6-3.6-7.23-.6l3.01.6h-4.82s.61-1.19.61-1.19h-11.45s1.2,1.8,1.2,1.8l-2.71-1.81c-1.37-.27-.61,1.03-1.3,1.21-1.08.29-2.6-.28-3.81.61l-.3-1.83-2.11.03,1.2,1.19c-.76-.47-3.27-.05-3.49-.16-.15-.07-.14-1.15-1.22-1.33-3-.48-3.66,1.81-6.13,1.49l1.81-.6ZM222.07,290.04c-1.3.03-2.62-.07-3.92,0-.74.04-2.24-.46-2.1.6,1.3-.03,2.62.07,3.92,0,.74-.04,2.24.46,2.1-.6ZM231.11,290.04h-3.61v.59h3.61v-.59ZM281.14,292.44c-.58-1.7-2.74-1.16-4.22-1.19.58,1.7,2.74,1.16,4.22,1.19ZM285.36,291.25h-2.41v1.2h2.41v-1.2ZM386.64,294.86h-2.41s0,1.2,0,1.2c1.12.16,2.09,0,2.41-1.2Z"/>
    <path d="M425.23,41.17c-.09-.06.16-1.42-1.18-1.53-.63-.05-2.98,1.26-4.58.8-.45-.13,0-1.39-1.14-1.04l-2.47,1.77c-.62-2.35-4.99-.33-6.64-.72-.47-.11-.18-1-.29-1.08-.4-.3-1.25,1.29-1.76,1.47-.2.07-3.99.06-4.35,0-1.08-.16-2.78-1.6-2.9-1.49-.14.11,0,1.39-.88,1.61-2.04.5-6.35-.43-8.41-.34-2.38.1-8.95.24-10.87.54-3.88.6-7.53.21-12.1.57-3.2.25-6.6.2-9.62.33-5.64.24-11.26.74-16.9.94l-.61-1.84-.31,2.42c-.13.17-.98-.57-1.54-.56-7.4.06-15.8.29-23.44.24-8.94-.06-18.13.13-26.55.09-.72,0-2.86-2.52-2.72.23l-.98-1.22c-1.72.56-4.09-.62-5.38-.53-.89.06-1.47,1.09-2.27,1.04-1.63-.1-4.27-3.27-4.96-.47-1.86-1.61-4.38.52-5.4.39-.64-.08-1.09-1.33-1.86-1.48-3.15-.61-10.59,1.74-15.05,1.12-1.22-.17-.74-1.28-1.16-1.27-1.25.01-1.51,1.5-2.48,1.69s-2.55-.89-3.68-.92c-4.34-.08-9.15,1.12-13.76,1.37s-10.59-.53-16.24-.29c-2.18.09-6.97-.12-7.84,1.78-.96-2.8-5.65-1.91-8.47-1.84-2.08.05-5.99,1.05-7.23,1.09-.4.01-.95-1.08-1.54-1.32-2.68-1.12-5.84.22-8.65.17-9.36-.15-17.97-1.22-27.17-1.18-1.03,0-1.81.21-2.71.65l.29-1.82c-1.53.72-3.71-.07-4.21,1.82-3.77-2.71-9.96,1.05-13.87-2.43-.51,1.99-4.18,1.33-6.01,1.19-9.31-.71-20.4.21-30.13.06-21.62-.35-42.53-2.8-63.95-3.03-1.53-.02-4.69-.79-5.91-.63-.48.06-.11,1.11-1.26,1.27-2.65.36-12.5.35-15.13-.05-.89-.13-.97.35-.91-.92.22-4.81,8.37-2.7,11.15-2.67,17.38.14,34.68,1.3,51.89,2.35,24.41,1.49,49.01,1.37,73.46,1.78,25.29.42,50.65,1.07,76,.64,25.3-.43,50.17-.31,75.39,0,43.2.54,86.4-2.5,129.62-3.57,38.32-.95,76.31,1.18,114.5-3.05,3.67-.41,7.36-1.28,10.89-2.37,2.35.1,2.88,4.06,1.23,5.44-1.33,1.11-10.45,2.17-12.71,2.36-25.55,2.09-50.96,1.51-76.58,1.18-5.42-.07-9.85.05-15.05-.35-.59-.05-1.46.96-2.44.95-5.34-.06-11.29-1.26-16.22-.8-1.01.1-3.75,1.55-3.93,1.43Z"/>
    <path d="M401.1,338.84h-1.19s-.61-2.4-.61-2.4h.89c.95.64,1.05,1.29.91,2.4Z"/>
  </g>
</svg>