<?xml version="1.0" encoding="UTF-8"?>
<svg id="Lag_2" data-name="Lag 2" xmlns="http://www.w3.org/2000/svg" viewBox="0 0 117.26 64.17">
  <g id="Lag_1-2" data-name="Lag 1">
    <path d="M45.58,9.37c2.27,2.32,4.64,5.22,6.59,8.05.62.9,1.73,3.64,1.89,3.78,1.92,1.7,2.9-2.74,4.2-3.42,0,1.88-1.6,3.21-2.69,4.54.39,1.01.7,2.02,1.91,1.7l-.78-1.56c2.85.73.3,2.23.39,3.68.02.28,1.63,5.04,1.77,5.28.48.83,4.67,2.51,5.85,3.53,3.77,3.24,6.17,8.6,11.89,9.6,7.05,1.23,10.96-3.06,13.11-9.19.32-.91-.26-2.25.97-1.96.58,1.97-.1,4.72-1.05,6.54-.3.57-1.38.94-1.5,2.03-.11.98,1.54.92-.76,2.75-.39.31-1.05.34-1.35.61-.5.44-.38,1.25-1.02,1.71-.46.33-2.47.78-3.11.82-2.62.14-7.14-.31-9.43-1.5-3.1-1.61-11.22-10.77-12.5-10.97-2.19-.33-1.06,7.16-3.65,7.38.47-1.01.18-2.23.4-3.23.04-.2,2.4-2.11.38-3.01l-.04,1.54-1.16.23c.95,2.52-1.65,4.82-1.92,6.65-1.04,7.21,7.03,14.37,13.29,16.36,11.79,3.74,32.8-2.18,41.97-10.34,11.55-10.29,5.71-33.72-8.39-39.04l.39-1.16-1,.8-3.3-1.19c1.31.17,3.22-.3,4.42.07.88.27.96,1.42,1.44,1.69.81.45,1.8-.29,2.14.92l.98-.34c-.33,1.46.58.99,1.13,1.42.63.49.42,1.35,2,.93l-.39,1.17c2.26-.25.95,3.56,3.91,3.14-.68,1.54.3,1.82.64,2.46.91,1.74,2.31,4.72,2.72,6.78.33,1.69-.72,2.7.71,4.66.16.23.6.12.62.14.11.16-.71.78-.79,1.38-.1.81.44,1.56.4,2.3-.04.69-.72,1.23-.68,1.9.03.53.56,1.09.52,1.62-.08,1.15-4.16,9.47-5,10.26-.26.24-3.11,1.79-4.01,2.44-9.49,6.88-25.6,12.38-37.39,10.46-4.1-.67-13.06-3.88-15.19-7.63-.29-.52.03-1.13-.15-1.67l-.79.39c-1.75-1.3-.97-3.83-3.71-3.13l.39-1.56-3.12,3.32,1.56-.2-.03,1.14c-1.7-.01-1.53,1.9-3.09,1.59l.39-1.17c-.79-.7-2.78,2.31-3.25,2.6-1.06.65-2.5-.07-2.25,1.64l-1.92.06.39,1.17c-3.18-.68-6.34.04-9.59.02-1.54,0-3.66.03-5.03-.01-.23,0-.24-.65-.52-.76-6.34-2.36-12.92-4.36-17.15-10.3-1.75-2.46-4-6.82-5.01-9.65C1.1,36.48-.11,31.85,0,28.5c.01-.36,1.51-1.41.86-2.89l1.14-.21c.03-.84.21-1.41-.74-1.41l-.05-.54,1.56-1.18v-.57s-1.17-.78-1.17-.78l2.73-.79-1.17-2.34,2.72-1.05c.76-.4,1.42-2.08,1.69-2.35.44-.44,2.86-.64.64-1.49.34-1.89,1.44-1.84,3.11-1.79l1.61-3.86,1.76.7c.89-.52,1.05-.97.58-1.87.68-.03,1.23.64,1.94.19,1.18-.74.82-1.76,1.39-2.54l2.15.2v-1.37s1.72.37,1.72.37l1.2-1.55.39,1.17c1.27-.17,1.63-1.41,2.25-1.69,7.42-3.3,14.55,3.69,19.26,8.52ZM43.54,12.19c-.9-.66-2.11-3.58-3.26-4.35-1.62-1.08-2.67.31-3.88-.81l1.16-1.56c-3.28-3.39-7.22-2.64-11.32-1.56-7.7,2.02-17.89,10.98-21.29,18.16-11.23,23.73,22.08,48.75,41.03,32.03,1.71-1.51,4.57-4.37,4.53-6.62,2.17.22.99-2.13-.46-2.21l-.37-6.41.97.78.42-.79c1.73,1.27,1.29-2,.56-1.55l-.78.78c0-.61-.21-1.29.38-1.75.18-.14,1.22.66.78-.75-.05-.17-.49-.19-.62-.39-.47-.73.05-1.2-1.62-1.29-5.41-.31-15.97,5.6-19.06,10.03-1.41,2.03-.38,4.91-4.09,2.95-1.49-1.51.88-4.3,1.95-5.49,3.48-3.85,9.34-8.33,14.45-9.77,2.87-.81,8.04-.06,9.4-2.51l.78.19-.4,1.36h1.56c-.44-4.02-2-7.25-3.98-10.66-2.4-4.15-3.12-5.1-6.84-7.81ZM50.45,17.78l-1.95-2.73c-.17.57,1.33,3.35,1.95,2.73ZM52.4,20.9c.16-.58-1.3-3.35-1.95-2.73l1.95,2.73ZM50.45,31.84h-1.17v.78h1.17v-.78ZM41.07,34.18c-1.12-.16-2.37.26-2.34,1.56.28.28,2.23-1.06,2.34-1.56ZM55.53,34.18l-1.32.05-.57.6-.45,7.95c.9.19.63-.1.88-.5,1.34-2.12,1.53-5.64,1.46-8.09ZM50.84,40.82c-1.61-.36-.37,3.33.39,3.51l-.39-3.51Z"/>
    <path d="M89.52.21c-.96,2.6,1.69.99,1.93,1.17.23,1.55,1.6,2.41,2.26,3.81s.48,3.25,1.67,3.82l-.08.9c-2.71.67,2.07,6.42-1.87,6.14-2.03-2.84-.33-6.43-1.47-9.85-1.87-5.58-7.28-3.57-11.41-1.88-3.64,1.49-6.61,4.05-10.17,5.65-.13-2.23,2.57-1.93,3.68-2.76.56-.42,1.7-1.99,2.84-2.7.83-.52,2.56-.43,2.46-1.95l-2.08.37-.64,1.18-.41-1.33,3.92-1.8.2,1.56c2.69-2.04,5.89-2.64,9.19-2.34Z"/>
    <path d="M72.58,18.61c1.98-.66,5.72,1.28,3.83,3.44-2.45,2.8-6.39-2.59-3.83-3.44Z"/>
    <path d="M92.21,24.37c-2.87,1.09-5.81-3.56-2.11-3.89,2.94-.26,2.82,1.67,2.11,3.89Z"/>
    <path d="M66.86,12.7c-.14,1.89-1.87,1.88-2.38,2.5-.39.49-.32,1.38-.73,2.01-.55.85-2.88,2.01-3.53,3.3-.15-2.93.93-2.35,2.16-3.5.49-.46,3.77-4.97,4.48-4.3Z"/>
    <path d="M87.95,8.41c-.06,2.01-2.6.42-3.9,1.17-.19-1.21.31-.62.98-.76.46-.1,2.78-.52,2.93-.4Z"/>
    <path d="M72.33,5.28l-.97,2.34c-1.24-1.3-.67-2.34.97-2.34Z"/>
    <path d="M45.76,56.44c.4.41-.78,1.57-1.17,1.17s.78-1.57,1.17-1.17Z"/>
    <path d="M23.57,19.27c-1.9-3.25,8.96-4.61,4.78.04-.72.8-1.46,1.38-2.61,1.14-.23-.05-2.11-1.07-2.17-1.18Z"/>
    <path d="M35.11,15.5c2.53-.74,3.7,2.81,2.48,3.66-2.14,1.5-5.87-2.67-2.48-3.66Z"/>
  </g>
</svg>