<?xml version="1.0" encoding="UTF-8"?>
<svg id="Lag_2" data-name="Lag 2" xmlns="http://www.w3.org/2000/svg" viewBox="0 0 18.65 22.95">
  <g id="Lag_1-2" data-name="Lag 1">
    <path d="M18.33,13.32c1.22,1.2-1.37,5.25-2.26,6.33-3.77,4.63-10.16,4.38-13.35-.7-1.24-1.97-3.63-7.77.5-7.13.56,6.05,5.75,11.73,10.72,5.31,1.04-1.35,1.36-2.93,2.53-4.13.53-.29,1.44-.08,1.85.32Z"/>
    <path d="M8.12,0l2.88.14c2.1,3.09-.42,3.81-3.14,2.75-.63-.44-.66-2.59.26-2.89Z"/>
    <path d="M.12,2.74c1.43-.8,2.97-.43,3.79.99.54,1.85-1.91,2.56-3.24,1.65C-.19,4.83-.03,3.64.12,2.74Z"/>
  </g>
</svg>