<?xml version="1.0" encoding="UTF-8"?>
<svg id="Lag_2" data-name="Lag 2" xmlns="http://www.w3.org/2000/svg" viewBox="0 0 535.93 783.67">
  <defs>
    <style>
      .cls-1 {
        fill: #fff;
      }
    </style>
  </defs>
  <g id="Lag_1-2" data-name="Lag 1">
    <path d="M510.87,384.99c-.04.26-.63,1.85-1.29,1.61v-2.59s-2.18-.02-2.18-.02c-2.73,2.28.49,5.35.28,6.79-.05.35-1.26.27-1.32.74s-.07,5.44-.01,5.72c.29,1.6,2.71,2.57-.01,3.26v1.3s1.32.64,1.32.64c.25.69-2.61,2.15-1.3,3.55.59.63,2.82-.74,3.22-1.62.45-1.24-1.32-.84-1.31-1.29.02-1.01,1-1.37,1.21-2.1.25-.9-1.21-4.77.43-4.67.96.06.95,2.14,1,2.87.24,3.43.04,6.91.6,10.33l-1.27,1.65c.14-1.05-2.99-5.52-3.88-4.52l.09,5.07c1.52.82,2.87.96,4.42.1l.65,27.15c-1.71.12-2.54-.9-3.22-2.26l1.94-.32-2.55-4.93,1.25-2.17h-2.58c1.3,2.24-.65,4.6-.65,5.49s1.59,1.93.88,3.4c1.21.18.94,1.6,1.22,1.89.76.78,2.32.54,3.08,1.17.99.82.52,12.05.61,14.26,2.67,64.76,12.22,127.72,18.76,191.97,1.96,19.23,6.24,48.41,3.04,67.06-1.15,6.7-6.08,12.54-.44,18.92-1.4,1.27-2.85,2.23-4.89,2.16-2.48-.09-3.93-1.96-6.11-2.47l.55,15.11-2.04,18.09c-.33,1.29-3.43,3.76-4.97,3.65-.62-.69,1.79-15.93,1.93-18.43,1.15-20.89-.66-49.34-2.58-70.45-.22-2.36-2.3-6.67.03-7.12-2.18-2.45-.28-2.95-.25-3.87.01-.37-1.04-1.3-1.11-2.6s-.12-7.69.05-8.3c.18-.67,1.55-.21,1.29-.73-.76-.27-1.84-6.02-1.81-6.36.07-.78,1.12-1.51,1.03-2.58-.14-1.69-2.2-6.97-2.34-8.62-.09-1.11,2.72-3.49-.12-5.72l1.34-.67c-1.54-4.44-1.37-9.28-.69-13.87l-1.28.66c.01-1.8-.66-3.02,1.29-3.56l-1.28-1.61,1.29-.3c-1.82-1.68.15-4.1-1.94-4.54l1.3-1.97c-3.16-1.38-.95-5.43-1.29-7.69-.22-1.49-1.91-1.73-.64-3.79.27-.44,1.3-.43,1.31-.83.03-1.23-1.66-3.79-1.84-5.25,4.51-5.04-2.36-2.92-.99-6.5.44-1.13,2.05-.34,1.5-2.1-2.24,1.03-2.91-1.69-.61-2.27l-1.96-3.23,3.22-2.26-1.97-.45c.76-1.89-1.05-2.14-1.2-2.57-.8-2.39,2.54-5.79-.71-8.32l1.34-.72c-.96-2.05.85-4.66-1.37-5.1,2.47-3.3-1.07-3.92-.6-7.41l1.93-.34c-4.2-1.71-1.2-5.65-1.28-8.36-.01-.43-1.06-.4-1.31-.83-1.4-2.43,1.11-7.26,1.09-8.92-.01-.85-1.17-1.62-1.38-2.59-.64-2.95-.26-6.08-1-9.03l1.93-.37v-2.47s-2.56-.74-2.56-.74c.1-2.36,2.43-1.79,2.58-1.93.69-.65-4.54-6.17-2.51-8.36l1.86-.04v-1.92s-2.56-1.05-2.56-1.05c-.45-1.52,1.73-3.39,1.8-4.57.06-.97-2.08-2.85-.5-5.03l-2.61-1.33,1.28-1.92-1.93-1.95,2.89.98.99-2.26-1.27.32-1.31-6.46,1.92-.31c-3.17-4.32-3.06-6.77-.67-10.95l-2.55-2,1.29-.33-1.32-.97,1.35-3.22-1.34-.65c1.92-2.28-.12-4.08,1.96-6.12-2.76.07-2.86-6.31-.65-6.8l-1.86-1.25c1.53-2.84-.36-5.2,2.51-6.82-1.88-.15-2.87-1.66-2.63-3.5l2.64-1.36-1.18-.39.26-1.89-1.65-.66,1.27-3.21-1.29.33c.87-3.33,1.7-5.35-.64-8.41l2.57-.32c.29-1.09-1.27-.28-1.35-1.03-.07-.69.66-1.55.52-2.42-.1-.61-1.06-1.04-.97-1.93.07-.68,1.56-1.74.49-3.32l1.95-.35c.36-1.82-.65-1.23-1.93-1.3,1.26-2.22-.68-6.73-.5-7.97.16-1.07,2.14-2.16,1.78-3.66-.72.29-2.59.62-2.57-.64l1.91-.32c-.4-1.6-1.47-4.2.68-4.54l-1.94-2.26,2.57.33-3.23-2.93,1.9-6.68,1.98-.42-3.21-2.6v-.94s2.56-1.95,2.56-1.95l-1.93-.96c-.82-1.59,1.31-1.17,1.33-1.62.06-1.61-2.58-2.61-.04-4.83-3.08-.28-.81-1.94,1.29-1.31l-2.58-.64v-.96s1.34-.72,1.34-.72c-.84-2.88-1.6-4.67-.72-7.71.45-1.54.49-.98,1.95-.96.1-1.49-2.23.36-1.92-1.59.33-2.11,1.18-1.38,2.57-.99-1.86-1.45-4.21-4.58-.64-5.18l-1.29-2.56,1.92-.98-2.27-.9,1.57-8.2c-1.32-.51-1.41-.64-1.23-2.21h1.94c-1.58-1.52-.59-2.38-.69-4.09-.13-2.24-1.88-3.3,1.36-4.66-.75-2.33-2.79-4.91-.67-6.76l-1.29-.33c4.37-3.53-2.99-7.14,2.57-10.99-3.21-1.1-.78-3.41-1.93-6.14h1.94s-.96-5.51-.96-5.51c1.21-1.08.4-2.85.68-3.58.42-1.09,3.78-2.71-.37-2.56l1.33-4.81-1.33-1.32,1.93-.34.02-5.16-1.94-.64,1.33-.42c-.16-2.42-1.11-3.55,1.25-5.09l-1.94-.96c-.23-1.31,1.18-1.69,1.3-2.92.25-2.58-2.42-6,1.25-8.47l-1.26-2.83h1.95c-2.43-2.56-1.58-3.4-1.43-6.16.08-1.48.12-3.04.42-4.51.21-1.01,2.39-2.37-.29-2.27l1.29-2.25-1.29.32,1.26-17.72,1.97-.39c.71-2.49-2.31-2.11-2.31-4.18l.54-1.53,1.77-.11c.73-1.73-1.63-1.26-1.78-2.21-.06-.38.54-1.67.52-2.6-.09-4.48.27-8.05.57-12.32.13-1.92,1.75-3.44,1.34-5.5l-1.92-.31c1.51-1.42,1.81-5.89,2.3-6.84.65-1.27,3.31-1.02,1.88-2.56l-2.9,1.3,1.97-3.56-1.32-1.28c4.46-1.7.21-4.51.02-5.31-.35-1.49,0-5.58,1.08-6.69,1.72-1.76,4.05-.07,1.49-4.18-1.25-.96.12,1.35-1.61.98-1.83-.39,2.49-5.5,4.19-4.54.38-1.15-1.08-1.63-1.2-2.37-.19-1.15,3.02-3.09-1.37-5.71,1.1-1.03,2.24-1.83,1.92-3.55l-1.93.64c-1.07-3.56,6.75-4.99,1.33-7.8l-.04-.92,3.86-3.25-.1-.87c-1.66-.12-1.21-1.72-1.83-2.88-.21-.4-1.16-.36-1.28-.89-.36-1.62.25-3.91-.05-5.67l1.98-.35c.67-1.69-1.15-1.03-1.3-1.71-.69-2.95.56-11.05,5.19-9.93v-2.58s-3.23.64-3.23.64c.85-1.19-.4-2.52-.37-2.89.06-.75,1.21-1.78,1.4-2.89.27-1.6-1.47-3.49.88-3.29v-1.25s-1.29-.35-1.29-.35c1.49-2.24,1.51-3.57,1-6.18l2.89-1.58v-1.61c-.85-.15-2,1.64-1.95-.34.05-2.39.57-5.69,2.6-7.11l-1.32-1.32c1.52-15.51,3.21-31.42,3.87-47.16.33-7.8-.48-16.05.04-23.9.28-4.23-.06-8.27,4.83-8.39,7.6-.18,4.93,8.16,4.86,12.91-.34,22.2-3.72,43.98-5.81,65.94-4.29,45.05-7.63,90.02-13.3,134.89-.09.7-.56,3.93-.69,4.25-.42.97-1.56.69-1.53,1.15.05.95,1.31,1.78,1.39,3.85.5,12.53-2.8,29.51-3.34,42.66-.44,10.91.75,24.36-.57,34.97-.14,1.15-1.13.82-1.46,1.85-.4,1.23-.14,2.67-.53,3.92l1.94-.96-.65,7.75-1.93-2.58v8.4c2.95.46-.76-3.2,1.93-3.88v36.2c-1.95.46-.8-.4-.91-1.06-.4-2.43-.46-4.88-.38-7.34h-1.93c.32,4.65-.9,9.14-.08,13.92l-1.87.63,1.87.62c-.55.95-.01,1.79,1.04,1.64,1.85-.26-.32-3.8-.29-4.21.13-1.72,2.56.09,2.56.66,0,6.04.78,15.1,0,20.69ZM519.26,181.68c-1.2-.17-2.24,0-2.58,1.28,1.2.17,2.24,0,2.58-1.28ZM509.26,329.08l-.97,1.59.97.97.97-1.59-.97-.97ZM508.29,338.76c2.66-1.02,1.99-3.77,1.28-5.82-2.45.93-1.66,3.85-1.28,5.82ZM510.22,342.64l-1.6-3.23-.98,3.22h2.58ZM508.02,370.73c-.32-.21-1.5-1.12-1.66-.94-.49,1.31,1.07,2.3,1.17,3.04s-.89,1.37-.93,1.94c-.11,1.75.08,3.6.47,5.3,2.7.75,3.89-.95,1.22-2.19,2.5-1.16,1.53-5.93-.27-7.15ZM509.49,416.28l.08-2.53-3.19,2.41-.03,11.81h1.93c-.38-3.67,3.44-4.34,0-7.44l1.29-1.27-1.93-1.96c-.42-1.69,1.51-.62,1.85-1.02ZM509.58,441.56c-3.56-.36-4.4,4.74-1.6,6.45l.3-1.28,1.95-.02-1.85-3.54,1.2-1.61ZM510.22,452.55l-3.81,1.71.62,3.75-1.33.67c1.54,3.73,2.09.15,4.53.33v-1.28c-2.98.17.81-3.06,0-5.18ZM509.58,462.89l-2.51.07-.05,4.45,2.55.33c-1.85-.09-1.33,2.22-.32,2.25,1.71.04-.2-4.43,1.61-4.84l-1.58-.94.29-1.32ZM509.67,474.6c3.63-1.05.36-4.13-2.67-3.31,1.64,3.34-.03,4.36-.64,7.72l2.16.7,2.35-1.32-1.2-3.79ZM510.87,482.92l-2.26-2.57-1.61,1.61,3.87.95ZM510.77,484.97l-3.74,1.27c-.12,4.39.34,2.33,1.72,3.28.53.36.7,1.78.83,2.46l1.18-1.49-1.19-2.38,2.58-.99-1.38-2.15ZM512.16,493.92h-4.22s-.27,6.43-.27,6.43l5.14.02-1.94-1.62,1.3-4.83ZM512.8,504.26c-.21-2.73-2.46-2.95-4.48-1.86l-.03,8.32c3.59.31,3.41-3.24,3.87-5.8l-1.93-1.31,2.57.64ZM513.24,513.8c.66-1.11.35-2.97-.76-3.71-1.08,2.54-3.05,2.37-5.49,1.93,3.19,2.14,1.31,2.2,1.27,4.88-.05,3.22,1.16,8.17,2.58,1.86l3.25.37-1.96-4.84c0-.36.99-.29,1.1-.48ZM513.62,524.14c-.49-.79.09-2.37-1.14-3.05-5.55,3.19-3.57,8.13-3.15,13.35.34,4.26.26,2.49,1.34,5.8.37,1.15-.56,4.31-.46,5.69.76,10.51,1.17,20.74,2.02,31.64,3.65,46.82,7.5,93.12,9.22,140.24l1.04,10.12c.78-2.93,2.67-6.59,3.08-9.52,1.11-7.87.53-15.15.78-23.13.04-1.37,1.09-2.54,1.06-3.2s-1.59-2.86-1.64-3.94c-.01-.27,1.13-.21,1.25-.69.48-1.9-.5-3.34-1.94-4.44,2.41-.64.87-2.17.96-3.9.17-3.18-.37-3.46-.57-6.68-.17-2.72-.25-8.96,3.5-8.5-.88-1.64-.5-3.46-.97-5.19-.72-2.69-4.23-3.6-2.64-7.14l2.28-.62-.02-1.86-2.17-.75-.69,1.34c-2.43-.88-2.16-6.86,0-8.4l1.6,1.28c1.49-2.7-1.73-2.34-2.57-4.86-.44-1.31,0-.85.73-.66,1.88.49,2.97-1.73,1.84-3.53-3.06,3.95-7.3-7.65-2.58-7.75-.61,1.64-.33,3.9,1.94,3.87l-2.57-4.84c4.62-3.91-.83-3.81-2.01-6.44-.26-.58-1.61-5.33-1.66-5.86-.09-1.02.26-1.91.43-2.89l2.58.64c.44-2.45-3.17-4.67-3.24-4.97-.28-1.14.19-2.82.02-4.07.75-.87,3.63,3.66,4.51,1.3-4.12-3.12-6.95-4.88-5.85-10.64l1.98-.67-2.58-.32v-2.59s3.22.65,3.22.65c-.04-.8,1.05-5.14-.96-4.53-.76.23.22,1.53-.97,1.29.58-2.92-2.36-.97-2.47-4.22l1.16-.94c.14,2.82,2.7.86,3.92-.36l-2.3-3.52c-.6,1.89-.14,3.69-2.9,3.23l.31-3.89c.76-1.46,2.14,1.85,2.91-.32.08-.21-3.59-2.33-2.58-3.55.74-.89,2.89,3.47,3.22.33-1.58-.73-.97-2.94-1.3-3.58-.13-.26-4.67,1.24-3.86-2.58l2.58-.34-1.29-2.24,2.58.64v-3.87c-1.18-.25-.41,1.08-.65,1.29-.35.31-1.49-1.79-2.57-1.29l-.66,3.87-1.25-3.62.99-1.48,2.85.58c.08-2.58,1.01-4.16-.74-6.41l-3.77.58c.52-1.12.34-3.62.8-4.38.26-.42,1.67-.58,1.79-1.13.15-.7-1.07-1.44-1.08-1.92-.01-.52,1.58-1.71,1.07-2.91l-3.14-.74-.08-2.5,4.52,1.61c.27-2.32-2.55-2.59-3.56-4.2l-1.61,1.29.33-3.24,4.18,3.24c.52-2.62-2.32-4.83-4.53-5.49l.02-1.62c2.3,1.15,3.95-.77,4.47-2.92l-2.86-1.42-2.25,2.4c-.52-4.67.54-2.51,2.07-3.26.68-.33.76-1.8,2.45-1.27,0-.95-1.44-.93-1.77-1.45ZM522.49,594.13l-2.57-.66c-.19,1.25-1.4,3.34-.04,4.24l3.26.28-1.93-2.26,1.28-1.6ZM525.07,613.51c.17-1.21,0-2.24-1.28-2.58v2.58s1.28,0,1.28,0ZM528.3,643.9c-1.66-.17-2.15,1.11-1.93,2.58l1.92-1.3v-1.28Z"/>
    <path d="M512.66,27.31c.37.37,1.41,3.45,1.32,3.97-.53,2.99-5.5,1.07-7.27,1.03-2.68-.06-4.9.5-7.17.6-.25.01-.05-1.71-4.34-1.07-2.95.43-2.49.07-4.39.15-2.84.11-7.89,1.85-10.63,1.72-1.22-.05-.91-1.39-1.3-1.41-1.97-.13-2.86,2.61-3.19,2.61-.14,0-.75-1.1-1.79-1.13-1.79-.04-3.59,1.32-5.97.57-1.14-.36-1.03-1.36-1.34-1.38-1.05-.05-2.93,1.15-4.46,1.18-1.76.03-4.22-1.34-5.8-1.16-.94.11-1.53,1.14-2.49,1.14-1.27,0-3.7-1.44-4.64-2.44-.41,2.34-4.6,2.39-5.2.61-8.09,1.76-16.17-3.23-24.47-1.88l-.63-1.27c-1.06.72-8.93-.24-9.65-.67s-.39-1.3-.42-1.98l-4.51,1.29,1.29-3.23c-2.97,3.29-3.67,4.24-8.09,2.65l-.31-2.65-2.34,2.56c-1.25.36-2.11-1.23-3.14-1.25s-1.81,1.03-3.09,1.09c-1.7.08-7.76-.84-8.71-1.33-.39-.2.14-2.37-2.73.23v-2.59s-2.26,1.3-2.26,1.3l-.97-1.3-.34,1.94c-1.65-.81-3.54-.75-5.17-1.24-.93-.28-1.85-1.69-2.79-1.23-.61.3.24,1.58-3.66,1.16-2.05-.22-3.54-1.51-4.51-1.62-1.94-.21-4.75,1.51-6.47-.95l-1.35,1.95c-2.19.21-4.81-2.49-5.1-2.5-.4,0-1.73,1.82-3.24,1.8-1.06-.02-1.87-1.02-2.72-1.14-3.06-.43-5,.26-7.59.58-3.1.38-4.46-1.89-7.45-.69v-1.95c-5.22,3.71-12.2.26-18.08,1.29l1.29-2.57c-1.12-1.11-2.2,2.74-3.54,2.65s-2.06-1.12-3.22-1.26c-2.7-.33-6.44.41-9.33.22-1.69-.11-3.03-1.35-5.22-.33l-.66-3.88-1.62,3.22-2.25-1.29v1.94c-1.45.48-2.55-1.32-3.55-1.3-1.65.03-4.07,2.2-7.13-.64l-.62,1.32c-2.38-1.27-4.99-.68-7.41.61l-1.32-2.58c-1.92,2.05-4.32-.62-6.12,1.92l-.97-3.22c-2.01-.44-.81,1.07-1.71,1.98-3.32,3.35-4.32-.49-5.85-.6-2.08-.15-3.37,2.7-6.32-.73l-.33,1.94c-2.22-2.1-3.7,1.48-5.49-2.58l-1.29,2.58-1.29-1.94c-1.1-.29-1.76,1.71-2.57,1.76-1.92.13-7.15-4.2-8.41.17l-1.28-1.31-2.26,1.31-.08-1.84-3.48-1.4-.63,1.31-1.3-.02-.98-1.93h-1.27c-.94,6.48-7.04.26-10.72,2.53l-.28-1.23h-1.28c-.34,3.15-6.61.06-8.72-.69l-.63,1.33-3.57-1.3v1.95s-2.97-1.97-2.97-1.97l-3.49,1.32v-1.95c-2.01,1.86-4.42.49-5.97.79-.63.12-1.24,1.11-2.1,1.14-1.39.05-7.12-2.42-8.96-1.9-.73.21.02,2.18-3.96-.06l-.66,1.35c-1.31,0-3.28-2.78-5.18-1.38l-.31-1.88c-1.36.46-2.02,1.88-1.94,3.24-2.93-2.9-6.07-.57-8.09-.9-.82-.13-1.37-1.55-1.89-1.55-.32,0-1.07,1.07-1.97,1.16-1.56.15-3.73-1.95-3.55.63l-2.89-1.32-1.29,1.32-.99-1.93-1.22.08c-.3,2.89-5.52-.22-7.52-.74-1.69,0-2.91,2.54.2,3.03,20.98,3.31,43.89,7.63,65.05,8.66,17.58.86,35.37-.84,52.99-.07,14.65.63,29.85,3.55,44.64,4.5,33.56,2.17,66.85-.16,100.6-.56,4.14.68,3.78,3.64,3.59,7.08-.38.38-6.25-.28-7.28-.68-.75-.29-.08-1.84-1.76-1.25l-.33,1.28c-1.25-1.72-2.67-2.3-4.81-1.9l-.67,1.9-.95-2.47-4.56,1.84c-1.62-2.51-9.33-.32-12.23-.67-1.79-.21-2.38-2.59-4.85,0l-.34-1.32-2.59,1.33-1.27-1.29-2.61,1.97c-1.56-1.56-4.11-1.86-6.34-1.32-.5.12-.43,1.31-.78,1.32-1.01.03-2.76-1.57-4.48-1.65-3.26-.16-4.89,2.25-5.19,2.25s-1.2-1.81-2.6-1.94c-1.51-.14-3.46,1.3-5.27,1.13-5.22-.48-8.19-.32-13.45-.43-2.9-.06-7.74-1.95-9.98-.33-.68.49-.34,1.76-1.32,1.58l-.44-1.97c-2.86.12-3.6-3.63-5.06,1.34-1.99,0-3.65-2.65-3.89-2.63-.68.05-1.17.81-1.6.9-1.28.28-1.72-.97-2.24,1.08l-1.33-1.89c-1.28.25-2.52.77-3.86.66-.56-.04-3.48-3.22-4.49-.08-2.35-1.6-4.73-2.53-6.78,0v-2.59c-2.72,3.11-4.93-.23-6.77-.03-.35.04-.14,1.89-1.94,1.35-.44-.13-.5-1.29-1-1.63-.98-.67-16.96-1.47-19.67-1.47-.79,0-1.49.48-2.27.48l-.34-1.94c-.8-.14-5.38,1.82-6.41,1.87-1.79.09-4.51-2.07-5.2.72l-.71-1.35-2.84.7v-1.95c-1.68-.67-1.12,1.19-1.58,1.19-2.97.05-5.62.56-8.31.49-.49-.01-1.03-.89-1.94-.87-.68.02-3.91,1.69-4.53,1.65-.72-.05-1.65-1.03-2.75-1.17-5.95-.76-13.92.51-19.91,0-.44-.04-.29-1.2-.77-1.28-1.62-.25-6.65,1.72-6.07-.66l-.96,1.29c-1.64-2.59-6.11.98-7.15-1.96l-1.84.67-2-1.95-.59,1.22c-6.31-.59-12.66-2.54-18.86-3.6-5.34-.91-11.01-1.52-16.34-2.52-5.91-1.12-11.67-.8-17.73-1.62-17.31-2.35-36.88-4.16-54.47-4.95-5.52-.25-11.96.49-17.21-.22-4.38-.58-1.43-.06-4.74.61-1.64.33-5.92-.17-8.2.13s-3.3,1.85-6.47,1.24c-4.37-.84-2.14-6.45-4.21-7.42l-8.1.16C-1.13,5.94.44-.03,2.95,0c1.03.01,2.07,1.49,3.37,1.82,5.27,1.32,18.58,2.39,24.38,2.75,44.49,2.76,89.63,2.97,134.32,4.53,77.12,2.68,155.89,2.15,232.43,11.69,25.43,3.17,51.92,8.49,77.58,8.19,9.88-.12,19.84-2.19,29.68-2.48,1.8-.05,6.83-.31,7.95.82Z"/>
    <path d="M68.35,32.49l.48,1.79-10.64,14.52c-.12,3.76,12.25,9.33,12.25,10.36-4.25,5.27-15.7-4.2-18.39-.97-3.52,4.22-.32,14.13.25,19.15,1.06,9.35,1.14,18.15,4.62,27.04-4.45,88.39-13.53,175.98-22.63,263.79-1.97,18.97-3.67,37.82-5.8,56.9-.1.92-.61,16.72-2.58,14.54-.77-1.01.95-4.43-1.29-3.88-.76,1.01.95,4.44-1.29,3.88l.66-7.08c2.24.67,4.24-3.28,1.28-3.27l-.64,1.94-.03-2.26,1.85-.4.75-4.13-1.93,2.91c-2.4-1.17-.37-5.2,1.94-4.53.63-1.2-1.29-2.74-1.28-2.91.02-.52,1.64-.75,1.84-1.08.37-.61-.38-1.61-.26-2.15.22-.99,2.49-5.33-.3-3.55v-1.94s1.94,0,1.94,0c-1.21-3.22-3.54.3-3.27-2.93.21-2.45,1.44-1.75,2.01-2.68,1.34-2.16,1.28-5.06,1.25-7.31-.48-.46-3.83,2.1-3.22-.64l3.88-.66c-1.12-1.37.28-7.48,0-7.75-1.4-1.32-1.07,2.56-2.57.98l.64-2.93,2.57,1.29c.65-3.79,1.54-7.66-3.22-8.72.86-.73,1.06-2.7,1.9-3.22.41-.25,2.23.62,2.61-.68.73-2.47-6.97-3.41-1.29-5.48l.64,1.93c.94-2.14-1.18-2.66-1.27-3.03-1.02-4.18,2.97-1.68,2.56-6.01l-1.93.65c0-1.56-1.4-3.24.64-3.89l1.94,1.94c.36-2.64-.33-2.9-2.59-3.57l2.59-4.52c-2.04-.7-1.95-2.54-1.98-4.5,3.15-.45,3.82-4.03.69-5.2-.42-1.42,1.19-.9,1.62-1.58.56-.9.54-2.41.02-3.32l-1.63.05-.02-1.62,1.25-.61-.58-1.64h3.22c.37-1.81-.66-1.27-1.94-1.3,1.21-2.64-.41-6.98,2.6-8.08l-2.58-.32.13-7.36,1.79-1.04,1.94,3.23c.71-2.81-4.87-4.25-1.26-5.54l-.69-1.56,1.94-.64-2.52-.72c-.29-1.04-.1-2.03.54-2.9,1.82-2.45,3.47-.04,1.32-5.64l2.58-1.76-.39-1.28-2.79-.7-.04-1.89h3.24s0-1.94,0-1.94h-1.94s.67-1.56.67-1.56c-2.46-.86-1.36-3.65.67-1.87.48.42.34,1.93,1.9,1.49l-4.52-4.85c1.6-.78,2.82-3.08,1.94-4.84l2.57,1.93c1.74-5.42-.11-1.5-2.57-3.56l2.57-.32c.7-.83-1.62-6.02-1.79-6.92s1-1.85,1.07-3.06-1.25-4.98-1.08-5.43c.09-.26,3.56-3.08,4.41-3.01l-.02-1.62-1.54.55-1-.94c1.12-2.93-1.34-4.92-.68-8.01l3.53,1.29c1.99-2.59,1.63-4.99-1.95-3.45l-.96-1.41c2.5-.72.95-2.84.66-4.84l2.6-.98-.35-1.63-2.24.66,1.32-1.66-.68-1.56,3.22-.33-3.25-.63-.62-2.91,3.23,1.28v-2.58s-2.59,0-2.59,0l.66-3.88,2.57.65-2.58-6.46,3.87-.66c-.03-1.97-1.21-3.32-3.19-3.28l-.04-4.79,2.58.96-1.89-7.36,3.18-1.36-3.22-1.96c.83-2.25,1.43-6.07,1.58-8.61s-.66-10.86.36-12.59c.26-.44,1.35-.38,1.34-.78-.02-.92-1.05-1.74-1.15-2.64-.23-2.21.65-5.61-.19-7.99l3.23-.66-.31-1.27-1.63.32v-5.09s1.29-1.05,1.29-1.05l-1.34-.4c.33-1.88,1-3.87,1.03-5.78.04-2.64-.71-5.58-.3-8.99.3-2.55,2.4-3.09-.68-6.17h1.95c-.49-1.58-.93-2.5.64-3.57-2.53-.62-.59-3.18-.59-5.17.05-12.11,2.3-26.09-3.25-36.88l-1.36-28.06c-9.06.65-3.34-14.08-4.56-16.11-.15-.24-3.45-1.42-4.12-1.42-1.49,0-4.05,1.46-5.98,1.81-3.75.69-9.77,1.33-11.82-2.73-.03-3.09,9.58-4.9,11.98-4.91,3.11-.02,5.72,1.44,8.71.01-1.3-4.93-1.77-11.06-4.44-15.25.69-2.68,2.33-1.51,3.37-1.71.61-.12,1.11-.89,1.58-.98,3.07-.63,9.06,10.69,11.49,10.91,3.97.36,10.75-14.13,17.57-8.93ZM40.73,290.92v-.96s-1.93-1.62-1.93-1.62l.65,2.58h1.28Z"/>
    <path d="M433.51,730.99c-.31-.2.12-1.2-.45-1.11-.69.95-1.42,1.2-2.55,1.33-6.59.73-17.6.34-24.58.25-2.51-.03-5.1-.55-7.66-.27l-.74-1.32-.74,1.32-7.98-.02.64-2.58c-1.7-.58-1.11.93-1.39,1.11-.24.16-.92-.35-1.37-.23-.73.2-1.39,1.08-2,.99-.81-.12-1.47-2.28-3.3-1.88l-.33,1.93-2.86.05c-.57-.16.16-2.64-2.62-2.63l-.33,2.6h-5.17c-.24-1.38,2.58.16,1.93-1.61-.44-1.2-5.22-1.34-3.22,1.6-2.18.58-.76-1.64-1.62-1.94-1.72-.6.02,3.12-2.88,1.94l-.65-2.3-7.12.38,3.22.64c-.49,1.64-2.48,1.31-3.87,1.29l-.06-2.52-6.39-.07,1.93,2.58h-3.87s1.28-2.58,1.28-2.58l-3.87.64c-.57-.69,1.88-2.61-.32-2.59-.69,0,.08,1.44-.71,2.01-1.36.98-6.01,1.1-7.05-.71l-.42,1.18-2.12-.56c-.16,1.7-7.64,1.65-7.8-.01-1.99,1.78-3.29.27-3.84.3-.84.05-3.02,1.89-4.87,1.02-.41.38,1.01,3.23-1.28,2.59,1.44-.97-1.84-5.25-2.58-4.52l-.33,2.58-1.61-1.93.32,1.94c-1.7.4-2.92-3.5-2.59,0l-5.83.69-3.84-1.99.31,1.63-1.28.32-.32-1.94-.98,1.93h-1.28s.66-1.28.66-1.28c-1.83-.84-3.83,2.1-5.39,1.83-.68-.12-1.35-1.43-1.71-1.18-.06.04.19,1.13-.43,1.29-1.05.28-2.59-.17-3.75.04-.78-4.06-1.57-1.02-3.34-.12s-3.46.92-5.37.66l-.37-1.88c-1.56-.12-1.21,2.87-3.54,1.94l.32-1.94c-3.56,2.23-8.03.39-10.98,3.23l-.98-1.93c-1.98,1.64-5.25.92-7.72.64l-.02,1.95c-1.27.2-2.61-1.18-3.66-1.17-1.58,0-1.56.23-3.87.1-2.84-.15-5.86.06-4.09,3.64h-1.94s.51-1.16.51-1.16l-2.11-2.07c-2.25,1.01-2.57,2.09-2.28,4.52-1.08-.12-.79-1.45-1.95-2.23-4.21-2.84-3.79,1.43-7.49,1.6-1.3.06-.54-1.87-2.51-1.32-.24.07-.3,1.31-.68,1.33-1.28.07-4.3-1.53-5.7-1.36-.59.07-.07,2.13-1.68,1.33l-.32-1.28-2.9,3.22-.39-1.35-1.93.67-.6-1.27-3.22,2.43c-1.64-1.97-3.32.68-3.87-1.77-3.3,2.89-8.5.14-11.66,1.57-.95.43-.78,1.41-1.02,1.58-.15.11-1.41-.6-2.19-.59-.82,0-1.57.58-1.97.58-.32,0-.26-.95-.77-1.15-4.27-1.75-2.78.26-4.48,1.12-1.78.9-3.89-.76-4.4,1.42l-.97-2.59-5.87,1.59.06,1.63-1.62.02c-.41-.99-.2-1.61-1.6-1.3l-.98,1.92c-1.66-2.78-3.48-.27-4.52-3.21-1.05,1.84-6.93,5.87-6.24,2.1-1.38-1.41-2.49.51-3.33.38-.78-.12-1.16-1.57-2.37-1.19v2.58c-1.86-1.82-3.78-.2-5.81-1.94v2.59c-1.63-.76-3.55-2.54-5.41-2.56-4.26-.04-2.12,2.08-3.97,4.49l-.64-3.88c-1.01,2.83-5.45.04-8.06,1.95l-.97-1.94-1.63,3.22-2.94-1.91-.95,1.25c-1.48-1.12-2.43-1.84-4.23-.69l-.28-1.23c-.96-.23-.48.85-1.09,1.28-2.47,1.73-1.93-.5-2.57-.65-2.28-.52-8.71,1.05-9.58,3.88l-.61-2.61-1.34-.67c-1.18.1-3.38,1.51-4.51,1.21-.4-.11-.23-1.06-.71-1.14-1.72-.26-5.34.23-6.39,1.91l-.72-1.34c-2.17,1.32-3.93-.47-4.97-.46-1.25,0-3.01,1.58-3.99,1.56-1.33-.03-5.16-2.52-5.82.25h-.96s0-1.3,0-1.3l-2.25,1.31-.67-1.36c-2.21,1.28-4.19.85-6.51,1.21s-2.17,1.75-5.41.13l-.6,2.96c-3.43.28-7.34.39-7.15,4.8l3.87,1.29c-1.38.32-10-.8-10.33-1.3-1.69-2.6,4.26-2.92,4.9-3.84.86-1.24-1.54-3.65.54-5.25,1.21-.94,4.99-.96,6.82-1.58,4.09-1.37,7.98-4.97,11.96-5.49,1.45-.19,1.63-.01.16.81-1.88,1.05-3.63,2.32-5.62,3.14l1.06,1.91c6.84-.24,13.74.24,20.57,0,52.05-1.79,106.16-7.49,157.49-13.65,57.74-6.94,116.65-8.44,175.03-7.09,26.29-.47,52.66,2.55,78.74-1.72,3.23.36,4.77,6.89.67,8.17-3.69,1.15-13.77,1.81-18,2.02-9.28.45-19.15.23-28.42-.07-2.19-.07-13.81-.39-14.41-.79Z"/>
    <path d="M14.9,546.29l.33,2.58c.62-.78.57-3.49,2.27-2.25-.56,3.39-1.12,7.59-1.29,10.99-2.46,48.75-5.02,97.39.03,146.14.02,2.93-3.68,3.35-5.89,2.59-1.55-1.09-.15-9.4-.2-11.57-.18-7.74-1.61-16.44-1.56-24.03.01-1.98.43-3.07,2.45-3.22-.14-.95-2.57-3.14-2.6-3.35-.26-1.93,1.4-1.92-.68-3.72,1.31-2.07.1-5.07.31-6.55.11-.76,1.57-1.24,1.7-2.56.2-2.11-2.2-3.11,1.27-4.52-2.18-.62-1.4-2.21-1.98-3.71-.22-.56-1.26-.53-1.27-.86-.03-.84.93-1.93,1.05-2.82.29-2.17-1.02-3.05,1.56-5.2-4.43.4-1.36-4.78,1.29-3.24l-.37-2-2.89-.99c.45-1.12-.04-6.97.15-7.27.36-.58,1.9.29,1.89-3.03,0-2.73-3.04-1.15-1.29-4.95.59-1.28,1.63-2.55,1.88-4.71s-1.63.12-1.95-.33l1.04-3.21,2.18.62c.42-1.98-1.51-.75-1.61-2.87-.16-3.62,1.98-5.01,2.27-7.15.15-1.17-.7-1.42-1.29-.96-.19.15.56,1.89-1.29,1.28-.14-1.76,1.7-5.85,1.25-7.34-.1-.32-2.79-.91-.27-3.68.72-.79,2.87.07,2.73-4.21l-2.47-1.3.04-2.22,1.93.64v-1.94s-1.28.65-1.28.65c-1.12-4.06-.21-7.06.64-10.99l-2.59-.33,4.35-3.87c.2-1.37-1.86-1.85-2.07-2.23-.33-.61.77-2.63-.87-3.6l3.11-1.61c.51-1.72-.91-.98-1.26-1.76-.52-1.15-.56-6.99,1.26-5.34Z"/>
    <path d="M36.22,741.52c-.21,7.12-9.76-.53-11.57.7-1.5,4.26.25,9.3.64,13.75-.15.79-2.85,1.1-3.61,1.1-1.45,0-.72-.17-.99-.99-.9-2.75-.41-6.03-1.34-8.86-.1-.29-3.27-4.83-3.51-5.01-4.1-2.98-9.75,5.28-12.61,1.63-4.72-6.01,9.03-5.28,9.74-6.21-2.78-2.28-1.75-5.68-2.32-7.77-.32-1.17-2.78-2.37-.58-3.85l8.38,8.89c4.14-.46,5.88-11.63,9.68-10.83,2.93.61-2.78,7.98-3.23,9.68-.32,1.21-.63,2.97-.22,4.14.58,1.67,9.51,3.72,11.54,3.65ZM20.71,742.8l-.96-2.58-.96.96.63,1.62h1.28Z"/>
    <path d="M30.4,81.47l-2.3,12.95c.98,4.06,12.44,4.44,8.45,7.74s-5.2.6-9.27.09c-1.84,3.43-1.3,7.07-4.95,9.6-.25-2.44-1.31-10.62-3.98-11.53-3.5-1.19-11.19.32-14.42,2.48-.62-7.18,8.3-4.79,11.95-9.02.51-1.98-2.12-3.43-2.28-4.89-.19-1.7,1.11-5.28,3.27-3.9.97.62,2.45,5.87,4.12,5.5,2.39-1.05,5.55-8.1,6.97-8.88.7-.38,1.66-.08,2.44-.14ZM26.53,89.23c-1.8-.03-3.23,1.33-3.72,2.92.63,1.23,1.68,1.81,3.08,1.61l.65-4.53ZM22.66,95.04c-.08,1.35-.25,2.42.96,3.22l.97-1.59-1.93-1.62Z"/>
    <path d="M492.79,765.43c3.55,1.41,13.45.38,12.78,5.98-.58,4.91-8.85-2.03-12.14-.81l.65-1.28c-2.39-1.59-4.07,5.36-4.36,6.95-.44,2.39.18,4.92-.82,7.27-1.29.92-3.09-3.25-3.21-4.26-.37-3.17,2.09-6.44.62-9.96-1.06,1.04-5.17,4.81-6.2,5.01-2.85.55-8.12-1.48-7.31-5.25.91-2.78,10.12-.31,11.93-4.3,1.48-3.25-5.32-4.62-4.86-7.74l5.8,4.53v-4.84c3.79-1.64,2.23,4.15,5.17,4.2.12-2.39,1.2-4.86,3.01-6.38,3.73-1.25,3.88,4.65,1.89,7.09-1.08,1.33-3.56,1.35-2.96,3.81Z"/>
    <path d="M27.17,440.26c.22,1.05-.59,2.05-.59,2.97-.05,28.89-7.2,58.18-7.21,87.15-1.36,2.25-1.46,12.93-2.54,13.95-1.37,1.3-1.02-1.62-1.92-1.29l-1.29,1.93.09-3.14,2.47-1.06c-1.08-1.44-3.39.49-3.21-2.26l2.9.04.97-6.51-1.93.65.65-1.54c-1.74-.89-2.05-3.12-2.59-4.91h4.52s0-5.83,0-5.83c-1.33,1.05-1.34-.4-2.57-.96,1.84-1.09.48-3.38,1.11-4.7.4-.84,5.1-3.91,1.46-4.03l-.64,1.28-.19-2.42c.62-1.56,3.46-.88,3.45-3.71l-1.35-.66,1.23-2.84-1.19-.08c1.05-1.33,1.13-1.57.62-3.21l-1.93,1.29c-.52-3.62,1.64-3.53,3.23-6.13l-2.17.27-1.08-1.57c2.14-.59,1.19-2.29,1.3-4.21h2.59s-1.94-1.3-1.94-1.3c-.25-1.05,2.36-.31,1.28-1.93-.05-.08-1.47.84-1.92-.32l3.22-3.54-2.57-2.25c-.03-3.44,7.52-6.41,1.27-11,.09-1.01,3.27-3.12,3.87-4.55.77-1.84-1.84-.22-1.92-.3l-1.02-5.24,2.31-.6-1.93-2.24,3.21-4.86-3.21,1.62c-.02-3.09,2.68-3.14,3.21-5.49-.12-.18-4.55-1.33-3.22-2.6l2.57,1.29c.63-1.7-1.16-1.06-1.29-1.72-.18-.87.08-1.9.01-2.81,1.78,1.22,2.19-.58,3.87-.64ZM24.59,459.01h-1.93c.01,2.37,1.92,2.37,1.93,0Z"/>
    <path d="M489.56,738.92l4.39-2.21c3.01,1.08,9.52-.16,11.33,1.66s1.41,3.03-1.12,3.12l-14.61-2.57Z"/>
    <path d="M480.52,736.35l-.48.97,1.45.95c.61.02.53-4.82,1.98.01h2.49s1.65-1.94,1.65-1.94l1.3,2.57h-13.56c-.85-2.43,3.67-.36,3.86-.64,1.12-1.57-1.56-.91-1.28-1.93h2.58Z"/>
    <path d="M67.21,755.74c.17.86-1.2,1.06-1.78,1.12-3.7.38-7.42-.48-11.13-.48-.31-2.51,1.05-.64,1.61-.64h11.3Z"/>
    <path d="M510.87,387.9c-.91,1.68-.11,3.43-.13,5-.03,2.57-.5,1.56-2.32.51.6-1.49-.34-5.55,2.45-5.51Z"/>
    <path d="M331.34,731.17c-1.09-.33-4.19.8-4.52-.63,1.57.25,3.77-1.55,4.52.63Z"/>
    <polygon points="474.06 739.57 470.19 738.94 473.41 737.64 474.06 739.57"/>
    <polygon points="18.05 505.63 18.13 507.49 16.28 506.77 16.2 504.91 18.05 505.63"/>
    <rect x="275.16" y="733.12" width="4.51" height=".63"/>
    <path class="cls-1" d="M519.26,181.68c-.35,1.28-1.38,1.45-2.58,1.28.35-1.28,1.38-1.45,2.58-1.28Z"/>
    <polygon class="cls-1" points="40.73 290.92 39.45 290.92 38.8 288.34 40.73 289.96 40.73 290.92"/>
    <polygon class="cls-1" points="20.71 742.8 19.43 742.8 18.8 741.19 19.75 740.23 20.71 742.8"/>
    <path class="cls-1" d="M24.59,459.01c-.01,2.37-1.92,2.37-1.93,0h1.93Z"/>
    <path d="M527.01,660.71v1.93c-.8.87-3.99-2.62,0-1.93Z"/>
  </g>
</svg>