<?xml version="1.0" encoding="UTF-8"?>
<svg id="Lag_2" data-name="Lag 2" xmlns="http://www.w3.org/2000/svg" viewBox="0 0 100.36 112.79">
  <g id="Lag_1-2" data-name="Lag 1">
    <path d="M41.12,37.57c-1.04.8-4.79,3.38-4.87,4.35l5.07,17.55c-.43,2.07-2.4,3.28-4.26,1.94-.68-.49-.92-1.42-1.55-1.96-1.71-1.47-7.9-5.6-9.96-5.26l-11.34,10.17c-1.97,1.2-4.17.97-4.8-1.47-.94-3.69,1.87-8.54,3-12.02C8.75,48.72.25,49.28,0,43.73c-.11-2.47,6.6-4.43,8.59-4.89,2.3-.54,4.51-.54,6.79-1.02.17-2.86.92-5.61,1.34-8.43.36-2.45.35-5.8.79-8.19.26-1.39,1.84-2.54,3.23-1.69,2.35,1.44,2.39,11.01,5.22,13.17,4.6-1.38,10.35-1.91,15.17-1.53,1.36.11,6.21.72,4.71,3.12-.15.24-3.94,2.68-4.74,3.29ZM20.63,30.37c-.54-.1-.94.13-1.1.66-.34,1.12-.74,4.82-.87,6.2-.12,1.25.91,3.65-.76,4.67-.94.57-1.98-.11-2.87-.05-3.13.21-6.24.99-9.25,1.81-.58.78,1.57,1.55,2.02,1.68,1.4.41,9.3,1.53,9.62,1.9,1.22,1.41-.5,3.17-.9,4.22-.36.94-2.27,5.71-1.75,6.25.61.11.9-.06,1.38-.37.7-.46,3.13-2.77,3.9-3.52,1.02-.98,2.33-3.27,3.48-3.94,3.32-1.92,10.5,4.52,11.55,3.53-.6-3.02-1.34-6.03-2.72-8.8-.34-.68-1.19-1.32-1.39-1.77-1.35-3.12,6.12-5.25,7.23-7.59-.37-1.75-7.72.2-9.09.67-1.54.52-2.66,2-4.69,1.4-1.86-.55-3.29-5.21-3.8-6.95Z"/>
    <path d="M77.29,33.11c-.08-1.55.06-3.14,0-4.69-1.24.36-2.71-.44-3.73-.41-.85.02-1.36.69-2.3.82-1.74.25-9.64.23-10.66-.9-.46-.51-.68-1.66-.32-2.25.33-.54,7.8-2.78,9.19-3.32,1.06-.41,8-3.21,8.22-3.61,1.79-3.18-4.71-8.52-5.76-11.72-.54-1.65-.39-6.78,1.7-7.01,4.19-.45,5.85,5.39,6.66,8.41.76,2.82.13,6.15,3.11,7.82,3.36-1.12,6.22-3.18,9.9-3.26l3.91-4.71,1.17.62v-1.18c1.02-.14,1.78.39,1.97,1.39.07.81-2.47,4.19-3.15,5.04-.87,1.1-1.78,1.96-2.72,3.12-.79.99-4.24,4.66-4.32,5.5-.3,2.93,10.71,6.37,5,8.86-2.34,1.02-3.25-1.65-4.95-2.66-.97-.58-3.33-1.38-4.33-.76-.26.16-2.61,4.59-2.93,5.27-.53,1.12-1.71,3.62-1.95,4.69-.37,1.68.14,3.53-.48,4.98-.95,2.22-3.86,1.94-4.8-.09.75-1.86.33-8.92,1.58-9.96.03.52-.02,1.04,0,1.56h.78s0-1.95,0-1.95c-.03-.05-.68.31-.78.39ZM92.13,17.1c-2.36-.14-1.88,2.34,0,.58v-.58ZM88.95,21.32c.07-.04.74-1.27.76-1.38.41-2.04-3.77-1.4-3.82-.69.45.74,2.37,2.49,3.05,2.07ZM82.17,20.7c-1.84.14-.63,4.05,1.12,4.18l1.37-1.66c-.06-.72-1.83-2.57-2.49-2.52ZM79.24,22.56c-5.77-.3-7.44,3.59-.39,1.78l.39-1.78ZM81.98,29.98c.98.1,1.32-.62,1.17-1.56l-1.16.98v.58Z"/>
    <path d="M64.79,95.2c-.56-1.81-1.6-3.38-1.93-5.3-2.77-1.5-6.8,3.72-8.84,1.42-3.94-4.45,6.88-4.92,7.27-7.26.3-1.85-1.93-9.58-2.56-11.9-.42-1.55-2.86-5.87.02-6.26,3.18-.43,2.35,2.69,3.47,4.33.32.47,2.27,2.19,2.87,2.71.77.66,5.93,4.43,6.51,4.29,2.27-1.82,1.53-9.44,3.34-10.37.71-.36,3.07.96,3.1,1.96-1.21,2.02-1.13,5.55-2.02,7.37-.36.74-1.58.5-1.01,1.76,3.08,3.06,10.22-.57,11.58,4.11-1.5,2.84-4.81,1.2-7.09,2.3-.81.39-2.57,2.64-3.21,3.42-.82.21-.96-1.35-1.59-1.5-.77-.18-3.31,1.07-4.46.72v2.34s.6-.8.6-.8l1.35.42.78-1.56-1.17,24.01c-.3,1.67-3,1.63-4.23.91l-3.59-16.91c-.03-.34.49-.21.79-.2.32,1.02-.35,1.86,1.56,2.34l-.17-1.98c-.29-.44-.92-.35-1.39-.37ZM59.7,68.64c-.12-2.85-3.12-2.36-.58,0h.58ZM74.95,69.81c.57.13.82-.17,1.17-.59l-.98-1.36-.19,1.95ZM64.21,76.85c-1.48.3.51,5.74,1.37,6.46.72.45,5.45-.92,5.45-1.58-.66-.85-6.41-4.96-6.82-4.88ZM62.83,81.53c.1-.73,0-1.35-.77-1.56-.1.73,0,1.35.77,1.56ZM69.08,95.2c.11.77-.48,1.83.78,1.56l.39-1.95c-.58-.2-.84.3-1.17.39-.42-2.85-.2-5.06.78-7.81-6.07-.52-4.18,1.05-2.91,5.06.54,1.69-.37,3.39,2.13,2.75ZM65.56,92.86h-.78s.39,1.56.39,1.56h.38s0-1.56,0-1.56ZM71.03,99.11c.72-1.65-.6-3.52-.38-1.18h-1.57s0,1.18,0,1.18h1.95ZM67.13,99.88c.4-.39-.76-1.57-1.17-1.17s.76,1.57,1.17,1.17Z"/>
  </g>
</svg>