<?xml version="1.0" encoding="UTF-8"?>
<svg id="Lag_2" data-name="Lag 2" xmlns="http://www.w3.org/2000/svg" viewBox="0 0 46.14 45.84">
  <g id="Lag_1-2" data-name="Lag 1">
    <path d="M41.12,18.34c-1.04.8-4.79,3.38-4.87,4.35l5.07,17.55c-.43,2.07-2.4,3.28-4.26,1.94-.68-.49-.92-1.42-1.55-1.96-1.71-1.47-7.9-5.6-9.96-5.26l-11.34,10.17c-1.97,1.2-4.17.97-4.8-1.47-.94-3.69,1.87-8.54,3-12.02C8.75,29.5.25,30.05,0,24.51c-.11-2.47,6.6-4.43,8.59-4.89,2.3-.54,4.51-.54,6.79-1.02.17-2.86.92-5.61,1.34-8.43.36-2.45.35-5.8.79-8.19.26-1.39,1.84-2.54,3.23-1.69,2.35,1.44,2.39,11.01,5.22,13.17,4.6-1.38,10.35-1.91,15.17-1.53,1.36.11,6.21.72,4.71,3.12-.15.24-3.94,2.68-4.74,3.29ZM20.63,11.15c-.54-.1-.94.13-1.1.66-.34,1.12-.74,4.82-.87,6.2-.12,1.25.91,3.65-.76,4.67-.94.57-1.98-.11-2.87-.05-3.13.21-6.24.99-9.25,1.81-.58.78,1.57,1.55,2.02,1.68,1.4.41,9.3,1.53,9.62,1.9,1.22,1.41-.5,3.17-.9,4.22-.36.94-2.27,5.71-1.75,6.25.61.11.9-.06,1.38-.37.7-.46,3.13-2.77,3.9-3.52,1.02-.98,2.33-3.27,3.48-3.94,3.32-1.92,10.5,4.52,11.55,3.53-.6-3.02-1.34-6.03-2.72-8.8-.34-.68-1.19-1.32-1.39-1.77-1.35-3.12,6.12-5.25,7.23-7.59-.37-1.75-7.72.2-9.09.67-1.54.52-2.66,2-4.69,1.4-1.86-.55-3.29-5.21-3.8-6.95Z"/>
  </g>
</svg>