<?xml version="1.0" encoding="UTF-8"?>
<svg id="Lag_2" data-name="Lag 2" xmlns="http://www.w3.org/2000/svg" viewBox="0 0 77.09 68.89">
  <g id="Lag_1-2" data-name="Lag 1">
    <path d="M76.9,26.68c1.35,2.34-5.12,3.65-6.64,4.35-4.04,1.85-8.05,4.42-12.05,6.39-.3,1.92.56,3.59.79,5.4.7,5.52,1.11,14.92,2.76,19.89.32.97,1.84,3.15,1.88,3.61.03.29-1.15,1.96-1.39,2.1-3.05,1.82-5.02-2.01-6.96-3.53-3.67-2.89-8.63-4.64-12.71-6.83-1.71-.91-5.34-3.87-6.86-4.1-2.75-.41-9.31,4.38-12.19,5.74-1.83.87-6.52,2.95-8.28,3.43-1.49.41-3.98-.12-3.91-1.91.04-1.16,1.75-7.81,2.22-9.16.73-2.11,2.81-4.81,3.94-6.98.83-1.6,4.28-7.92,3.93-9.21-.55-2.04-11.19-6.38-13.43-7.69C6.66,27.4.01,22.6,0,21.34c0-1.18,2.73-2.02,3.71-2.16,4.69-.66,14.64-1.72,19.13-1.52,2.62.12,1.94,2.68,4.92-.61,2.78-3.06,6.6-8.61,8.91-12.18,1.49-2.3,1.34-5.12,4.57-4.85,1.48.12,1.88,1.18,2.27,2.45.99,3.25,1.81,15.89,4.34,17.53,1.27.82,5.58.2,7.44.37,5.21.47,10.86,3.94,16.12,4.98,2.05.41,3.69-.46,5.49,1.34ZM67.99,27.78c-3.89-.68-7.74-3.28-11.63-3.81-3.05-.42-5.96.56-8.5.3-.65-.07-3.52-1.19-3.93-1.55-.28-.25-1.75-5.04-1.95-5.86-.35-1.45-1.44-10.1-2.32-10.16-1.05.57-1.77,1.26-2.48,2.2-2.54,3.37-5.09,8.78-7.71,11.82-.25.29-2.73,2.35-3,2.47-2.77,1.2-3.06-1.19-3.99-1.3-4.41-.52-9.45.65-13.88.81-.97.92,3.01,3.15,3.7,3.52,2.28,1.22,4.82,1.85,7.12,3.04,2.43,1.25,5.04,3.38,7.57,4.63-.15.71-.25,1.51-.53,2.18-2.16,5.29-5.82,10.69-8.11,15.71-.51,1.11-2.44,6.6-.57,6.75l17.58-9.3c2.08.08,3.44,2.02,4.92,2.93,2.99,1.83,6.05,3.39,9.11,4.96,2.23,1.15,4.34,2.52,6.69,3.46.99-.06-.13-4.01-.19-4.88-.32-4.81-.61-9.12-1.75-13.87-.54-2.26-2.91-5.26-.58-6.8,4.61-1.93,9.79-3.52,13.93-6.37.34-.24.72.06.51-.87Z"/>
  </g>
</svg>