<?xml version="1.0" encoding="UTF-8"?>
<svg id="Lag_2" data-name="Lag 2" xmlns="http://www.w3.org/2000/svg" viewBox="0 0 13.82 686.05">
  <defs>

  </defs>
  <g id="Lag_1-2" data-name="Lag 1" fill="currentColor">
    <path fill="currentColor" d="M4.27,61.84c.08.06.14,1.12.97,1.73,1.8,1.33,5.47,2.13,5.09,4.93-2.15-1.17-3.89,1.52-6.05,1.82.28,1.65,2.21.23,2.75,1.15.6,1.02.05,2.67.4,3.87.3,1.01,1.57,1.43,1.98,2.28.35.72-.34,2.07.93,2.69h-3.03c.3,1.66,1.5.25.86,2.74l1.56.6c.45,2.38-1.48.22-1.81.6-1.03,1.15,1.12,1.18,1.21,1.6.34,1.5.25,2.55-1.22,2.94l2.35,2.33c-.04,1.33-1.75,1.7-1.76,1.97-.04,2.11,3.5,8.7-2.41,6.92-.87,2.2.75,4.19,1.81,6.06l-4.84-1.2c-.55,1.89,2.03,3.43,2.41,4.55.56,1.62-2.61.26-1.81,1.8.43.82,1.92.52,1.81,1.52l-3.02.92,4.23.31-1.2,1.81,3.02-.6c.5,1.83-2.22,1.24-1.82,2.72.22.8,2.37-.53,1.82,1.51l-2.41.91,1.76,3.88c-3.25,2.19-5.92,3.79.05,4.31-.67,1.73-.55,2.22.6,3.62l-5.46-1.5c.55,2.69,3.35,2.15,5.46,2.12.25,1.3-.78,1.66-1.81,1.83l1.83,2.71c-2.01.52-.62,1.32-.96,2.13-.53,1.29-3.48,2.07.33,2.71-1.17.76-.8,1.89-1.19,2.91-.14.37-.96.29-1.09.73-.54,1.81,1.12,4.04.46,5.75,1.19.06,2.17-.49,1.81,1.21l-3.63,1.23c0,3.01,2.54.37,3.62,2.12-2.86,1.04-1.21,2.75-1.21,5.15l-1.81-1.21c.68,1.75.15,2.22-1.2,3.33l1.51.91,1.2-1.23,1.47.66c-.35,2.58,2.01,7.73-2.36,7.84,2.26,2.5,3.54,3.51,2.64,7.13-.25,1-1.43,2.01-1.42,2.87,0,.98,1.84,2.39,1.2,3.93-.98-.09-4.58.02-4.86.91-.8,2.57,3.35,1.53,4.86,2.13-.72.67-2.5,6-2.42,6.34.12.55,1.44.66,1.68,1.08.31.53-.01,1.4.18,1.79.44.86,2.03,1.02,1.11,3.48l-1.76.04c.68.73,2.65,6.08.91,6.04-.33,0-4.13-4.33-2.73-5.44-1.57-.32-.93.32-1.5,1.21L.02,199.71c-.27-1.8,4.15-1.04,4.27-1.85l-.92-3.91c-1.17,1-1.66,2.19-.97,3.59l-1.76.65c1.14-1.97-.43-2.7-.62-3.98-.28-1.89,1.44-4.52.01-6.92l1.82.29-1.83-3.01c.99-1.88,2.17-3.18.01-4.86l1.26-.66-.65-5.09c1.98,2.2,2.5.23,3.34.2.58-.02,1.03,1.4,2.11,1.01l-2.8-3.59-2.04.57,1.81-1.51c-1.81-.95-2.52-2.29-3.03-4.25v-.9s1.82,0,1.82,0c.12-1.32-1.1-2.08-1.22-3.38s.67-2.48.61-3.59c-.16-2.8-1.86-7.97.55-9.65l-1.01-9.75,1.05-.61,3.64,2.13c.04-2.84-4.27-3.23-4.71-5-.31-1.22.47-3.17.43-4.41-.21-7.89.13-14.39.47-21.28.08-1.68-1.36-4.79.78-5.38-2.96-1.94-.22-5.59-.22-6.67,0-.63-1.94-3.91-.99-5.76h4.85c-.59-2.13-2.59-.13-3.66-.86l-.58-2.77c1.82-.49,3.4,2.33,4.84.3-6.93.07-4.79-10.12-4.81-15.17,0-1.26-.73-2.59-.63-3.59.16-1.59,2.43-3.37.59-6.03,1.38-.09,1.12-3.25,2.41-2.17ZM4.88,64.26h-1.81v1.21h1.81v-1.21ZM8.52,78.79l-.92-1.2-1.5.91,2.42.29ZM4.28,156.98c-3.03-.24-3.03,2.04,0,1.81v-1.81Z"/>
    <path fill="currentColor" d="M7.91,356.97c.22,1,1.12,3.03,1.1,3.21-.12.92-2.06,2.61-1.7,4.06l1.81.3-1.8,1.83,1.85,1.3c-.21,3.39-3.43,4.33-3.07,8.09l2.94.08c.94.59-.81,8.07-.81,9.63l-2.74.89,3.04.31c-.55,3.21,2.65,8-2.43,8.5.65.87.1,3.35.3,3.66.52.78,3.19.36-.3,2.68,2.94,1.6,3.4,3.25.61,5.46l1.21.6-1.8,1.82,2.45,1.24c-.08,2.64-1.14,3.4-3.07,4.82l2.41-.91-.06,2.36-4.77,1.88c-.63-3.17-2.83-8.77,1.56-9.66l-.35-1.85,1.82.29-.62-2.72-3.02.61c.32-2.94-.43-6.62-.05-9.43.16-1.16,1.27-.82,1.28-1.21.02-.75-.87-1.85-.67-2.89.05-.29,4.91-3.66.06-3.43l.07-5.08,1.75-.68c.3-1.23-1.6-1.13-1.79-1.91-.17-.7-.2-9.01-.07-10.19.65-6.08.43-11.03.29-17.47-.05-2.19,1.32-4.35-.25-7.08l3.64.9c-1.01-1.33,0-2.62-.03-3.56,0-.16-1.86-1.03-1.71-2.52.08-.8,1.93-.49,1.72-1.47l-2.92-1.64c.41-3.55-.49-7.3-.61-10.75-.05-1.35.83-3.1.83-3.68-.01-.91-1.45-5.16-.92-5.75l2.42.61-1.81,1.8c2.56.48,3.94,1.63,6.66.62-.33,1.99.06,5.06-.18,6.87-.15,1.09-2.33,1.71.2,2.59.61,2.17-1.04,2.07-1.13,2.35-.18.57.85,1.99.89,2.51.24,3.04.3,4.55-2.2,6.28h2.43c.77,3.25-1.83,7.29,0,9.7l-2.42-.6,1.21,1.22c-.77,2.14-2.58.57-4.24.6-.5,1.51,1.45,1.47,1.69,1.91.09.16-1.02,2.48,1.33,2.94-.2-.92.13-2.03-.61-3.02l3.03,1.22c.2,1.54-1.21,2.04-2.42,1.81ZM7.91,338.79c.62-.63-1.2-2.43-1.81-1.81s1.2,2.43,1.81,1.81ZM6.7,366.66c-.32-1.2-1.29-1.36-2.42-1.2.32,1.2,1.29,1.36,2.42,1.2ZM5.49,410.91h-.9s-1.52,1.81-1.52,1.81c1.12.15,1.78.04,2.42-.91v-.9Z"/>
    <path fill="currentColor" d="M8.52,250.31c-.86,1.92-1.44,3.6-1.07,5.76.32,1.85.23,3.87.51,5.39s1.84,3.55,1.71,5.55c-.08,1.22-1.62,2.19-1.56,2.99.04.5,2.16,3.08,1.64,4.55l-2.43.3c1.65.98,2.61,1.81,2.42,3.94-.32.32-2.98-.74-2.43.91.18.55.94.2,1.22.73,1.83,3.47.7,6.18.6,9.88h-3.02c2.45-.4,1.74.5,1.87,2.39l1.8.35c-.07,1.37.54,2.98-1.24,2.72l1.25.94-.6,1.71-2.47.97,2.94.7.69,5.37-2.37-1.27.25-1.77c-1.5.18-2.34,1.63-2.12,3.03l4.24.61c-1.57,4.84.64,9-.33,13.95h-3.29s1.82-2.43,1.82-2.43c-.84.22-5.31-2.97-5.45-3.35.12-1.56,2.32-.44,2.42-2.71l-2.42-1.82c1.53-.51,3.6-.89,3.64,1.2l1.2-.92-2.73-3.32c-.15-.06-.54,2.92-2.12,0l1.21-.6-2.42-1.53,1.26-.66-.38-2.67c2.08-.96,4.46-2.7.33-1.81-1.05-1.69,1.22-5.47,1.19-5.77s-2.45-1.06-2.33-4.88.24-7.98.78-12.3c.15-1.21-.71-2.56.03-3.72s2.75-.39,1.53-3.64l-2.42.61v-8.49s2.41,1.82,2.41,1.82l1.23-3.92-1.54-.92c-3.29,5.69-4.05-3.27-2.41-6.07l.91,2.42c1.16-.89,1.56-1.16,3.02-.61l-.6-2.42,1.81.61,1.82-1.82ZM7.91,282.42c-.98-2.02-2.62-2.77-4.85-2.41v2.42c2.13-2.23,2.46-.04,4.85,0ZM6.7,285.45l-1.51-1.8-.9.91v.9s2.42,0,2.42,0ZM7.31,295.77h-3.33s-.3,1.21-.3,1.21c1.2-.56,3.09.59,3.63-1.21Z"/>
    <path fill="currentColor" d="M4.88,506.06c-.24.16-1.32.23-1.81.61-.42-.32-1.19-9.36-1.08-10.48.26-2.73,2.65-.64,2.28-2.85l-1.84-.39c-.03-2.14-1.4-12.17-.44-12.84.47-.32,2.24.33,1.66-1s-2.24-.11-2.41-.31c1.16-2.37-.97-6.52,1.2-7.88-.2,2.06,1.11,3.12,3.03,2.12-2.45-.76-1.63-2.51-2.19-3.35s-2.72-1.27-2.06-3.62l2.33-.09.7-2.33c-1.88-.54-1.46,2.95-2.71,1.2s-.9-6.28-.23-8.38c1.61-.28,2.77-.58,3.24,1.12l2.12-2.42c.53,2.31-1.92,2.42-.63,3.95l-1.79.3c.64,1.7,2.08-.02,2.43,2.1.26,1.62.13,14.83-.3,15.49-.26.39-1.02.59-1.52.59,1.72,1.48,2.24,1.63,1.82,4.23-1.07-.23-2.05-.86-2.42.59.61.03,1.53.39,1.87.86.93,1.26,1.42,14.98,1.19,17.07-.12,1.07-.36,1.74-1.25,2.4l1.18.32.03,1.18c-1.42-.19-1.96,1.52-2.42,1.83.18-.14,3.11-1.66,3.02-.3l-1.8,1.82c1.24.58,1.42.49,1.21,2.12l-3.03.3c0,.41,2.84.42,3.45,2.52.12.4.83,7.92.79,8.33-.13,1.39-1.38,2.44-1.54,3.36-.14.81,1.54,1.9-.27,3.65l2.42,1.53-1.82.3c-.68.59,4.66,4.93,0,5.15,2.59,3.03,2.57,7.36,2.37,11.15-7.5,1.03-2.73-4.99-2.98-5.38-.03-.05-.79.16-1.2-.43-2.67-3.78.95-4.06.6-5.33-.16-.58-1.66-.63-1.83-1.34-.54-2.15.22-6.88,0-9.57-.23-2.97-1.33-6.66-1.59-9.2-.23-2.36.76-4.76-.24-7.16,2.82.13,2.3-1.42,2.43-1.52ZM3.59,457.05l-1.74-.08c-.15,1.53.97,2.05,2.42,1.81l-.69-1.73ZM6.09,490.3h-1.81s0,1.81,0,1.81l1.81-.61v-1.2Z"/>
    <path fill="currentColor" d="M10.94,608.48c-1.24,2.08.64,3.99.59,5.15-.03.78-.92,1.34-1.02,1.91-.81,4.58,1.11,10.92.97,16.2-.15,6.1-.66,12.1-.93,18.35l.37,23.23-1.81-.6c2.1,3.8,1.58,11.32-2.72,13.33-1.98-.41-.65-7.98,1.49-8.78l-2.45-2.41c.24-1.89,2.23-1.76,2.46-2.56,2.82-10.01-.59-27.01.21-37.95.42-5.75-.05-10.92-.27-17.09-.05-1.25.6-2.64.5-3.55-.09-.82-1.19-1.74-1.02-2.45.05-.22,3.28-3.14,3.6-2.76Z"/>
    <path fill="currentColor" d="M11.38,1.4c4.19,3.59,1.81,10.3,1.38,14.98l-4.84.29c1.19,1.68,3.01-.33,3.86,1.5,1.46,3.11-1.33,3.55-1.44,3.98-.25.96,2.63,5.39,2.41,6.03l-4.84.92.61,1.2-3.63-.61,1.2-.9c-1.21-1.1-1.74-3.26-1.82-4.88-.07-1.34.32-5.89.6-7.12.17-.74,1.53-.69,1.83-1.34v-.89c-.65-.1-1.3-.16-1.59-.88-.22-.54-.29-9.41-.16-10.3.34-2.48.73-1.61,2.11-2.41C7.32.83,7.36.02,7.67,0c.44-.02,3.29,1.04,3.71,1.4ZM9.73,12.74c.15-1.53-.97-2.05-2.42-1.81l.69,1.73,1.74.08ZM10.33,27.28c.37-.4-.28-2.4-.91-2.41-1.81-.02-.17,3.56.91,2.41Z"/>
    <path fill="currentColor" d="M6.98,228.23c.2.24.77.26.83.39.22.53-.43,1.26-.32,1.88s.89,1.06.96,1.9c.06.67-.5,1.57-.46,2.42.15,2.74.17,5.5.53,8.22-1.23.14-2.84-.71-2.43,1.21l2.16.57.26,3.68c-1.83-1.38-3.91.42-5.63.03-.95-.22-4.13-6.43-.43-6.09l.09,4.16,2.33.69-1.82-1.51,1.77-.34c1.03-3.24-2.1-2.98-1.78-6.02l-.6,1.2c-3.35.6.39-7.36,0-7.87l-2.32-.71.03-1.62c2.45-1.95,3.46-.19,5.92-.72l-4.23-2.41c3.13.1,3.06-1.48,5.12.95Z"/>
    <path fill="currentColor" d="M7.26,546.7l.63,2.14,1.82-.35c1.43,3.37-.62,5.87-1.18,9.08l1.81-.6c.74.9-.88,6.42-.58,7.49.14.47,1.22.32,1.21.69-.02.8-.92,1.35-1.1,2.31-.15.79.66,2.28.49,3.02-.11.46-5.73,3.39-.03,2.85-.69,4.3,3.85,11.37-1.82,13.03-.39,1.95,1.11,1.41,1.76,2.47,1.09,1.77.7,4.36.42,6.35-.2,1.42-2.3,2.5.28,3.34-1.26,2.52-.3,4.76.36,7.26l-3.11,2.1c.52-2.73-1.81-7.69.91-8.79l-1.24-.69-.29-17.22,1.51-.88c-3.44-2.36-1.38-4.16-1.4-6.56-.03-2.89-1.7-7.21-1.53-10.45.36-5.46.02-10.9-.71-16.32l1.78-.27Z"/>
    <path fill="currentColor" d="M3.66,206.68l.62,2.42,2.41-1.21.61,4.24-3.63-.61.61-1.81c-1.31.06-2.66.45-2.43-1.21l-1.19.9c1,3.48,3.55,2.89,6.53,4.07l1.25,8.02c-1.16,1.59-3.11,1.48-4.76.95l1.2,3.03c-2.8.55-2.26-2.85-4.24-3.94l1.81-.59-1.78-3.7,1.18-.56c-2.92-1.88-1.23-5.53-1.75-8.41l.53-.72c2.44.96,1.14-1.06,3.04-.87Z"/>
    <path fill="currentColor" d="M11.55,30.93c.75,1.53-1.19,1-1.25,1.58-.1.89.8,1.73.25,3.11-.36.91-2.08.59-1.38,2.24.25.6,1.29.71,1.57,1.14,2.18,3.43.83,3.84.79,6.79-.03,2.07,1.63,4.3-1.17,5.73l-1.21-3.63,1.81-.29-4.83-3.35.35-1.19,3.24-.69-.23-2.96c-1.27-1.62-3.67,1.7-4.9-3.02-1.73-6.64,2.63-4.66,6.98-5.46Z"/>
    <path fill="currentColor" d="M4.15,441.95c.6.37.29,2.48,2.52,1.1l.62,2.1-2.4.3c2.34,2.14,1.9,4.3,1.81,7.26-.7-.12-1.15-2.27-2.41-1.21s2.58,1.66,1.81,3.02l-4.84.61c1.25-2.7.26-3.59.13-6.29l2.89-2.18c-4.37,1.73-2.04-2.28-3.03-4.85.87.1,2.2-.3,2.9.13Z"/>
    <path fill="currentColor" d="M7.3,420.61l-2.42.6,2.43,1.21-1.26,1.58.38,3.26c-1.06,1.59-2.87,1.25-4.57,1.22l4.24,2.12-1.81,1.51c4.72.27,1.29,3.03,1.15,5.17-.08,1.19,1.95.67,1.27,2.4-.61,1.55-3.53-.06-4.8.91-.26-.25-1.18-6.23-1.15-6.98.07-1.67.33-4.86.48-6.62.43-4.91.14-9.24,6.08-6.38ZM4.28,425.45c.14-1.12.04-1.78-.91-2.42h-.9s0,2.42,0,2.42h1.81Z"/>
    <path fill="currentColor" d="M6.7,56.38c-.1.1-.86-.11-1.2.02l.3,1.8-.96-2.42-1.46.39-.86-.77.56-6.89c1.87-.39,2.42,1.18,3.69,2.09.52.37,3.13.35,1.4,1.56-1.01.71-2.24.52-3.28-.02l.38,1.86,2.65-.04c.1.09-1.05,2.26-1.21,2.42.1-.11,2.27-1.16,2.63-1.32.75-.32,1.23-.63,1.61.41.06.16-2.16.59-1.22,2.73-.38-.47-4.27-.41-3.02-1.82Z"/>
    <path fill="currentColor" d="M9.12,59.41c-.72,2.17,2.01,2.04,2.36,3.45l-.54,2.61c-1.79.11-1.93-1.13-1.21-2.41l-1.7-.13c-.08-1.67-.13-1.95-1.93-1.71.3-.9,2.36-2.43,3.02-1.81Z"/>
    <path fill="currentColor" d="M4.88,43.05c.22.91.54,2.09,1.03,2.86.73,1.15,2.9,1.31,1.09,2.59-1.14.16-5.47-5.7-2.12-5.45Z"/>
    <polygon fill="currentColor" points="3.67 407.28 3.67 409.09 2.47 409.09 1.86 407.28 3.67 407.28"/>
    <path fill="currentColor" class="cls-1" d="M4.28,156.98v1.81c-3.03.24-3.03-2.04,0-1.81Z"/>
    <polygon fill="currentColor" class="cls-1" points="8.52 78.79 6.1 78.5 7.6 77.59 8.52 78.79"/>
    <rect fill="currentColor" class="cls-1" x="3.07" y="64.26" width="1.81" height="1.21"/>
    <path fill="currentColor" class="cls-1" d="M5.49,410.91v.9c-.64.95-1.3,1.06-2.42.91l1.52-1.81h.9Z"/>
    <path fill="currentColor" class="cls-1" d="M7.91,338.79c-.61.62-2.43-1.18-1.81-1.81s2.43,1.18,1.81,1.81Z"/>
    <path fill="currentColor" class="cls-1" d="M6.7,366.66c-1.13.16-2.1,0-2.42-1.2,1.13-.16,2.1,0,2.42,1.2Z"/>
    <path fill="currentColor" class="cls-1" d="M7.91,282.42c-2.39-.04-2.71-2.22-4.84,0v-2.42c2.22-.36,3.86.39,4.84,2.41Z"/>
    <path fill="currentColor" class="cls-1" d="M7.31,295.77c-.54,1.79-2.43.65-3.63,1.21l.3-1.21h3.33Z"/>
    <polygon class="cls-1" points="6.7 285.45 4.28 285.46 4.28 284.56 5.19 283.65 6.7 285.45"/>
    <path fill="currentColor" class="cls-1" d="M3.59,457.05l.69,1.73c-1.45.24-2.57-.28-2.42-1.81l1.74.08Z"/>
    <polygon fill="currentColor" class="cls-1" points="6.09 490.3 6.1 491.5 4.28 492.12 4.28 490.3 6.09 490.3"/>
    <path fill="currentColor" class="cls-1" d="M9.73,12.74l-1.74-.08-.69-1.73c1.45-.24,2.57.28,2.42,1.81Z"/>
    <path fill="currentColor" class="cls-1" d="M10.33,27.28c-1.07,1.15-2.71-2.43-.91-2.41.62,0,1.28,2.01.91,2.41Z"/>
    <path fill="currentColor" class="cls-1" d="M4.28,425.45h-1.81s0-2.42,0-2.42h.9c.95.64,1.06,1.3.91,2.42Z"/>
  </g>
</svg>